<svg width="71" height="71" viewBox="0 0 71 71" fill="none" xmlns="http://www.w3.org/2000/svg">
<g clip-path="url(#clip0_1045_194)">
<path d="M0 29.9215C0 29.0021 0 28.0654 0 27.146C0.034668 27.0419 0.104004 26.9378 0.121338 26.8337C1.05737 20.693 4.45483 16.5819 10.2964 14.5003C10.6604 14.3615 10.8164 14.188 10.8857 13.789C11.1111 12.4707 11.2498 11.1176 11.7004 9.86869C15.2712 0.0678073 27.093 -3.14133 35.1186 3.46776C35.5173 3.79735 35.7773 3.78 36.1934 3.55449C39.5735 1.75044 43.179 1.12595 46.9231 1.85452C53.7353 3.19021 58.1902 7.23199 60.3049 13.8584C60.4263 14.2574 60.6343 14.4482 61.0156 14.6043C66.7185 16.79 70.0813 20.9012 70.8613 26.9725C71.936 35.351 65.2278 43.1396 56.7861 43.3651C54.342 43.4345 51.8806 43.3825 49.4365 43.3998C49.1938 43.3998 48.9512 43.3998 48.7085 43.3998C48.7085 46.158 48.7085 48.8293 48.7085 51.5528C50.9272 51.5528 53.094 51.5354 55.2607 51.5701C55.8501 51.5875 56.0928 51.3967 56.3008 50.8416C57.6702 47.1814 61.7956 45.1865 65.5918 46.3141C69.3706 47.4416 71.7107 51.4834 70.792 55.317C69.9946 58.6823 67.2038 61.0067 63.7197 61.2322C60.5303 61.4404 57.4448 59.4108 56.2834 56.2884C56.1101 55.8027 55.8501 55.6813 55.3821 55.6813C52.5913 55.6986 49.7832 55.6986 46.9924 55.6813C45.3284 55.6813 44.531 54.8833 44.531 53.2181C44.531 50.1824 44.531 47.1641 44.531 44.1284C44.531 43.8855 44.531 43.6427 44.531 43.4172C42.1562 43.4172 39.9028 43.4172 37.6321 43.4172C37.6321 47.6151 37.6321 51.7783 37.6321 55.9588C37.8401 56.0456 38.0654 56.1323 38.2734 56.219C40.9082 57.3119 42.5549 59.2547 43.0229 62.0649C43.5256 65.0312 42.4856 67.4597 40.1455 69.3505C38.9668 70.3046 37.5454 70.7209 36.072 70.9637C35.708 70.9637 35.3267 70.9637 34.9626 70.9637C34.7373 70.9117 34.512 70.8596 34.2866 70.825C31.3745 70.2525 29.3291 68.6046 28.3411 65.8118C27.3704 63.071 27.925 60.5384 29.7971 58.3006C30.7505 57.1558 31.9985 56.4272 33.3853 55.9762C33.3853 51.7609 33.3853 47.5977 33.3853 43.4172C31.0798 43.4172 28.8264 43.4172 26.5037 43.4172C26.5037 43.6947 26.5037 43.9376 26.5037 44.1978C26.5037 47.1814 26.5037 50.165 26.5037 53.1487C26.5037 54.918 25.741 55.6986 23.9902 55.6986C21.2168 55.6986 18.4434 55.716 15.6699 55.6813C15.1499 55.6813 14.9072 55.8374 14.7166 56.3231C13.6765 58.9945 11.7004 60.6251 8.89233 61.0935C5.91089 61.5965 3.44946 60.5557 1.56006 58.1792C0.728027 57.1211 0.34668 55.8721 0.017334 54.6058C0.017334 53.964 0.017334 53.3048 0.017334 52.663C0.0520019 52.5589 0.121338 52.4548 0.138672 52.3334C0.832031 48.8467 3.53613 46.2794 6.84692 46.0018C10.4004 45.6896 13.4685 47.5977 14.7859 50.9977C14.9592 51.4314 15.1846 51.5354 15.6006 51.5181C17.6287 51.5007 19.6741 51.5181 21.7021 51.5007C21.9102 51.5007 22.1008 51.4834 22.3088 51.466C22.3088 48.7426 22.3088 46.0712 22.3088 43.3651C22.0142 43.3651 21.7541 43.3651 21.5115 43.3651C19.1367 43.3651 16.7446 43.3998 14.3699 43.3478C8.40698 43.209 2.99878 39.3234 0.988037 33.703C0.520019 32.5061 0.312012 31.2051 0 29.9215ZM35.4653 39.2366C42.2082 39.2366 48.9685 39.2366 55.7114 39.2366C56.4221 39.2366 57.1501 39.2019 57.8435 39.0979C62.7317 38.404 66.5972 34.1367 66.8225 29.1756C67.0652 24.093 63.7024 19.4441 58.8315 18.2992C57.4795 17.9869 56.8035 17.2584 56.5435 15.9053C55.2434 9.40032 48.9512 4.97692 42.4336 5.87895C40.3362 6.17384 38.4294 6.91975 36.696 8.13402C35.8813 8.70646 35.032 8.82788 34.1826 8.25544C33.8013 7.99524 33.5066 7.63096 33.1772 7.30138C31.0452 5.20243 28.4797 4.10959 25.4983 4.17897C19.3447 4.3004 14.7686 9.24421 14.9939 15.4196C15.0632 17.189 14.5432 17.8308 12.7751 18.1604C6.98559 19.2359 3.08545 25.1511 4.40283 30.8929C5.54687 35.8714 9.7417 39.2366 14.9246 39.254C21.7715 39.254 28.6184 39.2366 35.4653 39.2366ZM7.64429 50.165C5.72021 50.1477 4.14282 51.7089 4.16016 53.617C4.16016 55.4905 5.72021 57.0517 7.59228 57.0864C9.48169 57.1211 11.0937 55.5078 11.0937 53.617C11.0764 51.7262 9.55102 50.1824 7.64429 50.165ZM66.8398 53.5997C66.8225 51.6916 65.2451 50.1477 63.321 50.165C61.4316 50.1824 59.9062 51.7436 59.9062 53.6344C59.9236 55.5078 61.4836 57.069 63.3557 57.0864C65.2451 57.1037 66.8398 55.4905 66.8398 53.5997ZM38.9668 63.3312C38.9668 61.4404 37.4241 59.8965 35.5347 59.8965C33.6106 59.8792 32.0332 61.4404 32.0505 63.3485C32.0505 65.222 33.6106 66.7832 35.4827 66.8179C37.3547 66.8352 38.9668 65.222 38.9668 63.3312Z" fill="black"/>
</g>
<defs>
<clipPath id="clip0_1045_194">
<rect width="71" height="71" fill="white"/>
</clipPath>
</defs>
</svg>
