<svg width="1440" height="295" viewBox="0 0 1440 295" fill="none" xmlns="http://www.w3.org/2000/svg">
<mask id="mask0_1008_4238" style="mask-type:alpha" maskUnits="userSpaceOnUse" x="707" y="0" width="733" height="227">
<path d="M1439.47 226.293V0L707 136.154V163.259H905.966L971.466 226.293H1439.47Z" fill="#C4C4C4"/>
</mask>
<g mask="url(#mask0_1008_4238)">
<path opacity="0.7" d="M368.761 233.519H824.054L836.907 216.554L845.886 204.707L851.344 197.504C852.576 195.609 854.337 193.903 855.921 192.102C856.802 191.249 857.858 190.396 859.09 189.543C860.147 188.69 861.203 187.838 862.612 187.079C872.295 180.729 887.084 175.233 904.162 171.536C912.613 169.736 921.416 168.219 930.571 167.271C939.726 166.324 948.881 165.85 958.213 165.755H1158.92L1158.22 148.127V145.947C1158.22 145.189 1158.39 144.526 1158.57 143.767C1158.57 143.388 1158.75 143.104 1158.92 142.725C1159.1 142.346 1159.27 142.062 1159.45 141.682L1159.98 140.64C1160.15 140.261 1160.33 139.976 1160.68 139.597C1162.8 137.038 1166.32 134.574 1171.07 132.395C1180.4 128.13 1194.49 125.097 1210.51 123.77C1211.56 123.675 1212.62 123.581 1213.68 123.486L1216.85 123.296C1218.96 123.201 1221.07 123.107 1223.36 123.012L1230.23 122.917H1435.34C1437.63 122.917 1439.91 122.917 1442.2 122.917C1444.49 122.917 1446.78 123.012 1449.07 123.012L1452.59 123.201L1455.94 123.391C1457.17 123.486 1458.23 123.486 1459.46 123.581L1462.98 123.865C1481.47 125.286 1499.95 128.698 1514.56 133.153C1522.14 135.427 1528.47 138.081 1533.58 140.829L1535.52 141.872L1537.28 143.009C1538.33 143.767 1539.39 144.526 1540.27 145.284C1541.33 146.042 1542.03 146.8 1543.09 147.653L1545.73 149.833L1569.14 169.83L1594.32 191.249H1846.44L1920.21 231.623H1632.88C1629.71 231.623 1626.72 231.623 1623.55 231.623C1620.38 231.528 1617.38 231.528 1614.21 231.339C1611.05 231.244 1607.88 230.96 1604.71 230.77C1592.21 229.823 1579.35 228.117 1567.03 225.652C1554.88 223.283 1543.44 220.25 1533.23 216.744C1523.19 213.332 1514.74 209.541 1508.05 205.56L1505.59 204.139L1503.47 202.622C1502.06 201.675 1500.66 200.632 1499.42 199.59L1496.25 196.557C1495.37 195.514 1494.49 194.566 1493.44 193.524L1472.13 169.925L1453.82 149.738H1249.95L1256.64 159.5V159.879V172.958C1256.64 173.147 1256.64 173.337 1256.64 173.527C1256.28 177.033 1254.35 180.445 1250.3 183.573C1246.25 186.795 1240.44 189.733 1233.04 192.292C1225.65 194.851 1216.67 196.841 1206.81 198.263L1203.11 198.737C1201.88 198.926 1200.47 199.021 1199.24 199.21C1198.01 199.305 1196.6 199.495 1195.37 199.59L1191.32 199.874C1188.68 200.063 1186.04 200.253 1183.22 200.348L1174.77 200.537H954.339L946.593 216.365L939.726 230.391L937.614 234.656C936.381 237.12 935.325 239.679 933.564 242.143C932.156 244.702 929.515 247.071 927.05 249.536C924.233 252 921.064 254.464 917.19 256.738C909.62 261.477 899.76 265.932 888.845 269.817C877.401 273.703 864.724 276.925 851.344 279.295C844.653 280.527 837.787 281.38 830.921 282.138C824.054 282.707 817.188 283.465 810.146 283.465C803.103 283.654 796.237 283.56 789.37 283.654H276.858L368.761 233.519Z" fill="url(#paint0_linear_1008_4238)"/>
<path opacity="0.7" d="M368.761 241.517H824.054L836.907 224.485L845.886 212.592L851.344 205.361C852.576 203.458 854.337 201.746 855.921 199.938C856.802 199.081 857.858 198.225 859.09 197.369C860.147 196.512 861.203 195.656 862.612 194.895C872.295 188.52 887.084 183.002 904.162 179.291C912.613 177.483 921.416 175.961 930.571 175.01C939.726 174.058 948.881 173.582 958.213 173.487H1158.92L1158.22 155.79V153.602C1158.22 152.841 1158.39 152.174 1158.57 151.413C1158.57 151.033 1158.75 150.747 1158.92 150.367C1159.1 149.986 1159.27 149.701 1159.45 149.32L1159.98 148.273C1160.15 147.893 1160.33 147.607 1160.68 147.227C1162.8 144.658 1166.32 142.184 1171.07 139.996C1180.4 135.714 1194.49 132.67 1210.51 131.338C1211.56 131.242 1212.62 131.147 1213.68 131.052L1216.85 130.862C1218.96 130.767 1221.07 130.671 1223.36 130.576L1230.23 130.481H1435.34C1437.63 130.481 1439.91 130.481 1442.2 130.481C1444.49 130.481 1446.78 130.576 1449.07 130.576L1452.59 130.767L1455.94 130.957C1457.17 131.052 1458.23 131.052 1459.46 131.147L1462.98 131.433C1481.47 132.86 1499.95 136.285 1514.56 140.757C1522.14 143.04 1528.47 145.705 1533.58 148.464L1535.52 149.51L1537.28 150.652C1538.33 151.413 1539.39 152.174 1540.27 152.936C1541.33 153.697 1542.03 154.458 1543.09 155.314L1545.73 157.503L1569.14 177.578L1594.32 199.081H1846.44L1920.21 239.614H1632.88C1629.71 239.614 1626.72 239.614 1623.55 239.614C1620.38 239.518 1617.38 239.518 1614.21 239.328C1611.05 239.233 1607.88 238.948 1604.71 238.757C1592.21 237.806 1579.35 236.093 1567.03 233.619C1554.88 231.241 1543.44 228.196 1533.23 224.676C1523.19 221.25 1514.74 217.445 1508.05 213.448L1505.59 212.021L1503.47 210.499C1502.06 209.547 1500.66 208.501 1499.42 207.454L1496.25 204.41C1495.37 203.363 1494.49 202.412 1493.44 201.365L1472.13 177.674L1453.82 157.408H1249.95L1256.64 167.208V167.588V180.718C1256.64 180.909 1256.64 181.099 1256.64 181.289C1256.28 184.81 1254.35 188.235 1250.3 191.375C1246.25 194.61 1240.44 197.559 1233.04 200.128C1225.65 202.697 1216.67 204.695 1206.81 206.122L1203.11 206.598C1201.88 206.788 1200.47 206.883 1199.24 207.074C1198.01 207.169 1196.6 207.359 1195.37 207.454L1191.32 207.74C1188.68 207.93 1186.04 208.12 1183.22 208.215L1174.77 208.406H954.339L946.593 224.295L939.726 238.377L937.614 242.658C936.381 245.132 935.325 247.701 933.564 250.175C932.156 252.744 929.515 255.122 927.05 257.596C924.233 260.07 921.064 262.544 917.19 264.827C909.62 269.585 899.76 274.056 888.845 277.957C877.401 281.858 864.724 285.093 851.344 287.472C844.653 288.709 837.787 289.565 830.921 290.326C824.054 290.897 817.188 291.658 810.146 291.658C803.103 291.849 796.237 291.754 789.37 291.849H276.858L368.761 241.517Z" fill="url(#paint1_linear_1008_4238)"/>
<path opacity="0.7" d="M368.761 246.559H824.054L836.907 229.528L845.886 217.635L851.344 210.404C852.576 208.501 854.337 206.788 855.921 204.981C856.802 204.124 857.858 203.268 859.09 202.412C860.147 201.555 861.203 200.699 862.612 199.938C872.295 193.563 887.084 188.045 904.162 184.334C912.613 182.526 921.416 181.004 930.571 180.052C939.726 179.101 948.881 178.625 958.213 178.53H1158.92L1158.22 160.833V158.645C1158.22 157.883 1158.39 157.217 1158.57 156.456C1158.57 156.076 1158.75 155.79 1158.92 155.41C1159.1 155.029 1159.27 154.744 1159.45 154.363L1159.98 153.316C1160.15 152.936 1160.33 152.65 1160.68 152.27C1162.8 149.701 1166.32 147.227 1171.07 145.039C1180.4 140.757 1194.49 137.712 1210.51 136.38C1211.56 136.285 1212.62 136.19 1213.68 136.095L1216.85 135.905C1218.96 135.809 1221.07 135.714 1223.36 135.619L1230.23 135.524H1435.34C1437.63 135.524 1439.91 135.524 1442.2 135.524C1444.49 135.524 1446.78 135.619 1449.07 135.619L1452.59 135.809L1455.94 136C1457.17 136.095 1458.23 136.095 1459.46 136.19L1462.98 136.476C1481.47 137.903 1499.95 141.328 1514.56 145.8C1522.14 148.083 1528.47 150.747 1533.58 153.507L1535.52 154.553L1537.28 155.695C1538.33 156.456 1539.39 157.217 1540.27 157.978C1541.33 158.74 1542.03 159.501 1543.09 160.357L1545.73 162.545L1569.14 182.621L1594.32 204.124H1846.44L1920.21 244.656H1632.88C1629.71 244.656 1626.72 244.656 1623.55 244.656C1620.38 244.561 1617.38 244.561 1614.21 244.371C1611.05 244.276 1607.88 243.99 1604.71 243.8C1592.21 242.849 1579.35 241.136 1567.03 238.662C1554.88 236.284 1543.44 233.239 1533.23 229.719C1523.19 226.293 1514.74 222.487 1508.05 218.491L1505.59 217.064L1503.47 215.542C1502.06 214.59 1500.66 213.544 1499.42 212.497L1496.25 209.452C1495.37 208.406 1494.49 207.454 1493.44 206.408L1472.13 182.716L1453.82 162.45H1249.95L1256.64 172.25V172.631V185.761C1256.64 185.951 1256.64 186.142 1256.64 186.332C1256.28 189.852 1254.35 193.278 1250.3 196.417C1246.25 199.652 1240.44 202.602 1233.04 205.171C1225.65 207.74 1216.67 209.738 1206.81 211.165L1203.11 211.641C1201.88 211.831 1200.47 211.926 1199.24 212.117C1198.01 212.212 1196.6 212.402 1195.37 212.497L1191.32 212.783C1188.68 212.973 1186.04 213.163 1183.22 213.258L1174.77 213.449H954.339L946.593 229.338L939.726 243.42L937.614 247.701C936.381 250.175 935.325 252.744 933.564 255.218C932.156 257.787 929.515 260.165 927.05 262.639C924.233 265.113 921.064 267.587 917.191 269.87C909.62 274.627 899.761 279.099 888.845 283C877.401 286.901 864.724 290.136 851.344 292.515C844.654 293.752 837.787 294.608 830.921 295.369C824.054 295.94 817.188 296.701 810.146 296.701C803.103 296.892 796.237 296.796 789.37 296.892H276.858L368.761 246.559Z" fill="url(#paint2_linear_1008_4238)"/>
<path opacity="0.7" d="M371.078 238.365H826.371L839.224 221.334L848.203 209.441L853.661 202.209C854.893 200.307 856.654 198.594 858.238 196.786C859.118 195.93 860.175 195.074 861.407 194.217C862.464 193.361 863.52 192.505 864.928 191.743C874.612 185.369 889.401 179.85 906.479 176.139C914.93 174.332 923.733 172.809 932.888 171.858C942.043 170.906 951.198 170.431 960.529 170.336H1161.24L1160.53 152.638V150.45C1160.53 149.689 1160.71 149.023 1160.89 148.262C1160.89 147.881 1161.06 147.596 1161.24 147.215C1161.41 146.835 1161.59 146.549 1161.77 146.168L1162.29 145.122C1162.47 144.741 1162.65 144.456 1163 144.075C1165.11 141.506 1168.63 139.033 1173.39 136.844C1182.72 132.563 1196.8 129.518 1212.82 128.186C1213.88 128.091 1214.94 127.996 1215.99 127.9L1219.16 127.71C1221.28 127.615 1223.39 127.52 1225.68 127.425L1232.54 127.33H1437.65C1439.94 127.33 1442.23 127.33 1444.52 127.33C1446.81 127.33 1449.1 127.425 1451.39 127.425L1454.91 127.615L1458.25 127.805C1459.49 127.9 1460.54 127.9 1461.77 127.996L1465.3 128.281C1483.78 129.708 1502.27 133.133 1516.88 137.605C1524.45 139.889 1530.79 142.553 1535.9 145.312L1537.83 146.359L1539.59 147.501C1540.65 148.262 1541.71 149.023 1542.59 149.784C1543.64 150.545 1544.35 151.306 1545.4 152.163L1548.04 154.351L1571.46 174.427L1596.64 195.93H1848.76L1922.53 236.462H1635.19C1632.02 236.462 1629.03 236.462 1625.86 236.462C1622.69 236.367 1619.7 236.367 1616.53 236.177C1613.36 236.081 1610.19 235.796 1607.02 235.606C1594.52 234.654 1581.67 232.942 1569.35 230.468C1557.2 228.089 1545.76 225.044 1535.54 221.524C1525.51 218.099 1517.06 214.293 1510.37 210.297L1507.9 208.87L1505.79 207.347C1504.38 206.396 1502.97 205.349 1501.74 204.303L1498.57 201.258C1497.69 200.211 1496.81 199.26 1495.75 198.213L1474.45 174.522L1456.14 154.256H1252.26L1258.95 164.056V164.437V177.567C1258.95 177.757 1258.95 177.947 1258.95 178.138C1258.6 181.658 1256.66 185.083 1252.61 188.223C1248.56 191.458 1242.75 194.407 1235.36 196.976C1227.97 199.545 1218.99 201.543 1209.13 202.971L1205.43 203.446C1204.2 203.637 1202.79 203.732 1201.56 203.922C1200.32 204.017 1198.92 204.208 1197.68 204.303L1193.63 204.588C1190.99 204.778 1188.35 204.969 1185.53 205.064L1177.08 205.254H956.656L948.909 221.143L942.043 235.225L939.93 239.507C938.698 241.98 937.641 244.549 935.881 247.023C934.472 249.592 931.831 251.971 929.367 254.445C926.55 256.918 923.381 259.392 919.507 261.676C911.937 266.433 902.077 270.905 891.161 274.806C879.718 278.707 867.041 281.942 853.661 284.32C846.97 285.557 840.104 286.414 833.237 287.175C826.371 287.746 819.505 288.507 812.462 288.507C805.42 288.697 798.554 288.602 791.687 288.697H279.174L371.078 238.365Z" fill="url(#paint3_linear_1008_4238)"/>
<path d="M276.858 276.355H789.315C796.181 276.355 803.223 276.45 810.088 276.165C817.13 276.165 823.996 275.404 830.861 274.834C837.727 274.073 844.593 273.217 851.282 271.981C864.661 269.603 877.336 266.37 888.779 262.471C899.87 258.572 909.552 254.102 917.122 249.347C920.995 246.97 924.163 244.592 926.98 242.12C929.445 239.647 932.085 237.27 933.494 234.702C935.078 232.229 936.134 229.662 937.543 227.189L939.655 222.91L946.697 208.835L954.443 192.954H1174.85L1183.3 192.763C1186.11 192.668 1188.75 192.478 1191.4 192.288L1195.44 192.003C1196.85 191.908 1198.08 191.717 1199.32 191.622C1200.55 191.432 1201.96 191.337 1203.19 191.242L1206.89 190.766C1216.75 189.34 1225.72 187.343 1233.12 184.775C1240.51 182.303 1246.14 179.259 1250.37 176.026C1254.42 172.888 1256.18 169.369 1256.71 165.946C1256.88 165.375 1256.71 164.804 1256.53 164.234L1256.18 162.522L1249.84 141.981H1453.87L1472.18 162.237L1493.48 185.916C1494.36 186.867 1495.24 187.913 1496.3 188.96L1499.47 192.003C1500.7 192.954 1502.11 194 1503.52 194.951L1505.63 196.472L1508.09 197.994C1514.78 201.988 1523.41 205.792 1533.27 209.216C1543.48 212.734 1554.92 215.682 1567.07 218.155C1579.39 220.627 1592.24 222.339 1604.74 223.29C1607.91 223.48 1611.08 223.766 1614.25 223.861C1617.42 224.051 1620.59 224.051 1623.58 224.051C1626.75 224.146 1629.74 224.051 1632.91 224.051H1920.21L1846.45 183.634H1594.35L1569.18 162.142L1545.77 142.076L1543.13 139.889C1542.25 139.128 1541.37 138.367 1540.31 137.606C1539.25 136.845 1538.37 136.085 1537.32 135.324L1535.56 134.278L1533.62 133.232C1528.52 130.474 1522.18 127.811 1514.61 125.529C1500 120.964 1481.51 117.635 1463.03 116.209L1459.51 115.924C1458.27 115.829 1457.22 115.733 1455.99 115.733L1452.64 115.543L1449.12 115.448C1446.83 115.353 1444.54 115.353 1442.25 115.353C1439.97 115.353 1437.68 115.353 1435.39 115.353H1230.3L1223.43 115.448C1221.15 115.543 1219.03 115.638 1216.92 115.733L1213.75 115.924C1212.7 116.019 1211.64 116.114 1210.58 116.209C1194.56 117.54 1180.3 120.583 1171.15 124.863C1166.4 127.05 1162.88 129.428 1160.76 132.09C1160.41 132.376 1160.24 132.756 1160.06 133.041L1159.53 134.087C1159.36 134.468 1159.18 134.753 1159 135.134C1158.83 135.514 1158.65 135.799 1158.65 136.18C1158.48 136.94 1158.48 137.606 1158.3 138.367V140.554L1159 158.243H958.316C948.985 158.243 939.655 158.813 930.677 159.764C921.523 160.715 912.545 162.142 904.271 164.044C887.195 167.752 872.407 173.268 862.725 179.64C861.317 180.401 860.26 181.257 859.204 182.112C858.148 182.968 857.092 183.824 856.035 184.68C854.451 186.487 852.691 188.294 851.458 190.101L846.001 197.328L837.023 209.12L824.172 226.143H369.104L276.858 276.355Z" fill="url(#paint4_linear_1008_4238)"/>
<path d="M1386.98 128.191L1386.27 127.24H1414.62L1415.5 128.191H1386.98Z" fill="url(#paint5_linear_1008_4238)"/>
<path d="M1358.63 127.24L1359.34 128.191H1344.02H1328.71L1328.18 127.24H1343.32H1358.63Z" fill="url(#paint6_linear_1008_4238)"/>
<path d="M1272.02 128.191L1271.67 127.24H1300.19L1300.54 128.191H1272.02Z" fill="url(#paint7_linear_1008_4238)"/>
<path d="M1215.86 130.093L1213.75 129.333C1217.8 128.382 1222.91 127.716 1228.19 127.431C1230.48 127.335 1232.94 127.335 1235.23 127.335H1243.86L1244.21 128.286H1235.58C1233.29 128.286 1231 128.286 1228.89 128.382L1228.54 127.906L1228.89 128.382C1224.14 128.572 1219.56 129.142 1215.86 130.093Z" fill="url(#paint8_linear_1008_4238)"/>
<path d="M1202.13 144.263C1202.13 143.883 1201.96 143.597 1201.96 143.217L1201.43 140.459C1201.25 139.603 1201.08 138.462 1201.08 137.321H1204.25C1204.25 138.462 1204.42 139.603 1204.6 140.459L1205.13 143.217C1205.13 143.597 1205.3 143.883 1205.3 144.263L1205.65 146.736H1202.31L1202.13 144.263Z" fill="url(#paint9_linear_1008_4238)"/>
<path d="M1208.29 164.804C1207.77 165.946 1207.06 166.801 1206.01 167.657L1202.84 167.087C1203.72 166.421 1204.42 165.565 1204.95 164.519C1205.3 163.663 1205.3 162.807 1205.13 161.856L1204.25 156.341H1207.59L1208.47 161.856C1208.65 162.902 1208.65 163.853 1208.29 164.804Z" fill="url(#paint10_linear_1008_4238)"/>
<path d="M1171.85 173.839C1175.55 173.839 1178.72 173.744 1181.54 173.458L1182.59 174.6C1179.42 174.885 1176.08 175.075 1171.85 175.075C1171.33 175.075 1170.8 175.075 1170.45 175.075H1149.67V173.839H1170.45C1170.8 173.839 1171.33 173.839 1171.85 173.839Z" fill="url(#paint11_linear_1008_4238)"/>
<path d="M1118.51 173.744V174.98H1100.91H1083.48L1083.66 173.744H1101.09H1118.51Z" fill="url(#paint12_linear_1008_4238)"/>
<path d="M1051.27 174.98H1018.7L1019.23 173.744H1051.62L1051.27 174.98Z" fill="url(#paint13_linear_1008_4238)"/>
<path d="M987.714 173.744L987.186 174.98H969.758H951.978L952.682 173.839L970.286 173.744H987.714Z" fill="url(#paint14_linear_1008_4238)"/>
<path d="M919.41 178.023L921.523 178.879C915.009 180.781 909.904 183.444 907.087 186.297C906.207 187.248 905.679 188.199 905.151 189.055L904.975 189.245H901.278L901.454 189.055C901.982 188.199 902.686 187.153 903.567 186.107C906.559 183.063 912.193 180.115 919.41 178.023Z" fill="url(#paint15_linear_1008_4238)"/>
<path d="M897.229 201.798L892.828 208.835L888.251 216.253H884.378L888.955 208.835L893.532 201.798H897.229Z" fill="url(#paint16_linear_1008_4238)"/>
<path d="M1596.11 188.769L1595.59 188.294L1596.11 188.769C1592.77 188.674 1589.07 188.104 1585.9 187.057C1584.5 186.582 1583.26 186.011 1582.21 185.441C1581.68 185.06 1581.15 184.68 1580.8 184.3C1580.62 184.109 1580.45 184.014 1580.27 183.824L1555.63 162.047L1530.63 140.079C1530.28 139.793 1530.1 139.603 1529.75 139.318C1529.22 138.842 1528.87 138.462 1528.16 137.987C1527.81 137.796 1527.63 137.511 1527.28 137.321C1526.75 136.94 1526.23 136.465 1525.7 136.085L1524.29 135.134L1522.71 134.183C1518.48 131.71 1513.02 129.428 1506.69 127.431C1494.01 123.436 1477.64 120.488 1461.79 119.252L1458.8 119.062C1458.1 119.062 1457.57 118.967 1456.87 118.967C1456.51 118.967 1456.16 118.967 1455.81 118.872L1452.82 118.681L1449.82 118.586C1448.59 118.586 1447.18 118.586 1445.95 118.491H1443.84C1442.61 118.491 1441.2 118.491 1439.97 118.491C1439.26 118.491 1438.56 118.491 1437.85 118.491H1338.21L1337.86 117.826H1437.33C1438.03 117.826 1438.73 117.826 1439.44 117.826C1440.85 117.826 1442.08 117.826 1443.49 117.826H1445.6C1446.83 117.826 1448.24 117.826 1449.65 117.921L1452.82 118.016L1455.81 118.206C1456.16 118.206 1456.51 118.206 1456.87 118.301C1457.57 118.301 1458.27 118.396 1458.98 118.396L1461.97 118.586V118.872V118.586C1478.52 119.823 1495.42 122.866 1508.45 127.05C1515.14 129.142 1520.59 131.52 1525.17 134.087L1526.75 135.038L1528.16 135.989C1528.69 136.37 1529.4 136.845 1529.92 137.321C1530.28 137.511 1530.45 137.796 1530.8 137.987C1531.33 138.462 1531.86 138.842 1532.39 139.318C1532.74 139.603 1532.92 139.793 1533.27 140.079L1558.44 162.142L1583.26 183.919C1583.44 184.109 1583.62 184.205 1583.79 184.395C1584.14 184.775 1584.5 185.06 1585.02 185.346C1585.73 185.821 1586.61 186.202 1587.66 186.487C1589.95 187.248 1592.77 187.723 1595.23 187.723H1718.46H1853.84L1855.6 188.674H1719.52L1596.11 188.769Z" fill="url(#paint17_linear_1008_4238)"/>
<path d="M1450.7 137.416C1451.06 137.416 1451.58 137.416 1451.94 137.416C1452.99 137.416 1454.05 137.416 1455.11 137.416C1458.27 137.511 1461.62 138.177 1464.26 139.033C1465.49 139.508 1466.37 139.984 1466.9 140.459C1467.08 140.649 1467.25 140.744 1467.43 140.935L1487.32 162.046L1509.33 185.536L1511.79 188.104L1514.61 190.671C1515.66 191.622 1516.9 192.478 1517.95 193.239L1519.71 194.475L1521.83 195.711C1527.28 199.04 1534.68 202.273 1542.95 205.126C1560.38 211.022 1582.38 215.302 1602.8 216.538H1603.33C1605.8 216.728 1608.26 216.823 1610.55 216.918C1612.13 217.014 1613.9 217.014 1615.48 217.014C1616.36 217.014 1617.42 217.014 1618.3 217.014C1620.06 217.014 1621.64 217.014 1623.4 217.014C1624.28 217.014 1625.16 217.014 1626.04 217.014H1761.59H1907.71L1909.82 218.155H1763.35H1627.63C1626.75 218.155 1625.87 218.155 1624.99 218.155C1624.46 218.155 1623.93 218.155 1623.4 218.155C1622.17 218.155 1620.94 218.155 1619.7 218.155C1618.82 218.155 1617.77 218.155 1616.89 218.155C1615.13 218.155 1613.37 218.155 1611.61 218.06C1609.14 217.965 1606.5 217.774 1604.04 217.679H1603.51C1582.21 216.348 1559.32 211.973 1541.19 205.792C1532.39 202.844 1524.99 199.515 1519.18 195.997L1517.07 194.665L1515.31 193.429C1514.26 192.668 1513.02 191.812 1511.79 190.766L1508.97 188.104L1484.68 162.142L1464.96 141.03C1464.79 140.935 1464.79 140.744 1464.61 140.649C1464.08 140.269 1463.38 139.888 1462.5 139.508C1460.56 138.842 1457.92 138.367 1455.46 138.177L1455.28 137.796L1455.46 138.177C1454.58 138.177 1453.7 138.177 1452.64 138.177C1452.29 138.177 1451.76 138.177 1451.41 138.177H1350.01L1349.48 137.416H1450.7V137.416Z" fill="url(#paint18_linear_1008_4238)"/>
<path d="M1232.76 118.586L1226.78 118.681C1224.67 118.777 1222.91 118.777 1221.15 118.872L1218.33 119.062C1217.8 119.062 1217.1 119.157 1216.57 119.157C1216.22 119.157 1215.86 119.252 1215.51 119.252C1201.43 120.393 1188.93 123.056 1181.18 126.765C1177.14 128.667 1174.14 130.759 1172.56 133.136C1171.68 134.563 1171.15 135.609 1170.97 136.75L1170.8 138.652L1172.21 159.098C1172.38 160.145 1171.15 161.096 1168.86 161.761C1167.81 162.047 1166.4 162.332 1164.99 162.522C1163.76 162.617 1162.7 162.617 1161.64 162.617C1161.47 162.617 1161.29 162.617 1161.29 162.617H1102.32H975.391H957.611C948.809 162.617 940.887 163.093 933.317 163.853C925.572 164.614 917.65 165.85 910.256 167.562C895.292 170.891 882.617 175.646 874.695 181.256C873.639 181.922 872.759 182.588 871.879 183.444C870.998 184.109 870.294 184.775 869.414 185.631C868.006 187.248 866.774 188.769 865.541 190.386L852.162 209.025L839.135 227.094C838.783 227.665 838.255 228.425 837.022 229.186C834.91 230.518 831.213 231.659 827.516 232.134C825.756 232.325 824.171 232.42 822.763 232.42C822.587 232.42 822.235 232.42 822.059 232.42H811.32H659.924H508.528H357.132L359.421 231.183H510.289H661.509H812.377H823.115C824.347 231.183 825.756 231.183 827.34 230.993C830.157 230.613 832.797 229.852 834.382 228.806C835.086 228.425 835.614 227.855 836.142 227.189L849.345 209.025L862.901 190.386C863.957 188.769 865.365 187.153 866.773 185.536C867.654 184.68 868.534 183.919 869.414 183.254C870.294 182.493 871.175 181.732 872.231 181.066C880.505 175.265 893.708 170.32 909.2 166.897C916.945 165.185 925.043 163.948 933.141 163.093C940.887 162.332 948.985 161.856 958.139 161.856H975.919H1102.49H1160.76H1161.29C1162.35 161.856 1163.4 161.856 1164.46 161.761C1165.69 161.666 1166.57 161.476 1167.45 161.191C1169.04 160.715 1170.09 159.954 1169.92 159.194H1171.15H1169.92L1168.51 138.747L1168.69 136.845C1168.86 135.704 1169.39 134.563 1170.27 133.136C1172.03 130.759 1175.02 128.572 1179.25 126.575C1187.35 122.771 1200.37 119.918 1214.81 118.777L1215.16 118.967L1214.81 118.681C1215.16 118.681 1215.51 118.586 1215.69 118.586C1216.39 118.491 1216.92 118.491 1217.62 118.491L1220.44 118.301C1222.2 118.206 1224.14 118.111 1226.43 118.111L1232.41 118.016H1337.69L1338.04 118.681L1232.76 118.586Z" fill="url(#paint19_linear_1008_4238)"/>
<path d="M292.701 267.701H456.42H620.139H783.858H795.301C796.885 267.701 798.293 267.701 799.878 267.701C804.103 267.701 808.504 267.701 812.729 267.606C824.172 267.416 835.614 266.37 847.057 264.468C858.148 262.566 868.886 259.998 878.568 256.765C888.075 253.532 896.173 249.823 902.51 245.829C908.848 241.834 913.425 237.65 916.065 233.466C917.122 231.849 918.002 230.232 918.882 228.616C919.234 228.14 919.41 227.57 919.762 227.094L929.445 208.93L938.071 192.573C938.247 192.383 938.247 192.288 938.247 192.098C938.423 191.717 938.599 191.337 938.951 190.861C940.007 189.72 942.296 188.579 945.464 187.913C947.049 187.533 948.633 187.343 950.218 187.248C951.626 187.153 952.858 187.153 954.09 187.153H963.597H1099.15H1172.03L1179.07 187.057C1181.54 186.962 1183.83 186.867 1185.94 186.772L1189.63 186.487C1190.34 186.392 1191.04 186.392 1191.75 186.297C1192.1 186.297 1192.63 186.202 1192.98 186.202L1194.21 186.106C1194.92 186.011 1195.62 186.011 1196.32 185.916L1199.49 185.536C1207.94 184.395 1215.51 182.778 1221.67 180.686C1227.84 178.594 1232.76 176.216 1236.29 173.363C1239.45 170.891 1241.21 168.038 1241.39 164.804C1241.39 164.234 1241.39 163.568 1241.21 162.902C1241.21 162.522 1241.04 162.237 1241.04 161.856L1235.76 141.695C1235.76 141.6 1235.76 141.41 1235.58 141.315C1235.58 141.03 1235.41 140.744 1235.41 140.364C1235.41 139.888 1235.93 139.413 1236.64 139.033C1238.05 138.177 1240.69 137.606 1243.68 137.511L1244.03 137.891L1243.68 137.511C1244.74 137.511 1245.79 137.511 1246.67 137.511C1247.02 137.511 1247.55 137.511 1247.9 137.511H1349.48L1350.01 138.272H1248.26C1247.73 138.272 1247.38 138.272 1246.85 138.272C1245.97 138.272 1244.91 138.272 1244.03 138.272C1241.74 138.367 1239.81 138.842 1238.57 139.413C1238.05 139.698 1237.69 140.079 1237.69 140.459C1237.69 140.744 1237.69 141.03 1237.87 141.315C1237.87 141.505 1237.87 141.6 1238.05 141.695L1243.5 161.856C1243.5 162.237 1243.68 162.522 1243.68 162.902C1243.86 163.568 1243.86 164.234 1243.86 164.804L1242.62 164.709L1243.86 164.804C1243.68 168.133 1241.92 171.081 1238.57 173.649C1235.05 176.502 1229.95 179.069 1223.43 181.256C1216.92 183.444 1209.18 185.155 1200.2 186.297L1196.85 186.677C1196.15 186.772 1195.44 186.867 1194.56 186.867L1193.33 186.962C1192.98 186.962 1192.63 187.057 1192.28 187.057C1191.57 187.153 1190.69 187.248 1189.99 187.248L1186.64 187.438C1184.53 187.628 1182.06 187.723 1179.42 187.818L1172.21 187.913H1099.15H963.245H953.562C952.506 187.913 951.45 187.913 950.394 188.008C949.161 188.104 947.753 188.294 946.697 188.579C944.232 189.15 942.472 190.006 941.591 190.861C941.239 191.242 941.063 191.527 940.887 191.908C940.887 192.098 940.711 192.193 940.711 192.383L932.085 208.74L921.699 228.425C920.819 230.042 919.938 231.659 918.882 233.371C916.241 237.745 911.488 242.025 904.799 246.209C898.109 250.393 889.835 254.197 879.977 257.621C869.766 261.044 858.852 263.707 847.233 265.704C835.438 267.701 823.291 268.747 811.497 268.938C807.976 269.033 804.455 269.033 800.934 269.033C800.054 269.033 799.174 269.033 798.293 269.033C796.709 269.033 795.301 269.033 793.716 269.033H782.274H618.027H453.78H290.061L292.701 267.701Z" fill="url(#paint20_linear_1008_4238)"/>
</g>
<path opacity="0.7" d="M1456.76 231.627H1001.47L988.618 214.663L979.639 202.816L974.181 195.613C972.949 193.718 971.188 192.012 969.604 190.211C968.723 189.358 967.667 188.505 966.435 187.652C965.378 186.799 964.322 185.946 962.913 185.188C953.23 178.838 938.441 173.341 921.363 169.645C912.912 167.844 904.109 166.328 894.954 165.38C885.799 164.432 876.644 163.958 867.313 163.864H666.603L667.307 146.236V144.056C667.307 143.298 667.131 142.634 666.955 141.876C666.955 141.497 666.779 141.213 666.603 140.833C666.427 140.454 666.251 140.17 666.075 139.791L665.547 138.748C665.371 138.369 665.195 138.085 664.843 137.706C662.73 135.147 659.209 132.683 654.455 130.503C645.124 126.238 631.039 123.205 615.017 121.879C613.961 121.784 612.905 121.689 611.848 121.594L608.679 121.405C606.567 121.31 604.454 121.215 602.165 121.12L595.299 121.026H390.188C387.899 121.026 385.61 121.026 383.322 121.026C381.033 121.026 378.744 121.12 376.455 121.12L372.934 121.31L369.589 121.5C368.356 121.594 367.3 121.594 366.068 121.689L362.546 121.973C344.06 123.395 325.574 126.807 310.961 131.261C303.39 133.536 297.052 136.19 291.946 138.938L290.009 139.98L288.249 141.118C287.192 141.876 286.136 142.634 285.256 143.392C284.199 144.151 283.495 144.909 282.439 145.762L279.798 147.942L256.382 167.939L231.205 189.358H-20.9139L-94.6833 229.732H192.648C195.817 229.732 198.81 229.732 201.979 229.732C205.148 229.637 208.141 229.637 211.31 229.447C214.479 229.353 217.648 229.068 220.817 228.879C233.318 227.931 246.17 226.225 258.494 223.761C270.643 221.392 282.087 218.359 292.298 214.852C302.334 211.44 310.784 207.649 317.475 203.669L319.94 202.247L322.052 200.731C323.461 199.783 324.869 198.741 326.102 197.698L329.271 194.665C330.151 193.623 331.031 192.675 332.088 191.632L353.391 168.034L371.702 147.847H575.58L568.889 157.609V157.988V171.066C568.889 171.256 568.889 171.446 568.889 171.635C569.242 175.142 571.178 178.554 575.228 181.681C579.277 184.904 585.087 187.842 592.482 190.4C599.876 192.959 608.855 194.95 618.715 196.371L622.412 196.845C623.644 197.035 625.053 197.129 626.285 197.319C627.518 197.414 628.926 197.603 630.159 197.698L634.208 197.982C636.849 198.172 639.49 198.361 642.307 198.456L650.758 198.646H871.186L878.932 214.473L885.799 228.5L887.911 232.765C889.144 235.229 890.2 237.788 891.961 240.252C893.37 242.811 896.01 245.18 898.475 247.644C901.292 250.108 904.461 252.572 908.335 254.847C915.905 259.586 925.765 264.04 936.68 267.926C948.124 271.812 960.801 275.034 974.181 277.403C980.872 278.635 987.738 279.488 994.604 280.246C1001.47 280.815 1008.34 281.573 1015.38 281.573C1022.42 281.763 1029.29 281.668 1036.15 281.763H1548.67L1456.76 231.627Z" fill="url(#paint21_linear_1008_4238)"/>
<path opacity="0.7" d="M1456.76 239.625H1001.47L988.618 222.594L979.639 210.701L974.181 203.47C972.949 201.567 971.188 199.854 969.604 198.046C968.723 197.19 967.667 196.334 966.435 195.477C965.378 194.621 964.322 193.765 962.913 193.004C953.23 186.629 938.441 181.11 921.363 177.4C912.912 175.592 904.109 174.069 894.954 173.118C885.799 172.167 876.644 171.691 867.313 171.596H666.603L667.307 153.899V151.71C667.307 150.949 667.131 150.283 666.955 149.522C666.955 149.141 666.779 148.856 666.603 148.475C666.427 148.095 666.251 147.809 666.075 147.429L665.547 146.382C665.371 146.001 665.195 145.716 664.843 145.335C662.73 142.766 659.209 140.293 654.455 138.104C645.124 133.823 631.039 130.778 615.017 129.446C613.961 129.351 612.905 129.256 611.848 129.161L608.679 128.97C606.567 128.875 604.454 128.78 602.165 128.685L595.299 128.59H390.188C387.899 128.59 385.61 128.59 383.322 128.59C381.033 128.59 378.744 128.685 376.455 128.685L372.934 128.875L369.589 129.065C368.356 129.161 367.3 129.161 366.068 129.256L362.546 129.541C344.06 130.968 325.574 134.394 310.961 138.865C303.39 141.149 297.052 143.813 291.946 146.572L290.009 147.619L288.249 148.761C287.192 149.522 286.136 150.283 285.256 151.044C284.199 151.805 283.495 152.567 282.439 153.423L279.798 155.611L256.382 175.687L231.205 197.19H-20.9139L-94.6833 237.722H192.648C195.817 237.722 198.81 237.722 201.979 237.722C205.148 237.627 208.141 237.627 211.31 237.437C214.479 237.342 217.648 237.056 220.817 236.866C233.318 235.914 246.17 234.202 258.494 231.728C270.643 229.349 282.087 226.305 292.298 222.784C302.334 219.359 310.784 215.553 317.475 211.557L319.94 210.13L322.052 208.607C323.461 207.656 324.869 206.609 326.102 205.563L329.271 202.518C330.151 201.472 331.031 200.52 332.088 199.473L353.391 175.782L371.702 155.516H575.58L568.889 165.316V165.697V178.827C568.889 179.017 568.889 179.207 568.889 179.398C569.242 182.918 571.178 186.343 575.228 189.483C579.277 192.718 585.087 195.668 592.482 198.237C599.876 200.806 608.855 202.804 618.715 204.231L622.412 204.706C623.644 204.897 625.053 204.992 626.285 205.182C627.518 205.277 628.926 205.468 630.159 205.563L634.208 205.848C636.849 206.039 639.49 206.229 642.307 206.324L650.758 206.514H871.186L878.932 222.404L885.799 236.485L887.911 240.767C889.144 243.241 890.2 245.81 891.961 248.283C893.37 250.852 896.01 253.231 898.475 255.705C901.292 258.178 904.461 260.652 908.335 262.936C915.905 267.693 925.765 272.165 936.68 276.066C948.124 279.967 960.801 283.202 974.181 285.581C980.872 286.817 987.738 287.674 994.604 288.435C1001.47 289.006 1008.34 289.767 1015.38 289.767C1022.42 289.957 1029.29 289.862 1036.15 289.957H1548.67L1456.76 239.625Z" fill="url(#paint22_linear_1008_4238)"/>
<path opacity="0.7" d="M1456.76 244.668H1001.47L988.618 227.637L979.639 215.743L974.181 208.512C972.949 206.609 971.188 204.897 969.604 203.089C968.723 202.233 967.667 201.376 966.435 200.52C965.378 199.664 964.322 198.807 962.913 198.046C953.23 191.671 938.441 186.153 921.363 182.442C912.912 180.635 904.109 179.112 894.954 178.161C885.799 177.209 876.644 176.734 867.313 176.638H666.603L667.307 158.941V156.753C667.307 155.992 667.131 155.326 666.955 154.565C666.955 154.184 666.779 153.899 666.603 153.518C666.427 153.137 666.251 152.852 666.075 152.471L665.547 151.425C665.371 151.044 665.195 150.759 664.843 150.378C662.73 147.809 659.209 145.335 654.455 143.147C645.124 138.865 631.039 135.821 615.017 134.489C613.961 134.394 612.905 134.298 611.848 134.203L608.679 134.013C606.566 133.918 604.454 133.823 602.165 133.728L595.299 133.632H390.188C387.899 133.632 385.61 133.632 383.321 133.632C381.033 133.632 378.744 133.728 376.455 133.728L372.934 133.918L369.589 134.108C368.356 134.203 367.3 134.203 366.068 134.298L362.546 134.584C344.06 136.011 325.574 139.436 310.961 143.908C303.39 146.192 297.052 148.856 291.946 151.615L290.009 152.662L288.249 153.803C287.192 154.565 286.136 155.326 285.256 156.087C284.199 156.848 283.495 157.609 282.439 158.466L279.798 160.654L256.382 180.73L231.205 202.233H-20.9139L-94.6833 242.765H192.648C195.817 242.765 198.81 242.765 201.979 242.765C205.148 242.67 208.141 242.67 211.31 242.479C214.479 242.384 217.648 242.099 220.817 241.909C233.318 240.957 246.17 239.244 258.494 236.771C270.643 234.392 282.087 231.347 292.298 227.827C302.334 224.402 310.784 220.596 317.475 216.6L319.94 215.173L322.052 213.65C323.461 212.699 324.869 211.652 326.102 210.606L329.271 207.561C330.151 206.514 331.031 205.563 332.088 204.516L353.391 180.825L371.701 160.559H575.58L568.889 170.359V170.739V183.87C568.889 184.06 568.889 184.25 568.889 184.44C569.242 187.961 571.178 191.386 575.228 194.526C579.277 197.761 585.087 200.71 592.482 203.279C599.876 205.848 608.855 207.846 618.715 209.273L622.412 209.749C623.644 209.939 625.053 210.035 626.285 210.225C627.518 210.32 628.926 210.51 630.159 210.606L634.208 210.891C636.849 211.081 639.49 211.272 642.307 211.367L650.758 211.557H871.186L878.932 227.446L885.799 241.528L887.911 245.81C889.144 248.283 890.2 250.852 891.961 253.326C893.37 255.895 896.01 258.274 898.475 260.747C901.292 263.221 904.461 265.695 908.335 267.979C915.905 272.736 925.764 277.208 936.68 281.109C948.124 285.01 960.801 288.245 974.181 290.623C980.871 291.86 987.738 292.716 994.604 293.478C1001.47 294.049 1008.34 294.81 1015.38 294.81C1022.42 295 1029.29 294.905 1036.15 295H1548.67L1456.76 244.668Z" fill="url(#paint23_linear_1008_4238)"/>
<path opacity="0.7" d="M1454.45 236.473H999.154L986.302 219.442L977.323 207.549L971.865 200.318C970.632 198.415 968.872 196.702 967.287 194.895C966.407 194.038 965.35 193.182 964.118 192.326C963.062 191.469 962.005 190.613 960.597 189.852C950.913 183.477 936.124 177.959 919.046 174.248C910.596 172.44 901.792 170.918 892.637 169.966C883.482 169.015 874.327 168.539 864.996 168.444H664.287L664.991 150.747V148.558C664.991 147.797 664.815 147.131 664.639 146.37C664.639 145.99 664.463 145.704 664.287 145.323C664.11 144.943 663.934 144.657 663.758 144.277L663.23 143.23C663.054 142.85 662.878 142.564 662.526 142.184C660.413 139.615 656.892 137.141 652.138 134.953C642.807 130.671 628.722 127.626 612.701 126.294C611.644 126.199 610.588 126.104 609.532 126.009L606.363 125.819C604.25 125.723 602.137 125.628 599.848 125.533L592.982 125.438H387.871C385.582 125.438 383.294 125.438 381.005 125.438C378.716 125.438 376.427 125.533 374.139 125.533L370.617 125.723L367.272 125.914C366.04 126.009 364.983 126.009 363.751 126.104L360.23 126.389C341.743 127.817 323.257 131.242 308.644 135.714C301.073 137.997 294.735 140.661 289.629 143.421L287.693 144.467L285.932 145.609C284.876 146.37 283.819 147.131 282.939 147.892C281.883 148.654 281.178 149.415 280.122 150.271L277.481 152.459L254.065 172.535L228.888 194.038H-23.2306L-97 234.57H190.331C193.5 234.57 196.493 234.57 199.662 234.57C202.831 234.475 205.824 234.475 208.994 234.285C212.163 234.19 215.332 233.904 218.501 233.714C231.001 232.763 243.854 231.05 256.178 228.576C268.326 226.198 279.77 223.153 289.981 219.632C300.017 216.207 308.468 212.401 315.158 208.405L317.623 206.978L319.736 205.456C321.144 204.504 322.553 203.458 323.785 202.411L326.954 199.366C327.835 198.32 328.715 197.368 329.771 196.322L351.075 172.63L369.385 152.364H573.263L566.573 162.164V162.545V175.675C566.573 175.865 566.573 176.056 566.573 176.246C566.925 179.766 568.862 183.192 572.911 186.331C576.96 189.566 582.77 192.516 590.165 195.085C597.56 197.654 606.539 199.652 616.398 201.079L620.095 201.555C621.328 201.745 622.736 201.84 623.969 202.03C625.201 202.126 626.61 202.316 627.842 202.411L631.891 202.697C634.532 202.887 637.173 203.077 639.99 203.172L648.441 203.363H868.869L876.616 219.252L883.482 233.333L885.595 237.615C886.827 240.089 887.884 242.658 889.644 245.132C891.053 247.701 893.694 250.079 896.158 252.553C898.975 255.027 902.145 257.501 906.018 259.784C913.589 264.541 923.448 269.013 934.364 272.914C945.808 276.815 958.484 280.05 971.865 282.429C978.555 283.666 985.421 284.522 992.288 285.283C999.154 285.854 1006.02 286.615 1013.06 286.615C1020.11 286.806 1026.97 286.71 1033.84 286.806H1546.35L1454.45 236.473Z" fill="url(#paint24_linear_1008_4238)"/>
<path d="M1548.67 274.464H1036.21C1029.34 274.464 1022.3 274.559 1015.44 274.274C1008.39 274.274 1001.53 273.513 994.664 272.942C987.798 272.181 980.932 271.326 974.243 270.089C960.864 267.712 948.189 264.478 936.746 260.579C925.655 256.68 915.973 252.211 908.403 247.456C904.53 245.078 901.362 242.701 898.545 240.228C896.08 237.756 893.44 235.378 892.031 232.811C890.447 230.338 889.391 227.77 887.982 225.298L885.87 221.018L878.828 206.944L871.082 191.062H650.678L642.228 190.872C639.411 190.777 636.771 190.587 634.13 190.396L630.081 190.111C628.673 190.016 627.44 189.826 626.208 189.731C624.976 189.541 623.567 189.446 622.335 189.35L618.638 188.875C608.78 187.448 599.802 185.451 592.408 182.884C585.014 180.411 579.381 177.368 575.156 174.135C571.107 170.996 569.347 167.478 568.818 164.054C568.642 163.484 568.818 162.913 568.994 162.342L569.347 160.631L575.684 140.089H371.652L353.343 160.345L332.042 184.025C331.162 184.976 330.282 186.022 329.225 187.068L326.057 190.111C324.824 191.062 323.416 192.108 322.008 193.059L319.895 194.581L317.431 196.102C310.741 200.097 302.115 203.901 292.257 207.324C282.046 210.843 270.604 213.791 258.457 216.263C246.134 218.736 233.283 220.448 220.784 221.399C217.615 221.589 214.446 221.874 211.277 221.969C208.109 222.16 204.94 222.16 201.947 222.16C198.778 222.255 195.786 222.16 192.617 222.16H-94.6833L-20.9218 181.743H231.17L256.344 160.25L279.758 140.184L282.398 137.997C283.279 137.236 284.159 136.475 285.215 135.715C286.271 134.954 287.151 134.193 288.208 133.432L289.968 132.386L291.905 131.34C297.01 128.582 303.347 125.919 310.917 123.637C325.529 119.072 344.013 115.744 362.497 114.317L366.018 114.032C367.251 113.937 368.307 113.842 369.539 113.842L372.884 113.652L376.405 113.557C378.693 113.462 380.982 113.462 383.27 113.462C385.559 113.462 387.847 113.462 390.136 113.462H595.225L602.09 113.557C604.379 113.652 606.491 113.747 608.604 113.842L611.773 114.032C612.829 114.127 613.885 114.222 614.941 114.317C630.961 115.649 645.221 118.692 654.375 122.971C659.128 125.159 662.649 127.536 664.761 130.199C665.113 130.484 665.289 130.865 665.465 131.15L665.994 132.196C666.17 132.576 666.346 132.862 666.522 133.242C666.698 133.622 666.874 133.908 666.874 134.288C667.05 135.049 667.05 135.715 667.226 136.475V138.663L666.522 156.351H867.209C876.54 156.351 885.87 156.922 894.848 157.873C904.002 158.824 912.98 160.25 921.254 162.152C938.33 165.861 953.118 171.377 962.8 177.748C964.208 178.509 965.265 179.365 966.321 180.221C967.377 181.077 968.433 181.933 969.49 182.789C971.074 184.595 972.834 186.402 974.067 188.209L979.524 195.437L988.502 207.229L1001.35 224.252H1456.42L1548.67 274.464Z" fill="url(#paint25_linear_1008_4238)"/>
<path d="M31.7149 201.333L34.0035 199.906H-0.852801L-3.31738 201.333H31.7149Z" fill="url(#paint26_linear_1008_4238)"/>
<path d="M65.6909 201.333H84.5274H103.364L105.476 199.906H86.6399H67.9795L65.6909 201.333Z" fill="url(#paint27_linear_1008_4238)"/>
<path d="M172.9 201.333L174.661 199.906H139.805L137.868 201.333H172.9Z" fill="url(#paint28_linear_1008_4238)"/>
<path d="M246.31 199.145L245.606 197.909C239.268 199.05 232.931 199.716 226.945 199.811C222.897 199.906 219.024 199.906 215.151 199.811C213.038 199.811 210.75 199.811 208.637 199.811L207.053 201.238C209.341 201.238 211.454 201.238 213.566 201.238C214.799 201.238 216.031 201.238 217.263 201.238C220.08 201.238 222.72 201.238 225.537 201.143L226.241 200.477L225.537 201.143C232.227 201.143 239.268 200.382 246.31 199.145Z" fill="url(#paint29_linear_1008_4238)"/>
<path d="M275.533 185.927C274.653 186.783 273.597 187.734 272.364 188.589L275.885 188.78C277.293 187.829 278.35 186.783 279.406 185.927L288.736 176.797H285.215L276.941 184.69L275.533 185.927Z" fill="url(#paint30_linear_1008_4238)"/>
<path d="M296.306 166.051H299.827L305.812 160.25L311.445 154.639H308.1L302.291 160.25L296.306 166.051Z" fill="url(#paint31_linear_1008_4238)"/>
<path d="M326.057 137.521L318.311 144.939H321.656L329.226 137.521L329.93 136.856C330.458 136.475 330.81 136 331.338 135.62L328.169 135.524C327.641 136 327.113 136.475 326.585 136.856L326.057 137.521Z" fill="url(#paint32_linear_1008_4238)"/>
<path d="M350.175 127.536L351.231 128.297C356.16 127.346 361.441 126.775 366.37 126.49L368.307 126.395H370.243C371.3 126.395 372.532 126.395 373.588 126.395H381.862L382.742 125.444H374.644C373.412 125.444 372.356 125.444 371.124 125.444H369.011L367.075 125.539L366.899 126.015L367.075 125.539C361.441 125.824 355.632 126.49 350.175 127.536Z" fill="url(#paint33_linear_1008_4238)"/>
<path d="M438.548 126.3L439.252 125.349H410.909L410.029 126.3H438.548Z" fill="url(#paint34_linear_1008_4238)"/>
<path d="M466.89 125.349L466.186 126.3H481.502H496.817L497.345 125.349H482.206H466.89Z" fill="url(#paint35_linear_1008_4238)"/>
<path d="M553.503 126.3L553.855 125.349H525.336L524.984 126.3H553.503Z" fill="url(#paint36_linear_1008_4238)"/>
<path d="M609.66 128.202L611.773 127.441C607.724 126.49 602.619 125.824 597.337 125.539C595.049 125.444 592.584 125.444 590.296 125.444H581.67L581.318 126.395H589.944C592.232 126.395 594.521 126.395 596.633 126.49L596.985 126.015L596.633 126.49C601.386 126.68 605.964 127.251 609.66 128.202Z" fill="url(#paint37_linear_1008_4238)"/>
<path d="M623.391 142.372C623.391 141.991 623.568 141.706 623.568 141.325L624.096 138.568C624.272 137.712 624.448 136.571 624.448 135.429H621.279C621.279 136.571 621.103 137.712 620.927 138.568L620.399 141.325C620.399 141.706 620.223 141.991 620.223 142.372L619.871 144.844H623.215L623.391 142.372Z" fill="url(#paint38_linear_1008_4238)"/>
<path d="M617.23 162.913C617.758 164.054 618.462 164.91 619.519 165.766L622.687 165.195C621.807 164.53 621.103 163.674 620.575 162.628C620.223 161.772 620.223 160.916 620.399 159.965L621.279 154.449H617.934L617.054 159.965C616.878 161.011 616.878 161.962 617.23 162.913Z" fill="url(#paint39_linear_1008_4238)"/>
<path d="M653.671 171.947C649.974 171.947 646.805 171.852 643.989 171.567L642.932 172.708C646.101 172.993 649.446 173.184 653.671 173.184C654.199 173.184 654.727 173.184 655.079 173.184H675.852V171.947H655.079C654.727 171.947 654.199 171.947 653.671 171.947Z" fill="url(#paint40_linear_1008_4238)"/>
<path d="M707.011 171.852V173.088H724.616H742.044L741.868 171.852H724.44H707.011Z" fill="url(#paint41_linear_1008_4238)"/>
<path d="M774.259 173.088H806.827L806.299 171.852H773.907L774.259 173.088Z" fill="url(#paint42_linear_1008_4238)"/>
<path d="M837.811 171.852L838.339 173.088H855.767H873.547L872.843 171.947L855.239 171.852H837.811Z" fill="url(#paint43_linear_1008_4238)"/>
<path d="M906.114 176.132L904.002 176.987C910.516 178.889 915.621 181.552 918.437 184.405C919.318 185.356 919.846 186.307 920.374 187.163L920.55 187.353H924.247L924.071 187.163C923.543 186.307 922.838 185.261 921.958 184.215C918.966 181.172 913.332 178.224 906.114 176.132Z" fill="url(#paint44_linear_1008_4238)"/>
<path d="M928.296 199.906L932.697 206.944L937.274 214.361H941.147L936.57 206.944L931.993 199.906H928.296Z" fill="url(#paint45_linear_1008_4238)"/>
<path d="M954.526 233.762C952.942 232.525 951.71 231.099 950.653 229.292C950.477 229.007 950.301 228.816 950.125 228.531H946.076C946.252 228.816 946.428 229.007 946.605 229.292C947.485 230.623 948.717 232.43 950.83 234.142C952.942 235.949 955.935 237.851 959.808 239.563C962.624 240.799 965.617 242.035 968.962 243.081L971.074 241.845C968.082 240.894 965.265 239.848 962.624 238.612C959.103 237.09 956.463 235.378 954.526 233.762Z" fill="url(#paint46_linear_1008_4238)"/>
<path d="M1005.93 246.505L1007.16 248.217H1027.94H1049.06L1047.48 246.505H1026.53H1005.93Z" fill="url(#paint47_linear_1008_4238)"/>
<path d="M1087.44 248.217H1126.7L1124.93 246.505H1085.85L1087.44 248.217Z" fill="url(#paint48_linear_1008_4238)"/>
<path d="M1162.61 246.505L1164.54 248.217H1185.67H1206.62L1204.51 246.505H1183.56H1162.61Z" fill="url(#paint49_linear_1008_4238)"/>
<path d="M1245.17 248.217H1284.25L1281.79 246.505H1242.88L1245.17 248.217Z" fill="url(#paint50_linear_1008_4238)"/>
<path d="M1319.64 246.505L1322.28 248.217H1343.23H1364.18L1361.54 246.505H1340.59H1319.64Z" fill="url(#paint51_linear_1008_4238)"/>
<path d="M229.41 186.878L229.938 186.402L229.41 186.878C232.755 186.783 236.451 186.212 239.62 185.166C241.029 184.691 242.261 184.12 243.317 183.549C243.845 183.169 244.373 182.789 244.725 182.408C244.901 182.218 245.078 182.123 245.254 181.933L269.899 160.155L294.897 138.187C295.249 137.902 295.425 137.712 295.778 137.426C296.306 136.951 296.658 136.571 297.362 136.095C297.714 135.905 297.89 135.62 298.242 135.429C298.77 135.049 299.298 134.573 299.827 134.193L301.235 133.242L302.819 132.291C307.044 129.819 312.502 127.536 318.839 125.539C331.514 121.545 347.886 118.597 363.73 117.361L366.722 117.17C367.427 117.17 367.955 117.075 368.659 117.075C369.011 117.075 369.363 117.075 369.715 116.98L372.708 116.79L375.701 116.695C376.933 116.695 378.341 116.695 379.573 116.6H381.686C382.918 116.6 384.327 116.6 385.559 116.6C386.263 116.6 386.967 116.6 387.671 116.6H487.311L487.663 115.934H388.2C387.495 115.934 386.791 115.934 386.087 115.934C384.679 115.934 383.446 115.934 382.038 115.934H379.926C378.693 115.934 377.285 115.934 375.877 116.029L372.708 116.124L369.715 116.314C369.363 116.314 369.011 116.314 368.659 116.41C367.955 116.41 367.251 116.505 366.546 116.505L363.554 116.695V116.98V116.695C347.006 117.931 330.106 120.974 317.079 125.159C310.389 127.251 304.932 129.628 300.355 132.196L298.77 133.147L297.362 134.098C296.834 134.478 296.13 134.954 295.602 135.429C295.249 135.62 295.073 135.905 294.721 136.095C294.193 136.571 293.665 136.951 293.137 137.426C292.785 137.712 292.609 137.902 292.257 138.187L267.083 160.25L242.261 182.028C242.085 182.218 241.909 182.313 241.733 182.503C241.381 182.884 241.029 183.169 240.5 183.454C239.796 183.93 238.916 184.31 237.86 184.595C235.571 185.356 232.755 185.832 230.29 185.832H107.061H-28.3155L-30.0759 186.783H106.004L229.41 186.878Z" fill="url(#paint52_linear_1008_4238)"/>
<path d="M374.821 135.524C374.469 135.524 373.94 135.524 373.588 135.524C372.532 135.524 371.476 135.524 370.42 135.524C367.251 135.62 363.906 136.285 361.265 137.141C360.033 137.617 359.153 138.092 358.625 138.568C358.449 138.758 358.273 138.853 358.097 139.043L338.204 160.155L316.199 183.644L313.734 186.212L310.917 188.78C309.861 189.731 308.629 190.587 307.573 191.347L305.812 192.584L303.7 193.82C298.242 197.148 290.849 200.382 282.575 203.235C265.146 209.131 243.141 213.41 222.72 214.647H222.192C219.728 214.837 217.263 214.932 214.975 215.027C213.39 215.122 211.63 215.122 210.045 215.122C209.165 215.122 208.109 215.122 207.229 215.122C205.468 215.122 203.884 215.122 202.124 215.122C201.243 215.122 200.363 215.122 199.483 215.122H63.9306H-82.1841L-84.2966 216.263H62.1702H197.898C198.779 216.263 199.659 216.263 200.539 216.263C201.067 216.263 201.595 216.263 202.124 216.263C203.356 216.263 204.588 216.263 205.82 216.263C206.701 216.263 207.757 216.263 208.637 216.263C210.397 216.263 212.158 216.263 213.918 216.168C216.383 216.073 219.024 215.883 221.488 215.788H222.016C243.317 214.456 266.203 210.082 284.335 203.9C293.137 200.952 300.531 197.624 306.34 194.105L308.453 192.774L310.213 191.538C311.269 190.777 312.502 189.921 313.734 188.875L316.551 186.212L340.844 160.25L360.561 139.138C360.737 139.043 360.737 138.853 360.913 138.758C361.441 138.377 362.146 137.997 363.026 137.617C364.962 136.951 367.603 136.475 370.067 136.285L370.243 135.905L370.067 136.285C370.948 136.285 371.828 136.285 372.884 136.285C373.236 136.285 373.764 136.285 374.116 136.285H475.517L476.045 135.524H374.821V135.524Z" fill="url(#paint53_linear_1008_4238)"/>
<path d="M592.76 116.695L598.746 116.79C600.858 116.885 602.619 116.885 604.379 116.98L607.196 117.17C607.724 117.17 608.428 117.265 608.956 117.265C609.308 117.265 609.66 117.36 610.012 117.36C624.096 118.502 636.595 121.164 644.341 124.873C648.39 126.775 651.382 128.867 652.967 131.245C653.847 132.671 654.375 133.717 654.551 134.859L654.727 136.761L653.319 157.207C653.143 158.253 654.375 159.204 656.664 159.87C657.72 160.155 659.128 160.44 660.536 160.63C661.769 160.725 662.825 160.725 663.881 160.725C664.057 160.725 664.233 160.725 664.233 160.725H723.207H850.134H867.914C876.716 160.725 884.638 161.201 892.208 161.962C899.953 162.723 907.875 163.959 915.269 165.671C930.233 168.999 942.908 173.754 950.83 179.365C951.886 180.031 952.766 180.696 953.646 181.552C954.526 182.218 955.231 182.884 956.111 183.739C957.519 185.356 958.751 186.878 959.984 188.494L973.363 207.134L986.39 225.202C986.742 225.773 987.27 226.534 988.502 227.295C990.615 228.626 994.312 229.767 998.009 230.243C999.769 230.433 1001.35 230.528 1002.76 230.528C1002.94 230.528 1003.29 230.528 1003.47 230.528H1014.2H1165.6H1317H1468.39L1466.1 229.292H1315.24H1164.02H1013.15H1002.41C1001.18 229.292 999.769 229.292 998.185 229.102C995.368 228.721 992.727 227.96 991.143 226.914C990.439 226.534 989.911 225.963 989.383 225.298L976.18 207.134L962.624 188.494C961.568 186.878 960.16 185.261 958.751 183.644C957.871 182.788 956.991 182.028 956.111 181.362C955.231 180.601 954.35 179.84 953.294 179.175C945.02 173.374 931.817 168.429 916.325 165.005C908.579 163.293 900.482 162.057 892.384 161.201C884.638 160.44 876.54 159.965 867.386 159.965H849.605H723.031H664.761H664.233C663.177 159.965 662.121 159.965 661.065 159.87C659.832 159.775 658.952 159.584 658.072 159.299C656.488 158.824 655.431 158.063 655.607 157.302H654.375H655.607L657.016 136.856L656.84 134.954C656.664 133.813 656.135 132.671 655.255 131.245C653.495 128.867 650.502 126.68 646.277 124.683C638.179 120.879 625.152 118.026 610.717 116.885L610.365 117.075L610.717 116.79C610.365 116.79 610.012 116.695 609.836 116.695C609.132 116.6 608.604 116.6 607.9 116.6L605.083 116.409C603.323 116.314 601.386 116.219 599.098 116.219L593.112 116.124H487.839L487.487 116.79L592.76 116.695Z" fill="url(#paint54_linear_1008_4238)"/>
<path d="M1532.82 265.81H1369.1H1205.39H1041.67H1030.22C1028.64 265.81 1027.23 265.81 1025.65 265.81C1021.42 265.81 1017.02 265.81 1012.8 265.715C1001.35 265.524 989.911 264.478 978.468 262.576C967.377 260.674 956.639 258.107 946.957 254.873C937.45 251.64 929.352 247.931 923.015 243.937C916.677 239.943 912.1 235.759 909.46 231.574C908.404 229.958 907.523 228.341 906.643 226.724C906.291 226.249 906.115 225.678 905.763 225.203L896.081 207.039L887.455 190.682C887.279 190.492 887.278 190.396 887.278 190.206C887.102 189.826 886.926 189.445 886.574 188.97C885.518 187.829 883.23 186.688 880.061 186.022C878.476 185.641 876.892 185.451 875.308 185.356C873.899 185.261 872.667 185.261 871.435 185.261H861.928H726.376H653.495L646.453 185.166C643.989 185.071 641.7 184.976 639.588 184.881L635.891 184.595C635.187 184.5 634.482 184.5 633.778 184.405C633.426 184.405 632.898 184.31 632.546 184.31L631.314 184.215C630.609 184.12 629.905 184.12 629.201 184.025L626.032 183.644C617.582 182.503 610.013 180.887 603.851 178.794C597.69 176.702 592.76 174.325 589.24 171.472C586.071 168.999 584.31 166.146 584.134 162.913C584.134 162.342 584.134 161.677 584.31 161.011C584.31 160.63 584.486 160.345 584.486 159.965L589.768 139.804C589.768 139.709 589.768 139.519 589.944 139.423C589.944 139.138 590.12 138.853 590.12 138.472C590.12 137.997 589.592 137.521 588.888 137.141C587.479 136.285 584.839 135.715 581.846 135.62L581.494 136L581.846 135.62C580.79 135.62 579.733 135.62 578.853 135.62C578.501 135.62 577.973 135.62 577.621 135.62H476.045L475.517 136.38H577.269C577.797 136.38 578.149 136.38 578.677 136.38C579.557 136.38 580.614 136.38 581.494 136.38C583.782 136.475 585.719 136.951 586.951 137.521C587.479 137.807 587.831 138.187 587.831 138.568C587.831 138.853 587.831 139.138 587.655 139.423C587.655 139.614 587.655 139.709 587.479 139.804L582.022 159.965C582.022 160.345 581.846 160.63 581.846 161.011C581.67 161.677 581.67 162.342 581.67 162.913L582.902 162.818L581.67 162.913C581.846 166.241 583.606 169.189 586.951 171.757C590.472 174.61 595.577 177.178 602.091 179.365C608.604 181.552 616.35 183.264 625.328 184.405L628.673 184.786C629.377 184.881 630.081 184.976 630.962 184.976L632.194 185.071C632.546 185.071 632.898 185.166 633.25 185.166C633.954 185.261 634.834 185.356 635.539 185.356L638.883 185.546C640.996 185.737 643.461 185.832 646.101 185.927L653.319 186.022H726.376H862.28H871.963C873.019 186.022 874.075 186.022 875.132 186.117C876.364 186.212 877.772 186.402 878.828 186.688C881.293 187.258 883.054 188.114 883.934 188.97C884.286 189.35 884.462 189.636 884.638 190.016C884.638 190.206 884.814 190.301 884.814 190.492L893.44 206.849L903.826 226.534C904.707 228.151 905.587 229.767 906.643 231.479C909.284 235.854 914.037 240.133 920.726 244.317C927.416 248.502 935.69 252.306 945.548 255.729C955.759 259.153 966.673 261.816 978.292 263.813C990.087 265.81 1002.23 266.856 1014.03 267.046C1017.55 267.141 1021.07 267.141 1024.59 267.141C1025.47 267.141 1026.35 267.141 1027.23 267.141C1028.82 267.141 1030.22 267.141 1031.81 267.141H1043.25H1207.5H1371.75H1535.46L1532.82 265.81Z" fill="url(#paint55_linear_1008_4238)"/>
<path d="M1402.73 248.217H1441.81L1438.82 246.505H1399.91L1402.73 248.217Z" fill="url(#paint56_linear_1008_4238)"/>
<defs>
<linearGradient id="paint0_linear_1008_4238" x1="276.905" y1="127.233" x2="419.239" y2="673.452" gradientUnits="userSpaceOnUse">
<stop stop-color="#3688C8"/>
<stop offset="0.9996" stop-color="#1B0B3E" stop-opacity="0.8"/>
</linearGradient>
<linearGradient id="paint1_linear_1008_4238" x1="276.905" y1="134.814" x2="420.286" y2="682.901" gradientUnits="userSpaceOnUse">
<stop stop-color="#3688C8"/>
<stop offset="0.9996" stop-color="#1B0B3E" stop-opacity="0.8"/>
</linearGradient>
<linearGradient id="paint2_linear_1008_4238" x1="276.905" y1="139.857" x2="420.286" y2="687.944" gradientUnits="userSpaceOnUse">
<stop stop-color="#3688C8"/>
<stop offset="0.9996" stop-color="#1B0B3E" stop-opacity="0.8"/>
</linearGradient>
<linearGradient id="paint3_linear_1008_4238" x1="279.222" y1="131.662" x2="422.603" y2="679.75" gradientUnits="userSpaceOnUse">
<stop stop-color="#3688C8"/>
<stop offset="0.9996" stop-color="#1B0B3E" stop-opacity="0.8"/>
</linearGradient>
<linearGradient id="paint4_linear_1008_4238" x1="1677.34" y1="8.008" x2="1560.95" y2="527.657" gradientUnits="userSpaceOnUse">
<stop offset="0.325122" stop-color="#201B52"/>
<stop offset="1" stop-color="#3CADEF"/>
<stop offset="1" stop-color="#3CADEF"/>
</linearGradient>
<linearGradient id="paint5_linear_1008_4238" x1="1405.89" y1="126.119" x2="1405.95" y2="128.693" gradientUnits="userSpaceOnUse">
<stop offset="0.325122" stop-color="white"/>
<stop offset="1" stop-color="#3CADEF"/>
<stop offset="1" stop-color="#3CADEF"/>
</linearGradient>
<linearGradient id="paint6_linear_1008_4238" x1="1349.09" y1="126.119" x2="1349.15" y2="128.693" gradientUnits="userSpaceOnUse">
<stop offset="0.325122" stop-color="white"/>
<stop offset="1" stop-color="#3CADEF"/>
<stop offset="1" stop-color="#3CADEF"/>
</linearGradient>
<linearGradient id="paint7_linear_1008_4238" x1="1291.05" y1="126.119" x2="1291.11" y2="128.693" gradientUnits="userSpaceOnUse">
<stop offset="0.325122" stop-color="white"/>
<stop offset="1" stop-color="#3CADEF"/>
<stop offset="1" stop-color="#3CADEF"/>
</linearGradient>
<linearGradient id="paint8_linear_1008_4238" x1="1234.19" y1="124.083" x2="1234.68" y2="131.519" gradientUnits="userSpaceOnUse">
<stop offset="0.325122" stop-color="white"/>
<stop offset="1" stop-color="#3CADEF"/>
<stop offset="1" stop-color="#3CADEF"/>
</linearGradient>
<linearGradient id="paint9_linear_1008_4238" x1="1204.15" y1="126.217" x2="1215.98" y2="134.227" gradientUnits="userSpaceOnUse">
<stop offset="0.325122" stop-color="white"/>
<stop offset="1" stop-color="#3CADEF"/>
<stop offset="1" stop-color="#3CADEF"/>
</linearGradient>
<linearGradient id="paint10_linear_1008_4238" x1="1206.7" y1="142.993" x2="1221.14" y2="153.211" gradientUnits="userSpaceOnUse">
<stop offset="0.325122" stop-color="white"/>
<stop offset="1" stop-color="#3CADEF"/>
<stop offset="1" stop-color="#3CADEF"/>
</linearGradient>
<linearGradient id="paint11_linear_1008_4238" x1="1171.77" y1="171.552" x2="1171.92" y2="175.924" gradientUnits="userSpaceOnUse">
<stop offset="0.325122" stop-color="white"/>
<stop offset="1" stop-color="#3CADEF"/>
<stop offset="1" stop-color="#3CADEF"/>
</linearGradient>
<linearGradient id="paint12_linear_1008_4238" x1="1106.99" y1="172.286" x2="1107.08" y2="175.631" gradientUnits="userSpaceOnUse">
<stop offset="0.325122" stop-color="white"/>
<stop offset="1" stop-color="#3CADEF"/>
<stop offset="1" stop-color="#3CADEF"/>
</linearGradient>
<linearGradient id="paint13_linear_1008_4238" x1="1040.79" y1="172.286" x2="1040.88" y2="175.631" gradientUnits="userSpaceOnUse">
<stop offset="0.325122" stop-color="white"/>
<stop offset="1" stop-color="#3CADEF"/>
<stop offset="1" stop-color="#3CADEF"/>
</linearGradient>
<linearGradient id="paint14_linear_1008_4238" x1="975.964" y1="172.286" x2="976.047" y2="175.631" gradientUnits="userSpaceOnUse">
<stop offset="0.325122" stop-color="white"/>
<stop offset="1" stop-color="#3CADEF"/>
<stop offset="1" stop-color="#3CADEF"/>
</linearGradient>
<linearGradient id="paint15_linear_1008_4238" x1="914.866" y1="164.788" x2="925.31" y2="191.018" gradientUnits="userSpaceOnUse">
<stop offset="0.325122" stop-color="white"/>
<stop offset="1" stop-color="#3CADEF"/>
<stop offset="1" stop-color="#3CADEF"/>
</linearGradient>
<linearGradient id="paint16_linear_1008_4238" x1="893.003" y1="184.749" x2="912.138" y2="208.433" gradientUnits="userSpaceOnUse">
<stop offset="0.325122" stop-color="white"/>
<stop offset="1" stop-color="#3CADEF"/>
<stop offset="1" stop-color="#3CADEF"/>
</linearGradient>
<linearGradient id="paint17_linear_1008_4238" x1="1685.37" y1="34.1537" x2="1704.09" y2="224.422" gradientUnits="userSpaceOnUse">
<stop offset="0.325122" stop-color="white"/>
<stop offset="1" stop-color="#3CADEF"/>
<stop offset="1" stop-color="#3CADEF"/>
</linearGradient>
<linearGradient id="paint18_linear_1008_4238" x1="1725.58" y1="42.1915" x2="1747.97" y2="258.51" gradientUnits="userSpaceOnUse">
<stop offset="0.325122" stop-color="white"/>
<stop offset="1" stop-color="#3CADEF"/>
<stop offset="1" stop-color="#3CADEF"/>
</linearGradient>
<linearGradient id="paint19_linear_1008_4238" x1="1015.51" y1="-16.9136" x2="1041.28" y2="290.726" gradientUnits="userSpaceOnUse">
<stop offset="0.325122" stop-color="white"/>
<stop offset="1" stop-color="#3CADEF"/>
<stop offset="1" stop-color="#3CADEF"/>
</linearGradient>
<linearGradient id="paint20_linear_1008_4238" x1="1001.49" y1="-17.6072" x2="1032.99" y2="335.739" gradientUnits="userSpaceOnUse">
<stop offset="0.325122" stop-color="white"/>
<stop offset="1" stop-color="#3CADEF"/>
<stop offset="1" stop-color="#3CADEF"/>
</linearGradient>
<linearGradient id="paint21_linear_1008_4238" x1="1548.62" y1="125.341" x2="1406.29" y2="671.561" gradientUnits="userSpaceOnUse">
<stop stop-color="#3688C8"/>
<stop offset="0.9996" stop-color="#1B0B3E" stop-opacity="0.8"/>
</linearGradient>
<linearGradient id="paint22_linear_1008_4238" x1="1548.62" y1="132.922" x2="1405.24" y2="681.01" gradientUnits="userSpaceOnUse">
<stop stop-color="#3688C8"/>
<stop offset="0.9996" stop-color="#1B0B3E" stop-opacity="0.8"/>
</linearGradient>
<linearGradient id="paint23_linear_1008_4238" x1="1548.62" y1="137.965" x2="1405.24" y2="686.052" gradientUnits="userSpaceOnUse">
<stop stop-color="#3688C8"/>
<stop offset="0.9996" stop-color="#1B0B3E" stop-opacity="0.8"/>
</linearGradient>
<linearGradient id="paint24_linear_1008_4238" x1="1546.3" y1="129.771" x2="1402.92" y2="677.858" gradientUnits="userSpaceOnUse">
<stop stop-color="#3688C8"/>
<stop offset="0.9996" stop-color="#1B0B3E" stop-opacity="0.8"/>
</linearGradient>
<linearGradient id="paint25_linear_1008_4238" x1="148.182" y1="6.11652" x2="264.579" y2="525.765" gradientUnits="userSpaceOnUse">
<stop offset="0.325122" stop-color="#201B52"/>
<stop offset="1" stop-color="#3CADEF"/>
<stop offset="1" stop-color="#3CADEF"/>
</linearGradient>
<linearGradient id="paint26_linear_1008_4238" x1="8.95388" y1="198.224" x2="8.84791" y2="202.084" gradientUnits="userSpaceOnUse">
<stop offset="0.325122" stop-color="white"/>
<stop offset="1" stop-color="#3CADEF"/>
<stop offset="1" stop-color="#3CADEF"/>
</linearGradient>
<linearGradient id="paint27_linear_1008_4238" x1="78.7726" y1="198.224" x2="78.6731" y2="202.084" gradientUnits="userSpaceOnUse">
<stop offset="0.325122" stop-color="white"/>
<stop offset="1" stop-color="#3CADEF"/>
<stop offset="1" stop-color="#3CADEF"/>
</linearGradient>
<linearGradient id="paint28_linear_1008_4238" x1="149.966" y1="198.224" x2="149.858" y2="202.084" gradientUnits="userSpaceOnUse">
<stop offset="0.325122" stop-color="white"/>
<stop offset="1" stop-color="#3CADEF"/>
<stop offset="1" stop-color="#3CADEF"/>
</linearGradient>
<linearGradient id="paint29_linear_1008_4238" x1="219.961" y1="193.984" x2="219.414" y2="202.964" gradientUnits="userSpaceOnUse">
<stop offset="0.325122" stop-color="white"/>
<stop offset="1" stop-color="#3CADEF"/>
<stop offset="1" stop-color="#3CADEF"/>
</linearGradient>
<linearGradient id="paint30_linear_1008_4238" x1="277.747" y1="162.665" x2="264.383" y2="188.087" gradientUnits="userSpaceOnUse">
<stop offset="0.325122" stop-color="white"/>
<stop offset="1" stop-color="#3CADEF"/>
<stop offset="1" stop-color="#3CADEF"/>
</linearGradient>
<linearGradient id="paint31_linear_1008_4238" x1="301.284" y1="141.18" x2="288.345" y2="165.077" gradientUnits="userSpaceOnUse">
<stop offset="0.325122" stop-color="white"/>
<stop offset="1" stop-color="#3CADEF"/>
<stop offset="1" stop-color="#3CADEF"/>
</linearGradient>
<linearGradient id="paint32_linear_1008_4238" x1="322.594" y1="124.421" x2="312.169" y2="144.503" gradientUnits="userSpaceOnUse">
<stop offset="0.325122" stop-color="white"/>
<stop offset="1" stop-color="#3CADEF"/>
<stop offset="1" stop-color="#3CADEF"/>
</linearGradient>
<linearGradient id="paint33_linear_1008_4238" x1="360.883" y1="122.079" x2="360.399" y2="129.774" gradientUnits="userSpaceOnUse">
<stop offset="0.325122" stop-color="white"/>
<stop offset="1" stop-color="#3CADEF"/>
<stop offset="1" stop-color="#3CADEF"/>
</linearGradient>
<linearGradient id="paint34_linear_1008_4238" x1="419.638" y1="124.227" x2="419.578" y2="126.801" gradientUnits="userSpaceOnUse">
<stop offset="0.325122" stop-color="white"/>
<stop offset="1" stop-color="#3CADEF"/>
<stop offset="1" stop-color="#3CADEF"/>
</linearGradient>
<linearGradient id="paint35_linear_1008_4238" x1="476.431" y1="124.227" x2="476.375" y2="126.801" gradientUnits="userSpaceOnUse">
<stop offset="0.325122" stop-color="white"/>
<stop offset="1" stop-color="#3CADEF"/>
<stop offset="1" stop-color="#3CADEF"/>
</linearGradient>
<linearGradient id="paint36_linear_1008_4238" x1="534.477" y1="124.227" x2="534.416" y2="126.801" gradientUnits="userSpaceOnUse">
<stop offset="0.325122" stop-color="white"/>
<stop offset="1" stop-color="#3CADEF"/>
<stop offset="1" stop-color="#3CADEF"/>
</linearGradient>
<linearGradient id="paint37_linear_1008_4238" x1="591.331" y1="122.191" x2="590.848" y2="129.628" gradientUnits="userSpaceOnUse">
<stop offset="0.325122" stop-color="white"/>
<stop offset="1" stop-color="#3CADEF"/>
<stop offset="1" stop-color="#3CADEF"/>
</linearGradient>
<linearGradient id="paint38_linear_1008_4238" x1="621.376" y1="124.325" x2="609.541" y2="132.335" gradientUnits="userSpaceOnUse">
<stop offset="0.325122" stop-color="white"/>
<stop offset="1" stop-color="#3CADEF"/>
<stop offset="1" stop-color="#3CADEF"/>
</linearGradient>
<linearGradient id="paint39_linear_1008_4238" x1="618.829" y1="141.102" x2="604.382" y2="151.32" gradientUnits="userSpaceOnUse">
<stop offset="0.325122" stop-color="white"/>
<stop offset="1" stop-color="#3CADEF"/>
<stop offset="1" stop-color="#3CADEF"/>
</linearGradient>
<linearGradient id="paint40_linear_1008_4238" x1="653.757" y1="169.66" x2="653.602" y2="174.033" gradientUnits="userSpaceOnUse">
<stop offset="0.325122" stop-color="white"/>
<stop offset="1" stop-color="#3CADEF"/>
<stop offset="1" stop-color="#3CADEF"/>
</linearGradient>
<linearGradient id="paint41_linear_1008_4238" x1="718.53" y1="170.394" x2="718.445" y2="173.74" gradientUnits="userSpaceOnUse">
<stop offset="0.325122" stop-color="white"/>
<stop offset="1" stop-color="#3CADEF"/>
<stop offset="1" stop-color="#3CADEF"/>
</linearGradient>
<linearGradient id="paint42_linear_1008_4238" x1="784.731" y1="170.394" x2="784.641" y2="173.739" gradientUnits="userSpaceOnUse">
<stop offset="0.325122" stop-color="white"/>
<stop offset="1" stop-color="#3CADEF"/>
<stop offset="1" stop-color="#3CADEF"/>
</linearGradient>
<linearGradient id="paint43_linear_1008_4238" x1="849.561" y1="170.394" x2="849.478" y2="173.74" gradientUnits="userSpaceOnUse">
<stop offset="0.325122" stop-color="white"/>
<stop offset="1" stop-color="#3CADEF"/>
<stop offset="1" stop-color="#3CADEF"/>
</linearGradient>
<linearGradient id="paint44_linear_1008_4238" x1="910.659" y1="162.897" x2="900.215" y2="189.126" gradientUnits="userSpaceOnUse">
<stop offset="0.325122" stop-color="white"/>
<stop offset="1" stop-color="#3CADEF"/>
<stop offset="1" stop-color="#3CADEF"/>
</linearGradient>
<linearGradient id="paint45_linear_1008_4238" x1="932.521" y1="182.858" x2="913.387" y2="206.541" gradientUnits="userSpaceOnUse">
<stop offset="0.325122" stop-color="white"/>
<stop offset="1" stop-color="#3CADEF"/>
<stop offset="1" stop-color="#3CADEF"/>
</linearGradient>
<linearGradient id="paint46_linear_1008_4238" x1="954.296" y1="211.371" x2="940.274" y2="244.909" gradientUnits="userSpaceOnUse">
<stop offset="0.325122" stop-color="white"/>
<stop offset="1" stop-color="#3CADEF"/>
<stop offset="1" stop-color="#3CADEF"/>
</linearGradient>
<linearGradient id="paint47_linear_1008_4238" x1="1020.11" y1="244.486" x2="1019.98" y2="249.117" gradientUnits="userSpaceOnUse">
<stop offset="0.325122" stop-color="white"/>
<stop offset="1" stop-color="#3CADEF"/>
<stop offset="1" stop-color="#3CADEF"/>
</linearGradient>
<linearGradient id="paint48_linear_1008_4238" x1="1099.28" y1="244.486" x2="1099.14" y2="249.117" gradientUnits="userSpaceOnUse">
<stop offset="0.325122" stop-color="white"/>
<stop offset="1" stop-color="#3CADEF"/>
<stop offset="1" stop-color="#3CADEF"/>
</linearGradient>
<linearGradient id="paint49_linear_1008_4238" x1="1177.08" y1="244.486" x2="1176.95" y2="249.118" gradientUnits="userSpaceOnUse">
<stop offset="0.325122" stop-color="white"/>
<stop offset="1" stop-color="#3CADEF"/>
<stop offset="1" stop-color="#3CADEF"/>
</linearGradient>
<linearGradient id="paint50_linear_1008_4238" x1="1256.49" y1="244.486" x2="1256.35" y2="249.117" gradientUnits="userSpaceOnUse">
<stop offset="0.325122" stop-color="white"/>
<stop offset="1" stop-color="#3CADEF"/>
<stop offset="1" stop-color="#3CADEF"/>
</linearGradient>
<linearGradient id="paint51_linear_1008_4238" x1="1334.28" y1="244.486" x2="1334.15" y2="249.118" gradientUnits="userSpaceOnUse">
<stop offset="0.325122" stop-color="white"/>
<stop offset="1" stop-color="#3CADEF"/>
<stop offset="1" stop-color="#3CADEF"/>
</linearGradient>
<linearGradient id="paint52_linear_1008_4238" x1="140.159" y1="32.2622" x2="121.432" y2="222.53" gradientUnits="userSpaceOnUse">
<stop offset="0.325122" stop-color="white"/>
<stop offset="1" stop-color="#3CADEF"/>
<stop offset="1" stop-color="#3CADEF"/>
</linearGradient>
<linearGradient id="paint53_linear_1008_4238" x1="99.946" y1="40.3" x2="77.5575" y2="256.619" gradientUnits="userSpaceOnUse">
<stop offset="0.325122" stop-color="white"/>
<stop offset="1" stop-color="#3CADEF"/>
<stop offset="1" stop-color="#3CADEF"/>
</linearGradient>
<linearGradient id="paint54_linear_1008_4238" x1="810.013" y1="-18.8052" x2="784.241" y2="288.835" gradientUnits="userSpaceOnUse">
<stop offset="0.325122" stop-color="white"/>
<stop offset="1" stop-color="#3CADEF"/>
<stop offset="1" stop-color="#3CADEF"/>
</linearGradient>
<linearGradient id="paint55_linear_1008_4238" x1="824.032" y1="-19.4987" x2="792.539" y2="333.847" gradientUnits="userSpaceOnUse">
<stop offset="0.325122" stop-color="white"/>
<stop offset="1" stop-color="#3CADEF"/>
<stop offset="1" stop-color="#3CADEF"/>
</linearGradient>
<linearGradient id="paint56_linear_1008_4238" x1="1413.69" y1="244.486" x2="1413.55" y2="249.117" gradientUnits="userSpaceOnUse">
<stop offset="0.325122" stop-color="white"/>
<stop offset="1" stop-color="#3CADEF"/>
<stop offset="1" stop-color="#3CADEF"/>
</linearGradient>
</defs>
</svg>
