<svg width="428" height="400" viewBox="0 0 428 400" fill="none" xmlns="http://www.w3.org/2000/svg">
<path d="M258 48C258 44.6863 260.686 42 264 42H299.778C303.092 42 305.778 44.6863 305.778 48V83.7782C305.778 87.092 303.092 89.7783 299.778 89.7783H264C260.686 89.7783 258 87.092 258 83.7783V48Z" fill="#3CADEF"/>
<mask id="mask0_1111_3098" style="mask-type:alpha" maskUnits="userSpaceOnUse" x="263" y="47" width="38" height="38">
<rect x="263.083" y="47.4209" width="37.4916" height="37.4916" fill="#C4C4C4"/>
</mask>
<g mask="url(#mask0_1111_3098)">
<path d="M296.598 56.7032C295.792 58.0264 294.775 59.1408 293.549 60.0461V60.8471C293.549 69.4482 287.345 79.2334 275.954 79.2334C272.484 79.2334 269.225 78.119 266.491 76.3083C266.912 76.4127 267.402 76.4127 267.928 76.4127C270.767 76.5172 273.431 75.4029 275.569 73.6966C272.8 73.6966 270.557 71.7813 269.751 69.1348C270.066 69.2393 270.451 69.2393 270.872 69.2393C271.468 69.2393 271.994 69.1348 272.484 69.0303C269.645 68.4384 267.507 65.7222 267.507 62.5882V62.4837C268.419 63.0061 269.33 63.2846 270.346 63.2846C268.734 62.0658 267.613 60.1506 267.613 57.8175C267.613 56.7032 267.928 55.4844 268.419 54.579C271.468 58.5139 276.059 61.2649 281.141 61.5435C281.036 61.0212 280.931 60.5337 280.931 60.0113C280.931 56.4942 283.7 53.5691 287.135 53.6736C288.852 53.6736 290.499 54.4745 291.621 55.7978C293.058 55.4844 294.355 54.9969 295.792 54.196C295.266 55.7281 294.355 56.9121 293.058 57.7478C294.285 57.5041 295.476 57.2255 296.598 56.7032Z" fill="white"/>
</g>
<rect x="124" width="111.136" height="111.136" rx="13" fill="#3CADEF"/>
<mask id="mask1_1111_3098" style="mask-type:alpha" maskUnits="userSpaceOnUse" x="135" y="11" width="89" height="89">
<rect x="135.823" y="11.8223" width="87.2087" height="87.2087" fill="#C4C4C4"/>
</mask>
<g mask="url(#mask1_1111_3098)">
<path d="M207.789 34.5431C198.436 27.5288 189.535 27.678 189.535 27.678L188.63 28.7227C199.341 32.006 204.47 36.6325 204.772 36.931C197.983 33.3492 191.345 31.409 185.16 30.8121C180.483 30.2151 175.958 30.3643 172.035 30.9613C171.583 30.9613 171.281 30.9613 170.979 31.1106C168.716 31.2598 163.134 32.1553 156.195 35.1401C153.781 36.0355 152.423 36.7818 152.272 36.931C152.574 36.6325 158.005 31.7075 169.32 28.4242L168.716 27.678C168.716 27.678 159.815 27.5288 150.462 34.3939C150.462 34.3939 141.108 51.2582 141.108 72.0029C141.108 72.0029 146.539 81.4051 161.022 81.8528C161.022 81.8528 163.436 79.0172 165.397 76.4801C157.402 74.0923 154.233 69.1673 154.083 68.8688C154.083 68.8688 154.837 69.3165 155.893 69.9135C155.893 69.9135 156.044 70.0627 156.195 70.0627C156.345 70.212 156.647 70.212 156.798 70.3612C158.458 71.2567 160.117 72.0029 161.626 72.5998C164.341 73.6445 167.509 74.6892 171.13 75.4354C175.958 76.3309 181.69 76.6294 188.027 75.5847C191.044 75.137 194.212 74.0923 197.531 72.7491C199.794 71.8536 202.358 70.6597 205.074 69.018C204.923 69.3165 201.604 74.3907 193.307 76.6294C195.268 79.0172 197.682 81.8528 197.682 81.8528C212.014 81.4051 217.595 72.0029 217.746 72.0029C217.143 51.2582 207.789 34.5431 207.789 34.5431ZM166.906 66.1824C163.285 66.1824 160.268 62.8991 160.268 59.0188C160.268 55.1385 163.134 51.8552 166.906 51.8552C170.677 51.8552 173.544 55.1385 173.544 59.0188C173.544 62.8991 170.527 66.1824 166.906 66.1824ZM190.591 66.1824C186.97 66.1824 183.953 62.8991 183.953 59.0188C183.953 55.1385 186.82 51.8552 190.591 51.8552C194.363 51.8552 197.229 55.1385 197.229 59.0188C197.229 62.8991 194.363 66.1824 190.591 66.1824Z" fill="white"/>
</g>
<rect x="333" y="12" width="94.5179" height="94.5179" rx="10" fill="#3CADEF"/>
<mask id="mask2_1111_3098" style="mask-type:alpha" maskUnits="userSpaceOnUse" x="343" y="22" width="75" height="75">
<rect x="343.055" y="22.0547" width="74.1682" height="74.1682" fill="#C4C4C4"/>
</mask>
<g mask="url(#mask2_1111_3098)">
<path d="M404.441 36.966L354.669 55.7317C351.272 57.0656 351.292 58.9184 354.046 59.7445L366.824 63.642L396.39 45.4034C397.788 44.5716 399.065 45.0191 398.015 45.9304L374.061 67.0674H374.056L374.061 67.0702L373.18 79.9484C374.471 79.9484 375.041 79.3693 375.765 78.6858L381.972 72.7847L394.882 82.1085C397.263 83.3903 398.972 82.7316 399.565 79.954L408.04 40.902C408.907 37.5013 406.712 35.9615 404.441 36.966Z" fill="white"/>
</g>
<rect x="282" y="133" width="146" height="146" rx="13" fill="#3CADEF"/>
<mask id="mask3_1111_3098" style="mask-type:alpha" maskUnits="userSpaceOnUse" x="297" y="149" width="116" height="116">
<rect x="297.532" y="149.566" width="114.566" height="114.566" fill="#C4C4C4"/>
</mask>
<g mask="url(#mask3_1111_3098)">
<path d="M399.751 184.349C398.671 180.333 395.505 177.168 391.49 176.087C384.155 174.079 354.814 174.079 354.814 174.079C354.814 174.079 325.473 174.079 318.138 176.01C314.2 177.091 310.957 180.334 309.877 184.349C307.947 191.683 307.947 206.894 307.947 206.894C307.947 206.894 307.947 222.182 309.877 229.44C310.958 233.455 314.123 236.621 318.139 237.702C325.551 239.709 354.814 239.709 354.814 239.709C354.814 239.709 384.155 239.709 391.49 237.779C395.505 236.698 398.671 233.532 399.752 229.517C401.682 222.182 401.682 206.972 401.682 206.972C401.682 206.972 401.759 191.683 399.751 184.349Z" fill="white"/>
<path d="M345.472 220.945L369.871 206.893L345.472 192.84V220.945Z" fill="#3CADEF"/>
</g>
<rect y="147.716" width="251.355" height="251.355" rx="15" fill="#3CADEF"/>
<mask id="mask4_1111_3098" style="mask-type:alpha" maskUnits="userSpaceOnUse" x="19" y="167" width="210" height="198">
<rect x="19.6091" y="167.326" width="209.192" height="197.238" fill="#C4C4C4"/>
</mask>
<g mask="url(#mask4_1111_3098)">
<path d="M222.825 265.518C219.532 265.518 217.567 263.579 217.567 260.352V246.008H228.571V234.049H217.174V220.898H213.963L201.509 234.063H184.122L173.322 251.702V217.793H157.697V249.75C155.028 239.418 146.246 232.571 134.755 232.571C131.109 232.544 127.518 233.453 124.32 235.202V232.775L108.248 232.815V295.359H123.697V277.639C127.044 279.632 130.866 280.662 134.755 280.635C146.246 280.635 155.028 273.761 157.697 263.416V279.117H173.308V260.067L184.665 279.117H203.094L187.524 255.539L193.785 246.021H201.929V263.023C201.929 273.043 208.027 279.117 218.055 279.117H228.801V265.518H222.825ZM133.616 266.887C127.762 266.887 123.466 262.494 123.466 256.583C123.466 250.658 127.776 246.279 133.616 246.279C139.471 246.279 143.766 250.672 143.766 256.583C143.766 262.508 139.43 266.887 133.616 266.887Z" fill="white"/>
<path d="M39.3141 231.569H22.1445V248.626H39.3141V231.569Z" fill="white"/>
<path d="M30.4773 212.152H19.6091V222.945H30.4773V212.152Z" fill="white"/>
<path d="M59.6391 213.224H47.9307V224.843H59.6391V213.224Z" fill="white"/>
<path d="M42.2387 216.128H36.3845V221.944H42.2387V216.128Z" fill="white"/>
<path d="M94.2751 233.789V270.993C94.2751 272.403 93.9906 273.799 93.4485 275.101C92.9065 276.402 92.1069 277.582 91.1041 278.585C90.1013 279.575 88.9088 280.375 87.5943 280.904C86.2798 281.446 84.884 281.717 83.4611 281.717H46.0051V233.789H94.2751Z" fill="white"/>
<path d="M110.799 317.409C110.799 327.456 118.443 334.475 127.866 334.475C134.837 334.475 140.846 331.014 143.394 324.476H136.808C135.029 328.033 131.856 329.716 127.866 329.716C121.232 329.716 116.424 324.956 116.424 317.409C116.424 309.861 121.232 305.15 127.866 305.15C131.856 305.15 135.029 306.832 136.808 310.39H143.394C140.846 303.852 134.837 300.342 127.866 300.342C118.443 300.342 110.799 307.409 110.799 317.409Z" fill="white"/>
<path d="M149.809 334.187H155.29V319.38C155.29 314.524 157.934 312.024 161.972 312.024C165.962 312.024 168.607 314.524 168.607 319.38V334.187H174.039V318.562C174.039 311.159 169.424 307.265 163.511 307.265C160.097 307.265 157.117 308.563 155.29 310.774V298.611H149.809V334.187Z" fill="white"/>
<path d="M179.203 320.822C179.203 328.995 184.732 334.62 191.606 334.62C196.029 334.62 199.202 332.504 200.885 330.245V334.187H206.414V307.698H200.885V311.544C199.25 309.38 196.174 307.265 191.703 307.265C184.732 307.265 179.203 312.649 179.203 320.822ZM200.885 320.918C200.885 326.639 196.991 329.86 192.856 329.86C188.77 329.86 184.828 326.543 184.828 320.822C184.828 315.101 188.77 312.024 192.856 312.024C196.991 312.024 200.885 315.245 200.885 320.918Z" fill="white"/>
<path d="M214.477 326.831C214.477 332.216 217.41 334.187 222.121 334.187H226.448V329.62H223.083C220.775 329.62 220.006 328.802 220.006 326.831V312.169H226.448V307.698H220.006V301.111H214.477V307.698H211.353V312.169H214.477V326.831Z" fill="white"/>
</g>
</svg>
