<svg width="81" height="81" viewBox="0 0 81 81" fill="none" xmlns="http://www.w3.org/2000/svg">
<g clip-path="url(#clip0_1008_3900)">
<path d="M39.8582 81.0001C39.5542 80.8312 39.284 80.6623 38.98 80.561C33.5079 78.5343 28.0696 76.5414 22.5976 74.5485C22.4287 74.4809 22.2598 74.4471 22.0909 74.3458C21.1113 73.9405 20.6722 73.096 21.01 72.184C21.3478 71.2382 22.226 70.7991 23.2394 71.1707C25.9078 72.1165 28.5763 73.1298 31.2448 74.1094C33.5079 74.92 35.7373 75.7645 38.0004 76.5752C38.2369 76.6765 38.4733 76.7441 38.8111 76.8454C38.8111 76.4738 38.8111 76.2374 38.8111 75.9672C38.8111 64.2461 38.8111 52.5589 38.8111 40.8379C38.8111 40.1961 38.6422 39.8921 38.0004 39.6556C28.9479 36.3454 19.8615 33.0014 10.809 29.6573C10.6063 29.5898 10.4037 29.5222 10.1334 29.4209C10.1334 29.7924 10.1334 30.0964 10.1334 30.4004C10.1334 39.453 10.1334 48.4717 10.1334 57.5243C10.1334 57.7945 10.1334 58.0647 10.1334 58.3012C10.0659 59.247 9.28898 59.9563 8.41074 59.9225C7.53251 59.8888 6.85695 59.2132 6.78939 58.3012C6.75562 57.9972 6.78939 57.727 6.78939 57.423C6.78939 47.7624 6.78939 38.0681 6.78939 28.4075C6.78939 28.0022 6.75562 27.5631 6.75562 27.1577C6.75562 26.2795 7.16095 25.6715 7.93785 25.3675C15.1664 22.699 22.4287 20.0643 29.6572 17.3958C30.4003 17.1256 31.0759 17.1932 31.6163 17.7674C32.0892 18.2741 32.2919 18.9159 31.9541 19.5239C31.6839 19.963 31.1772 20.4359 30.7043 20.6048C25.7389 22.4626 20.7735 24.2866 15.8082 26.1106C15.065 26.3808 14.3219 26.6511 13.4437 26.9888C13.849 27.1577 14.0855 27.2591 14.3557 27.3604C22.9016 30.5018 31.4474 33.6431 39.9933 36.7845C40.2973 36.8858 40.7364 36.9196 41.0404 36.8183C49.7552 33.6094 58.47 30.4004 67.1847 27.1915C67.3198 27.1577 67.4212 27.0564 67.6238 26.9551C65.9349 26.3471 64.3474 25.7391 62.7598 25.1648C58.7064 23.6786 54.653 22.1923 50.5997 20.7061C50.397 20.6385 50.1943 20.571 50.0254 20.4697C49.1472 20.0643 48.7756 19.1523 49.1134 18.3079C49.4174 17.4972 50.3294 17.0581 51.2077 17.3621C53.133 18.0376 55.0246 18.747 56.9162 19.4563C62.2869 21.4154 67.6914 23.4084 73.0621 25.3675C73.9066 25.6715 74.3119 26.2795 74.3119 27.1915C74.3119 37.2574 74.2781 47.3233 74.2781 57.3892C74.2781 57.6594 74.2781 57.9296 74.2781 58.1661C74.2444 59.247 73.535 59.9901 72.5892 59.9563C71.6434 59.9225 70.9679 59.1794 70.9341 58.0985C70.9341 57.6594 70.9341 57.1865 70.9341 56.7474C70.9341 47.9988 70.9341 39.2503 70.9341 30.5018C70.9341 30.1978 70.9341 29.86 70.9341 29.4546C70.4274 29.6235 69.9883 29.7586 69.5492 29.9275C60.6993 33.204 51.8157 36.4467 42.9658 39.7232C42.4929 39.8921 42.2565 40.061 42.2565 40.6352C42.2902 52.4913 42.2564 64.3475 42.2902 76.2374C42.2902 76.4063 42.324 76.6089 42.324 76.8792C44.148 76.2036 45.9045 75.5618 47.6947 74.92C51.0725 73.6702 54.4504 72.4205 57.862 71.2044C58.8415 70.8667 59.7198 71.272 60.0575 72.1502C60.3953 73.0285 59.99 73.9067 59.078 74.3458C58.8753 74.4471 58.6726 74.4809 58.47 74.5485C53.0317 76.5414 47.5934 78.5343 42.1551 80.5272C41.8173 80.6623 41.5133 80.8312 41.2093 81.0001C40.7027 81.0001 40.2973 81.0001 39.8582 81.0001Z" fill="black"/>
<path d="M73.2309 80.9999C72.6567 80.7973 72.0825 80.6621 71.542 80.4257C68.0967 78.9057 66.5429 74.9199 68.1304 71.4745C68.3669 70.934 68.2993 70.6638 67.894 70.2585C65.7997 68.198 63.7393 66.1375 61.6788 64.0433C61.5099 63.8744 61.341 63.7055 61.1721 63.5366C60.5641 62.7935 60.5979 61.8815 61.2059 61.2397C61.8477 60.5641 62.8273 60.5304 63.5366 61.2059C64.3473 61.949 65.0904 62.7259 65.8335 63.4691C66.8469 64.4824 67.9278 65.462 68.9073 66.5429C69.9545 67.7251 70.8327 68.3669 72.6905 67.7251C76.1696 66.5766 79.7839 68.9411 80.7297 72.4878C81.6755 76.0008 79.5812 79.6488 76.0683 80.6621C75.7981 80.7297 75.5279 80.831 75.2576 80.9324C74.6158 80.9999 73.9403 80.9999 73.2309 80.9999ZM70.8665 74.2781C70.8665 76.1021 72.454 77.6559 74.2781 77.6221C76.1021 77.5883 77.6559 76.0345 77.6221 74.2105C77.5883 72.3527 76.0683 70.8665 74.2105 70.8665C72.3865 70.8665 70.8665 72.4203 70.8665 74.2781Z" fill="black"/>
<path d="M0 73.2309C0.101334 72.8931 0.202669 72.5891 0.304003 72.2513C1.48624 68.3668 5.84362 66.3739 9.52544 68.0966C10.0997 68.3668 10.4037 68.2317 10.7752 67.8264C12.8019 65.7659 14.8624 63.7055 16.9229 61.6788C17.1255 61.4761 17.3282 61.2734 17.5646 61.1045C18.2402 60.5979 19.1184 60.6317 19.7264 61.2059C20.3682 61.8139 20.4358 62.7259 19.8953 63.4352C19.6251 63.773 19.3211 64.0432 19.0171 64.3472C17.0242 66.3402 15.0313 68.3331 13.0384 70.326C12.7344 70.63 12.5992 70.8664 12.8019 71.3393C14.6597 75.4603 12.4641 79.8176 8.10676 80.831C7.97164 80.8648 7.87031 80.9323 7.76897 80.9661C7.09341 80.9661 6.38407 80.9661 5.70851 80.9661C5.50584 80.8985 5.33695 80.831 5.13428 80.7634C2.73603 80.0879 1.11468 78.5679 0.337781 76.2034C0.236447 75.8994 0.135113 75.5616 0.0337781 75.2576C0 74.6158 0 73.9402 0 73.2309ZM10.1334 74.2442C10.1334 72.3864 8.61343 70.8664 6.75563 70.8664C4.89783 70.8664 3.37781 72.3864 3.37781 74.2442C3.37781 76.0683 4.93161 77.6221 6.75563 77.6221C8.57965 77.6221 10.1334 76.0683 10.1334 74.2442Z" fill="black"/>
<path d="M8.67471e-05 75.2915C0.101421 75.5955 0.202756 75.9333 0.30409 76.2373C1.11477 78.6018 2.73612 80.088 5.10059 80.7973C5.30326 80.8649 5.47215 80.9325 5.67482 81C3.78324 81 1.89166 81 -0.0336914 81C8.67471e-05 79.1084 8.67471e-05 77.1831 8.67471e-05 75.2915Z" fill="white"/>
<path d="M38.811 19.49C38.811 17.7673 38.7773 16.0108 38.811 14.2882C38.8448 13.6126 38.6759 13.241 37.9666 12.9708C34.9603 11.8224 33.2714 8.61343 33.8794 5.4045C34.4874 2.29691 37.3248 0 40.4999 0C43.6751 0 46.5125 2.29691 47.1205 5.4045C47.7623 8.61343 46.0396 11.8224 42.9995 13.0046C42.3577 13.241 42.1889 13.5788 42.2226 14.1868C42.2564 17.8011 42.2564 21.4153 42.2226 25.0296C42.2226 26.4483 41.1755 27.2927 39.9933 26.9212C39.2502 26.6847 38.8448 26.043 38.8448 25.0634C38.7773 23.1718 38.811 21.3478 38.811 19.49ZM37.1559 6.75563C37.1559 8.61343 38.6421 10.1334 40.4999 10.1334C42.3577 10.1334 43.844 8.61343 43.844 6.75563C43.844 4.89783 42.3577 3.37782 40.4999 3.37782C38.6421 3.37782 37.1559 4.86405 37.1559 6.75563Z" fill="black"/>
<path d="M70.8665 74.2781C70.8665 72.4203 72.3527 70.9002 74.2105 70.8665C76.0683 70.8665 77.5883 72.3527 77.6221 74.2105C77.6559 76.0345 76.1021 77.5883 74.278 77.6221C72.454 77.6559 70.8665 76.1021 70.8665 74.2781Z" fill="white"/>
<path d="M10.1336 74.2443C10.1336 76.1021 8.61354 77.6221 6.75574 77.6221C4.93172 77.6221 3.37793 76.0683 3.37793 74.2443C3.37793 72.4203 4.89795 70.8665 6.75574 70.8665C8.57976 70.8665 10.1336 72.3865 10.1336 74.2443Z" fill="white"/>
<path d="M37.156 6.75574C37.156 4.89795 38.676 3.37793 40.5 3.37793C42.3578 3.37793 43.8441 4.89795 43.8441 6.75574C43.8441 8.61354 42.3578 10.1336 40.5 10.1336C38.6422 10.1336 37.156 8.61354 37.156 6.75574Z" fill="white"/>
</g>
<defs>
<clipPath id="clip0_1008_3900">
<rect width="81" height="81" fill="white"/>
</clipPath>
</defs>
</svg>
