<svg width="120" height="120" viewBox="0 0 120 120" fill="none" xmlns="http://www.w3.org/2000/svg">
<path fill-rule="evenodd" clip-rule="evenodd" d="M59.5335 30C42.6493 30 29 43.7499 29 60.7605C29 74.3579 37.7456 85.8679 49.878 89.9416C51.3948 90.2479 51.9505 89.2798 51.9505 88.4654C51.9505 87.7523 51.9005 85.3079 51.9005 82.761C43.4068 84.5948 41.638 79.0942 41.638 79.0942C40.273 75.5292 38.2506 74.6129 38.2506 74.6129C35.4706 72.7286 38.4531 72.7286 38.4531 72.7286C41.5368 72.9323 43.1549 75.8861 43.1549 75.8861C45.8843 80.571 50.2824 79.2473 52.0517 78.4323C52.3042 76.4461 53.1136 75.0711 53.973 74.3073C47.1986 73.5942 40.0712 70.9461 40.0712 59.1305C40.0712 55.7693 41.2837 53.0193 43.2049 50.8805C42.9018 50.1168 41.8399 46.9587 43.5087 42.7318C43.5087 42.7318 46.0868 41.9168 51.8998 45.8893C54.3886 45.216 56.9553 44.8734 59.5335 44.8706C62.1116 44.8706 64.7398 45.2274 67.1666 45.8893C72.9803 41.9168 75.5584 42.7318 75.5584 42.7318C77.2272 46.9587 76.1647 50.1168 75.8615 50.8805C77.8334 53.0193 78.9959 55.7693 78.9959 59.1305C78.9959 70.9461 71.8685 73.5429 65.0435 74.3073C66.156 75.2748 67.116 77.1079 67.116 80.011C67.116 84.136 67.066 87.4466 67.066 88.4648C67.066 89.2798 67.6222 90.2479 69.1385 89.9423C81.2709 85.8673 90.0165 74.3579 90.0165 60.7605C90.0665 43.7499 76.3672 30 59.5335 30Z" fill="white"/>
<circle opacity="0.5" cx="60" cy="60" r="59" stroke="#4EA8DD" stroke-width="2"/>
</svg>
