<svg width="120" height="120" viewBox="0 0 120 120" fill="none" xmlns="http://www.w3.org/2000/svg">
<circle opacity="0.5" cx="60" cy="60" r="59" stroke="#4EA8DD" stroke-width="2"/>
<g clip-path="url(#clip0_1723_998)">
<path d="M60.0148 30.4546C47.6779 30.4546 44.0699 30.4673 43.3685 30.5255C40.8368 30.7359 39.2614 31.1346 37.5451 31.9891C36.2224 32.6459 35.1792 33.4072 34.1497 34.4745C32.2748 36.4208 31.1384 38.8152 30.7271 41.6615C30.5271 43.0433 30.4689 43.3251 30.4571 50.3831C30.4526 52.7357 30.4571 55.832 30.4571 59.9851C30.4571 72.312 30.4707 75.9164 30.5298 76.6164C30.7344 79.0799 31.1207 80.6299 31.9389 82.3253C33.5025 85.5707 36.4887 88.0069 40.0068 88.916C41.225 89.2296 42.5704 89.4024 44.2976 89.4842C45.0294 89.516 52.4882 89.5387 59.9517 89.5387C67.4151 89.5387 74.8785 89.5296 75.5921 89.4933C77.592 89.3992 78.7534 89.2433 80.0374 88.9115C83.5782 87.9978 86.5099 85.5979 88.1054 82.3071C88.9076 80.6526 89.3144 79.0436 89.4985 76.7086C89.5385 76.1996 89.5553 68.083 89.5553 59.9773C89.5553 51.8703 89.5371 43.7687 89.4971 43.2597C89.3108 40.887 88.904 39.2916 88.0758 37.6053C87.3963 36.2249 86.6418 35.194 85.5463 34.1399C83.5914 32.2727 81.2006 31.1364 78.3516 30.7255C76.9711 30.526 76.6962 30.4669 69.6327 30.4546H60.0148Z" fill="url(#paint0_radial_1723_998)"/>
<path d="M60.0148 30.4546C47.6779 30.4546 44.0699 30.4673 43.3685 30.5255C40.8368 30.7359 39.2614 31.1346 37.5451 31.9891C36.2224 32.6459 35.1792 33.4072 34.1497 34.4745C32.2748 36.4208 31.1384 38.8152 30.7271 41.6615C30.5271 43.0433 30.4689 43.3251 30.4571 50.3831C30.4526 52.7357 30.4571 55.832 30.4571 59.9851C30.4571 72.312 30.4707 75.9164 30.5298 76.6164C30.7344 79.0799 31.1207 80.6299 31.9389 82.3253C33.5025 85.5707 36.4887 88.0069 40.0068 88.916C41.225 89.2296 42.5704 89.4024 44.2976 89.4842C45.0294 89.516 52.4882 89.5387 59.9517 89.5387C67.4151 89.5387 74.8785 89.5296 75.5921 89.4933C77.592 89.3992 78.7534 89.2433 80.0374 88.9115C83.5782 87.9978 86.5099 85.5979 88.1054 82.3071C88.9076 80.6526 89.3144 79.0436 89.4985 76.7086C89.5385 76.1996 89.5553 68.083 89.5553 59.9773C89.5553 51.8703 89.5371 43.7687 89.4971 43.2597C89.3108 40.887 88.904 39.2916 88.0758 37.6053C87.3963 36.2249 86.6418 35.194 85.5463 34.1399C83.5914 32.2727 81.2006 31.1364 78.3516 30.7255C76.9711 30.526 76.6962 30.4669 69.6327 30.4546H60.0148Z" fill="url(#paint1_radial_1723_998)"/>
<path d="M60.001 38.1816C54.0757 38.1816 53.3321 38.2075 51.0049 38.3135C48.6822 38.4198 47.0968 38.7875 45.7096 39.3271C44.2746 39.8843 43.0574 40.6297 41.8447 41.8429C40.6311 43.0556 39.8857 44.2728 39.3266 45.7073C38.7857 47.095 38.4175 48.6809 38.313 51.0026C38.2089 53.3298 38.1816 54.0739 38.1816 59.9992C38.1816 65.9244 38.208 66.6658 38.3135 68.993C38.4203 71.3156 38.788 72.901 39.3271 74.2883C39.8848 75.7232 40.6302 76.9405 41.8433 78.1532C43.0556 79.3668 44.2728 80.114 45.7069 80.6713C47.095 81.2108 48.6809 81.5785 51.0031 81.6849C53.3303 81.7908 54.0734 81.8167 59.9983 81.8167C65.924 81.8167 66.6653 81.7908 68.9925 81.6849C71.3152 81.5785 72.9024 81.2108 74.2905 80.6713C75.725 80.114 76.9405 79.3668 78.1527 78.1532C79.3663 76.9405 80.1117 75.7232 80.6708 74.2887C81.2072 72.901 81.5753 71.3152 81.6844 68.9934C81.789 66.6662 81.8162 65.9244 81.8162 59.9992C81.8162 54.0739 81.789 53.3303 81.6844 51.0031C81.5753 48.6804 81.2072 47.095 80.6708 45.7078C80.1117 44.2728 79.3663 43.0556 78.1527 41.8429C76.9391 40.6293 75.7255 39.8839 74.2892 39.3271C72.8983 38.7875 71.312 38.4198 68.9893 38.3135C66.6621 38.2075 65.9213 38.1816 59.9942 38.1816H60.001ZM58.0438 42.1133C58.6247 42.1124 59.2728 42.1133 60.001 42.1133C65.8263 42.1133 66.5167 42.1342 68.8171 42.2388C70.9443 42.3361 72.0988 42.6915 72.8679 42.9901C73.886 43.3856 74.6119 43.8583 75.3751 44.6219C76.1387 45.3855 76.6114 46.1128 77.0077 47.1309C77.3064 47.8991 77.6623 49.0536 77.7591 51.1808C77.8636 53.4807 77.8863 54.1716 77.8863 59.9942C77.8863 65.8167 77.8636 66.5076 77.7591 68.8075C77.6618 70.9347 77.3064 72.0893 77.0077 72.8574C76.6123 73.8756 76.1387 74.6005 75.3751 75.3637C74.6114 76.1273 73.8865 76.6 72.8679 76.9955C72.0997 77.2955 70.9443 77.65 68.8171 77.7473C66.5171 77.8518 65.8263 77.8745 60.001 77.8745C54.1752 77.8745 53.4848 77.8518 51.1849 77.7473C49.0577 77.6491 47.9032 77.2936 47.1336 76.995C46.1155 76.5996 45.3882 76.1269 44.6246 75.3632C43.861 74.5996 43.3883 73.8742 42.9919 72.8556C42.6933 72.0874 42.3374 70.9329 42.2406 68.8057C42.1361 66.5058 42.1152 65.8149 42.1152 59.9887C42.1152 54.1625 42.1361 53.4753 42.2406 51.1753C42.3379 49.0481 42.6933 47.8936 42.9919 47.1246C43.3874 46.1064 43.861 45.3791 44.6246 44.6155C45.3882 43.8519 46.1155 43.3792 47.1336 42.9829C47.9027 42.6829 49.0577 42.3283 51.1849 42.2306C53.1975 42.1397 53.9775 42.1124 58.0438 42.1079V42.1133ZM71.647 45.736C70.2016 45.736 69.0289 46.9073 69.0289 48.3532C69.0289 49.7986 70.2016 50.9713 71.647 50.9713C73.0924 50.9713 74.2651 49.7986 74.2651 48.3532C74.2651 46.9077 73.0924 45.735 71.647 45.735V45.736ZM60.001 48.795C53.8134 48.795 48.7968 53.8116 48.7968 59.9992C48.7968 66.1867 53.8134 71.2011 60.001 71.2011C66.1885 71.2011 71.2034 66.1867 71.2034 59.9992C71.2034 53.8116 66.1885 48.795 60.001 48.795ZM60.001 52.7267C64.0172 52.7267 67.2735 55.9825 67.2735 59.9992C67.2735 64.0154 64.0172 67.2717 60.001 67.2717C55.9843 67.2717 52.7285 64.0154 52.7285 59.9992C52.7285 55.9825 55.9843 52.7267 60.001 52.7267Z" fill="white"/>
</g>
<defs>
<radialGradient id="paint0_radial_1723_998" cx="0" cy="0" r="1" gradientUnits="userSpaceOnUse" gradientTransform="translate(46.1537 94.0894) rotate(-90) scale(58.5567 54.4772)">
<stop stop-color="#FFDD55"/>
<stop offset="0.1" stop-color="#FFDD55"/>
<stop offset="0.5" stop-color="#FF543E"/>
<stop offset="1" stop-color="#C837AB"/>
</radialGradient>
<radialGradient id="paint1_radial_1723_998" cx="0" cy="0" r="1" gradientUnits="userSpaceOnUse" gradientTransform="translate(20.5555 34.7109) rotate(78.6776) scale(26.1754 107.923)">
<stop stop-color="#3771C8"/>
<stop offset="0.128" stop-color="#3771C8"/>
<stop offset="1" stop-color="#6600FF" stop-opacity="0"/>
</radialGradient>
<clipPath id="clip0_1723_998">
<rect width="60" height="59.9982" fill="white" transform="translate(30 30)"/>
</clipPath>
</defs>
</svg>
