<svg width="120" height="120" viewBox="0 0 120 120" fill="none" xmlns="http://www.w3.org/2000/svg">
<circle opacity="0.5" cx="60" cy="60" r="59" stroke="#4EA8DD" stroke-width="2"/>
<path d="M66.375 27H41.4062C38.9828 27 37 28.9943 37 31.4318V87.5682C37 90.0057 38.9828 92 41.4062 92H79.5938C82.0172 92 84 90.0057 84 87.5682V44.7273L66.375 27Z" fill="#5D8CED"/>
<path d="M48.75 74.2727H72.25V71.3182H48.75V74.2727ZM48.75 80.1818H66.375V77.2273H48.75V80.1818ZM48.75 59.5V62.4545H72.25V59.5H48.75ZM48.75 68.3636H72.25V65.4091H48.75V68.3636Z" fill="#F1F1F1"/>
<path d="M66.375 27V40.2955C66.375 42.744 68.3468 44.7273 70.7812 44.7273H84L66.375 27Z" fill="#A1C2FA"/>
</svg>
