<svg width="100" height="138" viewBox="0 0 100 138" fill="none" xmlns="http://www.w3.org/2000/svg">
<path opacity="0.2" d="M72.4771 12.3939C60.6509 6.9796 48.1662 3.13851 35.3418 0.96875C33.5869 4.1059 31.999 7.33361 30.5848 10.6384C16.9243 8.57989 3.03255 8.57989 -10.6279 10.6384C-12.0429 7.33395 -13.6307 4.10628 -15.3849 0.96875C-28.2175 3.15683 -40.7105 7.00704 -52.5486 12.4222C-76.0502 47.1932 -82.4211 81.1006 -79.2356 114.527C-65.4725 124.695 -50.0676 132.429 -33.6906 137.391C-30.003 132.431 -26.74 127.17 -23.9361 121.662C-29.2617 119.673 -34.4018 117.219 -39.2971 114.328C-38.0087 113.394 -36.7487 112.431 -35.5311 111.497C-21.2872 118.195 -5.74072 121.669 9.99969 121.669C25.7401 121.669 41.2866 118.195 55.5305 111.497C56.7622 112.502 58.0222 113.465 59.2964 114.328C54.3918 117.224 49.2422 119.682 43.9071 121.676C46.7076 127.181 49.9709 132.439 53.6617 137.391C70.0527 132.449 85.4693 124.719 99.235 114.541C102.973 75.7774 92.8499 42.1814 72.4771 12.3939ZM-19.9011 93.9698C-28.778 93.9698 -36.1116 85.9142 -36.1116 76.0039C-36.1116 66.0936 -29.0328 57.9671 -19.9295 57.9671C-10.8261 57.9671 -3.54913 66.0936 -3.70486 76.0039C-3.8606 85.9142 -10.8544 93.9698 -19.9011 93.9698ZM39.9005 93.9698C31.0096 93.9698 23.7042 85.9142 23.7042 76.0039C23.7042 66.0936 30.783 57.9671 39.9005 57.9671C49.018 57.9671 56.2384 66.0936 56.0827 76.0039C55.9269 85.9142 48.9472 93.9698 39.9005 93.9698Z" fill="white"/>
</svg>
