<svg width="120" height="120" viewBox="0 0 120 120" fill="none" xmlns="http://www.w3.org/2000/svg">
<circle opacity="0.5" cx="60" cy="60" r="59" stroke="#4EA8DD" stroke-width="2"/>
<path d="M60 90C76.5685 90 90 76.5685 90 60C90 43.4315 76.5685 30 60 30C43.4315 30 30 43.4315 30 60C30 76.5685 43.4315 90 60 90Z" fill="#FF4500"/>
<path d="M80.0104 60C80.0164 60.411 79.9654 60.8213 79.8574 61.218C79.7494 61.6148 79.5859 61.995 79.3714 62.346C79.1577 62.697 78.8952 63.0165 78.5922 63.2948C78.2892 63.573 77.9487 63.807 77.5804 63.99C77.5887 64.0995 77.5954 64.2098 77.5992 64.32C77.6082 64.54 77.6082 64.7601 77.5992 64.98C77.5954 65.0903 77.5887 65.2005 77.5804 65.31C77.5804 72.03 69.7504 77.49 60.0904 77.49C50.4304 77.49 42.6004 72.03 42.6004 65.31C42.5922 65.2005 42.5854 65.0903 42.5817 64.98C42.5727 64.7601 42.5727 64.54 42.5817 64.32C42.5854 64.2098 42.5922 64.0995 42.6004 63.99C42.0235 63.7249 41.5111 63.3375 41.0986 62.8547C40.6862 62.3719 40.3836 61.8053 40.2117 61.194C40.0401 60.5825 40.0036 59.941 40.1046 59.3139C40.2056 58.6869 40.4418 58.0893 40.7967 57.5625C41.1513 57.0359 41.6163 56.5928 42.1593 56.2638C42.7024 55.9348 43.3105 55.728 43.9414 55.6575C44.5725 55.5868 45.2114 55.6541 45.8139 55.8549C46.4163 56.0556 46.9679 56.3849 47.4304 56.82C48.2891 56.2381 49.1887 55.719 50.1222 55.2668C51.0559 54.8153 52.0212 54.4313 53.0104 54.1193C53.9997 53.8073 55.0107 53.568 56.0344 53.4023C57.0582 53.2365 58.0932 53.1458 59.1304 53.13L61.3504 42.72C61.3752 42.5993 61.4239 42.4853 61.4937 42.3833C61.5627 42.282 61.6519 42.195 61.7547 42.1283C61.8582 42.0615 61.9737 42.0158 62.0952 41.9933C62.2159 41.9715 62.3404 41.9738 62.4604 42L69.8104 43.47C70.5522 42.1958 72.1092 41.6498 73.4839 42.1808C74.8587 42.7118 75.6447 44.163 75.3372 45.6045C75.0304 47.046 73.7209 48.051 72.2494 47.9753C70.7772 47.8995 69.5779 46.7655 69.4204 45.3L63.0004 43.95L61.0504 53.31C62.0749 53.3318 63.0972 53.4278 64.1082 53.5965C66.1328 53.934 68.0981 54.562 69.9432 55.461C70.8648 55.9095 71.7528 56.4239 72.6004 57C73.2099 56.4149 73.9757 56.0187 74.8054 55.8593C75.6352 55.6993 76.4935 55.7829 77.2767 56.1C78.06 56.417 78.7349 56.9538 79.2199 57.6458C79.7051 58.3378 79.9797 59.1555 80.0104 60ZM50.2384 64.1483C50.3899 64.512 50.6104 64.8428 50.8894 65.121C51.1677 65.4 51.4984 65.6205 51.8622 65.772C52.2263 65.9226 52.6164 66.0001 53.0104 66C54.2239 66 55.3174 65.2688 55.7824 64.1483C56.2467 63.027 55.9894 61.737 55.1314 60.879C54.2734 60.021 52.9834 59.7638 51.8622 60.228C50.7417 60.693 50.0104 61.7865 50.0104 63C50.0104 63.3938 50.0877 63.7838 50.2384 64.1483ZM67.4209 71.3498C67.5747 71.1998 67.6624 70.995 67.6654 70.7805C67.6684 70.5653 67.5852 70.3583 67.4352 70.2045C67.2852 70.0508 67.0804 69.963 66.8659 69.96C66.6507 69.957 66.4437 70.0403 66.2704 70.17C65.8193 70.4936 65.3416 70.7784 64.8424 71.0213C64.3432 71.2643 63.8244 71.4648 63.2914 71.6205C62.7589 71.7758 62.2137 71.886 61.6624 71.9498C61.1104 72.0135 60.5547 72.03 60.0004 72C59.4469 72.0248 58.8919 72.0023 58.3422 71.9333C57.7923 71.865 57.2493 71.7496 56.7192 71.5883C56.1882 71.4278 55.6729 71.2223 55.1772 70.9748C54.6814 70.7273 54.2074 70.4378 53.7604 70.11C53.6052 69.9825 53.4079 69.9173 53.2069 69.927C53.0059 69.9368 52.8162 70.0215 52.6737 70.1633C52.5319 70.3058 52.4472 70.4955 52.4374 70.6965C52.4277 70.8975 52.4929 71.0948 52.6204 71.25C53.1477 71.6475 53.7079 71.9985 54.2952 72.3C54.8824 72.6015 55.4952 72.8513 56.1252 73.0478C56.7552 73.2443 57.4009 73.386 58.0557 73.4723C58.7104 73.5578 59.3712 73.587 60.0304 73.56C60.6897 73.587 61.3504 73.5578 62.0052 73.4723C63.3166 73.2998 64.5886 72.9033 65.7657 72.3C66.3529 71.9985 66.9132 71.6475 67.4404 71.25L67.4209 71.3498ZM66.8704 66.24C67.2769 66.2445 67.6804 66.1658 68.0562 66.0098C68.4319 65.853 68.7717 65.622 69.0552 65.3303C69.3387 65.0385 69.5592 64.692 69.7047 64.3118C69.8503 63.932 69.9169 63.5265 69.9004 63.12C69.9004 61.9065 69.1692 60.813 68.0487 60.348C66.9274 59.8838 65.6374 60.141 64.7794 60.999C63.9214 61.857 63.6642 63.147 64.1284 64.2683C64.5934 65.3888 65.6869 66.12 66.9004 66.12L66.8704 66.24Z" fill="white"/>
</svg>
