<svg width="56" height="63" viewBox="0 0 56 63" fill="none" xmlns="http://www.w3.org/2000/svg">
<path d="M39.8273 0V7.8137C39.8273 8.68026 39.7759 9.53213 39.6804 10.3767H21.4239V30.0211C20.0653 30.2781 18.67 30.4103 17.238 30.4103H9.42432V0H39.8273Z" fill="#4E92C7"/>
<path d="M39.6876 10.3767C38.5714 20.2613 31.0808 28.2146 21.4238 30.0211V10.3767H39.6876Z" fill="#B3DCFB"/>
<path d="M51.8268 10.3767V18.1904C51.8268 30.6674 41.7145 40.7796 29.2375 40.7796H21.4238V30.0211C31.0808 28.2146 38.5714 20.2613 39.6876 10.3767H51.8341H51.8268Z" fill="#4E92C7"/>
<path d="M8.03667 56.2097C8.03667 58.5632 6.40552 60.0934 4.1944 60.0934C3.23124 60.0934 2.37942 59.7672 1.77097 59.0733V62.7447H0V52.427H1.68553V53.4186C2.28103 52.6963 3.15875 52.3416 4.1944 52.3416C6.40552 52.3416 8.03667 53.8717 8.03667 56.2097ZM6.23723 56.2097C6.23723 54.765 5.27407 53.8433 3.99762 53.8433C2.72118 53.8433 1.74508 54.765 1.74508 56.2097C1.74508 57.6545 2.72377 58.5762 3.99762 58.5762C5.27148 58.5762 6.23723 57.6545 6.23723 56.2097Z" fill="white"/>
<path d="M12.5288 56.7483L11.2109 57.9963V59.9951H9.43994V49.478H11.2109V55.8266L14.8823 52.4245H17.008L13.8466 55.5987L17.3057 59.9925H15.1516L12.5288 56.7457V56.7483Z" fill="white"/>
<path d="M22.4192 59.5833C21.9945 59.9225 21.355 60.0934 20.7181 60.0934C19.0611 60.0934 18.1108 59.2157 18.1108 57.5431V50.7544H19.8818V52.4839H21.9091V53.9002H19.8818V57.4991C19.8818 58.237 20.265 58.6331 20.9304 58.6331C21.2981 58.6331 21.6528 58.5347 21.922 58.3224L22.4192 59.5833Z" fill="white"/>
<path d="M31.6314 56.2097C31.6314 58.5632 30.0002 60.0934 27.7891 60.0934C26.826 60.0934 25.9741 59.7672 25.3657 59.0733V62.7447H23.5947V52.427H25.2803V53.4186C25.8758 52.6963 26.7535 52.3416 27.7891 52.3416C30.0002 52.3416 31.6314 53.8717 31.6314 56.2097ZM29.832 56.2097C29.832 54.765 28.8688 53.8433 27.5924 53.8433C26.3159 53.8433 25.3398 54.765 25.3398 56.2097C25.3398 57.6545 26.3185 58.5762 27.5924 58.5762C28.8662 58.5762 29.832 57.6545 29.832 56.2097Z" fill="white"/>
<path d="M32.9751 56.2097C32.9751 53.9416 34.6762 52.3416 37.0012 52.3416C39.3262 52.3416 41.0403 53.9442 41.0403 56.2097C41.0403 58.4752 39.3547 60.0934 37.0012 60.0934C34.6477 60.0934 32.9751 58.4778 32.9751 56.2097ZM39.2537 56.2097C39.2537 54.765 38.2906 53.8433 37.0012 53.8433C35.7118 53.8433 34.7616 54.765 34.7616 56.2097C34.7616 57.6545 35.7248 58.5762 37.0012 58.5762C38.2776 58.5762 39.2537 57.6545 39.2537 56.2097Z" fill="white"/>
<path d="M42.3965 56.2097C42.3965 53.9416 44.0975 52.3416 46.4226 52.3416C48.7476 52.3416 50.4616 53.9442 50.4616 56.2097C50.4616 58.4752 48.7761 60.0934 46.4226 60.0934C44.0691 60.0934 42.3965 58.4778 42.3965 56.2097ZM48.6751 56.2097C48.6751 54.765 47.712 53.8433 46.4226 53.8433C45.1332 53.8433 44.183 54.765 44.183 56.2097C44.183 57.6545 45.1461 58.5762 46.4226 58.5762C47.699 58.5762 48.6751 57.6545 48.6751 56.2097Z" fill="white"/>
<path d="M52.445 57.6286V49.478H54.2159V57.4992C54.2159 58.2371 54.5707 58.6332 55.2775 58.6332C55.5183 58.6332 55.7746 58.5633 55.9144 58.4908L55.9999 59.9071C55.6581 60.0339 55.2904 60.0909 54.9357 60.0909C53.3615 60.0909 52.4424 59.1976 52.4424 57.6234L52.445 57.6286Z" fill="white"/>
</svg>
