<svg width="80" height="80" viewBox="0 0 80 80" fill="none" xmlns="http://www.w3.org/2000/svg">
<rect width="80" height="80" rx="13.3333" fill="white"/>
<g clip-path="url(#clip0_1540_1268)">
<path d="M16 53.2465V39.5076L40.1554 25.7539L64.3108 39.5076V53.2465L40.1554 67.0002L16 53.2465Z" fill="white"/>
<path d="M16 53.2462V39.5073L40.1554 53.2462V66.9999L16 53.2462Z" fill="#D3D3D3"/>
<path d="M64.3107 53.2462V39.5073L40.1553 53.2462V66.9999L64.3107 53.2462Z" fill="#E5E5E5"/>
<path d="M16 39.5074V25.7537L40.1554 12L64.3108 25.7537V39.5074L52.2331 46.3694L40.1554 39.5074L28.0777 46.3694L16 39.5074Z" fill="#14BFF4"/>
<path d="M28.0777 46.3696L16 39.5076V25.7539L28.0777 32.6308V46.3696ZM52.2331 46.3696L40.1554 39.5076V25.7539L52.2331 32.6308V46.3696Z" fill="#009ECE"/>
<path d="M28.0776 46.3696V32.6308L40.1553 25.7539V39.5076L28.0776 46.3696ZM52.233 46.3696V32.6308L64.3107 25.7539V39.5076L52.233 46.3696Z" fill="#00ADEE"/>
</g>
<defs>
<clipPath id="clip0_1540_1268">
<rect width="48.3108" height="55" fill="white" transform="translate(16 12)"/>
</clipPath>
</defs>
</svg>
