<svg width="53" height="61" viewBox="0 0 53 61" fill="none" xmlns="http://www.w3.org/2000/svg">
<g clip-path="url(#clip0_1540_1162)">
<path d="M0.15625 45.2958V30.5079L26.1562 15.7039L52.1562 30.5079V45.2958L26.1562 60.0999L0.15625 45.2958Z" fill="white"/>
<path d="M0.15625 45.2958V30.5078L26.1562 45.2958V60.0998L0.15625 45.2958Z" fill="#D3D3D3"/>
<path d="M52.1562 45.2958V30.5078L26.1562 45.2958V60.0998L52.1562 45.2958Z" fill="#E5E5E5"/>
<path d="M0.15625 30.5079V15.7039L26.1562 0.899902L52.1562 15.7039V30.5079L39.1562 37.8939L26.1562 30.5079L13.1562 37.8939L0.15625 30.5079Z" fill="#14BFF4"/>
<path d="M13.1562 37.8938L0.15625 30.5079V15.7039L13.1562 23.1059V37.8938ZM39.1562 37.8938L26.1562 30.5079V15.7039L39.1562 23.1059V37.8938Z" fill="#009ECE"/>
<path d="M13.1562 37.8938V23.1059L26.1562 15.7039V30.5079L13.1562 37.8938ZM39.1562 37.8938V23.1059L52.1562 15.7039V30.5079L39.1562 37.8938Z" fill="#00ADEE"/>
</g>
<defs>
<clipPath id="clip0_1540_1162">
<rect width="52" height="59.2" fill="white" transform="translate(0.15625 0.899902)"/>
</clipPath>
</defs>
</svg>
