<svg width="80" height="69" viewBox="0 0 80 69" fill="none" xmlns="http://www.w3.org/2000/svg">
<path d="M14.8225 35.1809L11.5883 18.7479L10.834 1.5066C10.8092 0.937656 11.2381 0.456827 11.8104 0.411995L12.317 0.372365C12.3442 0.370236 12.3717 0.369141 12.3987 0.369141C12.8576 0.369141 13.2859 0.684938 13.417 1.12006L18.5482 18.1477L20.521 35.1809H14.8225Z" fill="white"/>
<path d="M59.4765 35.181L61.4494 18.1471L66.5807 1.12C66.7118 0.684938 67.1401 0.369141 67.5992 0.369141C67.6263 0.369141 67.6535 0.370205 67.68 0.372302L68.3318 0.423297L68.4672 0.471598C68.8971 0.624862 69.1834 1.05057 69.1636 1.50679L68.4092 18.7478L65.1749 35.1809L59.4765 35.181Z" fill="white"/>
<path d="M15.9942 68.1801C13.033 68.1801 10.1338 67.1634 7.83064 65.3175C5.52745 63.4714 3.91671 60.8733 3.29513 58.0017L0.254752 43.8002C-0.472494 40.4032 0.374271 36.9071 2.57795 34.2084C4.78162 31.5098 8.05358 29.962 11.5549 29.962H68.4452C71.9473 29.962 75.2198 31.5105 77.4235 34.2102C79.6272 36.9101 80.4731 40.4071 79.7442 43.8048L76.6986 58.0024C76.0771 60.8733 74.4664 63.4715 72.1632 65.3175C69.86 67.1635 66.9608 68.1801 63.9998 68.1801L15.9942 68.1801ZM11.5549 37.3552C9.8542 37.3552 8.82953 38.2991 8.37013 38.8617C7.91071 39.4244 7.19274 40.6146 7.54599 42.2646L10.5826 56.4487C10.8477 57.6732 11.534 58.7803 12.5155 59.567C13.497 60.3537 14.7323 60.7869 15.9942 60.7869H63.9998C65.2615 60.7869 66.4969 60.3537 67.4784 59.567C68.4598 58.7804 69.1463 57.6732 69.4111 56.4497L72.4537 42.2661C72.8077 40.6159 72.0898 39.4252 71.6304 38.8624C71.1709 38.2995 70.1462 37.3552 68.4452 37.3552H52.6503L52.6353 37.3563C51.6928 37.425 50.8716 38.0364 50.5432 38.9141L50.3518 39.4256C49.9158 40.5905 48.7811 41.3731 47.5284 41.3731H32.4709C31.2181 41.3731 30.0834 40.5905 29.6474 39.4256L29.4561 38.914C29.1276 38.0364 28.3064 37.425 27.364 37.3563L27.349 37.3552H11.5549Z" fill="white"/>
</svg>
