<svg width="58" height="68" viewBox="0 0 58 68" fill="none" xmlns="http://www.w3.org/2000/svg">
<path d="M27.1318 30.1792H29.723L31.5219 27.6382H28.9308L27.1318 30.1792Z" fill="white"/>
<path d="M56.3214 11.5779C54.8092 5.08602 52.7455 3.59391 47.6755 2.12987C42.6858 0.68789 36.625 0.168457 29 0.168457C21.375 0.168457 15.3142 0.68789 10.3245 2.12987C5.25449 3.59391 3.1908 5.08602 1.67863 11.5779C0.635754 16.0563 0 26.1521 0 29.5716C0 32.991 0.814246 42.8803 1.67863 46.6527C3.04239 52.6031 4.65885 55.9162 10.6393 57.1376C14.8851 58.006 26.5653 58.5736 29 58.5736C31.4347 58.5736 43.1149 58.006 47.3606 57.1376C53.3411 55.9162 54.9576 52.6031 56.3214 46.6527C57.1857 42.8803 58 32.991 58 29.5716C58 26.1521 57.3642 16.0563 56.3214 11.5779ZM45.2468 24.8305L43.4198 27.6382H35.2111L33.4102 30.1792H41.9557L40.1287 32.987H31.4207L23.7295 43.8409L37.0743 43.7026C44.2059 43.7026 45.9026 37.1224 45.9026 37.1224V47.5391H17.4221L27.7345 32.987H25.1434L14.8309 47.5391H11.1427L21.4552 32.987H12.4824L14.3095 30.1792H23.4467L25.2476 27.6382H15.7735L17.6006 24.8305H27.2371L34.2725 14.9031L20.9277 15.0415C13.7961 15.0415 12.0994 21.6216 12.0994 21.6216V11.2029H40.5779L30.9213 24.8285H33.5124L43.1691 11.2029H46.8573L37.2006 24.8285H45.2468V24.8305Z" fill="white"/>
<path d="M4.10332 60.8901H9.30767C9.41998 60.8901 9.47614 60.9463 9.47614 61.0586V61.8367C9.47614 61.8749 9.47012 61.911 9.45809 61.945C9.44606 61.9791 9.43402 62.0032 9.41998 62.0152L5.78195 66.5738H9.28962C9.40193 66.5738 9.45809 66.63 9.45809 66.7423V67.6889C9.45809 67.7952 9.40193 67.8473 9.28962 67.8473H4.05518C3.94287 67.8473 3.88672 67.7952 3.88672 67.6889V66.8827C3.88672 66.8205 3.90477 66.7643 3.94287 66.7142L7.59094 62.1757H4.10332C3.98499 62.1757 3.92482 62.1195 3.92482 62.0072V61.0606C3.92482 60.9483 3.98499 60.8921 4.10332 60.8921V60.8901Z" fill="white"/>
<path d="M10.5264 67.6628V61.0787C10.5264 60.9543 10.5865 60.8901 10.7049 60.8901H15.2915C15.4159 60.8901 15.48 60.9523 15.48 61.0787V61.9892C15.48 62.1135 15.4179 62.1777 15.2915 62.1777H11.8961V63.5936H14.4853C14.6237 63.5936 14.6919 63.6558 14.6919 63.7821V64.6726C14.6919 64.7969 14.6237 64.8611 14.4853 64.8611H11.8961V66.5778H15.3757C15.5061 66.5778 15.5723 66.64 15.5723 66.7643V67.6648C15.5723 67.7892 15.5061 67.8533 15.3757 67.8533H10.7049C10.5865 67.8533 10.5264 67.7912 10.5264 67.6648V67.6628Z" fill="white"/>
<path d="M16.1719 61.9591V61.0686C16.1719 60.9503 16.232 60.8901 16.3504 60.8901H21.274C21.3983 60.8901 21.4625 60.9503 21.4625 61.0686V61.9591C21.4625 62.0834 21.4003 62.1476 21.274 62.1476H19.473V67.6628C19.473 67.7872 19.4128 67.8513 19.2945 67.8513H18.2817C18.1634 67.8513 18.1032 67.7892 18.1032 67.6628V62.1476H16.3504C16.232 62.1476 16.1719 62.0854 16.1719 61.9591Z" fill="white"/>
<path d="M20.3927 67.6528L23.038 61.0686C23.0941 60.9503 23.1724 60.8901 23.2726 60.8901H24.0608C24.1731 60.8901 24.2513 60.9503 24.2954 61.0686L26.9407 67.6528C26.9728 67.715 26.9728 67.7631 26.9448 67.7992C26.9167 67.8353 26.8706 67.8513 26.8084 67.8513H25.7856C25.6732 67.8513 25.595 67.7952 25.5509 67.6829L25.1017 66.5578H22.2217L21.7805 67.6829C21.7364 67.7952 21.6582 67.8513 21.5459 67.8513H20.515C20.3766 67.8513 20.3365 67.7852 20.3927 67.6548V67.6528ZM23.6657 62.6911L22.6629 65.3444H24.6504L23.6657 62.6911Z" fill="white"/>
<path d="M32.4079 67.6628V64.849H29.2853V67.6628C29.2853 67.7871 29.2171 67.8513 29.0787 67.8513H28.094C27.9757 67.8513 27.9155 67.7891 27.9155 67.6628V61.0886C27.9155 61.0325 27.9296 60.9863 27.9576 60.9482C27.9857 60.9101 28.0319 60.8921 28.094 60.8921H29.1068C29.1449 60.8921 29.183 60.9041 29.2231 60.9302C29.2632 60.9543 29.2833 61.0044 29.2833 61.0806V63.5294H32.4059V61.0906C32.4059 61.0345 32.42 60.9884 32.448 60.9503C32.4761 60.9121 32.5222 60.8941 32.5844 60.8941H33.5972C33.6353 60.8941 33.6714 60.9061 33.7095 60.9322C33.7476 60.9563 33.7657 61.0064 33.7657 61.0826V67.6668C33.7657 67.7911 33.6995 67.8553 33.5691 67.8553H32.5844C32.4661 67.8553 32.4059 67.7931 32.4059 67.6668L32.4079 67.6628Z" fill="white"/>
<path d="M34.732 67.6528L37.3773 61.0686C37.4335 60.9503 37.5117 60.8901 37.612 60.8901H38.4002C38.5125 60.8901 38.5907 60.9503 38.6348 61.0686L41.2801 67.6528C41.3122 67.715 41.3122 67.7631 41.2841 67.7992C41.256 67.8353 41.2099 67.8513 41.1477 67.8513H40.1249C40.0126 67.8513 39.9344 67.7952 39.8903 67.6829L39.441 66.5578H36.5611L36.1199 67.6829C36.0757 67.7952 35.9975 67.8513 35.8852 67.8513H34.8544C34.716 67.8513 34.6759 67.7852 34.732 67.6548V67.6528ZM38.0051 62.6911L37.0023 65.3444H38.9898L38.0051 62.6911Z" fill="white"/>
<path d="M41.915 66.7904C41.8649 66.7342 41.8268 66.6781 41.8027 66.6219C41.7786 66.5658 41.7987 66.5036 41.8689 66.4334L42.4966 65.8137C42.5528 65.7636 42.6069 65.7475 42.6611 65.7616C42.7152 65.7756 42.7694 65.8097 42.8255 65.8598C42.9198 65.9541 43.0241 66.0484 43.1404 66.1466C43.2567 66.2429 43.3811 66.3311 43.5154 66.4094C43.6498 66.4876 43.7942 66.5497 43.9506 66.5959C44.1071 66.642 44.2715 66.6661 44.448 66.6661C44.6365 66.6661 44.801 66.642 44.9454 66.5919C45.0898 66.5417 45.2121 66.4755 45.3164 66.3913C45.4207 66.3071 45.4969 66.2108 45.551 66.1005C45.6032 65.9922 45.6313 65.8779 45.6313 65.7576C45.6313 65.6071 45.5851 65.4808 45.4949 65.3785C45.4046 65.2762 45.2923 65.188 45.162 65.1158C45.0296 65.0436 44.8892 64.9834 44.7348 64.9373C44.5824 64.8912 44.442 64.8511 44.3176 64.821C43.5615 64.5963 42.984 64.3196 42.5869 63.9907C42.1898 63.6618 41.9912 63.2326 41.9912 62.7011C41.9912 62.4143 42.0514 62.1516 42.1737 61.9129C42.2961 61.6763 42.4685 61.4697 42.6891 61.2993C42.9118 61.1268 43.1785 60.9944 43.4914 60.9002C43.8042 60.8059 44.1472 60.7598 44.5222 60.7598C44.9353 60.7598 45.3304 60.856 45.7095 61.0506C46.0885 61.2451 46.4174 61.4818 46.6982 61.7625C46.8105 61.8809 46.8065 62.0032 46.6882 62.1275L46.1728 62.6811C46.1106 62.7372 46.0504 62.7553 45.9943 62.7332C45.9381 62.7111 45.8779 62.6751 45.8158 62.6249C45.7416 62.5627 45.6553 62.4946 45.5571 62.4183C45.4608 62.3441 45.3545 62.2719 45.2382 62.2078C45.1219 62.1416 44.9995 62.0874 44.8732 62.0433C44.7448 61.9992 44.6124 61.9771 44.4741 61.9771C44.3557 61.9771 44.2314 61.9871 44.103 62.0052C43.9747 62.0232 43.8584 62.0594 43.7561 62.1135C43.6538 62.1676 43.5676 62.2419 43.4974 62.3381C43.4292 62.4344 43.3951 62.5647 43.3951 62.7272C43.3951 62.8455 43.4272 62.9498 43.4934 63.036C43.5595 63.1223 43.6518 63.2005 43.7741 63.2667C43.8965 63.3329 44.0389 63.393 44.2053 63.4492C44.3718 63.5053 44.5543 63.5615 44.7548 63.6176C45.0737 63.7119 45.3746 63.8162 45.6553 63.9325C45.9361 64.0488 46.1828 64.1912 46.3914 64.3597C46.5999 64.5282 46.7684 64.7287 46.8927 64.9594C47.0171 65.19 47.0813 65.4688 47.0813 65.7937C47.0813 66.1185 47.0091 66.4134 46.8647 66.6801C46.7203 66.9468 46.5277 67.1735 46.2871 67.36C46.0464 67.5485 45.7676 67.6909 45.4528 67.7912C45.1379 67.8914 44.811 67.9416 44.4721 67.9416C43.9847 67.9416 43.5154 67.8353 43.0662 67.6227C42.6169 67.4101 42.2319 67.1313 41.913 66.7884L41.915 66.7904Z" fill="white"/>
<path d="M52.757 67.6628V64.849H49.6344V67.6628C49.6344 67.7871 49.5662 67.8513 49.4279 67.8513H48.4431C48.3248 67.8513 48.2646 67.7891 48.2646 67.6628V61.0886C48.2646 61.0325 48.2787 60.9863 48.3068 60.9482C48.3348 60.9101 48.381 60.8921 48.4431 60.8921H49.4559C49.494 60.8921 49.5321 60.9041 49.5723 60.9302C49.6124 60.9543 49.6324 61.0044 49.6324 61.0806V63.5294H52.755V61.0906C52.755 61.0345 52.7691 60.9884 52.7972 60.9503C52.8252 60.9121 52.8714 60.8941 52.9335 60.8941H53.9463C53.9844 60.8941 54.0205 60.9061 54.0586 60.9322C54.0967 60.9563 54.1148 61.0064 54.1148 61.0826V67.6668C54.1148 67.7911 54.0486 67.8553 53.9182 67.8553H52.9335C52.8152 67.8553 52.755 67.7931 52.755 67.6668L52.757 67.6628Z" fill="white"/>
</svg>
