<svg width="100" height="100" viewBox="0 0 100 100" fill="none" xmlns="http://www.w3.org/2000/svg">
<rect width="100" height="100" rx="15" fill="#FF9039"/>
<path d="M79.5248 29.6337L50.3475 16.0784C50.1277 15.9739 49.875 15.9739 49.6525 16.0784L34.7095 23.0198H34.5914V23.0748L20.478 29.6337C20.2088 29.7603 20.0275 30.0244 20.0055 30.3215H20V54.9945H20.0137C20.0604 55.2531 20.2252 55.4815 20.467 55.5998L31.4847 60.9041L39.1759 64.6073L49.6443 69.6475C49.7569 69.7025 49.8778 69.7301 50.0014 69.7301C50.125 69.7301 50.2458 69.7025 50.3585 69.6475L79.533 55.5998C79.8215 55.4594 80 55.1706 80 54.8542V30.3793C80 30.0574 79.8132 29.7685 79.5248 29.6337ZM21.6481 31.6971L31.5671 36.4732L21.6481 41.0843V31.6971ZM31.5698 59.1131L31.4847 59.0718L22.7551 54.8679L31.4847 50.8126L31.5698 50.7741V59.1131ZM31.5698 48.9501L31.4847 48.9886L21.6481 53.5639V43.6925L31.5698 48.4686V48.9528V48.9501ZM31.5698 46.6335L22.7551 42.3884L31.5698 38.2918V46.6335ZM34.5914 31.6916L31.5698 33.0975V34.6382L22.7551 30.3958L34.5914 24.8933V31.6916ZM65.4992 24.9346L65.5817 24.9731L77.2476 30.3958L68.5208 34.5969V33.2158L65.4992 31.8099V24.9346ZM68.5208 38.3303L77.2476 42.3884L68.5208 46.5895V38.3303ZM36.2395 30.924V24.1312L36.3219 24.0927L49.0949 18.1528V24.9374L36.2395 30.924ZM49.2625 67.6336L49.1773 67.5924L39.2611 62.8162V55.5667L49.2625 60.2273V67.6336ZM50.0014 52.1827L39.2611 47.0242V38.0139L50.0453 33.026L60.8296 38.1322V46.9444L50.0014 52.1827ZM63.8511 61.3196L63.766 61.3608L50.9106 67.5511V60.2273L63.8511 53.993V61.3196ZM63.8511 31.0423L50.743 24.9374V18.0786L50.8254 18.1171L63.8511 24.1725V31.0451V31.0423ZM65.4992 60.5245V53.1979L68.5208 51.7425V50.8099L77.2476 54.8679L65.4992 60.5245ZM78.3519 53.5611L68.5208 48.9913V48.4218L78.3519 43.6897V53.5611ZM78.3519 41.0815L68.5208 36.509V36.4292L78.3519 31.6971V41.0815Z" fill="#181B1F"/>
<path d="M54.7423 42.1545H49.0947V47.3984H54.7423V42.1545Z" fill="#181B1F"/>
<path d="M47.855 38.1323H44.9434V40.834H47.855V38.1323Z" fill="#181B1F"/>
<path d="M47.71 44.6501V42.4629H45.5262V44.6501H47.71Z" fill="#181B1F"/>
<path d="M51.4048 40.4487V38.5173H49.4765V40.4487H51.4048Z" fill="#181B1F"/>
<path d="M31.5068 78.0783C31.5068 80.0585 30.0173 81.5017 28.0136 81.5017H26.6029V84.11H24V74.667H28.0136C30.0173 74.667 31.5068 76.0981 31.5068 78.0783ZM28.8371 78.0843C28.8371 77.4138 28.3859 76.9387 27.7031 76.9387H26.6041V79.2299H27.7031C28.3871 79.2299 28.8371 78.7549 28.8371 78.0843Z" fill="#181B1F"/>
<path d="M38.258 84.11L35.5544 79.9382V84.11H32.9575V74.667H35.5544V78.6468L38.0469 74.667H41.0586L38.0397 79.2409L41.34 84.11H38.258Z" fill="#181B1F"/>
<path d="M49.4131 77.0092H46.8526V84.11H44.2436V77.0092H41.6831V74.667H49.4143V77.0092H49.4131Z" fill="#181B1F"/>
<path d="M49.6011 81.7788H52.0306V84.1101H49.6011V81.7788Z" fill="#181B1F"/>
<path d="M62.322 74.667V84.11H60.1739L56.4284 78.9858V84.11H53.9116V74.667H56.1846L59.8052 79.6211V74.667H62.322Z" fill="#181B1F"/>
<path d="M71.6792 80.3986C71.6792 80.6185 71.6598 80.8372 71.627 81.0631H66.2271C66.3908 81.8989 66.9209 82.3302 67.7117 82.3302C68.2963 82.3302 68.7864 82.0739 69.0265 81.6475H71.5191C71.0072 83.3094 69.5359 84.3481 67.7117 84.3481C65.4423 84.3481 63.7612 82.6874 63.7612 80.4618C63.7612 78.2362 65.429 76.5864 67.7117 76.5864C69.9944 76.5864 71.6792 78.2617 71.6792 80.3986ZM66.272 79.6733H69.2121C68.9926 78.9456 68.4686 78.552 67.7129 78.552C66.9573 78.552 66.4745 78.9493 66.272 79.6733Z" fill="#181B1F"/>
<path d="M77.8835 81.9122V84.1099H76.1599C74.5516 84.1099 73.574 83.1246 73.574 81.5065V78.7585H72.2422V78.1717L75.5013 74.696H76.0156V76.8257H77.8422V78.7585H76.0787V81.0764C76.0787 81.5976 76.3928 81.9122 76.9216 81.9122H77.8835Z" fill="#181B1F"/>
</svg>
