<svg width="300" height="60" viewBox="0 0 300 60" fill="none" xmlns="http://www.w3.org/2000/svg">
<path d="M76.8011 35.033H72.6405V45.2645H64.2222V14.9746H76.8173C84.3452 14.9746 88.1658 19.2324 88.1658 25.0766C88.1334 30.3543 84.4909 35.033 76.8011 35.033ZM75.9754 28.3307C78.5171 28.3307 79.537 27.0355 79.537 25.0605C79.537 23.0368 78.5009 21.7579 75.9754 21.7579H72.6243V28.3307H75.9754ZM99.9515 31.9894V45.2645H91.5332V14.9746H99.9515V28.0393L109.357 14.9746H119.071L107.949 29.6744L119.637 45.2807H109.454L99.9515 31.9894ZM121.062 14.9746H145.556V21.6769H137.478V45.2645H129.059V21.6769H121.062V14.9746Z" fill="white"/>
<path d="M147.272 15.3148H151.433L157.957 40.7156L165.177 15.3148H169.564L176.445 40.6185L183.017 15.3148H187.227L178.549 45.2648H174.162L167.201 21.1591L159.98 45.2648L155.642 45.3133L147.272 15.3148ZM209.228 38.5948H196.163L193.751 45.2486H189.623L200.453 15.4605H204.97L215.752 45.2486H211.624L209.228 38.5948ZM202.703 20.3011L197.296 35.4218H208.127L202.703 20.3011ZM218.65 15.3148H238.935V18.4879H230.775V45.2648H226.858V18.4879H218.65V15.3148ZM257.228 14.9263C263.72 14.9263 268.868 18.1965 271.102 23.9922H266.424C264.789 20.382 261.615 18.3584 257.228 18.3584C250.947 18.3584 246.268 22.9075 246.268 30.2574C246.268 37.5587 250.947 42.1241 257.228 42.1241C261.615 42.1241 264.789 40.1004 266.424 36.5388H271.102C268.868 42.3021 263.704 45.5238 257.228 45.5238C248.842 45.5238 242.27 39.2424 242.27 30.2736C242.27 21.3048 248.858 14.9263 257.228 14.9263ZM296.082 31.6821H280.832V45.2648H276.914V15.3148H280.832V28.4604H296.082V15.3148H300V45.2648H296.082V31.6821Z" fill="#14BFF4"/>
<path d="M0 44.8599V29.9173L25.9025 14.9585L51.8051 29.9173V44.8599L25.9025 59.8187L0 44.8599Z" fill="white"/>
<path d="M0 44.8596V29.917L25.9025 44.8596V59.8184L0 44.8596Z" fill="#D3D3D3"/>
<path d="M51.8049 44.8596V29.917L25.9023 44.8596V59.8184L51.8049 44.8596Z" fill="#E5E5E5"/>
<path d="M0 29.9176V14.9588L25.9025 0L51.8051 14.9588V29.9176L38.8538 37.3808L25.9025 29.9176L12.9513 37.3808L0 29.9176Z" fill="#14BFF4"/>
<path d="M12.9513 37.3805L0 29.9173V14.9585L12.9513 22.4379V37.3805ZM38.8538 37.3805L25.9025 29.9173V14.9585L38.8538 22.4379V37.3805Z" fill="#009ECE"/>
<path d="M12.9512 37.3805V22.4379L25.9024 14.9585V29.9173L12.9512 37.3805ZM38.8537 37.3805V22.4379L51.805 14.9585V29.9173L38.8537 37.3805Z" fill="#00ADEE"/>
</svg>
