<svg width="76" height="81" viewBox="0 0 76 81" fill="none" xmlns="http://www.w3.org/2000/svg">
<g clip-path="url(#clip0_1540_1219)">
<path d="M37.8767 31.5537H28.6426V40.7174H37.8767V31.5537Z" fill="white"/>
<path d="M34.2401 21.8271H29.3828V26.6435H34.2401V21.8271Z" fill="white"/>
<path d="M46.8805 22.1748H39.1035V29.8876H46.8805V22.1748Z" fill="white"/>
<path d="M47.1548 35.1729H43.2637V39.0292H47.1548V35.1729Z" fill="white"/>
<path d="M70.6522 21.8993C69.9512 21.2924 69.2005 20.7132 68.3947 20.1669C67.6385 19.6374 66.8327 19.1407 65.9826 18.6664C65.7619 18.5449 65.5245 18.4291 65.3037 18.3077C66.8327 7.70956 62.4061 0.338867 53.0891 0.338867C48.403 0.338867 43.1208 2.20361 37.8938 5.40898C32.6724 2.20361 27.3901 0.338867 22.7041 0.338867C13.492 0.338867 9.06533 7.54958 10.4452 17.9656C10.2189 18.0815 9.99261 18.2028 9.77183 18.3243C8.89975 18.7986 8.08286 19.2953 7.32669 19.8193C-1.30033 25.684 -2.66917 33.8546 5.15199 40.646C5.85297 41.2529 6.60363 41.8266 7.40396 42.3729C8.16014 42.9024 8.96599 43.4045 9.816 43.8734C10.0368 43.9948 10.2686 44.1106 10.4949 44.2321C8.97151 54.8357 13.3927 62.2063 22.7096 62.2063C27.3957 62.2063 32.6779 60.3417 37.9048 57.1363C43.1264 60.3417 48.4085 62.2063 53.1 62.2063C62.3177 62.2063 66.7444 54.9957 65.3589 44.5797C65.5853 44.4637 65.8116 44.3424 66.0323 44.221C66.9045 43.7466 67.7213 43.25 68.4775 42.726C77.1045 36.8613 78.4734 28.6906 70.6577 21.8993H70.6522ZM51.665 3.23529C59.3979 3.23529 63.4161 8.84055 62.969 17.1712C58.8847 15.3396 54.1268 13.9824 49.0322 13.1659C48.5465 13.0886 48.0498 13.0169 47.5585 12.9507C45.0913 10.5839 42.5082 8.47642 39.8809 6.69445C43.9599 4.49317 48.0111 3.24081 51.6705 3.24081L51.665 3.23529ZM37.8993 54.7144C35.7246 53.3792 33.5499 51.7792 31.447 49.9697C35.6363 50.367 39.9582 50.4111 44.2247 50.08C42.1605 51.8455 40.0355 53.4013 37.8993 54.7144ZM29.1343 47.8732C29.0681 47.8126 29.0018 47.7519 28.9357 47.6857C24.1668 43.0679 19.9002 37.3964 16.892 31.2727C19.9388 25.0716 24.2661 19.3338 29.1178 14.683C29.173 14.6278 29.2282 14.5782 29.2834 14.5286C35.0624 13.8169 41.0454 13.8886 46.6643 14.672C46.7306 14.7327 46.7968 14.7933 46.8631 14.8596C51.6319 19.4774 55.8984 25.1488 58.9011 31.2671C55.8544 37.4682 51.5271 43.2058 46.6755 47.8568C46.6201 47.9119 46.5594 47.9615 46.5043 48.0166C40.7308 48.7284 34.7477 48.6511 29.1343 47.8678V47.8732ZM15.8709 29.0548C14.629 26.1916 13.7735 23.444 13.2878 20.8896C13.1774 20.3214 13.0891 19.7641 13.0228 19.2125C15.2031 18.0761 17.7255 17.0719 20.5957 16.2554C21.8264 15.9023 23.0849 15.5933 24.36 15.3285C24.9725 15.1961 25.5964 15.0802 26.22 14.9699C26.1042 15.0914 25.9882 15.2072 25.8723 15.3285C22.0362 19.389 18.5865 24.0619 15.8709 29.0548ZM15.8709 33.4905C18.5258 38.384 21.8982 42.9687 25.6404 46.9684C25.7674 47.1065 25.8999 47.2389 26.0269 47.3711C25.3755 47.2444 24.7353 47.1119 24.1005 46.9684C20.0051 46.0471 16.2408 44.7176 13.067 43.0239C13.1443 42.4666 13.2381 41.9039 13.354 41.3356C13.8508 38.8695 14.6842 36.2379 15.8764 33.4905H15.8709ZM37.8938 7.83093C40.074 9.16605 42.2433 10.766 44.3462 12.5756C40.1513 12.1783 35.824 12.1342 31.5574 12.4707C33.6217 10.7053 35.7467 9.14399 37.8883 7.83093H37.8938ZM49.9208 47.2168C53.757 43.1563 57.2066 38.4889 59.9277 33.4959C61.1641 36.3593 62.0196 39.1013 62.5054 41.6556C62.6157 42.2239 62.6985 42.7811 62.7703 43.3327C60.5901 44.4692 58.0677 45.4734 55.2031 46.2898C53.9722 46.6429 52.7137 46.9519 51.4388 47.2168C50.8206 47.3492 50.2024 47.465 49.5786 47.5753C49.6946 47.454 49.8105 47.3381 49.9263 47.2168H49.9208ZM59.9277 29.0438C57.2618 24.1503 53.8949 19.5711 50.1527 15.5769C50.0257 15.4388 49.8932 15.3065 49.7663 15.1685C50.4177 15.2954 51.0635 15.4278 51.6981 15.5769C55.7881 16.4981 59.5524 17.8277 62.7261 19.5159C62.649 20.0677 62.5551 20.6304 62.4392 21.2041C61.9424 23.6703 61.1144 26.3019 59.9222 29.0438H59.9277ZM24.1336 3.23529C27.7875 3.23529 31.8444 4.48765 35.9234 6.68892C33.3567 8.42677 30.8288 10.4846 28.4112 12.7797C27.9366 12.8404 27.4619 12.8955 26.9928 12.9673C24.1888 13.37 21.4456 13.9493 18.8073 14.6996C16.6326 15.3175 14.6345 16.0348 12.8186 16.8291C12.4985 8.69158 16.5112 3.23529 24.1392 3.23529H24.1336ZM8.22084 39.7632C8.19325 39.7413 8.16014 39.7137 8.13806 39.6861C1.8458 34.169 2.23217 27.6645 8.03871 22.5557C8.69001 21.982 9.40755 21.4248 10.1968 20.8896C10.4176 20.7407 10.6494 20.5917 10.8813 20.4483C11.0248 21.138 11.1848 21.8386 11.378 22.5557C12.1287 25.3198 13.2381 28.2438 14.7228 31.2727C13.2933 34.1911 12.2059 37.0103 11.4663 39.6861C11.2621 40.3977 11.0965 41.0874 10.9475 41.7714C10.7212 41.6281 10.4839 41.4845 10.2686 41.3356C9.54002 40.839 8.86112 40.3095 8.22638 39.7632H8.22084ZM12.8296 45.374C16.9141 47.2111 21.6775 48.5684 26.7719 49.3849C27.2576 49.4621 27.749 49.5339 28.2457 49.6C30.7129 51.9668 33.3015 54.0744 35.9234 55.8563C31.8444 58.0576 27.793 59.31 24.1336 59.31C16.4008 59.31 12.3881 53.6992 12.8296 45.374ZM51.665 59.31C48.0111 59.31 43.9542 58.0576 39.8754 55.8563C42.4419 54.1184 44.9698 52.0607 47.3874 49.7657C47.8621 49.7049 48.3367 49.6497 48.8114 49.5781C51.6153 49.1753 54.3585 48.596 56.9968 47.8457C59.1716 47.2278 61.1697 46.5105 62.9856 45.7161C63.3057 53.8537 59.2931 59.31 51.665 59.31ZM67.76 39.9895C67.1086 40.5632 66.3912 41.1205 65.6018 41.6556C65.381 41.8045 65.1493 41.9535 64.9174 42.0969C64.774 41.4074 64.6139 40.7068 64.4206 39.9895C63.6756 37.2255 62.566 34.2959 61.0813 31.2727L64.3323 22.8593C64.5366 22.153 64.7022 21.4578 64.8511 20.7738C65.0775 20.9227 65.3149 21.0607 65.5356 21.2096C66.2642 21.7062 66.9431 22.2358 67.5779 22.782C67.6055 22.804 67.6385 22.8317 67.6606 22.8593C73.9584 28.3762 73.5664 34.8863 67.76 39.9895Z" fill="white"/>
</g>
<path d="M26.4952 75.4841C25.9625 75.4841 25.646 75.1795 25.646 74.6739V72.4247H27.423V70.5507H25.5827V68.4861H25.064L23.0539 70.5507H20.2472L18.5027 73.3175V68H15.9816V73.0129C15.5509 71.391 14.1337 70.3197 12.278 70.3197C11.6882 70.3152 11.1093 70.4577 10.5936 70.7323V70.3512L8 70.3572V80.1654H10.4948V77.3836C11.0336 77.6957 11.6527 77.8578 12.2811 77.8533C14.1367 77.8533 15.554 76.7745 15.9847 75.1525V77.6132H18.5058V74.6259L20.3399 77.6132H23.3133L20.7999 73.9147L21.8112 72.4217H23.1265V75.0865C23.1265 76.6574 24.1115 77.6117 25.731 77.6117H27.4647V75.4811H26.4982L26.4952 75.4841ZM12.0943 75.7002C11.1494 75.7002 10.4547 75.0115 10.4547 74.0842C10.4547 73.157 11.1494 72.4683 12.0943 72.4683C13.0391 72.4683 13.7338 73.157 13.7338 74.0842C13.7338 75.0115 13.0329 75.7002 12.0943 75.7002Z" fill="white"/>
<path d="M29.5176 76.7401C29.5176 75.9632 30.094 75.4536 30.818 75.4536C31.5421 75.4536 32.1185 75.9632 32.1185 76.7401C32.1185 77.517 31.5421 78.053 30.818 78.053C30.094 78.053 29.5176 77.503 29.5176 76.7401Z" fill="white"/>
<path d="M44.4194 70.7363L41.8061 77.9456H39.7956L38.1735 73.4709L36.4986 77.9456H34.488L31.8887 70.7363H33.8588L35.5601 75.6135L37.3282 70.7363H39.0964L40.8117 75.6135L42.5674 70.7363H44.4163H44.4194Z" fill="white"/>
<path d="M44.3916 74.3412C44.3916 72.1707 46.0665 70.6294 48.3582 70.6294C50.65 70.6294 52.3109 72.1707 52.3109 74.3412C52.3109 76.5118 50.65 78.0531 48.3582 78.0531C46.0665 78.0531 44.3916 76.5118 44.3916 74.3412ZM50.1932 74.3412C50.1932 73.0951 49.4023 72.3447 48.3582 72.3447C47.3141 72.3447 46.5093 73.0951 46.5093 74.3412C46.5093 75.5873 47.3126 76.3378 48.3582 76.3378C49.4039 76.3378 50.1932 75.5873 50.1932 74.3412Z" fill="white"/>
<path d="M57.9122 70.6294V72.5591C57.7382 72.5451 57.6046 72.5327 57.443 72.5327C56.2901 72.5327 55.5273 73.162 55.5273 74.5432V77.9474H53.4375V70.7366H55.434V71.6875C55.9437 70.9914 56.8013 70.6294 57.9138 70.6294H57.9122Z" fill="white"/>
<path d="M58.8906 68.0034H60.9804V77.9457H58.8906V68.0034Z" fill="white"/>
<path d="M70.0005 68.0034V77.9457H68.0039V77.1144C67.4819 77.7437 66.7174 78.0529 65.7526 78.0529C63.7157 78.0529 62.1479 76.6064 62.1479 74.341C62.1479 72.0757 63.7157 70.6292 65.7526 70.6292C66.6366 70.6292 67.3871 70.9104 67.9091 71.5008V68.0034H69.9989H70.0005ZM67.9495 74.341C67.9495 73.095 67.1463 72.3445 66.113 72.3445C65.0798 72.3445 64.2641 73.095 64.2641 74.341C64.2641 75.5871 65.0674 76.3376 66.113 76.3376C67.1587 76.3376 67.9495 75.5871 67.9495 74.341Z" fill="white"/>
<defs>
<clipPath id="clip0_1540_1219">
<rect width="76" height="63" fill="white"/>
</clipPath>
</defs>
</svg>
