<svg width="135" height="134" viewBox="0 0 135 134" fill="none" xmlns="http://www.w3.org/2000/svg">
<path d="M39.8004 108.85C39.8004 116.389 33.689 122.5 26.1502 122.5C18.6114 122.5 12.5 116.389 12.5 108.85C12.5 101.311 18.6114 95.1996 26.1502 95.1996C33.689 95.1996 39.8004 101.311 39.8004 108.85Z" stroke="#191944" stroke-width="5"/>
<path d="M12.3536 0.939339C11.7678 0.353554 10.8181 0.353554 10.2323 0.939339L0.686354 10.4853C0.100567 11.0711 0.100567 12.0208 0.686354 12.6066C1.27214 13.1924 2.22189 13.1924 2.80768 12.6066L11.293 4.12132L19.7782 12.6066C20.364 13.1924 21.3138 13.1924 21.8996 12.6066C22.4853 12.0208 22.4853 11.0711 21.8996 10.4853L12.3536 0.939339ZM12.793 87.7899L12.793 2L9.79295 2L9.79297 87.7899L12.793 87.7899Z" fill="#191944"/>
<path d="M134.062 123.993C134.647 123.408 134.647 122.458 134.062 121.872L124.516 112.326C123.93 111.74 122.98 111.74 122.394 112.326C121.808 112.912 121.808 113.862 122.394 114.448L130.88 122.933L122.394 131.418C121.808 132.004 121.808 132.954 122.394 133.539C122.98 134.125 123.93 134.125 124.516 133.539L134.062 123.993ZM47.2109 124.433L133.001 124.433V121.433L47.2109 121.433V124.433Z" fill="#191944"/>
<path d="M18.5273 73.8361H61.9391V116.343" stroke="#3CADEF" stroke-width="2" stroke-linecap="round" stroke-dasharray="5 10"/>
<path d="M18.0117 48.5126H86.3594V116.602" stroke="#3CADEF" stroke-width="2" stroke-linecap="round" stroke-dasharray="5 10"/>
<path d="M18.2695 24.0935H111.166V116.473" stroke="#3CADEF" stroke-width="2" stroke-linecap="round" stroke-dasharray="5 10"/>
</svg>
