<svg width="120" height="121" viewBox="0 0 120 121" fill="none" xmlns="http://www.w3.org/2000/svg">
<path d="M112.506 59.5331C112.506 88.5728 89.1089 112.094 60.2725 112.094C31.4361 112.094 8.03906 88.5728 8.03906 59.5331C8.03906 30.4934 31.4361 6.9726 60.2725 6.9726C89.1089 6.9726 112.506 30.4934 112.506 59.5331Z" stroke="#191944" stroke-width="4"/>
<path d="M58.6352 5.38699C58.6352 7.54223 56.9009 9.27397 54.7805 9.27397C52.6601 9.27397 50.9258 7.54223 50.9258 5.38699C50.9258 3.23175 52.6601 1.5 54.7805 1.5C56.9009 1.5 58.6352 3.23175 58.6352 5.38699Z" stroke="#3CADEF" stroke-width="3"/>
<path d="M25.962 24.0343C25.962 26.8761 23.6745 29.1644 20.8716 29.1644C18.0688 29.1644 15.7812 26.8761 15.7812 24.0343C15.7812 21.1924 18.0688 18.9041 20.8716 18.9041C23.6745 18.9041 25.962 21.1924 25.962 24.0343Z" stroke="#98E0F9" stroke-width="3"/>
<path d="M11.6808 59.1187C11.6808 61.9605 9.39324 64.2489 6.59039 64.2489C3.78754 64.2489 1.5 61.9605 1.5 59.1187C1.5 56.2769 3.78754 53.9886 6.59039 53.9886C9.39324 53.9886 11.6808 56.2769 11.6808 59.1187Z" stroke="#3CADEF" stroke-width="3"/>
<path d="M24.4444 92.7566C24.4444 95.9798 21.8495 98.5774 18.6675 98.5774C15.4855 98.5774 12.8906 95.9798 12.8906 92.7566C12.8906 89.5333 15.4855 86.9358 18.6675 86.9358C21.8495 86.9358 24.4444 89.5333 24.4444 92.7566Z" stroke="#191944" stroke-width="3"/>
<path d="M99.5519 19.3379C99.5519 22.1797 97.2643 24.468 94.4615 24.468C91.6586 24.468 89.3711 22.1797 89.3711 19.3379C89.3711 16.4961 91.6586 14.2078 94.4615 14.2078C97.2643 14.2078 99.5519 16.4961 99.5519 19.3379Z" stroke="#191944" stroke-width="3"/>
<path d="M118.501 58.1518C118.501 60.4596 116.644 62.3151 114.371 62.3151C112.099 62.3151 110.242 60.4596 110.242 58.1518C110.242 55.844 112.099 53.9886 114.371 53.9886C116.644 53.9886 118.501 55.844 118.501 58.1518Z" stroke="#98E0F9" stroke-width="3"/>
<path d="M103.395 96.5514C103.395 98.8592 101.538 100.715 99.266 100.715C96.994 100.715 95.1367 98.8592 95.1367 96.5514C95.1367 94.2436 96.994 92.3881 99.266 92.3881C101.538 92.3881 103.395 94.2436 103.395 96.5514Z" stroke="#3CADEF" stroke-width="3"/>
<path d="M57.7625 79.6998C57.7625 82.2809 55.6842 84.363 53.1332 84.363C50.5822 84.363 48.5039 82.2809 48.5039 79.6998C48.5039 77.1187 50.5822 75.0366 53.1332 75.0366C55.6842 75.0366 57.7625 77.1187 57.7625 79.6998Z" stroke="#191944" stroke-width="2"/>
<path d="M40.789 53.4554C40.789 56.221 38.5629 58.4475 35.8359 58.4475C33.1089 58.4475 30.8828 56.221 30.8828 53.4554C30.8828 50.6899 33.1089 48.4634 35.8359 48.4634C38.5629 48.4634 40.789 50.6899 40.789 53.4554Z" stroke="#98E0F9" stroke-width="3"/>
<path d="M64.4025 39.5046C64.4025 43.567 61.1314 46.8448 57.1153 46.8448C53.0992 46.8448 49.8281 43.567 49.8281 39.5046C49.8281 35.4422 53.0992 32.1644 57.1153 32.1644C61.1314 32.1644 64.4025 35.4422 64.4025 39.5046Z" stroke="#3CADEF" stroke-width="3"/>
<path d="M89.9432 62.71C89.9432 65.857 87.4098 68.3927 84.3036 68.3927C81.1975 68.3927 78.6641 65.857 78.6641 62.71C78.6641 59.5631 81.1975 57.0274 84.3036 57.0274C87.4098 57.0274 89.9432 59.5631 89.9432 62.71Z" stroke="#98E0F9" stroke-width="3"/>
<path d="M66.6478 112.712C66.6478 116.196 63.8437 119 60.4099 119C56.976 119 54.1719 116.196 54.1719 112.712C54.1719 109.228 56.976 106.425 60.4099 106.425C63.8437 106.425 66.6478 109.228 66.6478 112.712Z" stroke="#98E0F9" stroke-width="4"/>
<line y1="-0.5" x2="19.321" y2="-0.5" transform="matrix(0.753264 0.657719 -0.653223 0.757165 63.4336 45.5822)" stroke="black"/>
<line x1="0.5" y1="-0.5" x2="16.0946" y2="-0.5" transform="matrix(0.976302 -0.216415 0.213947 0.976845 13.1797 58.0137)" stroke="#191944" stroke-linecap="round"/>
<line x1="0.5" y1="-0.5" x2="19.3722" y2="-0.5" transform="matrix(0.428367 0.903605 -0.901594 0.432584 23.6133 30.1119)" stroke="#191944" stroke-linecap="round"/>
<line x1="0.5" y1="-0.5" x2="22.9793" y2="-0.5" transform="matrix(0.935632 0.352978 -0.349276 0.93702 27.4609 26.5206)" stroke="#191944" stroke-linecap="round"/>
<line x1="0.5" y1="-0.5" x2="19.398" y2="-0.5" transform="matrix(0.0283886 0.999597 -0.999587 0.0287319 54.918 10.774)" stroke="black" stroke-linecap="round"/>
<line x1="0.5" y1="-0.5" x2="26.1878" y2="-0.5" transform="matrix(-0.884883 0.465813 -0.461436 -0.887174 88.6953 22.9293)" stroke="black" stroke-linecap="round"/>
<line x1="0.5" y1="-0.5" x2="29.6704" y2="-0.5" transform="matrix(-0.200235 0.979748 -0.97927 -0.20256 92.8125 25.968)" stroke="black" stroke-linecap="round"/>
<line x1="0.5" y1="-0.5" x2="16.9076" y2="-0.5" transform="matrix(0.993811 -0.111089 0.109778 0.993956 91.4414 61.605)" stroke="black" stroke-linecap="round"/>
<line x1="0.5" y1="-0.5" x2="18.3902" y2="-0.5" transform="matrix(0.552392 0.833585 -0.830506 0.55701 40.0898 58.8425)" stroke="black" stroke-linecap="round"/>
<line x1="0.5" y1="-0.5" x2="28.0925" y2="-0.5" transform="matrix(-0.355393 0.934717 -0.933547 -0.358454 32.125 59.1188)" stroke="black" stroke-linecap="round"/>
<line x1="0.5" y1="-0.5" x2="22.619" y2="-0.5" transform="matrix(0.928765 -0.37067 0.367537 0.930009 26.0312 90.3412)" stroke="black" stroke-linecap="round"/>
<line x1="0.5" y1="-0.5" x2="19.0614" y2="-0.5" transform="matrix(0.224605 0.97445 -0.973852 0.227183 54.3711 85.363)" stroke="black" stroke-linecap="round"/>
<line x1="0.5" y1="-0.5" x2="37.0362" y2="-0.5" transform="matrix(0.951027 0.309108 -0.30576 0.952109 57.9375 82.8767)" stroke="black" stroke-linecap="round"/>
<line x1="0.5" y1="-0.5" x2="23.7464" y2="-0.5" transform="matrix(0.385064 0.92289 -0.921229 0.389021 86.7734 69.3402)" stroke="black" stroke-linecap="round"/>
<line x1="0.5" y1="-0.5" x2="22.0478" y2="-0.5" transform="matrix(-0.864676 0.502331 -0.497821 -0.86728 77.4336 65.1964)" stroke="black" stroke-linecap="round"/>
<line x1="0.5" y1="-0.5" x2="9.64845" y2="-0.5" transform="matrix(0.838807 -0.54443 0.539826 0.841777 41.7383 50.8311)" stroke="black" stroke-linecap="round"/>
</svg>
