<?xml version="1.0" encoding="utf-8"?>
<!-- Generator: Adobe Illustrator 22.0.1, SVG Export Plug-In . SVG Version: 6.00 Build 0)  -->
<svg version="1.1" id="Layer_1" xmlns="http://www.w3.org/2000/svg" xmlns:xlink="http://www.w3.org/1999/xlink" x="0px" y="0px"
	 viewBox="0 0 4069.9 4092.5" style="enable-background:new 0 0 4069.9 4092.5;" xml:space="preserve">
<style type="text/css">
	.st0{opacity:0.75;}
	.st1{fill:url(#SVGID_1_);}
	.st2{fill:url(#SVGID_2_);}
	.st3{fill:url(#SVGID_3_);}
	.st4{fill:url(#SVGID_4_);}
	.st5{fill:url(#SVGID_5_);}
	.st6{fill:url(#SVGID_6_);}
	.st7{fill:url(#SVGID_7_);}
	.st8{fill:url(#SVGID_8_);}
	.st9{fill:url(#SVGID_9_);}
	.st10{fill:url(#SVGID_10_);}
	.st11{fill:url(#SVGID_11_);}
	.st12{fill:url(#SVGID_12_);}
	.st13{fill:url(#SVGID_13_);}
	.st14{fill:url(#SVGID_14_);}
	.st15{fill:url(#SVGID_15_);}
	.st16{fill:url(#SVGID_16_);}
	.st17{fill:url(#SVGID_17_);}
	.st18{fill:url(#SVGID_18_);}
	.st19{fill:url(#SVGID_19_);}
	.st20{fill:url(#SVGID_20_);}
	.st21{fill:url(#SVGID_21_);}
	.st22{fill:url(#SVGID_22_);}
	.st23{fill:url(#SVGID_23_);}
	.st24{fill:url(#SVGID_24_);}
	.st25{fill:url(#SVGID_25_);}
	.st26{fill:url(#SVGID_26_);}
	.st27{fill:url(#SVGID_27_);}
	.st28{fill:url(#SVGID_28_);}
	.st29{fill:url(#SVGID_29_);}
	.st30{fill:url(#SVGID_30_);}
	.st31{fill:url(#SVGID_31_);}
	.st32{fill:url(#SVGID_32_);}
	.st33{fill:url(#SVGID_33_);}
	.st34{fill:url(#SVGID_34_);}
	.st35{fill:url(#SVGID_35_);}
	.st36{fill:url(#SVGID_36_);}
	.st37{fill:url(#SVGID_37_);}
	.st38{fill:url(#SVGID_38_);}
	.st39{fill:url(#SVGID_39_);}
	.st40{fill:url(#SVGID_40_);}
	.st41{fill:url(#SVGID_41_);}
	.st42{fill:url(#SVGID_42_);}
	.st43{fill:url(#SVGID_43_);}
	.st44{fill:url(#SVGID_44_);}
	.st45{fill:url(#SVGID_45_);}
	.st46{fill:url(#SVGID_46_);}
	.st47{fill:url(#SVGID_47_);}
	.st48{fill:url(#SVGID_48_);}
	.st49{fill:url(#SVGID_49_);}
	.st50{fill:url(#SVGID_50_);}
	.st51{fill:url(#SVGID_51_);}
	.st52{fill:url(#SVGID_52_);}
	.st53{fill:url(#SVGID_53_);}
	.st54{fill:url(#SVGID_54_);}
	.st55{fill:url(#SVGID_55_);}
	.st56{fill:url(#SVGID_56_);}
	.st57{fill:url(#SVGID_57_);}
	.st58{fill:#908F8F;}
	.st59{fill:none;}
</style>
<g>
	<g class="st0">
		
			<radialGradient id="SVGID_1_" cx="-211.5234" cy="2428.2385" r="212.5028" gradientTransform="matrix(5.5382 -3.486318e-02 1.148217e-02 1.8281 3225.7708 -3353.9727)" gradientUnits="userSpaceOnUse">
			<stop  offset="0" style="stop-color:#7ED3F7;stop-opacity:0.8"/>
			<stop  offset="0.1658" style="stop-color:#2AC5F4;stop-opacity:0.8"/>
			<stop  offset="0.3387" style="stop-color:#3357A7;stop-opacity:0.9"/>
			<stop  offset="0.4" style="stop-color:#304786;stop-opacity:0.8166"/>
			<stop  offset="0.4729" style="stop-color:#2A386B;stop-opacity:0.7174"/>
			<stop  offset="0.5513" style="stop-color:#222B57;stop-opacity:0.6107"/>
			<stop  offset="0.6357" style="stop-color:#1C2248;stop-opacity:0.4958"/>
			<stop  offset="0.7289" style="stop-color:#171B3E;stop-opacity:0.369"/>
			<stop  offset="0.8377" style="stop-color:#141639;stop-opacity:0.2209"/>
			<stop  offset="1" style="stop-color:#131537;stop-opacity:0"/>
		</radialGradient>
		<path class="st1" d="M3259,1085.1c1.4,214.5-524.4,391.8-1174.4,395.9c-649.9,4.1-1177.9-166.5-1179.3-381.1
			C904,885.3,1429.8,708.1,2079.7,704C2729.7,699.9,3257.6,870.5,3259,1085.1z"/>
	</g>
	<radialGradient id="SVGID_2_" cx="2072.2524" cy="2033.666" r="1722.6855" gradientUnits="userSpaceOnUse">
		<stop  offset="0.1108" style="stop-color:#131537"/>
		<stop  offset="0.4554" style="stop-color:#131537"/>
		<stop  offset="0.5" style="stop-color:#131639"/>
		<stop  offset="0.5293" style="stop-color:#151B3D"/>
		<stop  offset="0.5541" style="stop-color:#162245"/>
		<stop  offset="0.5765" style="stop-color:#182B50"/>
		<stop  offset="0.5971" style="stop-color:#173760"/>
		<stop  offset="0.6089" style="stop-color:#13406B"/>
		<stop  offset="0.682" style="stop-color:#183158;stop-opacity:0.8131"/>
		<stop  offset="0.7584" style="stop-color:#172549;stop-opacity:0.6179"/>
		<stop  offset="0.8363" style="stop-color:#151D3F;stop-opacity:0.4186"/>
		<stop  offset="0.9159" style="stop-color:#141739;stop-opacity:0.2149"/>
		<stop  offset="1" style="stop-color:#131537;stop-opacity:0"/>
	</radialGradient>
	<circle class="st2" cx="2072.3" cy="2033.7" r="1722.7"/>
	<radialGradient id="SVGID_3_" cx="2069.0815" cy="2017.3494" r="1085.3684" gradientUnits="userSpaceOnUse">
		<stop  offset="0.6915" style="stop-color:#010101"/>
		<stop  offset="0.7318" style="stop-color:#040506"/>
		<stop  offset="0.7726" style="stop-color:#0D1114"/>
		<stop  offset="0.8137" style="stop-color:#181F24"/>
		<stop  offset="0.8549" style="stop-color:#212E38"/>
		<stop  offset="0.8963" style="stop-color:#2A4151"/>
		<stop  offset="0.9378" style="stop-color:#305875"/>
		<stop  offset="0.9786" style="stop-color:#2A73A4"/>
		<stop  offset="1" style="stop-color:#1284C7"/>
	</radialGradient>
	<path class="st3" d="M3129.8,2035.2c0,585.8-474.9,1060.7-1060.7,1060.7c-585.8,0-1060.7-474.9-1060.7-1060.7
		c0-585.8,474.9-1060.7,1060.7-1060.7C2654.9,974.6,3129.8,1449.4,3129.8,2035.2z"/>
	<g>
		<radialGradient id="SVGID_4_" cx="2285.2598" cy="1423.3177" r="3444.2673" gradientUnits="userSpaceOnUse">
			<stop  offset="6.716420e-02" style="stop-color:#B0B1B1"/>
			<stop  offset="0.2938" style="stop-color:#025C8D"/>
			<stop  offset="0.3215" style="stop-color:#145782"/>
			<stop  offset="0.4181" style="stop-color:#234661"/>
			<stop  offset="0.5162" style="stop-color:#223646"/>
			<stop  offset="0.614" style="stop-color:#1D2832"/>
			<stop  offset="0.7114" style="stop-color:#151C21"/>
			<stop  offset="0.8083" style="stop-color:#0C1012"/>
			<stop  offset="0.9047" style="stop-color:#040506"/>
			<stop  offset="1" style="stop-color:#010101"/>
		</radialGradient>
		<path class="st4" d="M1606.1,1092.5c-0.3-0.1-0.8,0.1-1.5,0.3c-2.3,0.9-5.8,2.6-6.3,3c-0.5,0.4-6.6,5.4-6.6,5.5
			c-0.3,0.3-0.7,0.6-0.5,0.8c0,0,2.9,1.3,11.6-4.8C1607.5,1093.9,1607,1092.7,1606.1,1092.5z"/>
		<radialGradient id="SVGID_5_" cx="2285.3037" cy="1423.3313" r="3444.4702" gradientUnits="userSpaceOnUse">
			<stop  offset="6.716420e-02" style="stop-color:#B0B1B1"/>
			<stop  offset="0.2938" style="stop-color:#025C8D"/>
			<stop  offset="0.3215" style="stop-color:#145782"/>
			<stop  offset="0.4181" style="stop-color:#234661"/>
			<stop  offset="0.5162" style="stop-color:#223646"/>
			<stop  offset="0.614" style="stop-color:#1D2832"/>
			<stop  offset="0.7114" style="stop-color:#151C21"/>
			<stop  offset="0.8083" style="stop-color:#0C1012"/>
			<stop  offset="0.9047" style="stop-color:#040506"/>
			<stop  offset="1" style="stop-color:#010101"/>
		</radialGradient>
		<path class="st5" d="M1592,1087c-0.2-0.2-0.4,0-0.7,0.1c-1.5,0.6-4.7,2.1-5.3,2.5c-0.7,0.4-1.3,1.1-1,1.2c0.3,0.2,1.7-0.3,3-1
			C1588.6,1089.5,1591.9,1087.4,1592,1087z"/>
		<radialGradient id="SVGID_6_" cx="2285.269" cy="1423.307" r="3444.2874" gradientUnits="userSpaceOnUse">
			<stop  offset="6.716420e-02" style="stop-color:#B0B1B1"/>
			<stop  offset="0.2938" style="stop-color:#025C8D"/>
			<stop  offset="0.3215" style="stop-color:#145782"/>
			<stop  offset="0.4181" style="stop-color:#234661"/>
			<stop  offset="0.5162" style="stop-color:#223646"/>
			<stop  offset="0.614" style="stop-color:#1D2832"/>
			<stop  offset="0.7114" style="stop-color:#151C21"/>
			<stop  offset="0.8083" style="stop-color:#0C1012"/>
			<stop  offset="0.9047" style="stop-color:#040506"/>
			<stop  offset="1" style="stop-color:#010101"/>
		</radialGradient>
		<path class="st6" d="M1617.5,1075.6c2.5-0.6,2.5-0.6,5-1.6c0.2-0.1,2.5-1,6.2-3c0,0,4.2-2.2,4.9-2.7c-0.3-0.1-0.3-0.1-0.9,0.1
			c-0.2,0.1-15.5,5.6-29.7,13.1l7.8-3.1C1613.1,1077.5,1615.1,1076.1,1617.5,1075.6z"/>
		<radialGradient id="SVGID_7_" cx="2285.2649" cy="1423.3005" r="3444.2563" gradientUnits="userSpaceOnUse">
			<stop  offset="6.716420e-02" style="stop-color:#B0B1B1"/>
			<stop  offset="0.2938" style="stop-color:#025C8D"/>
			<stop  offset="0.3215" style="stop-color:#145782"/>
			<stop  offset="0.4181" style="stop-color:#234661"/>
			<stop  offset="0.5162" style="stop-color:#223646"/>
			<stop  offset="0.614" style="stop-color:#1D2832"/>
			<stop  offset="0.7114" style="stop-color:#151C21"/>
			<stop  offset="0.8083" style="stop-color:#0C1012"/>
			<stop  offset="0.9047" style="stop-color:#040506"/>
			<stop  offset="1" style="stop-color:#010101"/>
		</radialGradient>
		<path class="st7" d="M1601.1,1084.9c-0.1,0-0.2-0.1-0.3-0.1c0.3-0.3,0.5-0.4,6.2-2.9c2-0.8,4.7-2,6.1-2.7c0.2-0.1,0.6-0.3,0.8-0.5
			c-0.4,0.1-0.9,0.1-1.2,0.2c-16.8,5.5-30,14.2-32.2,16.1c1.3,0.3,19.3-8.5,20.3-9.3C1600.9,1085.5,1601,1085.2,1601.1,1084.9z"/>
		<radialGradient id="SVGID_8_" cx="2285.2732" cy="1423.3199" r="3444.3245" gradientUnits="userSpaceOnUse">
			<stop  offset="6.716420e-02" style="stop-color:#B0B1B1"/>
			<stop  offset="0.2938" style="stop-color:#025C8D"/>
			<stop  offset="0.3215" style="stop-color:#145782"/>
			<stop  offset="0.4181" style="stop-color:#234661"/>
			<stop  offset="0.5162" style="stop-color:#223646"/>
			<stop  offset="0.614" style="stop-color:#1D2832"/>
			<stop  offset="0.7114" style="stop-color:#151C21"/>
			<stop  offset="0.8083" style="stop-color:#0C1012"/>
			<stop  offset="0.9047" style="stop-color:#040506"/>
			<stop  offset="1" style="stop-color:#010101"/>
		</radialGradient>
		<path class="st8" d="M1618.2,1083.3c0.4-0.2,0.7-0.5,1-0.7c0.6-0.5,1-1.1,1.6-1.6c1-0.9,2.1-1.8,3.1-2.7c0.6-0.5,0.6-0.7,0.6-0.7
			c-0.1-0.1-0.1-0.1-0.6,0c-3.4,1.1-9.3,5.5-9.7,6c0,0,0,0,0,0.1c0.6,0.3,0.6,0.3-1,2.4C1613.8,1086,1618.2,1083.3,1618.2,1083.3z"
			/>
		<radialGradient id="SVGID_9_" cx="2285.2791" cy="1423.3043" r="3444.3198" gradientUnits="userSpaceOnUse">
			<stop  offset="6.716420e-02" style="stop-color:#B0B1B1"/>
			<stop  offset="0.2938" style="stop-color:#025C8D"/>
			<stop  offset="0.3215" style="stop-color:#145782"/>
			<stop  offset="0.4181" style="stop-color:#234661"/>
			<stop  offset="0.5162" style="stop-color:#223646"/>
			<stop  offset="0.614" style="stop-color:#1D2832"/>
			<stop  offset="0.7114" style="stop-color:#151C21"/>
			<stop  offset="0.8083" style="stop-color:#0C1012"/>
			<stop  offset="0.9047" style="stop-color:#040506"/>
			<stop  offset="1" style="stop-color:#010101"/>
		</radialGradient>
		<path class="st9" d="M1576,1114.3c-0.4-0.1-0.7,0.1-1.1,0.2c-1.5,0.4-2.9,1.1-2.9,1.1c-4,2-8.7,5.5-9,5.9c0,0,0,0.1,0.1,0.1
			c0.7,0,8.3-3,11.4-5.3C1575.8,1115.5,1576.9,1114.4,1576,1114.3z"/>
		<radialGradient id="SVGID_10_" cx="2285.2695" cy="1423.307" r="3444.2886" gradientUnits="userSpaceOnUse">
			<stop  offset="6.716420e-02" style="stop-color:#B0B1B1"/>
			<stop  offset="0.2938" style="stop-color:#025C8D"/>
			<stop  offset="0.3215" style="stop-color:#145782"/>
			<stop  offset="0.4181" style="stop-color:#234661"/>
			<stop  offset="0.5162" style="stop-color:#223646"/>
			<stop  offset="0.614" style="stop-color:#1D2832"/>
			<stop  offset="0.7114" style="stop-color:#151C21"/>
			<stop  offset="0.8083" style="stop-color:#0C1012"/>
			<stop  offset="0.9047" style="stop-color:#040506"/>
			<stop  offset="1" style="stop-color:#010101"/>
		</radialGradient>
		<path class="st10" d="M1583.6,1131.7c-0.4-0.3-0.8-0.6-3.1-0.3c-0.4,0.1-0.9,0.1-1.3,0.2c-3.6,0.7-7.3,1.5-11,2.2
			c-4.5,1-19.1,7.9-21.1,10.7c0,0.1,0.1,0.2,0.1,0.3c1.2,0.4,2.5-0.2,3.6,0.5c1.8,1.2,1.3,2,0.9,2.6c-0.7,1-10.3,8.2-12.9,9.6
			c-1.1,0.6-1.2,0.6-1.8,0.5c-0.7-2.8,2.7-3.8,2.8-6.2c-1.8,0.3-10.8,5.1-11.8,7.5c-0.1,0.3-0.3,0.7-0.2,0.9c0.6,2.1,1.7,4,2.1,6.1
			c0.2,0.8,0.7,1.6,0.7,2.5c0,1.6-1,3-0.8,4.6c0.1,0.3,0.2,0.6,0.3,0.8c2.7,2.9,27.2-11.5,33.9-18.2c1.5-1.5,5.7-10,2.9-9.9
			c-3.1,0.1-5.8,1.6-8.7,2.3c5.7-3.8,12.2-6.5,17.9-10.4C1576.4,1138.3,1583.6,1132.1,1583.6,1131.7z"/>
		<radialGradient id="SVGID_11_" cx="2285.2651" cy="1423.3079" r="3444.2722" gradientUnits="userSpaceOnUse">
			<stop  offset="6.716420e-02" style="stop-color:#B0B1B1"/>
			<stop  offset="0.2938" style="stop-color:#025C8D"/>
			<stop  offset="0.3215" style="stop-color:#145782"/>
			<stop  offset="0.4181" style="stop-color:#234661"/>
			<stop  offset="0.5162" style="stop-color:#223646"/>
			<stop  offset="0.614" style="stop-color:#1D2832"/>
			<stop  offset="0.7114" style="stop-color:#151C21"/>
			<stop  offset="0.8083" style="stop-color:#0C1012"/>
			<stop  offset="0.9047" style="stop-color:#040506"/>
			<stop  offset="1" style="stop-color:#010101"/>
		</radialGradient>
		<path class="st11" d="M1513.4,1130.6c10.6-4.8,19.6-12.3,30.1-17.4c-10.5,6.6-10.5,6.6-11.1,7.2l35.7-20.3c0.7-0.4,1.8-1,2.8-2.4
			c-0.4-0.1-1,0.1-1.3,0.2c-7.6,3.4-58.2,30.6-69,39.4c5.4-0.7,8.8-5.1,13.3-7.3C1513.8,1130.3,1513.6,1130.5,1513.4,1130.6z"/>
		<radialGradient id="SVGID_12_" cx="2285.2668" cy="1423.3103" r="3444.2778" gradientUnits="userSpaceOnUse">
			<stop  offset="6.716420e-02" style="stop-color:#B0B1B1"/>
			<stop  offset="0.2938" style="stop-color:#025C8D"/>
			<stop  offset="0.3215" style="stop-color:#145782"/>
			<stop  offset="0.4181" style="stop-color:#234661"/>
			<stop  offset="0.5162" style="stop-color:#223646"/>
			<stop  offset="0.614" style="stop-color:#1D2832"/>
			<stop  offset="0.7114" style="stop-color:#151C21"/>
			<stop  offset="0.8083" style="stop-color:#0C1012"/>
			<stop  offset="0.9047" style="stop-color:#040506"/>
			<stop  offset="1" style="stop-color:#010101"/>
		</radialGradient>
		<path class="st12" d="M1513.5,1205.9c-0.2,0-0.3,0-0.5,0.1c-0.6,0.2-1.2,0.5-2.4,1.4c-4.6,3.6-8.1,8.5-13.2,11.5
			c-8.4,5.1-10.9,6.7-11.3,7.9c0.1,0,0.1,0.1,0.2,0.2c0.7,0.1,1.3,0,3.3-0.5c3.2-0.7,3.6-0.7,4.2-0.2c1.1,0.8,0.9,2.6,2.3,3.1
			c0.5,0.2,2.8-0.1,5.1-0.5c14.5-2.7,20.5-8.6,20.5-8.7c1.6-1.9-2.4-9.4-2.4-9.5C1517.6,1207.7,1514,1205.9,1513.5,1205.9z"/>
		<radialGradient id="SVGID_13_" cx="2285.2678" cy="1423.306" r="3444.2764" gradientUnits="userSpaceOnUse">
			<stop  offset="6.716420e-02" style="stop-color:#B0B1B1"/>
			<stop  offset="0.2938" style="stop-color:#025C8D"/>
			<stop  offset="0.3215" style="stop-color:#145782"/>
			<stop  offset="0.4181" style="stop-color:#234661"/>
			<stop  offset="0.5162" style="stop-color:#223646"/>
			<stop  offset="0.614" style="stop-color:#1D2832"/>
			<stop  offset="0.7114" style="stop-color:#151C21"/>
			<stop  offset="0.8083" style="stop-color:#0C1012"/>
			<stop  offset="0.9047" style="stop-color:#040506"/>
			<stop  offset="1" style="stop-color:#010101"/>
		</radialGradient>
		<path class="st13" d="M1533.8,1144.8c-0.3,0-1,0-2.5,0.4c-7.8,2.1-13.3,6.9-13.6,7.6c0,0,0.1,0.1,0.1,0.1c0.8,0,1.5-0.4,2.3-0.1
			c0.2,0.5,0.2,0.6-0.5,2.2c-0.5,0.9-1.7,3.5-0.1,3c2.6-0.8,10.3-7.6,11.2-8.3C1534.4,1146.4,1535.3,1144.9,1533.8,1144.8z"/>
		<radialGradient id="SVGID_14_" cx="2285.2683" cy="1423.3069" r="3444.282" gradientUnits="userSpaceOnUse">
			<stop  offset="6.716420e-02" style="stop-color:#B0B1B1"/>
			<stop  offset="0.2938" style="stop-color:#025C8D"/>
			<stop  offset="0.3215" style="stop-color:#145782"/>
			<stop  offset="0.4181" style="stop-color:#234661"/>
			<stop  offset="0.5162" style="stop-color:#223646"/>
			<stop  offset="0.614" style="stop-color:#1D2832"/>
			<stop  offset="0.7114" style="stop-color:#151C21"/>
			<stop  offset="0.8083" style="stop-color:#0C1012"/>
			<stop  offset="0.9047" style="stop-color:#040506"/>
			<stop  offset="1" style="stop-color:#010101"/>
		</radialGradient>
		<path class="st14" d="M1879.1,1004.4c-5.2,6.4-18.7,10-26,12c-0.3,0.1-37.2,10.8-38.8,12.9c-10.2,13.7,15.4,18.1,15.7,18
			c63.4-4.6,64.2-4,68.6-0.1c0.3,0.3,29.8,33,20.2,50.8c-3.9,7.2-3.9,7.5-3.7,8.5c0.7,3.8,5.3,4.1,6.6,7.3c2,5,0,10.6,2.7,15.4
			c8.4-2,15.1-10.7,25-6.2c17,7.6,9.2,21.2,9,21.4c-7,8.3-19.7,7.9-26,17.2c-3.5,5.1-6.8,19.2-4.2,27.4c1.2,3.9,50.7,87.7,74.5,95.8
			c-11.9-174.3-20.6-253.6-32.7-291.3c10.8,33.1,19.5,98.2,32.7,291.3c59.3,11.4,60.6,10,64.4,5.7c6.3-7,17-61.3,17.1-61.8
			c1.5-8-2.7-16.4,1.9-24.2c2.4-4,2.7-4.1,17.5-8.6c46.7-14.2,46.7-14.2,48-23c1.2-9.1,2-14.2,10.4-18.5
			c20.4-10.3,43.9-11.8,64.2-22.3c8.3-4.3,17.4-7.1,25.1-12.5c0.2-0.1,4-2.9-0.8-9.1c-6.9-9-17.5-14.1-24.2-23.4
			c-4.3-5.9-4.1-13.3-7.1-19.7c-3.4-7.4-1.9-9.4,2.3-13.7c5.8-5.9,1.8-8.2-10.1-15.2c-38.8-22.9-39.1-23.5-42.4-28.6
			c0.2-0.5,0.5-1.1,0.7-1.6c0.6-0.2,1.4-0.5,2-0.8c-11.3-11.1-34.4-2.3-39.9-23.4c-1.2-0.6-2.7-1.4-3.9-1.9c0.2-1,0.5-2.3,0.8-3.2
			c0.5-0.1,1.1-0.3,1.6-0.4c-5.1-0.7-19.8-1.6-19.9-1.6c-9.8-0.6-22.2,1.6-24.6,2c-8.5,1.5-15.7-4-23.9-4.3
			c-11.5-0.4-36.7-0.4-46.8,0c-18.5,1-18.5,1-20.7,2.5c0,0,0,0-0.1,0c-20.2,1.1-20.2,1.1-29.8,2.9h0c-0.2,0-0.4-0.1-0.6,0.1
			c0,0.1,0.1,0.1,0.2,0.1c0.2,0,0.4,0.1,0.6,0.1c11.8,0.9,11.8,0.9,15.3,1.8c-1,0.1-1,0.1-14.1-0.1c-5.4-0.1-7.4-0.1-13.8,0.5
			c-47.3,5.3-81.3,20.5-81.6,20.7C1872.4,1004.4,1872.4,1004.4,1879.1,1004.4z"/>
		<radialGradient id="SVGID_15_" cx="2285.2717" cy="1423.3108" r="3444.304" gradientUnits="userSpaceOnUse">
			<stop  offset="6.716420e-02" style="stop-color:#B0B1B1"/>
			<stop  offset="0.2938" style="stop-color:#025C8D"/>
			<stop  offset="0.3215" style="stop-color:#145782"/>
			<stop  offset="0.4181" style="stop-color:#234661"/>
			<stop  offset="0.5162" style="stop-color:#223646"/>
			<stop  offset="0.614" style="stop-color:#1D2832"/>
			<stop  offset="0.7114" style="stop-color:#151C21"/>
			<stop  offset="0.8083" style="stop-color:#0C1012"/>
			<stop  offset="0.9047" style="stop-color:#040506"/>
			<stop  offset="1" style="stop-color:#010101"/>
		</radialGradient>
		<path class="st15" d="M1700.2,1204.3c2.4-6.4,1.3-9.3-3.2-8.6c-0.1,0-13.6,3.6-16.1,9.6c-1.4,3.5,4.2,12.5,6.5,13.9
			C1692.9,1222.7,1700.1,1204.5,1700.2,1204.3z"/>
		<radialGradient id="SVGID_16_" cx="2285.2683" cy="1423.3076" r="3444.2825" gradientUnits="userSpaceOnUse">
			<stop  offset="6.716420e-02" style="stop-color:#B0B1B1"/>
			<stop  offset="0.2938" style="stop-color:#025C8D"/>
			<stop  offset="0.3215" style="stop-color:#145782"/>
			<stop  offset="0.4181" style="stop-color:#234661"/>
			<stop  offset="0.5162" style="stop-color:#223646"/>
			<stop  offset="0.614" style="stop-color:#1D2832"/>
			<stop  offset="0.7114" style="stop-color:#151C21"/>
			<stop  offset="0.8083" style="stop-color:#0C1012"/>
			<stop  offset="0.9047" style="stop-color:#040506"/>
			<stop  offset="1" style="stop-color:#010101"/>
		</radialGradient>
		<path class="st16" d="M1796.3,1013.2c-3,1.2-6.1,2.3-9.1,3.4c9.7-2.3,41.1-10.9,46.1-12.3c-21,7-37.6,12.5-55.3,16.2
			c-4.1,0.9-5.4,1.9-7,3.1c0,1.2-1.7,7.2-4.7,10c-9.4-2.8-33.6,11.2-34.6,12.1c2.1,0.9,4.7,0.5,6.7,1.8c-0.1,0.3-0.3,0.7-0.3,1.1
			c3.1-0.4,4.3-0.5,14.7-4.4c-17.9,9.7-20,7.4-21.3,5.9c-13.5,0.3-14.3,5.5-14.7,8c-7.7,5.1-17.7,5.6-24.5,12.3
			c0.2,0.3,0.4,0.7,0.7,1c2.2,0.1,3.7,0.2,17.8-2.6c10.4-2.1,19.7-9.5,31.1-6.9c-0.8,2-0.8,2-3.2,3.8c7.6,1.5,32-10.3,29.8-16.3
			c-0.8-0.2-1.9-0.5-2.7-0.7c1.8-2.6,17.9-12.8,21.6-13.6c21.8-5.2,29.4-13.4,29.6-15.3c-0.3-0.1-0.8-0.3-1.1-0.4
			c20.2-5.3,29.4-7.7,35.7-11.8c-1.6-0.1-1.6-0.1-5.1,0.5c0.2-0.1,45.7-14.2,48-14.9c-11.8,1.7-12.5,1.8-16.9,2.1
			c11.3-3,22.9-4.7,34.2-7.6c-11,0-29.2,2.3-29.3,2.3c-0.4,0.1-44.3,7.5-53.7,11.2c0.4,0.6,1.1,1.2,1.8,1.4c-1.8,0.5-3.4,1-8,0.5
			c-3.2-0.4-40.9,8.8-44.8,13.4C1779.4,1017.3,1779.9,1017.5,1796.3,1013.2z"/>
		<radialGradient id="SVGID_17_" cx="2285.2617" cy="1423.3053" r="3444.2493" gradientUnits="userSpaceOnUse">
			<stop  offset="6.716420e-02" style="stop-color:#B0B1B1"/>
			<stop  offset="0.2938" style="stop-color:#025C8D"/>
			<stop  offset="0.3215" style="stop-color:#145782"/>
			<stop  offset="0.4181" style="stop-color:#234661"/>
			<stop  offset="0.5162" style="stop-color:#223646"/>
			<stop  offset="0.614" style="stop-color:#1D2832"/>
			<stop  offset="0.7114" style="stop-color:#151C21"/>
			<stop  offset="0.8083" style="stop-color:#0C1012"/>
			<stop  offset="0.9047" style="stop-color:#040506"/>
			<stop  offset="1" style="stop-color:#010101"/>
		</radialGradient>
		<path class="st17" d="M1620,1089.1c-0.9,1.2-1.4,2.7-2.4,3.8c-1.4,1.6-1.5,1.7-6.2,5.3c0.5-1.2,1.1-2.7,1.6-3.8
			c0.2-0.6,0.6-1.1,0.6-1.8c-0.4-0.2-4.2,0.2-8.2,4.3c0.4,0,0.9,0,1.3-0.1c0,0.1,0,0.3,0,0.4c-4.5,3.8-10.6,4.5-15.6,7.3
			c0.8,0.4,1.6-0.5,2.4,0c-0.6,1.3-0.6,1.3-0.6,1.6c0.9,0.3,0.9,0.3,15.4-4.5c-4.6,2.5-16.8,9.3-17.8,12.3c0.1,0.1,0.1,0.2,0.1,0.2
			c0.1,0,16.5-6.1,18.6-7.2c1.4-0.8,1.4-0.8,10.7-8.9c0.1,0.1,0.3,0.5,0,1.4c0,0.1-0.1,0.2-0.1,0.2c4.3-4,4.3-4,15.5-13.3
			c2.4-2,2.6-2.1,2.9-2.8c-0.7-0.2-0.7-0.2-1.7,0c-0.1,0-14.6,4.3-16.1,5.2C1620.2,1088.9,1620.1,1089,1620,1089.1z"/>
		<radialGradient id="SVGID_18_" cx="2285.2686" cy="1423.3064" r="3444.2839" gradientUnits="userSpaceOnUse">
			<stop  offset="6.716420e-02" style="stop-color:#B0B1B1"/>
			<stop  offset="0.2938" style="stop-color:#025C8D"/>
			<stop  offset="0.3215" style="stop-color:#145782"/>
			<stop  offset="0.4181" style="stop-color:#234661"/>
			<stop  offset="0.5162" style="stop-color:#223646"/>
			<stop  offset="0.614" style="stop-color:#1D2832"/>
			<stop  offset="0.7114" style="stop-color:#151C21"/>
			<stop  offset="0.8083" style="stop-color:#0C1012"/>
			<stop  offset="0.9047" style="stop-color:#040506"/>
			<stop  offset="1" style="stop-color:#010101"/>
		</radialGradient>
		<path class="st18" d="M1778.9,1205.4c6.8-0.6,21.7,18.2,21.8,18.4c3.6,4.6,7.3,9.4,10.6,8.8c9.3-1.8,23.3-37.4,23.4-37.8
			c0.3-1.1,0.7-2.6,0.6-3.8l-68.3-15.5c1.9-1.5,3.7-2.9,20.1-10.2c7.2-3.2,10.8-4.8,10.6-6.7c-0.6-4.9-24.5-27.6-36.2-29.5
			c-5.2-0.8-10.6,0.7-15.6-1.7c-5.3-2.6-4.7-11.2-11.9-11.8c-6.7-0.5-21.1,4.9-31.5,8.8c-10.7,4-10.8,4-12.4,3.9
			c-0.7-1.7-1.5-3.5-2.1-19c-4.3-1.7-17.8,0.6-21.8,1.3c-20.5,4.8-81.8,56.2-70.3,64c11.4,7.8,50.7-0.2,56-2.8
			c-0.8-3.3-1.3-5.5,15.8-7.3c14.5-1.6,16.7-5.1,18.1-7.5c3.5,1.9,12.9,10,12.9,10c5,5.3,7.1,12.6,11.8,18.2
			c5.9,7,19.4,6.3,19.6,19.2c0,0.3-2.9,29.3-43.3,41.4c-12.1,3.6-25.2,2.9-36.7,9c-5.1,2.7-5.2,11.2-3.8,12.5
			c2.2,2,9.4,2.9,30.6-4.3c16.2-5.5,16.2-5.5,45.1,7.2c-2.3,2.5-2.3,2.5-14,6.8c6.4,5.6,55.7,15.9,65.8,10.3c-0.4-1.5-0.4-1.5-3-2.8
			c-1.3-0.6-1.3-0.6-23.2-21.1c17.1,1.8,22.5,4,32.2,10.6c1.9,1.3,3.2,2.2,4.2,1.9c5.5-1.7,14.7-22.4,10.2-27
			c-9.6-10-27.4-8.6-32.9-24.2C1757,1212.3,1778.7,1205.4,1778.9,1205.4z"/>
		<radialGradient id="SVGID_19_" cx="2285.2644" cy="1423.3074" r="3444.2637" gradientUnits="userSpaceOnUse">
			<stop  offset="6.716420e-02" style="stop-color:#B0B1B1"/>
			<stop  offset="0.2938" style="stop-color:#025C8D"/>
			<stop  offset="0.3215" style="stop-color:#145782"/>
			<stop  offset="0.4181" style="stop-color:#234661"/>
			<stop  offset="0.5162" style="stop-color:#223646"/>
			<stop  offset="0.614" style="stop-color:#1D2832"/>
			<stop  offset="0.7114" style="stop-color:#151C21"/>
			<stop  offset="0.8083" style="stop-color:#0C1012"/>
			<stop  offset="0.9047" style="stop-color:#040506"/>
			<stop  offset="1" style="stop-color:#010101"/>
		</radialGradient>
		<path class="st19" d="M1555.9,1108.2c0.6,0.5,4.4-1.4,7.5-3.3c0.6-0.4,1.7-1.1,1.9-1.4c0,0-0.1,0-0.1,0c-0.2,0-0.3,0.1-0.5,0.1
			C1563.3,1104.1,1556,1107.6,1555.9,1108.2z"/>
		<radialGradient id="SVGID_20_" cx="2285.2693" cy="1423.3022" r="3444.2527" gradientUnits="userSpaceOnUse">
			<stop  offset="6.716420e-02" style="stop-color:#B0B1B1"/>
			<stop  offset="0.2938" style="stop-color:#025C8D"/>
			<stop  offset="0.3215" style="stop-color:#145782"/>
			<stop  offset="0.4181" style="stop-color:#234661"/>
			<stop  offset="0.5162" style="stop-color:#223646"/>
			<stop  offset="0.614" style="stop-color:#1D2832"/>
			<stop  offset="0.7114" style="stop-color:#151C21"/>
			<stop  offset="0.8083" style="stop-color:#0C1012"/>
			<stop  offset="0.9047" style="stop-color:#040506"/>
			<stop  offset="1" style="stop-color:#010101"/>
		</radialGradient>
		<path class="st20" d="M1933.5,1146.6l10.4-2.1c0,0,2.7-1.2,3.4-3.2c0.4-1.3,0-2.1-0.5-2.8c-0.9-1.6-2.8-2.1-3.9-3.4
			c-0.7-0.9-0.7-1.7-0.7-2.1c0-0.1-0.1-0.3-0.2-0.4c0,0-1.3-0.9-5-0.5c-4.7,1-18,8.8-10.7,13.2
			C1927.9,1146.3,1930.6,1147.2,1933.5,1146.6z"/>
		<radialGradient id="SVGID_21_" cx="2285.2651" cy="1423.3131" r="3444.2837" gradientUnits="userSpaceOnUse">
			<stop  offset="6.716420e-02" style="stop-color:#B0B1B1"/>
			<stop  offset="0.2938" style="stop-color:#025C8D"/>
			<stop  offset="0.3215" style="stop-color:#145782"/>
			<stop  offset="0.4181" style="stop-color:#234661"/>
			<stop  offset="0.5162" style="stop-color:#223646"/>
			<stop  offset="0.614" style="stop-color:#1D2832"/>
			<stop  offset="0.7114" style="stop-color:#151C21"/>
			<stop  offset="0.8083" style="stop-color:#0C1012"/>
			<stop  offset="0.9047" style="stop-color:#040506"/>
			<stop  offset="1" style="stop-color:#010101"/>
		</radialGradient>
		<path class="st21" d="M1729.1,1110.6c0.1,0,0.2-0.1,0.2-0.2c-1.1-1.7-15.6-6-26.3-4.3c-9.4,1.6-6.5,7.9-4.3,9.7
			C1705.9,1121.6,1728.9,1110.7,1729.1,1110.6z"/>
		<radialGradient id="SVGID_22_" cx="2285.2737" cy="1423.3016" r="3444.2878" gradientUnits="userSpaceOnUse">
			<stop  offset="6.716420e-02" style="stop-color:#B0B1B1"/>
			<stop  offset="0.2938" style="stop-color:#025C8D"/>
			<stop  offset="0.3215" style="stop-color:#145782"/>
			<stop  offset="0.4181" style="stop-color:#234661"/>
			<stop  offset="0.5162" style="stop-color:#223646"/>
			<stop  offset="0.614" style="stop-color:#1D2832"/>
			<stop  offset="0.7114" style="stop-color:#151C21"/>
			<stop  offset="0.8083" style="stop-color:#0C1012"/>
			<stop  offset="0.9047" style="stop-color:#040506"/>
			<stop  offset="1" style="stop-color:#010101"/>
		</radialGradient>
		<path class="st22" d="M1655.9,1061.7c-3,1.1-7.9,3.2-8.9,3.9c0.5,0,0.9-0.2,1.3-0.3c4.6-1.5,9.2-1.1,9.2-1.1
			c-0.4,1.6-2.7,1.6-3.1,3.3c0.6,0.8,8.5-2.4,9-2.7c2.8-1.5,12-9.5,12-11.1c-1.2-0.4-2.2,0.6-3.3,0.6c1-2,3.6-1.9,4.9-3.5
			c-0.2-0.1-0.2-0.1-0.8,0.1c-8.2,2.7-19.1,7.7-20.5,8.6c1.8,0.5,3.5-0.8,5.2-0.7C1661.2,1059.6,1660.2,1060.1,1655.9,1061.7z"/>
		<radialGradient id="SVGID_23_" cx="2285.2666" cy="1423.3088" r="3444.2756" gradientUnits="userSpaceOnUse">
			<stop  offset="6.716420e-02" style="stop-color:#B0B1B1"/>
			<stop  offset="0.2938" style="stop-color:#025C8D"/>
			<stop  offset="0.3215" style="stop-color:#145782"/>
			<stop  offset="0.4181" style="stop-color:#234661"/>
			<stop  offset="0.5162" style="stop-color:#223646"/>
			<stop  offset="0.614" style="stop-color:#1D2832"/>
			<stop  offset="0.7114" style="stop-color:#151C21"/>
			<stop  offset="0.8083" style="stop-color:#0C1012"/>
			<stop  offset="0.9047" style="stop-color:#040506"/>
			<stop  offset="1" style="stop-color:#010101"/>
		</radialGradient>
		<path class="st23" d="M1616.3,1105.3c-2,1.4-2.6,1.9,0.4,3.8c2.6,1.6,9.2,0.2,14.8-4.7c3.2-2.8,9.8-9.6,6.8-9.8
			c-0.4,0-0.9,0.1-1.3,0.2C1631.9,1096.2,1617.2,1104.7,1616.3,1105.3z"/>
		<radialGradient id="SVGID_24_" cx="2285.259" cy="1423.3203" r="3444.2764" gradientUnits="userSpaceOnUse">
			<stop  offset="6.716420e-02" style="stop-color:#B0B1B1"/>
			<stop  offset="0.2938" style="stop-color:#025C8D"/>
			<stop  offset="0.3215" style="stop-color:#145782"/>
			<stop  offset="0.4181" style="stop-color:#234661"/>
			<stop  offset="0.5162" style="stop-color:#223646"/>
			<stop  offset="0.614" style="stop-color:#1D2832"/>
			<stop  offset="0.7114" style="stop-color:#151C21"/>
			<stop  offset="0.8083" style="stop-color:#0C1012"/>
			<stop  offset="0.9047" style="stop-color:#040506"/>
			<stop  offset="1" style="stop-color:#010101"/>
		</radialGradient>
		<path class="st24" d="M1705.9,1056.2c0-0.1-0.1-0.1-0.1-0.2c-0.2,0-0.5,0.1-0.7,0.1c-0.2,0.1-0.5,0.1-0.7,0.2
			c-4.2,1.3-8.3,2.9-12.5,4.2c-4.9,1.5-9.9,2.4-14.7,4c-3.5,1.1-5.6,1.8-6.3,2.3c1.3,0.3,15.5-2,23.1-4.2c3.8-1.1,5.6-1.8,10.7-5.4
			C1705.1,1057,1705.5,1056.7,1705.9,1056.2z"/>
		<radialGradient id="SVGID_25_" cx="2285.2742" cy="1423.3065" r="3444.3047" gradientUnits="userSpaceOnUse">
			<stop  offset="6.716420e-02" style="stop-color:#B0B1B1"/>
			<stop  offset="0.2938" style="stop-color:#025C8D"/>
			<stop  offset="0.3215" style="stop-color:#145782"/>
			<stop  offset="0.4181" style="stop-color:#234661"/>
			<stop  offset="0.5162" style="stop-color:#223646"/>
			<stop  offset="0.614" style="stop-color:#1D2832"/>
			<stop  offset="0.7114" style="stop-color:#151C21"/>
			<stop  offset="0.8083" style="stop-color:#0C1012"/>
			<stop  offset="0.9047" style="stop-color:#040506"/>
			<stop  offset="1" style="stop-color:#010101"/>
		</radialGradient>
		<path class="st25" d="M1670.8,1063.7c0.1,0,0.1,0.1,0.1,0.1c1.6-0.2,16.1-6.3,20.3-8.2c1.8-0.9,2.2-1.2,2.3-2
			c0-0.9-1.4-0.5-1.4-1.4c0-0.4,0.3-0.8,0-1.3c0-0.1,0-0.1-0.1-0.2c0,0-0.2-0.3-0.6-0.4c-0.7-0.2-1-0.1-2,0.2
			c-0.5,0.2-1.3,0.6-2.2,1.2c-3.2,2.2-5.3,5.9-9.1,7.3C1673.3,1060.8,1671.7,1061.4,1670.8,1063.7z"/>
		<radialGradient id="SVGID_26_" cx="2285.2637" cy="1423.3138" r="3444.2817" gradientUnits="userSpaceOnUse">
			<stop  offset="6.716420e-02" style="stop-color:#B0B1B1"/>
			<stop  offset="0.2938" style="stop-color:#025C8D"/>
			<stop  offset="0.3215" style="stop-color:#145782"/>
			<stop  offset="0.4181" style="stop-color:#234661"/>
			<stop  offset="0.5162" style="stop-color:#223646"/>
			<stop  offset="0.614" style="stop-color:#1D2832"/>
			<stop  offset="0.7114" style="stop-color:#151C21"/>
			<stop  offset="0.8083" style="stop-color:#0C1012"/>
			<stop  offset="0.9047" style="stop-color:#040506"/>
			<stop  offset="1" style="stop-color:#010101"/>
		</radialGradient>
		<path class="st26" d="M1704.5,1041.8c10.3-5.1,10.3-5.2,10.5-5.5c-0.4,0-0.7,0.1-1.1,0.2c-0.1,0-10.4,3.3-13.3,4.8
			c-3.4,1.7-2.3,2.9-2.3,2.9C1699,1044.5,1701.4,1043.3,1704.5,1041.8z"/>
		<radialGradient id="SVGID_27_" cx="2285.2666" cy="1423.3069" r="3444.2727" gradientUnits="userSpaceOnUse">
			<stop  offset="6.716420e-02" style="stop-color:#B0B1B1"/>
			<stop  offset="0.2938" style="stop-color:#025C8D"/>
			<stop  offset="0.3215" style="stop-color:#145782"/>
			<stop  offset="0.4181" style="stop-color:#234661"/>
			<stop  offset="0.5162" style="stop-color:#223646"/>
			<stop  offset="0.614" style="stop-color:#1D2832"/>
			<stop  offset="0.7114" style="stop-color:#151C21"/>
			<stop  offset="0.8083" style="stop-color:#0C1012"/>
			<stop  offset="0.9047" style="stop-color:#040506"/>
			<stop  offset="1" style="stop-color:#010101"/>
		</radialGradient>
		<path class="st27" d="M1726.6,1037.1c4.4-1.3,5.8-1.7,7.2-1.1c0,0.2-0.1,0.3-0.1,0.5c-1.3,0.8-2.7,1.3-7.1,2.7
			c-11.9,3.8-14.9,5.1-15.6,5.6c-2.7,1.7-2.9,4.8-1.8,5.3c0.3,0.1,0.3,0.1,7.9-2.1c3-0.9,6.3-0.2,9.3-1.3
			c7.3-2.6,13.6-7.4,20.7-10.6c4.4-2,9.3-2.5,13.6-4.7c0.3-0.2,0.7-0.4,0.9-0.7c-0.2-0.2-0.2-0.2-3.4-0.9c-0.1-0.1-0.1-0.2-0.1-0.3
			c0.7-0.5,1.5-0.8,2.2-1.1c6.1-2.8,6.1-3.1,6.2-3.7c-0.7-0.2-1.4,0-2-0.5c0.9-1.3,3.2-1.7,2.8-3.9c1.3-1.5,3.4-2.1,4.6-3.7
			c-0.4,0-0.9-0.1-1.3,0c-7.4,1.8-34,11.9-36.7,13.5c1.4,0.2,2.7-0.4,4.1-0.6c-2,1.7-7.5,2.9-9.8,3.4c-8.1,1.8-12.2,6.5-12.2,6.5
			C1716.8,1040,1725.6,1037.4,1726.6,1037.1z"/>
		<radialGradient id="SVGID_28_" cx="2285.2683" cy="1423.3047" r="3444.2749" gradientUnits="userSpaceOnUse">
			<stop  offset="6.716420e-02" style="stop-color:#B0B1B1"/>
			<stop  offset="0.2938" style="stop-color:#025C8D"/>
			<stop  offset="0.3215" style="stop-color:#145782"/>
			<stop  offset="0.4181" style="stop-color:#234661"/>
			<stop  offset="0.5162" style="stop-color:#223646"/>
			<stop  offset="0.614" style="stop-color:#1D2832"/>
			<stop  offset="0.7114" style="stop-color:#151C21"/>
			<stop  offset="0.8083" style="stop-color:#0C1012"/>
			<stop  offset="0.9047" style="stop-color:#040506"/>
			<stop  offset="1" style="stop-color:#010101"/>
		</radialGradient>
		<path class="st28" d="M1642,1105.6c0.7,0,75-7.6,94.7-27.2c5.4-5.3-7.8-6.1-8-6.1c-6.8-0.2-40.2,11.3-47.2,14.1
			c-6.2,2.5-11-3.3-9.7-4.7c0.6-0.7,1.6-1,3.9-1.7c12-3.4,6.1-7.2,4.8-7.3c-3.1-0.2-5.8,1.7-8.8,2.1c-3.5,0.4-6.9-0.9-10.4-0.5
			c-1,0.1-4.6,0.6-6.8,1.2c-1.8,0.8-7.7,6.8-7.6,8.3c1.5,0,1.6,0,4.6-1c3.3-1.2,7.9-2.7,8.9-2.1c1.9,1.2-4.1,8.8-4.4,9.1
			c-3.6,3.4-8.7,4.7-12.1,8.5C1637.3,1105.7,1640,1105.7,1642,1105.6z"/>
		<radialGradient id="SVGID_29_" cx="2285.2683" cy="1423.3075" r="3444.2783" gradientUnits="userSpaceOnUse">
			<stop  offset="6.716420e-02" style="stop-color:#B0B1B1"/>
			<stop  offset="0.2938" style="stop-color:#025C8D"/>
			<stop  offset="0.3215" style="stop-color:#145782"/>
			<stop  offset="0.4181" style="stop-color:#234661"/>
			<stop  offset="0.5162" style="stop-color:#223646"/>
			<stop  offset="0.614" style="stop-color:#1D2832"/>
			<stop  offset="0.7114" style="stop-color:#151C21"/>
			<stop  offset="0.8083" style="stop-color:#0C1012"/>
			<stop  offset="0.9047" style="stop-color:#040506"/>
			<stop  offset="1" style="stop-color:#010101"/>
		</radialGradient>
		<path class="st29" d="M3129.7,2023.9c-1.7-29.6-3.1-69.1-6.1-98.6c-1.3-8.9-2.5-17-3.6-24.6c-7.1-23.4-7.7-27.2-21.6-110
			c0.2,0.3,0.4,0.8,0.6,1.1c-34-112.7-34-112.7-34.5-118.2c0.2,0.2,0.3,0.3,0.5,0.5c-12-35.3-17.5-47.3-33.7-82.5l-36.3-71.1
			c-10-13.2-21.6-24.9-38.7-35.9c16,10.1,28.8,21.8,38.7,35.9c-14-22.9-31.9-53.8-46.8-76c-63.8-87.1-65-88.8-104.6-131.3
			l-42.2-42.8l-0.1-0.1c-1.6-1.5-3.2-2.9-4.8-4.3c1.8,2.5,2.5,3.4,20.1,21.6c-3.2-1.8-5.9-4.3-8.9-6.4c4.9,9,13.8,14,20.8,21.1
			c-0.5,0.3-1.1,0.8-1.6,1.1c-29.5-24-54.6-52.9-84.3-76.6c14.9,9.3,26.6,23,42.8,30.4c-3.8-6.9-49-46.1-78.8-64
			c-21.4-12.9-23.7-15.1-26-17.2c1.2,0.4,2.8,1,4,1.5c-2.3-1.9-3.6-2.9-9.6-6.5c-0.5,0.4-1.1,0.9-1.5,1.2
			c-1.9-0.7-5.5-2.1-19.8-11.8c1.3,0.5,3,1.1,4.2,1.5c-2.4-5.7-28.6-17.7-30.5-18.2c1.2,3,1.2,3,5.6,8.1c-9.1-3.2-13.7-12.7-22.7-16
			c1.7,4.1,6.2,6.1,7.9,10.1c-3.3,7.2-3.3,7.2-2.7,11.6c0.9,6.6,21.9,43.6,22.1,43.9c15.7,24.1,15.1,32.5,15,33.4
			c-3,22.4-3,22.4-15.4,31.2c-4.5,3.2-4.4,4.8-2,10.7c0.3,0.8,33.2,77.8,63.6,63.8c9.8-4.5,4.9-20.7,2.5-28.5
			c2.5,1.8,56.9,55.9,67.1,73c4.8,8.1,9.4,15.8,17.7,15.8c1.7-3,2.5-24.4-2.7-34.2c-12.1-22.5-9.3-25-3.2-30.7
			c0.2-5.4-0.4-7.4-16.2-17.9c-10.9-7.2-10.9-7.2-25.8-31.2c-5.7-9.1,3.7-20.6-4.7-29.3c-21.8-22.7-21.8-22.7-22.5-24
			c-0.4-0.8-0.8-2-1.2-2.8c0.3-0.5,0.8-1.2,1.1-1.7c8.1,2.7,35.2,20.6,37.2,26.2c-0.7,0.1-1.6,0.1-2.2,0.2c21,47,21,47,40.9,65.5
			c17.4,16.2,43.8,13.7,61.2,29.7c-3-0.4-5.5-2.1-8.3-3.1c-0.5,0.3-1.2,0.7-1.7,1c1.1,2.1,2.5,3.9,3.7,5.9
			c-10.1-2.9-19.8-7.3-30.4-8.7c11.5,15.8,28,27.7,37,45.6c-11.3-0.4-12.1-16.9-24.4-16c-0.3,0.6-0.8,1.3-1.2,1.9
			c0.1,0.2,13.8,25.3,15.2,27.1c1.9,2.3,11.1,14.2,10.5,19.5c-7-0.6-7-0.6-8.3-0.3c-1,2.1-1.3,4.5-2.2,6.7c0.3,0.5,0.8,1.1,1.2,1.6
			l-0.2,0c-32-2.2-32-2.2-32.3,0.8c-1.3,0.8-3.1,1.9-4.4,2.7c-6.6-3.8-15.1-6.2-23.9-8l15.5,2.7c-2.6-2-9.6-7.2-22.1-6.6
			c-4.2,0.2-5.2,0.3-17.2-13.4c-8.8-10-19.1-24.6-18.5-37.2c0.2-5.2-7.6-27-13.4-27.7c-0.7,0-17.3-0.1-14.5,8
			c1.2,3.5,22.5,40.7,37.7,58.2c6.1,7.1,6.4,8,6.6,8.5c-0.8,0.8-0.9,1-5.5,1.9c-3.2,0.5-7.5,1.3-10.7,1.8c-1,1.3-2.2,3.1-3.2,4.4
			c-17-0.5-17-0.5-21.6,4.1c0.9,4.7,2.5,13.3,8.2,29.1c-0.8,1.5-1.9,3.4-2.7,4.8c-14.2-0.3-14.2-0.3-22.2,2.6
			c0.1,0.8,0.1,0.8,6.2,15.7c-3.3,2.3-8.1,4.6-12,5.9c-0.1,3.5-1,8.2-2.5,11.4c-16.3-0.8-19-2.8-26.1-8c1.8,3.1,4.4,7.1,6.5,10
			c-0.5,1.6-1.2,3.8-1.7,5.4c-3.3,1.4-7.8,3-11.2,3.9c-7.9-5.1-7.9-5.1-20.7-5.4c-0.7,1.5-1.6,3.5-2.3,5c3.2,2.8,7.4,6.6,10.7,9.4
			c-1.3,0.9-3.1,2.2-4.4,3.1c76.6,21.3,64.5,98.2,64.1,98.9c-35.7-2.5-70-13.2-105.5-16.8c1.7,3.1,4.5,6.9,6.9,9.5
			c-0.1,0.9,3.9,96,16.1,99.6c-3.3,29.3-3.3,29.3-3.9,32c24.8-1.9,29.9-2.3,40.6,0.1c4.1,16.8,4.1,16.8,4.3,17.1l58.1-19.3
			c16-2,20.1-22.3,11.4-36c9.2-38.2,9.7-38.4,33.6-47.8c0.3-30.8,0.3-30.8,2.9-32.9c11.1-9.2,19.7,5.5,30.1,5.6
			c9.4-16.7,17.3-27.6,32-14.9c0.7,0.6,81.8,93.7,89.8,119.8c6,19.7,3.2,20.1-31,24.8c6.7,11.4,27.4,29.3,27.6,29.4
			c2.9-9.3-2.9-18.2-1.1-27.4c1.5,0.2,3.6,0.5,5.1,0.7c4.3-6.4,6-14,10-20.5c-5.1-17.7-5.1-17.7-4.9-24.2c1.5-0.4,3.6-0.9,5.2-1.3
			c2.1,2.8,4.8,6.6,7,9.4c-1.7-8.3-1.7-8.3-29.1-41.3c0.4-1.6,0.9-3.7,1.3-5.3c-12.9-5.7-23.1-10.3-57.4-80.5c1.6-2.6,5-5.4,7.9-6.5
			l77.9,91.5c0.3,0.5,0.3,0.5,23.5,67.1l24.7,56.6c0.4-3.3,0.7-7.7,0.7-11c0-13.4-5.2-25.9-7.8-38.8c-8.4-42-8.4-42-4.3-45.1
			c7.5,1.6,23.3,11,26.6,23.2c1.6-2.9,3.4-6.9,4.5-10c1.7-0.1,3.9-0.2,5.5-0.3c5.1-38.2-22.2-71.3-17.4-109.5c2.8-1,7.2-0.7,9.9,0.5
			c-0.7,1.4-1.5,3.3-2.2,4.7c4.8,5.6,6.8,7.1,12.4,10.5c1.6,6.7,1.6,6.7-0.2,17.2c5,5.6,7.3,12.9,11.6,19c18.4-10.7-9.1-29.5-3.6-45
			c8.2-1.7,9.6,1,12,7.3c-0.8,1.5-1.9,3.5-2.7,4.9c2.9,4.6,2.9,4.6,7.1,21.1c-0.9,1.3-2.1,3.1-3,4.4c13.3,32.7,43.4,58.3,42.1,97.3
			c-1.3,0.8-3.2,1.8-4.6,2.6c-15.9-10.7-15.1-45.9-40.9-39.1c-0.2,3.1-1.8,7.2-3.9,9.4c-3.1-1-7.2-2.2-10.3-2.9
			c0.7,2.9,2.8,6.6,4.9,8.7c-5.9,5-13.9,2-20.3,5.2c-0.5,3.5-0.8,8.3-0.7,11.8c1.5,0.4,3.4,1,4.9,1.4c2.6,19.6,7.4,56,31.5,76.3
			c1.1-1.1,2.6-2.7,3.7-3.8c-0.1-1.6-0.1-3.7-0.2-5.3c7.8,6.6,10.4,17.6,19.5,23.1c1.1-3,2.1-7.3,2.4-10.6c2.2,2.2,5.8,4.7,8.7,5.9
			c4,74.1,4.6,85.5-3.5,105.5c-10.6-0.9-12.4-3.2-15.8-13.6c-2.9,0.1-7,1.7-9,3.8c-35.4-2.6-32.2-54.1-69.1-54.7
			c-6.9,12.3-1.4,26.5-6.2,39.1c-1.5,0.6-3.5,1.4-5,2.1c-7.7-5.6-88.9-79.5-94.7-89.1c-1.8-3,0.6-8.5,2.5-11.4c4.4-7,4.4-7,1-50.8
			c-8.8-5.8-10.6-6.8-15.9-9.6c-7.1,5.4-7.1,5.4-36.9-1.4c-2.5,2.4-5.5,5.9-7.3,8.9c-38.6-15-69.8,27.2-108.1,14
			c-4.2-0.4-5-0.4-5.7-0.4c-10.9,2.2-14.6,2.9-26.3-11.2c-2.1-1.5-2.2-1.5-2.3-1.5c-1.4,1.3-3.6,2.8-4.8,4.4
			c-7.2,8.8-1.8,21.3-8.8,30.2c-8.8,11-25.3,10.8-33.4,22.8c-2.4,3.6-1.3,9.9-1.5,14.2c-2.4,46.6-2.4,46.6-15,52.7
			c-11.3,5.5-30.7,20.5-33,24.3c-7,11.2-58.4,100.5-58.4,100.5c-2.1,23.8,13.7,43.9,14.1,67.2c0.3,19.6-27.6,28.8-18.7,51.5
			c13.2,33.9,31.5,65.4,47.2,98.2c6.6,13.8,56,61,65.4,60.1c46.5-4.4,91.4-21.9,139.1-16.8c1.5,0.2,3.4,1.5,4.5,2.4
			c8.6,7.2,2.5,20.2,10.8,27.5c8.2,7.2,18.9,3.6,28.2,6.5c6.1,18.5,6.1,18.5-1.5,36.3c80.1,14.8,130.6,28.3,167.1,46.1
			c-35.9-17.5-87.9-31.4-167.1-46.1c-21.1,49.6-21.1,49.6-17.9,63.8c5.1,22.4,12.1,53-16.5,120.2c-13.2,31-38.4,53.7-55.7,81.8
			c-16.2,26.1-18,57.8-33,84.4c-58.2,103.5-59.8,105.3-69.2,114.9c-6.3,6.5-9.8,10.1-16.4,25.1c29.8,9.2,64.8-14.6,76.4-22.5
			l46.2-32.5l58.4-46.6c13.2-13.8,21-31.7,35.1-44.7c16.1-14.9,37.7-22.1,53.6-37.3c38-36.4,73.4-108.6,77-117.6
			c14.7-36,65.1-91,80-106.8c23.5-26,55-94.4,62.8-121.2c-6-2-6-2-16.5,0.3c-2.4-3.3-2.4-3.3,2.5-46.1c1.8-15.8-1.8-31.5-2-47.2
			c-0.8-40.9,7.2-81.6,3.5-122.6L3059,1973c2.6,4,2.6,4,5.3,22.7c2.8-2.3,5-6.9,5.8-10.4c26.5,97.5-1.6,195.2,1.5,292.7
			c10.7-5,10.7-5,15.4-4c28.3-61,28.3-61,29.6-68.8c-0.3,1.7-0.6,4-0.9,5.8c0.6-3.2,1.4-7.5,1.9-10.7l0.5-3.6l3.1-22.5l0,0
			c1.3-10.3,2.9-23.2,5.3-58.2c-0.1,1.8-0.1,3.6-0.2,5.3C3127.9,2090.9,3129.9,2053,3129.7,2023.9z M3123.1,2136.9
			c-2.1-4.4-2.1-4.4-0.6-41.1c-1,11.6-1,11.6-1.7,16.7c-2.8-79.4-1.6-86.7,0-96.7c4.6,7,6.5,65.7,5.8,99.5
			C3125.2,2129.2,3124.6,2131.4,3123.1,2136.9z"/>
		<radialGradient id="SVGID_30_" cx="2285.2561" cy="1423.3059" r="3444.3257" gradientUnits="userSpaceOnUse">
			<stop  offset="6.716420e-02" style="stop-color:#B0B1B1"/>
			<stop  offset="0.2938" style="stop-color:#025C8D"/>
			<stop  offset="0.3215" style="stop-color:#145782"/>
			<stop  offset="0.4181" style="stop-color:#234661"/>
			<stop  offset="0.5162" style="stop-color:#223646"/>
			<stop  offset="0.614" style="stop-color:#1D2832"/>
			<stop  offset="0.7114" style="stop-color:#151C21"/>
			<stop  offset="0.8083" style="stop-color:#0C1012"/>
			<stop  offset="0.9047" style="stop-color:#040506"/>
			<stop  offset="1" style="stop-color:#010101"/>
		</radialGradient>
		<path class="st30" d="M3100.1,1789.8c0.3,1.3,0.8,3.1,1.1,4.4l5.3,23.7c-0.1-0.4-0.2-0.8-0.3-1.2c1.9,14.1,4.7,28,7.4,41.9
			c-8.1-52-11.1-62.7-23.1-106c-2.2-6.7-4.2-13-6.1-18.9c12.4,42.5,12.8,44.3,18.1,66.6C3101.7,1796.8,3100.9,1793.3,3100.1,1789.8z
			"/>
		<radialGradient id="SVGID_31_" cx="2285.28" cy="1423.3062" r="3444.2363" gradientUnits="userSpaceOnUse">
			<stop  offset="6.716420e-02" style="stop-color:#B0B1B1"/>
			<stop  offset="0.2938" style="stop-color:#025C8D"/>
			<stop  offset="0.3215" style="stop-color:#145782"/>
			<stop  offset="0.4181" style="stop-color:#234661"/>
			<stop  offset="0.5162" style="stop-color:#223646"/>
			<stop  offset="0.614" style="stop-color:#1D2832"/>
			<stop  offset="0.7114" style="stop-color:#151C21"/>
			<stop  offset="0.8083" style="stop-color:#0C1012"/>
			<stop  offset="0.9047" style="stop-color:#040506"/>
			<stop  offset="1" style="stop-color:#010101"/>
		</radialGradient>
		<path class="st31" d="M3081.1,1722.7c0.5,1.4,1,2.7,1.6,4c-1.6-5.1-3.7-10-4.8-15.3c0.6,1.7,1.2,3.3,1.7,5l-12.6-37.3l0.2,0.5
			c-1.5-4.1-1.9-5-2.4-5.6c5,14.7,11,33.4,19.5,59.6C3083.4,1730.3,3082.3,1726.7,3081.1,1722.7z"/>
		<radialGradient id="SVGID_32_" cx="2285.2874" cy="1423.3068" r="3444.2258" gradientUnits="userSpaceOnUse">
			<stop  offset="6.716420e-02" style="stop-color:#B0B1B1"/>
			<stop  offset="0.2938" style="stop-color:#025C8D"/>
			<stop  offset="0.3215" style="stop-color:#145782"/>
			<stop  offset="0.4181" style="stop-color:#234661"/>
			<stop  offset="0.5162" style="stop-color:#223646"/>
			<stop  offset="0.614" style="stop-color:#1D2832"/>
			<stop  offset="0.7114" style="stop-color:#151C21"/>
			<stop  offset="0.8083" style="stop-color:#0C1012"/>
			<stop  offset="0.9047" style="stop-color:#040506"/>
			<stop  offset="1" style="stop-color:#010101"/>
		</radialGradient>
		<path class="st32" d="M3121,1904.1c-1.6-15.3-4.5-30.4-7.4-45.5c1.8,11.7,3.9,25.5,6.4,42.2
			C3120.3,1901.8,3120.6,1902.9,3121,1904.1z"/>
		<radialGradient id="SVGID_33_" cx="2285.2693" cy="1423.307" r="3444.2605" gradientUnits="userSpaceOnUse">
			<stop  offset="6.716420e-02" style="stop-color:#B0B1B1"/>
			<stop  offset="0.2938" style="stop-color:#025C8D"/>
			<stop  offset="0.3215" style="stop-color:#145782"/>
			<stop  offset="0.4181" style="stop-color:#234661"/>
			<stop  offset="0.5162" style="stop-color:#223646"/>
			<stop  offset="0.614" style="stop-color:#1D2832"/>
			<stop  offset="0.7114" style="stop-color:#151C21"/>
			<stop  offset="0.8083" style="stop-color:#0C1012"/>
			<stop  offset="0.9047" style="stop-color:#040506"/>
			<stop  offset="1" style="stop-color:#010101"/>
		</radialGradient>
		<path class="st33" d="M2516.4,1405.8c-0.1,0.3-0.2,0.6-0.4,0.9c-4,7.8-6.9,22.6-6.9,22.8c-1,6-0.7,8.8,1.3,11.2
			c3.4,4.1,19.2,2.4,30.7-5c2.9-1.9,5.6-4,8.7-5.6c3.6-1.8,8.4-0.5,11.2-4.4c1.6-2.2,0.9-7.3-1.9-15.2c-1.4-4-3.2-6.5-5-9.1
			c-3-4.4-3.2-6-1.2-10.6c0.8-2,2.3-5.3,1.2-9.4c-1.1-4.1-4.2-6.9-6.7-8.5c-1.2-0.8-2.9-1.8-4.3-2.4c-3.6-1.7-7.6-2.6-11.3-4.3
			c-2.7-1.2-3.6-2.2-4-2.7c-0.3-0.3-0.4-0.4-0.7-0.4c-1,0.2-24.9,6.2-9.9,14.6c0.9,0.5,1.5,0.8,3.6,1c-0.5,0.6-1.5,1-2.2,1.3
			c-9.9,4.8-12.2,7.2-14.5,9.5c-1.6,1.6-3.4,4.5-2.7,8.8c0.6,1.6,1.4,3.7,5.3,5.7C2509.9,1405.6,2513.2,1405,2516.4,1405.8z"/>
		<radialGradient id="SVGID_34_" cx="2285.2708" cy="1423.2972" r="3444.2749" gradientUnits="userSpaceOnUse">
			<stop  offset="6.716420e-02" style="stop-color:#B0B1B1"/>
			<stop  offset="0.2938" style="stop-color:#025C8D"/>
			<stop  offset="0.3215" style="stop-color:#145782"/>
			<stop  offset="0.4181" style="stop-color:#234661"/>
			<stop  offset="0.5162" style="stop-color:#223646"/>
			<stop  offset="0.614" style="stop-color:#1D2832"/>
			<stop  offset="0.7114" style="stop-color:#151C21"/>
			<stop  offset="0.8083" style="stop-color:#0C1012"/>
			<stop  offset="0.9047" style="stop-color:#040506"/>
			<stop  offset="1" style="stop-color:#010101"/>
		</radialGradient>
		<path class="st34" d="M1524.7,1125.4C1524.7,1125.4,1524.7,1125.3,1524.7,1125.4C1524.7,1125.3,1524.7,1125.3,1524.7,1125.4
			c-2.3,1.2-21.3,12.2-22.2,13.4C1503.4,1138.8,1504.4,1138.8,1524.7,1125.4z"/>
		<radialGradient id="SVGID_35_" cx="2285.2688" cy="1423.3035" r="3444.2854" gradientUnits="userSpaceOnUse">
			<stop  offset="6.716420e-02" style="stop-color:#B0B1B1"/>
			<stop  offset="0.2938" style="stop-color:#025C8D"/>
			<stop  offset="0.3215" style="stop-color:#145782"/>
			<stop  offset="0.4181" style="stop-color:#234661"/>
			<stop  offset="0.5162" style="stop-color:#223646"/>
			<stop  offset="0.614" style="stop-color:#1D2832"/>
			<stop  offset="0.7114" style="stop-color:#151C21"/>
			<stop  offset="0.8083" style="stop-color:#0C1012"/>
			<stop  offset="0.9047" style="stop-color:#040506"/>
			<stop  offset="1" style="stop-color:#010101"/>
		</radialGradient>
		<path class="st35" d="M3019.9,1855.4c0.2-0.1,0.3-0.2,0.5-0.2c-0.1-0.1,0-0.3-0.1-0.4c-0.1-0.1-9.1-11.7-9.1-11.8
			c-1.6-1.8-3.3-2.3-3.9-2.5c-2.9-0.7-6-0.6-8.9-1.7c-5.1-2-5.1-2-5.6-1.9c-2.3,0.1-3,2.1-1.6,4.5
			C2994.2,1846.6,3014.5,1857.2,3019.9,1855.4z"/>
		<radialGradient id="SVGID_36_" cx="2285.2693" cy="1423.3087" r="3444.269" gradientUnits="userSpaceOnUse">
			<stop  offset="6.716420e-02" style="stop-color:#B0B1B1"/>
			<stop  offset="0.2938" style="stop-color:#025C8D"/>
			<stop  offset="0.3215" style="stop-color:#145782"/>
			<stop  offset="0.4181" style="stop-color:#234661"/>
			<stop  offset="0.5162" style="stop-color:#223646"/>
			<stop  offset="0.614" style="stop-color:#1D2832"/>
			<stop  offset="0.7114" style="stop-color:#151C21"/>
			<stop  offset="0.8083" style="stop-color:#0C1012"/>
			<stop  offset="0.9047" style="stop-color:#040506"/>
			<stop  offset="1" style="stop-color:#010101"/>
		</radialGradient>
		<path class="st36" d="M2827.7,1712.9c1.9,2,5.8,1,6.6,4.7c0.7,3.3-0.6,6.6,0.3,9.9c0.8,2.7,2.6,3.1,3.4,3.3
			c2.2,0.5,13.2-3,13.5-11.9c0-1-0.1-2.3-0.2-3.3c-0.5-3.7-1.9-7.2-2.5-10.9c-0.5-4-0.3-8-0.9-11.9c-0.9-6.3-3.1-7-5.4-7.2
			c-3.6,0.1-12.2,3.4-15.3,9.1C2825.4,1698,2825,1710.1,2827.7,1712.9z"/>
		<radialGradient id="SVGID_37_" cx="2285.2688" cy="1423.3018" r="3444.2944" gradientUnits="userSpaceOnUse">
			<stop  offset="6.716420e-02" style="stop-color:#B0B1B1"/>
			<stop  offset="0.2938" style="stop-color:#025C8D"/>
			<stop  offset="0.3215" style="stop-color:#145782"/>
			<stop  offset="0.4181" style="stop-color:#234661"/>
			<stop  offset="0.5162" style="stop-color:#223646"/>
			<stop  offset="0.614" style="stop-color:#1D2832"/>
			<stop  offset="0.7114" style="stop-color:#151C21"/>
			<stop  offset="0.8083" style="stop-color:#0C1012"/>
			<stop  offset="0.9047" style="stop-color:#040506"/>
			<stop  offset="1" style="stop-color:#010101"/>
		</radialGradient>
		<path class="st37" d="M2772.6,1711.2c0.1,0,4.5-5,4.5-5.3c0.4-1.8-2.7-3.3-8.2-3.9c-6-0.6-15.5,0.7-11.8,5
			c2.1,2.4,9.9,5.7,13.1,5.5C2771.3,1712.5,2771.8,1712,2772.6,1711.2z"/>
		<radialGradient id="SVGID_38_" cx="2285.2676" cy="1423.3071" r="3444.2856" gradientUnits="userSpaceOnUse">
			<stop  offset="6.716420e-02" style="stop-color:#B0B1B1"/>
			<stop  offset="0.2938" style="stop-color:#025C8D"/>
			<stop  offset="0.3215" style="stop-color:#145782"/>
			<stop  offset="0.4181" style="stop-color:#234661"/>
			<stop  offset="0.5162" style="stop-color:#223646"/>
			<stop  offset="0.614" style="stop-color:#1D2832"/>
			<stop  offset="0.7114" style="stop-color:#151C21"/>
			<stop  offset="0.8083" style="stop-color:#0C1012"/>
			<stop  offset="0.9047" style="stop-color:#040506"/>
			<stop  offset="1" style="stop-color:#010101"/>
		</radialGradient>
		<path class="st38" d="M2827.6,1661.1c-0.9,0.8-1.8,1.6-1.5,3.5c0.1,0.7,0.8,2.1,1.6,3c0.1,0.1,8.6,10.2,9.2,10.4
			c2-0.9,0.2-16.2-1.5-24.1c0-0.1-2.7-12.1-4.4-13.2c-0.1,0-0.2,0-0.2,0c-0.1,0.1-0.4,0.4-0.5,1.2c-0.1,0.2-0.1,0.5-0.2,0.8
			c-0.7,3.8,0.6,7.5,0.6,11.3C2830.7,1658.4,2828.9,1660,2827.6,1661.1z"/>
		<radialGradient id="SVGID_39_" cx="2285.2869" cy="1423.3114" r="3444.208" gradientUnits="userSpaceOnUse">
			<stop  offset="6.716420e-02" style="stop-color:#B0B1B1"/>
			<stop  offset="0.2938" style="stop-color:#025C8D"/>
			<stop  offset="0.3215" style="stop-color:#145782"/>
			<stop  offset="0.4181" style="stop-color:#234661"/>
			<stop  offset="0.5162" style="stop-color:#223646"/>
			<stop  offset="0.614" style="stop-color:#1D2832"/>
			<stop  offset="0.7114" style="stop-color:#151C21"/>
			<stop  offset="0.8083" style="stop-color:#0C1012"/>
			<stop  offset="0.9047" style="stop-color:#040506"/>
			<stop  offset="1" style="stop-color:#010101"/>
		</radialGradient>
		<path class="st39" d="M3055.4,1882.6c0,0,5,0.9,5.5,0.5c0.8-0.8,1.8-12.2,1.8-12.3c0-0.2,0-0.5,0-0.7c0-1.2-0.3-1.3-0.6-1.4
			c-1.5,0-2.7,1-4.2,1c-0.9,0-2.1-0.4-3.1-1c-1.3-0.8-2.2-2.2-3.6-2.9c-1.2-0.5-1.7,0.2-1.9,0.5c-1.4,1.8,0.1,10.6,3.5,14.6
			C3053.9,1882,3054.9,1882.4,3055.4,1882.6z"/>
		<radialGradient id="SVGID_40_" cx="2285.2681" cy="1423.3092" r="3444.2805" gradientUnits="userSpaceOnUse">
			<stop  offset="6.716420e-02" style="stop-color:#B0B1B1"/>
			<stop  offset="0.2938" style="stop-color:#025C8D"/>
			<stop  offset="0.3215" style="stop-color:#145782"/>
			<stop  offset="0.4181" style="stop-color:#234661"/>
			<stop  offset="0.5162" style="stop-color:#223646"/>
			<stop  offset="0.614" style="stop-color:#1D2832"/>
			<stop  offset="0.7114" style="stop-color:#151C21"/>
			<stop  offset="0.8083" style="stop-color:#0C1012"/>
			<stop  offset="0.9047" style="stop-color:#040506"/>
			<stop  offset="1" style="stop-color:#010101"/>
		</radialGradient>
		<path class="st40" d="M1417.6,1205.3c0.1,0.1,0.3,0.3,0.4,0.4c0.4,0,0.9-0.3,1.3-0.5c6.1-4.2,11.3-9.4,17.4-13.6
			c10.9-7.6,22.7-13.9,33.5-21.8c2.5-1.8,2.5-1.8,5.7-7.8c-0.1-0.2-0.2-0.5-0.3-0.7c-3.8,0.8-6.6,3.5-9.9,5.2
			c2.8-2.4,2.8-2.4,3.2-4.3c-0.1-0.1-0.3-0.2-0.4-0.2c-0.4,0.1-0.9,0.2-1.3,0.4c-13.5,5.6-13.5,5.6-72.8,54.4
			c-5.2,4.3-9.3,7.6-13.5,16.5c0.2,0.1,0.4,0.2,0.5,0.2C1395.5,1226.8,1405.5,1214.6,1417.6,1205.3z"/>
		<radialGradient id="SVGID_41_" cx="2285.2695" cy="1423.3079" r="3444.2891" gradientUnits="userSpaceOnUse">
			<stop  offset="6.716420e-02" style="stop-color:#B0B1B1"/>
			<stop  offset="0.2938" style="stop-color:#025C8D"/>
			<stop  offset="0.3215" style="stop-color:#145782"/>
			<stop  offset="0.4181" style="stop-color:#234661"/>
			<stop  offset="0.5162" style="stop-color:#223646"/>
			<stop  offset="0.614" style="stop-color:#1D2832"/>
			<stop  offset="0.7114" style="stop-color:#151C21"/>
			<stop  offset="0.8083" style="stop-color:#0C1012"/>
			<stop  offset="0.9047" style="stop-color:#040506"/>
			<stop  offset="1" style="stop-color:#010101"/>
		</radialGradient>
		<path class="st41" d="M1500.7,1149c1.5,0.2,6.2-2.5,10.8-5.1c18.3-10.3,27.7-14.3,27.7-14.3c5.9-2.3,12.1-3.9,17.7-6.8
			c4.5-2.3,21.5-14.2,21.6-14.3c3.3-2.3,3.5-2.7,3.9-3.3c-2.4-0.2-5.1,1.3-5.1,1.4c-5.2,2.9-9.7,7-14.9,10
			c6.4-6.3,13.9-11.5,20.1-18c-0.2,0-0.5,0.1-0.7,0.1c-0.2,0.1-21.4,11-22.1,13.9c-0.5,2.2-3.3,7.6-19.6,11.4
			c-0.1-0.1-0.2-0.2-0.3-0.4c0.4-0.5,0.8-1,1.3-1.4c0.1-0.1,0.3-0.3,0.4-0.4c2.2-2.4,9.7-3.9,6.6-7.3c-0.4,0.1-43.8,21.1-44.2,27.1
			c0.2,0.1,0.2,0.1,21-11.4c-2.1,3.5-6,4.6-8.9,7c0.5,0,0.7,0,5.7-2.8c1.4-0.7,3.9-2.1,9.2-4c-4.8,3.2-20.2,11.4-28.9,15.2
			C1499.1,1147,1499,1148.8,1500.7,1149z"/>
		<radialGradient id="SVGID_42_" cx="2285.2698" cy="1423.3068" r="3444.2881" gradientUnits="userSpaceOnUse">
			<stop  offset="6.716420e-02" style="stop-color:#B0B1B1"/>
			<stop  offset="0.2938" style="stop-color:#025C8D"/>
			<stop  offset="0.3215" style="stop-color:#145782"/>
			<stop  offset="0.4181" style="stop-color:#234661"/>
			<stop  offset="0.5162" style="stop-color:#223646"/>
			<stop  offset="0.614" style="stop-color:#1D2832"/>
			<stop  offset="0.7114" style="stop-color:#151C21"/>
			<stop  offset="0.8083" style="stop-color:#0C1012"/>
			<stop  offset="0.9047" style="stop-color:#040506"/>
			<stop  offset="1" style="stop-color:#010101"/>
		</radialGradient>
		<path class="st42" d="M1380,1256.5c3.2,0.8,5.6-2,8.5-1.8c0.2,0.2,0.3,0.4,0.5,0.5c-1.4,3.7-4.9,5.9-6.8,9.3
			c3.6,0.1,32.8-12.9,49.3-26.2c5.3-4.3,7.5-6.1,10.5-7.2c0.2,0.1,0.4,0.3,0.6,0.4c-1.4,2.6-1.4,2.6-1.5,3.2
			c1.4,1.4,12.5,3.8,12.5,3.8c10.4-3.5,10.4-3.5,20.5-14.9c0.3-0.4,0.4-0.5,0.5-0.6c-1.1-0.2-1.1-0.2-10.7,5
			c1.1-3.4,11.2-11.1,18.2-10.8c2.5,0.1,3,0,3.9-0.7c0.1,0,5.3-4.8,4.5-9.2c-5.5-3.1-7.7-9.2-4.8-12.7c2.5-3.1,25-30.7,24.5-32.9
			c-1-0.6-2.2-0.7-3.3-1.1c-0.1-0.3-0.3-0.8-0.4-1.1c-0.1,0.1-0.2,0.1-0.3,0.2c-10.4,8.8-17.5,21.1-29.6,28c-1.2-5,4-6.6,5.5-10.2
			c-0.3-0.2-0.7-0.5-0.9-0.7c-4.8,1.8-8.7,5.4-13.8,6.5c1.4-2.2,3.9-3.6,5.1-6.1c-0.2-0.2-0.4-0.4-0.5-0.5c-6.8,2-11.8,7.3-18.4,9.8
			c4-5.6,10.7-8.1,15.2-13c-4.1,0.4-57.4,34.9-56.1,41.3c0.7,0.3,1.5,0.7,2.1,1.1c-1,1.7-1.1,1.8-7.4,5.6c-10.6,6.4-11.1,7.7-11,9.2
			c0.5,0.3,1.4,0.4,1.9,0.2c5.9-1.2,10.7-5.1,16.6-6.4c4.2-0.9,8.3,0.9,12.5,0c-7.4,5.7-17.4,8.7-21.6,10
			C1377.7,1243,1375,1255.3,1380,1256.5z"/>
		<radialGradient id="SVGID_43_" cx="2285.2795" cy="1423.306" r="3444.3389" gradientUnits="userSpaceOnUse">
			<stop  offset="6.716420e-02" style="stop-color:#B0B1B1"/>
			<stop  offset="0.2938" style="stop-color:#025C8D"/>
			<stop  offset="0.3215" style="stop-color:#145782"/>
			<stop  offset="0.4181" style="stop-color:#234661"/>
			<stop  offset="0.5162" style="stop-color:#223646"/>
			<stop  offset="0.614" style="stop-color:#1D2832"/>
			<stop  offset="0.7114" style="stop-color:#151C21"/>
			<stop  offset="0.8083" style="stop-color:#0C1012"/>
			<stop  offset="0.9047" style="stop-color:#040506"/>
			<stop  offset="1" style="stop-color:#010101"/>
		</radialGradient>
		<path class="st43" d="M1623.9,1307.1c0.9-2.4-1.5-2.3-3.4-2c-0.1,0-8.1,1.5-10.2,4c-2.9,3.6-2.2,8.6-0.9,9.6
			C1612.5,1321.3,1622.7,1310.3,1623.9,1307.1z"/>
		<radialGradient id="SVGID_44_" cx="2285.2681" cy="1423.3074" r="3444.2795" gradientUnits="userSpaceOnUse">
			<stop  offset="6.716420e-02" style="stop-color:#B0B1B1"/>
			<stop  offset="0.2938" style="stop-color:#025C8D"/>
			<stop  offset="0.3215" style="stop-color:#145782"/>
			<stop  offset="0.4181" style="stop-color:#234661"/>
			<stop  offset="0.5162" style="stop-color:#223646"/>
			<stop  offset="0.614" style="stop-color:#1D2832"/>
			<stop  offset="0.7114" style="stop-color:#151C21"/>
			<stop  offset="0.8083" style="stop-color:#0C1012"/>
			<stop  offset="0.9047" style="stop-color:#040506"/>
			<stop  offset="1" style="stop-color:#010101"/>
		</radialGradient>
		<path class="st44" d="M1610.3,1287.5c0.3-0.1,1.4-0.7,1.9-1.6c0.9-1.9-0.5-4.9-1.5-5.9c-1.8-1.7-4.1-2.6-5.8-4.4
			c-2.9-3.1-4.4-7.2-7.8-9.9c-0.5-0.4-1.2-0.9-1.8-1.2c-3.4-2.1-7.5-1.7-10.9-3.8c-2.1-1.3-2.2-4.3-4.3-5.6c-0.2-0.2-0.7-0.1-1,0
			c-3.1,1.5-13.4,16.1-13.9,16.7c-1.3,1.9-3,4.5-4.3,6.4l-11.3,18.4c6.7,0.5,6.7,0.5,7.3,3.9c0.7,4.3,0.7,4.3,1.3,4.2
			c0.9-0.2,2.7-1.6,6.4-4.7c5.3-4.5,14.2-12,24.6-13.1C1596.3,1286.2,1603.2,1290,1610.3,1287.5z"/>
		<radialGradient id="SVGID_45_" cx="2285.2695" cy="1423.308" r="3444.2866" gradientUnits="userSpaceOnUse">
			<stop  offset="6.716420e-02" style="stop-color:#B0B1B1"/>
			<stop  offset="0.2938" style="stop-color:#025C8D"/>
			<stop  offset="0.3215" style="stop-color:#145782"/>
			<stop  offset="0.4181" style="stop-color:#234661"/>
			<stop  offset="0.5162" style="stop-color:#223646"/>
			<stop  offset="0.614" style="stop-color:#1D2832"/>
			<stop  offset="0.7114" style="stop-color:#151C21"/>
			<stop  offset="0.8083" style="stop-color:#0C1012"/>
			<stop  offset="0.9047" style="stop-color:#040506"/>
			<stop  offset="1" style="stop-color:#010101"/>
		</radialGradient>
		<path class="st45" d="M1591.7,1300.1c-0.2,0-15.1,3.2-19.9,7c-2.9,2.3-3.3,8.6-1.7,9.7c3.1,2.3,21.9-8.9,25.3-14.1
			C1596.4,1301.1,1596.7,1299.3,1591.7,1300.1z"/>
		<radialGradient id="SVGID_46_" cx="2285.2625" cy="1423.308" r="3444.2678" gradientUnits="userSpaceOnUse">
			<stop  offset="6.716420e-02" style="stop-color:#B0B1B1"/>
			<stop  offset="0.2938" style="stop-color:#025C8D"/>
			<stop  offset="0.3215" style="stop-color:#145782"/>
			<stop  offset="0.4181" style="stop-color:#234661"/>
			<stop  offset="0.5162" style="stop-color:#223646"/>
			<stop  offset="0.614" style="stop-color:#1D2832"/>
			<stop  offset="0.7114" style="stop-color:#151C21"/>
			<stop  offset="0.8083" style="stop-color:#0C1012"/>
			<stop  offset="0.9047" style="stop-color:#040506"/>
			<stop  offset="1" style="stop-color:#010101"/>
		</radialGradient>
		<path class="st46" d="M1553.3,2140.5c-5.7,2.3-2.4,11.2,1.1,12.5c2.4,0.9,17.2,3.6,16.9-2.5
			C1571,2146.8,1560.7,2138.9,1553.3,2140.5z"/>
		<radialGradient id="SVGID_47_" cx="2285.2769" cy="1423.3047" r="3444.1719" gradientUnits="userSpaceOnUse">
			<stop  offset="6.716420e-02" style="stop-color:#B0B1B1"/>
			<stop  offset="0.2938" style="stop-color:#025C8D"/>
			<stop  offset="0.3215" style="stop-color:#145782"/>
			<stop  offset="0.4181" style="stop-color:#234661"/>
			<stop  offset="0.5162" style="stop-color:#223646"/>
			<stop  offset="0.614" style="stop-color:#1D2832"/>
			<stop  offset="0.7114" style="stop-color:#151C21"/>
			<stop  offset="0.8083" style="stop-color:#0C1012"/>
			<stop  offset="0.9047" style="stop-color:#040506"/>
			<stop  offset="1" style="stop-color:#010101"/>
		</radialGradient>
		<path class="st47" d="M2585.1,1401.9c-1,0.1-0.9,0.7-0.6,1.8l7.2,0.6C2587.8,1402.4,2586.2,1401.9,2585.1,1401.9z"/>
		<radialGradient id="SVGID_48_" cx="2285.269" cy="1423.3071" r="3444.28" gradientUnits="userSpaceOnUse">
			<stop  offset="6.716420e-02" style="stop-color:#B0B1B1"/>
			<stop  offset="0.2938" style="stop-color:#025C8D"/>
			<stop  offset="0.3215" style="stop-color:#145782"/>
			<stop  offset="0.4181" style="stop-color:#234661"/>
			<stop  offset="0.5162" style="stop-color:#223646"/>
			<stop  offset="0.614" style="stop-color:#1D2832"/>
			<stop  offset="0.7114" style="stop-color:#151C21"/>
			<stop  offset="0.8083" style="stop-color:#0C1012"/>
			<stop  offset="0.9047" style="stop-color:#040506"/>
			<stop  offset="1" style="stop-color:#010101"/>
		</radialGradient>
		<path class="st48" d="M1892,1477.5c6.8-8.9,9.8-14.8,8.9-17.6c-0.4-0.1-0.9-0.3-1.3-0.2c-3.7,1.2-13.6,9.7-21.3,19.1
			c-9.3,11.4-15.6,24.9-24.7,36.4c-4.9,6.1-11.6,10.5-16.2,16.9c-1.7,2.5-0.3,3.2,0.4,3.6c1.2,0.6,1.2,0.6,28.8,2.9
			c15.8,1.3,27.4,2.7,39.7,6c1.4,0.4,3.3,1,4.7,1.1c4.5,0.3,9.1-4.2,13.5,0.4c2.2,2.3,2.4,6.5,2.5,9.2c0.2,3,1.6,3.3,2.4,3.2
			c4.4-0.5,9.9-9,10.4-16.2c0.9-11.6-7.9-29.6-16.8-39.1c-4.6-4.9-4.6-4.9-20.8-1.4c-4.9,1.1-6,0-7.1-4.1c-2.2-7.8-4.1-9.2-7.1-10.7
			c-1.6-0.8-1.6-1.4-0.8-2.9C1888.3,1481.9,1890.5,1479.5,1892,1477.5z"/>
		<radialGradient id="SVGID_49_" cx="2285.2686" cy="1423.3074" r="3444.27" gradientUnits="userSpaceOnUse">
			<stop  offset="6.716420e-02" style="stop-color:#B0B1B1"/>
			<stop  offset="0.2938" style="stop-color:#025C8D"/>
			<stop  offset="0.3215" style="stop-color:#145782"/>
			<stop  offset="0.4181" style="stop-color:#234661"/>
			<stop  offset="0.5162" style="stop-color:#223646"/>
			<stop  offset="0.614" style="stop-color:#1D2832"/>
			<stop  offset="0.7114" style="stop-color:#151C21"/>
			<stop  offset="0.8083" style="stop-color:#0C1012"/>
			<stop  offset="0.9047" style="stop-color:#040506"/>
			<stop  offset="1" style="stop-color:#010101"/>
		</radialGradient>
		<path class="st49" d="M2536.5,1333.8c0.9,5.6-3.4,10.9-1.2,16.6c1.7,0.7,5.4,0.2,13-5.5c2.8-2.1,5.2-4,7.1-2.9
			c7.9,4.3-1.3,12.8,1.4,19c5.5,12.5,11.9,14.2,20,16.3c12.7,3.3,14.4,3.8,16.7,5.4c0.4,2-0.8,4.1,0.3,6.1
			c3.4,6.1,9.5,10.2,12.5,16.6c1.6,6.6-6.4,2.8-12.3,0c-2.5-1.2-2.5-1.2-9.7-1.7c2.9,8.3,12.2,12.3,14.1,21.3c1,4.8-3.5,7.4-10,10.5
			c-1.7,0.8-4.3,2.1-3.4,4c0.5,1,3.4,4.3,18.8,3.9c6.6-0.2,20.2-0.6,20.6,3.9c0.3,4.1-2.8,4-7.5,3.9c-4.6-0.1-6,1.2-7.7,2.8
			c-3.3,3-3.8,7.7-6.7,11c-3.6,4.1-8.5,6.6-12.2,10.5c0,0.4,0.1,0.9,0.2,1.3c2.1,0.5,2.1,0.5,31.6-3.2c15-1.9,30.1-0.7,45-2.9
			c0.1,0,0.4,0,0.5-0.1l25.7-8.7c0.2-0.2,0.2-0.6,0.3-0.9c-5.3-5.3-12.1-0.6-17.9-2.7c-2.8-7.7,4.4-14.8,1.5-22.5
			c-5.2-13.8-10.7-13.5-15.1-13.3c-9.9,0.5-16.7-13.4-16.7-13.5c0.1-0.2,0.2-0.4,0.3-0.6c0.6-0.2,0.6-0.2,8.4,1.5
			c3.5,1.2,8.4,2.9,8,1.1c0-0.1-0.1-0.2-0.1-0.3c-0.5-0.7-1.4-2-4.1-4.1c-12.1-9.4-27.2-14-38.2-24.9c-5.3-5.2-9.1-11.9-15.5-16
			c-11.2-7.1-21.4-8.6-26.5-8.8c0,0-0.1,0-0.1,0c6.5-5.8,15.1-34.6-2.4-35.3c-3.2-0.1-6.8,0.3-9.2,0.7c-11.1,1.5-13.1,1.7-13.2-1.2
			c-0.2-5.8,9.7-16.7,1.6-17.2c-0.2,0-21.8,0.4-25,8.1c-0.3,0.7,0.1,1.8,0.2,2.6C2530.7,1321.5,2535.4,1327,2536.5,1333.8z"/>
		<radialGradient id="SVGID_50_" cx="2285.2695" cy="1423.3055" r="3444.281" gradientUnits="userSpaceOnUse">
			<stop  offset="6.716420e-02" style="stop-color:#B0B1B1"/>
			<stop  offset="0.2938" style="stop-color:#025C8D"/>
			<stop  offset="0.3215" style="stop-color:#145782"/>
			<stop  offset="0.4181" style="stop-color:#234661"/>
			<stop  offset="0.5162" style="stop-color:#223646"/>
			<stop  offset="0.614" style="stop-color:#1D2832"/>
			<stop  offset="0.7114" style="stop-color:#151C21"/>
			<stop  offset="0.8083" style="stop-color:#0C1012"/>
			<stop  offset="0.9047" style="stop-color:#040506"/>
			<stop  offset="1" style="stop-color:#010101"/>
		</radialGradient>
		<path class="st50" d="M1105.6,1616.7c2.8-6.5,4.3-13.4,6.9-20c1.5-3.9,3.4-7.8,4.8-11.7c0.2-0.5,0.3-1.1,0.5-1.5
			c0.1-0.2,1.2-3.7-0.6-3.3c-0.3,0.1-0.6,0.3-0.9,0.4c-5.9,4.8-12.5,35.2-11.3,37C1105.2,1617.4,1105.5,1617,1105.6,1616.7z"/>
		<radialGradient id="SVGID_51_" cx="2285.2683" cy="1423.3054" r="3444.2632" gradientUnits="userSpaceOnUse">
			<stop  offset="6.716420e-02" style="stop-color:#B0B1B1"/>
			<stop  offset="0.2938" style="stop-color:#025C8D"/>
			<stop  offset="0.3215" style="stop-color:#145782"/>
			<stop  offset="0.4181" style="stop-color:#234661"/>
			<stop  offset="0.5162" style="stop-color:#223646"/>
			<stop  offset="0.614" style="stop-color:#1D2832"/>
			<stop  offset="0.7114" style="stop-color:#151C21"/>
			<stop  offset="0.8083" style="stop-color:#0C1012"/>
			<stop  offset="0.9047" style="stop-color:#040506"/>
			<stop  offset="1" style="stop-color:#010101"/>
		</radialGradient>
		<path class="st51" d="M2394.9,1189.5c0-0.4,0.1-0.9,0-1.2c-1.2-2.2-4.7-6.2-8.9-7.9c-0.7-0.3-1.6-0.6-2.4-0.8
			c-6.2-1.7-12.9-0.2-19.1-2.7c-4.4-1.8-7.6-6.1-12.9-5.8c-6,1.5-11.7,4-17.7,5.4c-5.8,1.4-12,1-17.7,3c-3.7,1.2-1,5.8-3.9,7.4
			c-3.1,1.8-6.3-1.6-9.4,0.2c-0.5,0.3-1.1,0.7-1.6,1c-1.2,5.2,3.5,11.1-2.2,15.7c-1.7-0.7-14.9-11.5-17.1-15.7
			c-4.9-9.4-25.9-15.2-31.7-10.5c1.7,4.7,7.4,3.7,10,7.2c-1.6,6.9-9.8,5.8-13.1,10.7c1.9,1.4,8.5,0.4,12.2-0.3
			c6.5-1.2,27,5.9,15.6,15.4c4.9,6,11.4,0.9,16.9,2.5c5.8,1.6,5.8,3.7,5.9,8.8c1.3,1.1,2.5,1.6,14,0.4c7.5-0.8,10.1-1,12.5-0.8
			c5.5,0.4,10.6,2.8,16.1,3.2c0.7,0,1.6,0.1,2.3,0.1c1.9,0,4.7-0.1,19.9-3.8c13.8-3.4,34.9-18.6,33.8-23.1c-0.7-2.9-3.2-4.8-4-7.7
			C2393.2,1189.4,2393.2,1189.4,2394.9,1189.5z"/>
		<radialGradient id="SVGID_52_" cx="2285.2673" cy="1423.3047" r="3444.2832" gradientUnits="userSpaceOnUse">
			<stop  offset="6.716420e-02" style="stop-color:#B0B1B1"/>
			<stop  offset="0.2938" style="stop-color:#025C8D"/>
			<stop  offset="0.3215" style="stop-color:#145782"/>
			<stop  offset="0.4181" style="stop-color:#234661"/>
			<stop  offset="0.5162" style="stop-color:#223646"/>
			<stop  offset="0.614" style="stop-color:#1D2832"/>
			<stop  offset="0.7114" style="stop-color:#151C21"/>
			<stop  offset="0.8083" style="stop-color:#0C1012"/>
			<stop  offset="0.9047" style="stop-color:#040506"/>
			<stop  offset="1" style="stop-color:#010101"/>
		</radialGradient>
		<path class="st52" d="M1571.9,2115.8c6,7.9,43.9,10.7,44.5,6.3c0.3-2.4-48.1-58.3-48.6-58.6c-5-3.4-20-13.9-48-8.2
			c-15.6,5.1-26.5,15.7-26.6,16.1c2,1.9,13.9,0.1,23.8-5.5c14-8,23.4-3.5,24.3-1c-0.8,1.4-2.7,3.4-7.2,0.8c-0.2,0.1-0.4,0.3-0.5,0.4
			c0.6,6.7,11.8,9.6,19.2,11.5c13.7,3.5,14.6,6.4,17.4,15c1.4,4.3,2.3,7,5.2,10.6c2,2.5,3.5,4.3,3.6,5.8
			C1579.4,2113.5,1574.2,2113.3,1571.9,2115.8z"/>
		<radialGradient id="SVGID_53_" cx="2285.2712" cy="1423.3099" r="3444.2817" gradientUnits="userSpaceOnUse">
			<stop  offset="6.716420e-02" style="stop-color:#B0B1B1"/>
			<stop  offset="0.2938" style="stop-color:#025C8D"/>
			<stop  offset="0.3215" style="stop-color:#145782"/>
			<stop  offset="0.4181" style="stop-color:#234661"/>
			<stop  offset="0.5162" style="stop-color:#223646"/>
			<stop  offset="0.614" style="stop-color:#1D2832"/>
			<stop  offset="0.7114" style="stop-color:#151C21"/>
			<stop  offset="0.8083" style="stop-color:#0C1012"/>
			<stop  offset="0.9047" style="stop-color:#040506"/>
			<stop  offset="1" style="stop-color:#010101"/>
		</radialGradient>
		<path class="st53" d="M1632.2,2162.2c3.9,2.2,0.8,9.4,6.4,10c9.6,1,8.6-12.1,16.9-12.9c0.9-0.1,1.7,0,4.7,0.5
			c14.8,2.5,40.4,3.3,40.5,3.3c1.2-0.2,2.1-0.4,2.1-1.6c0.2-4.3-3.3-7.9-2.2-12.3c3.5-13.8-67-19.9-71.4-19.2
			c-1.1,0.3-1.3,0.4-1.8,0.9c0,1.1,0,1.1,1,2c10.4,9.6,7,20.8,6.5,21.2c-1.3,1.2-7,0.3-14.7-1c-14.2-2.3-15.6-1.9-16.4-1.6
			c0.2,0.2,0.3,0.7,0.5,0.8C1612.9,2157.4,1623.5,2157.2,1632.2,2162.2z"/>
		<radialGradient id="SVGID_54_" cx="2285.2693" cy="1423.3076" r="3444.2915" gradientUnits="userSpaceOnUse">
			<stop  offset="6.716420e-02" style="stop-color:#B0B1B1"/>
			<stop  offset="0.2938" style="stop-color:#025C8D"/>
			<stop  offset="0.3215" style="stop-color:#145782"/>
			<stop  offset="0.4181" style="stop-color:#234661"/>
			<stop  offset="0.5162" style="stop-color:#223646"/>
			<stop  offset="0.614" style="stop-color:#1D2832"/>
			<stop  offset="0.7114" style="stop-color:#151C21"/>
			<stop  offset="0.8083" style="stop-color:#0C1012"/>
			<stop  offset="0.9047" style="stop-color:#040506"/>
			<stop  offset="1" style="stop-color:#010101"/>
		</radialGradient>
		<path class="st54" d="M1774.1,1507.7c-6.1,2.3,7.8,9,10.6,10.3c18.2,8.5,24.5-0.7,24.6-0.8
			C1811.5,1512.2,1780.8,1506.6,1774.1,1507.7z"/>
		<radialGradient id="SVGID_55_" cx="2285.2705" cy="1423.3063" r="3444.2778" gradientUnits="userSpaceOnUse">
			<stop  offset="6.716420e-02" style="stop-color:#B0B1B1"/>
			<stop  offset="0.2938" style="stop-color:#025C8D"/>
			<stop  offset="0.3215" style="stop-color:#145782"/>
			<stop  offset="0.4181" style="stop-color:#234661"/>
			<stop  offset="0.5162" style="stop-color:#223646"/>
			<stop  offset="0.614" style="stop-color:#1D2832"/>
			<stop  offset="0.7114" style="stop-color:#151C21"/>
			<stop  offset="0.8083" style="stop-color:#0C1012"/>
			<stop  offset="0.9047" style="stop-color:#040506"/>
			<stop  offset="1" style="stop-color:#010101"/>
		</radialGradient>
		<path class="st55" d="M2912.4,2640.8c-20,25.7-20.5,25.9-33.5,30.6c-10.7,3.8-14,8.7-30.2,32.1c-8,11.6-11,14-18.9,20.2
			c-24.2,19-56.8,60.6-57.8,64.1c8.8,0.1,8.8,0.1,42.1-31.8c27.2-26,51-55,77-82.2c-0.1,0.7-0.1,0.7-2.4,4.5c1-0.7,1-0.7,3.5-3.9
			c6.1-7.7,24.9-33,27.9-42.1c-0.2-0.1-0.5-0.2-0.7-0.3C2917.3,2634.4,2917.3,2634.4,2912.4,2640.8z"/>
		<radialGradient id="SVGID_56_" cx="2285.2678" cy="1423.3075" r="3444.282" gradientUnits="userSpaceOnUse">
			<stop  offset="6.716420e-02" style="stop-color:#B0B1B1"/>
			<stop  offset="0.2938" style="stop-color:#025C8D"/>
			<stop  offset="0.3215" style="stop-color:#145782"/>
			<stop  offset="0.4181" style="stop-color:#234661"/>
			<stop  offset="0.5162" style="stop-color:#223646"/>
			<stop  offset="0.614" style="stop-color:#1D2832"/>
			<stop  offset="0.7114" style="stop-color:#151C21"/>
			<stop  offset="0.8083" style="stop-color:#0C1012"/>
			<stop  offset="0.9047" style="stop-color:#040506"/>
			<stop  offset="1" style="stop-color:#010101"/>
		</radialGradient>
		<path class="st56" d="M2237.8,2452.1c-1.4-7.4,8.5-17.6-0.9-22.3c-6.7-3.4-13.3,1.6-19.9,0.1c-21.5-4.7-35.6-23.4-56.2-29.7
			c-30.7-9.4-62.4-14.9-93.4-22.7c-18.1-6.6-19.7-27.5-30.8-39.5c-19-12.4-33.2-32.4-53-43.7c-25.9-14.8-57.9-9.7-83.6-25.3
			c-20.3-12.4-34-33.3-55.8-43.8c-3.2-1.5-7.7-2.9-11.2-3.5c-105.5-15.9-188.9-28.4-198.3,55.2c-31.3-22.2-111.8,13-104.3-39
			c4.5-31.4-8.9-54.6-9.1-54.7c-24.5-12.4-49.3,0.5-74-1.2c8.1-27,8.1-27,2.2-39.5c10.7-24.9,10.7-24.9,14.6-47.6
			c-4.7-4.1-45.8-37.2-54.5,55.6c-14.2-0.9-23.3,19-39.5,9.7c-38-21.8-51-49.4-55.3-64c-5.4-18,9.8-32.1,9.4-49.1
			c-0.2-10.9-14.9-16.1-11-28.6c5-16.1,34.7-46.4,41.6-51.7c12.4-9.6,60.7,1.3,61,1.5c1.3-1.1,3-2.5,4.3-3.6
			c-3.7-4-9.1-5.4-13.3-8.8c0.3-1.6,0.8-3.7,1.1-5.3c9.6-5.6,86.3-12.2,86.6-12.1c32.8,17.5,12.8,63.6,44.3,81.9
			c37.2-39.2-22.5-74-15.9-113.5c6.9-40.9,47.7-50.4,70.5-76.5c-0.5-0.1-0.5-0.1-0.6,0c-1-1.1-2.3-2.7-3.4-3.8
			c0.2-1.5,0.4-3.5,0.6-4.9c1.4-0.4,3.3-1,4.8-1.4c0.2-1.8,0.4-4.1,0.6-5.9c-1.4-0.5-3.3-1.2-4.7-1.8l7.6-74.9
			c0.6,11.1,0.6,44.8,0.6,44.9c3.5-2.3,3.5-2.3,6.7-51.6c2.7,5.2,7.4,9.4,8.7,15.5c6.7-11.6,4.5-26.7,14.8-36.8
			c0.2-0.3,44.4-24.2,47.6-24c4.1-38.7,4.1-38.7,25.8-59c3.6,0.2,3.6,0.2,66.6-36.3c-0.6,1.3-1.5,3.1-2.1,4.4
			c3.2,1.2,7.8,2.4,11.3,2.3c0,1.6,0,3.8,0,5.5c-36.4,25.9-36.4,25.9-36.9,33.4c24.7,0.4,100.6-43.7,87.1-77.9
			c-10.4,7-10.9,19.9-17.1,29.3c-8.1-2.3-14.7-4.1-20.2-5.7c5.5-1.2,9.6-7,9.7-7.1c0-0.1,0.1-0.2,0.1-0.3c-0.1-0.1-0.1-0.1-0.1-0.2
			c-0.5-0.1-0.6-0.1-2.1,0.1c-9.8,1.5-15.3-0.6-17.3-1.6c-4.8-2.4-5.6-5.3-5.2-9.3c0.1-1.6-0.1-1.7-0.3-1.8c-0.1,0-0.2,0.1-0.3,0.2
			c-0.5,0.8-3.6,8.5-0.8,14.2c-9.5-4.5-11.1-9.3-14.8-20.7c-8.9-3.3-9.5-4-13.3-8.6c13.3-3.6,22.9-6.2,25.8-19.6
			c-6.8-6.7-6.8-6.7-101.8,52.7c65.4-68,65.4-68,132.5-88.3c15.3,10.4,83.9-23.6,94.4-42.6c-3.4-8.3-3.4-8.3,1.6-20.5
			c-0.9-1.4-2.1-3.3-3-4.7c-5.5-1.2-11-2.4-16.5-3.5c-4.7,0-4.8,0-4.8,0c-3.3,0.3-13.5,1.3-31.4,13.1c-0.6-1.3-1.4-3.2-2-4.5
			c5.5-7.8,8.1-8.8,28.4-16.7c-39.4,3.4-77.8,6.7-120.1,10.9c38.8-4.1,72.6-7.1,120.4-11c1.1-0.5,2.6-1.2,3.2-2.2
			c0.9-2.4-14.9-16-34.9-10.8c-4.5,1.2-4.5,1.2-6.9,0.4c-1.4-3.8,1.7-8.1-1-11.8c-3.8-5-11.2-3.7-15-8.8c-1.6-2.1-0.5-4,2.5-8.1
			c4.4-6.1,4.4-6.1-5.2-23.2c-24.2-43.2-24.2-43.2-36-20.6c-1.9,3.5,2.8,7.2-0.2,10.6c-3.5,4-9.7,0.3-13.1,4.8
			c-7.5,10.3-7.5,10.3-9.6,10.9c-13.1,4-22.3-6.7-33.7-9.2c-2-3.6,2.5-27,9.5-32.6c-6.7-2.2-13.8,1-20.5-1.4
			c-1.6-0.6-2.5-1.6-4.6-5.2c-0.7-1.2-2.4-4-18.9-9.5c-3.7-1.2-4.5-1.1-7.3-0.9c-15.1,4.1-31.3,0.7-46,6.9
			c2.6,14-14.6,26.6-2.9,41.3c-2.2,6.8-11.2,9.2-11.6,17.2c-0.6,9.3,8.9,14.8,9.2,23.8c0,0.4,0.7,36.5-20.1,41.3
			c-4.6,1.1-14.9,4.3-12.7,12c-1,1.3-1.5,1.8-5.7,5c-5.5,21,8.3,47.1-15.6,63.7c-7.5-11.4-20.7-14.7-31.1-22.1
			c5.6-16.5,3.2-22.5,0.1-30.1c1.6-1.3,4.3-3.5,5.9-4.8c-0.2-0.9,0-2.7-0.2-3.6c-1.8-0.3-4.2-0.4-6-0.4c-9.8-9.5-21.7-0.9-32.3-3.8
			c-10.8-2.9-16.2-13.8-26.5-17.4c-1.8-0.6-4.2-1.2-6-1.5c-9.4-1.6-16.1,5.3-24.3,7.7c-2.8-2.3-2.8-2.3-6.4-23.8
			c-1.3-7.5-1.3-7.5-18.9-8.9c-4-22.9,51.8-64.2,75.6-81.9c-2.7-7.3-10.7-4.1-15.3-7.7c46.3-8.2,46.3-8.2,72.7-36.3
			c-17.9,3.1-21.7,3.8-36.2-4.5c17.2-6.2,39.5,4.6,52.5-15.5c-1.3-0.9-3.5-1.7-5.1-1.8c0.1-0.1,8.6-10.5,17.7-4.8
			c30-10.8,30-10.8,37.9-17.8c1.7-1.5,3.7-3.8,4.9-5.7c3.2-5.5-2.1-11.3,0.8-16.8c2.7-5,9-4.6,12.6-8.3c2-2.5,2.3-5.7,3.7-8.4
			c-0.3-0.3-25.6-26.1-34.1,10.5c-15.6,9-26.8,45.4-45.7,28.5c1.7-11.2,24.4-18.5,13.8-29.6c-12.1,4.5-16.9,16.7-25.8,24.6
			c-2.1-6.1,10.1-22.1,10.3-22.2c-0.6-0.2-0.6-0.2-11.4-0.7c18.7-30.1,18.7-30.1,18.7-33.7c-0.8-0.6-2-1.5-2.8-2.1
			c10.7-16.5,10.7-16.5,60.4-45.8c-3.5-0.4-3.5-0.4-9,0.6c-39.8,9.3-93.6,84-94,84.7c0.4,0.9,0.9,1.9,1.3,2.8
			c4.2,0,8.4-0.9,12.6-1.2c0.2,0.8,0.4,1.8,0.6,2.6c-8.8,4.4-10.2,5.2-14.3,9c-0.1,2.1-0.1,2.1-0.1,2.1s0,0,0.1,0
			c0.8,0.2,1.8,0.4,2.5,0.6c-8.5,14.6-27,19.5-33.9,35.6c-6.5-6.7-6.5-6.7,5.6-19.7c-7-1.8-7-1.8-29.6,16.1c-1.3,1-8.8,5.8-36.8,4.5
			c-1.8-2.6-1.5-6.1-3.4-8.8c-22.6,5.8-29.4,19-42.8,45.1c-2.5-6.6,3.3-12.1,2.6-18.4c-12.2,2-22.2,12-35.5,10
			c5.6-5.5,14.6-7.5,16.7-16.5c-0.7-0.4-1.6-0.9-2.3-1.3c-3,1.6-3.5,1.9-12.1,0.9c-1-1.4-2.5-3.1-3.8-4.3c-6.2,1.3-9.7,6.6-14.5,9.9
			c0.9-1.7,2.3-3.8,3.4-5.3c-3.3,2.4-3.3,2.4-8.8,7.7c2.8-5.9,2.8-5.9,11.4-16.5c-14.7,13.6-14.7,13.6-41.7,36.4c-0.1,0-0.1,0-0.1,0
			c8.5-8.1,17.7-15.5,26.4-23.5c-0.1,0.1-19.3,14.5-43.4,38.5c0.8-1.5,2.1-3.3,3.1-4.6c-14.9,16.7-34.7,39-49.6,55.7
			c-64.4,83.8-65.6,85.4-94,132.6l0.2-0.4c0.4-0.6,1-1.5,1.4-2.2c-19,48-19,48-21.4,61.1c-1.2,3.8-2.9,8.9-4.1,12.7
			c0.9,1.4,2,3.3,2.9,4.8c-6,19.1-6,19.1-12.6,51.8c-1.6,7.8,0.2,15,2.6,22.1c-0.9-0.3-2.5-0.7-4.8-0.9c-1.1-0.1-1.7-0.3-2.1-0.7
			c-0.4-0.4-0.5-0.5-1.1-2.8c-0.3-1.2-1.5-5.1-2.5-5.3c0,0,0,0-0.1,0.1c0,0.1-2.4,11.3,0.3,20.5c2.2,7.6,7.6,6.5,7.7,6.5
			c1.4-0.4,2.7-1.8,3.6-3.9c0.7-1.8,0.9-3.8,0.9-4.7c0.1-1.3-0.2-2.5-0.3-3.7c0-0.1,0-0.2,0-0.4c2.6,7.4,5.3,14.8,4.8,22.7
			c-2.6-1.5-6.1-3.3-8.8-4.6c-32.1,40-43.3,240.4-21.9,277.8c2.8,0.5,2.8,0.5,49.3,95.7c-3.3,0-7.7,0.2-11,0.3
			c5.6,11.8,46.6,64.8,47,65.2c3.7-5.5,7.6-11.1-11.2-37.9c-8.6-12.2-18.3-26-34.7-92.5c20.6,15,22.8,24.9,25.5,37.3
			c2,8.9,4.2,18.9,8.1,25.1c8.4,13.4,18.7,25.4,27.6,38.4c11.6,16.9,31.3,26.3,41,44.9c7.8,14.9,4.1,34.9,20.2,46.3
			c2.2,1.5,5.7,2.8,8.1,3.7c4.6,1.8,10.3,5,15.1,6.2c16.6,4.3,33.5,6.9,50.2,10.9c17,4.1,35.1-5.7,51.8,3.8
			c38.2,21.8,38.2,21.8,51.7,23.2c2,0.2,4.7,0.5,6.7,0.8c60.1,8.4,84.9,82.8,150.7,80.4c29.3-48.8,47.3,9.7,53.7,37.2
			c2,8.7,2,8.7-14.4,44.8c-0.2,0.6-16.1,65.7-9.3,77.9c1.1,2,2.5,4.7,3.8,6.6c21.6,32,110.1,119.6,110.8,120.2
			c21.6,18.7,50.9,22.9,73.7,39.3c17.4,12.5,30.4,37,36.6,69c0.3,1.4,34.2,153.7,93.3,236.8c74.9,105.4,147.4,93.8,148,93.6
			c-69.8-35.9-69.8-35.9-63.2-65.5c-9.7-10.3-9.7-10.3-28-60.8c2.8-0.9,2.8-0.9,16-0.5c-0.1-1.4-0.1-1.4-16-23.4
			c12.2-10.9,12.2-10.9,11.3-19.6c0.9-0.6,2.1-1.3,3.1-1.9c21.7,6.6,28.9-11.3,23.3-19.5l-6.4-8.9c49.3-1.3,70.2-120.6,70.4-121.8
			c7.1-15.2,25.7-24.2,33.3-27.4c17.5-7.3,17.7-27.8,30.1-39c5.6-5,10.6-5.2,14.7-4.6c7.2,0.9,7.8,1,8.7-5.8c2-14.9,0.6-30,1.4-45
			c0.4-8.4-4.5-17,1-25.2c6.4-9.4,8.8-13,4.3-19.2c-0.8-1.1-1.7-2.9-2.1-4.3c41.2-15,55.9-59.7,55.9-60.1c0-0.5,0.1-1.2,0-1.7
			C2242.7,2460.6,2238.7,2457,2237.8,2452.1z M1203.9,1520.4c14.6-4.8,30-9.3,45.8-13.7C1233.9,1511,1218.6,1515.6,1203.9,1520.4z
			 M1671.5,2370.8c18.6-2.3,37.6-4.6,57.5-6.9C1710.6,2366.1,1691.6,2368.3,1671.5,2370.8z M2089.3,2631.9c-0.8-7.2-3.2-31-7-72.9
			c2.3,24.5,4.6,48.8,7.2,74.5C2089.4,2632.9,2089.3,2632.4,2089.3,2631.9z M2069.4,2403.7c0.1,1.4,0.2,2.7,0.3,4
			C2069.7,2406.4,2069.5,2405,2069.4,2403.7z"/>
		<radialGradient id="SVGID_57_" cx="2285.2642" cy="1423.2933" r="3444.3123" gradientUnits="userSpaceOnUse">
			<stop  offset="6.716420e-02" style="stop-color:#B0B1B1"/>
			<stop  offset="0.2938" style="stop-color:#025C8D"/>
			<stop  offset="0.3215" style="stop-color:#145782"/>
			<stop  offset="0.4181" style="stop-color:#234661"/>
			<stop  offset="0.5162" style="stop-color:#223646"/>
			<stop  offset="0.614" style="stop-color:#1D2832"/>
			<stop  offset="0.7114" style="stop-color:#151C21"/>
			<stop  offset="0.8083" style="stop-color:#0C1012"/>
			<stop  offset="0.9047" style="stop-color:#040506"/>
			<stop  offset="1" style="stop-color:#010101"/>
		</radialGradient>
		<path class="st57" d="M1725.4,2167.6c-5.7,3.8,1.7,11.1,8.6,12.3c4.9,0.8,20.7-1.4,21.3-3c0.4-0.8-0.8-2.8-12.5-6.4
			C1729.9,2166.5,1728,2166.9,1725.4,2167.6z"/>
	</g>
	<g>
		<g>
			<path class="st58" d="M1823.7,2349.9c-1.9,0-3.4-1.5-3.5-3.4C1807,1760.4,2207.9,1176,2501.1,1015
				c78.6-43.1,142.7-50.9,185.3-22.4c46.8,31.3,65.1,106.1,53,216.3c-0.2,1.9-1.9,3.3-3.8,3.1c-1.9-0.2-3.3-1.9-3.1-3.8
				c11.8-107.5-5.4-180-49.9-209.7c-40.3-27-101.9-19.1-178.1,22.7c-291.7,160.1-690.5,741.7-677.3,1325.2
				C1827.2,2348.3,1825.7,2349.9,1823.7,2349.9C1823.7,2349.9,1823.7,2349.9,1823.7,2349.9z"/>
		</g>
		<g>
			<path class="st58" d="M2508.2,2208.9c-0.6,0-1.1-0.1-1.7-0.4c-1.7-0.9-2.3-3-1.4-4.7c235.3-426,182.6-947.1-1.1-1185.7
				c-91.4-118.6-223-183.1-352-172.4c-100.7,8.3-184.1,61-228.8,144.5c-0.9,1.7-3,2.3-4.7,1.4c-1.7-0.9-2.3-3-1.4-4.7
				c45.8-85.6,131.2-139.6,234.4-148.1c131.4-10.9,265.2,54.6,358.1,175.1c185.1,240.3,238.4,764.8,1.7,1193.3
				C2510.6,2208.3,2509.5,2208.9,2508.2,2208.9z"/>
		</g>
		<g>
			<path class="st58" d="M1524.3,1485.5c-0.6,0-1.3-0.2-1.9-0.6c-157.1-100.7-159.9-239.8-110.2-336.4
				c63-122.4,224.5-210.3,385.7-145.6c1.8,0.7,2.7,2.7,1.9,4.5c-0.7,1.8-2.7,2.6-4.5,1.9c-157.5-63.2-315.3,22.8-376.9,142.4
				c-48.4,93.9-45.5,229.2,107.7,327.4c1.6,1,2.1,3.2,1.1,4.8C1526.5,1485,1525.4,1485.5,1524.3,1485.5z"/>
		</g>
		<g>
			<path class="st58" d="M1099.4,2185.7c-0.5,0-1-0.1-1.4-0.3c-1.7-0.8-2.5-2.9-1.7-4.6c52.2-113.7,155.2-197.6,247.7-267.2
				c345-260,728.6-445.1,1080.3-521.1c285.1-61.7,525.7-45.4,612.9,41.5c43,42.8,41.9,99.5-3.1,159.8c-1.1,1.5-3.3,1.9-4.9,0.7
				c-1.5-1.1-1.9-3.3-0.7-4.9c43.3-57.9,44.6-110,3.8-150.7c-85.6-85.2-323.7-100.8-606.5-39.6
				c-350.7,75.8-733.3,260.5-1077.6,519.9c-91.8,69.2-194,152.3-245.6,264.6C1101.9,2185,1100.7,2185.7,1099.4,2185.7z"/>
		</g>
		<g>
			<path class="st58" d="M2890.9,1879.4c-1.7,0-3.2-1.3-3.4-3c-48.7-358.5-313.1-557.6-544.2-624.5c-249.8-72.2-497.5-16-631,143.3
				c-1.2,1.5-3.4,1.7-4.9,0.4c-1.5-1.2-1.7-3.4-0.4-4.9c135.4-161.4,385.9-218.5,638.3-145.5c137.7,39.8,260.5,114.3,355.3,215.5
				c105.2,112.3,172.2,255.7,193.8,414.7c0.3,1.9-1.1,3.7-3,3.9C2891.2,1879.4,2891.1,1879.4,2890.9,1879.4z"/>
		</g>
	</g>
	<rect x="678.1" y="535" class="st59" width="2881.4" height="1616"/>
	<g>
		<path class="st58" d="M1190.2,2636.2c-0.5-0.3-54.4-26.5-105.4-68c-30.1-24.5-53.4-49.5-69.3-74.2c-20.1-31.4-28.3-62.5-24.4-92.6
			c15.7-120.7,222.5-220.5,614.8-296.7l1.7,8.8c-210.9,41-369.4,89.3-471.2,143.6c-83.8,44.7-129.7,93.7-136.4,145.5
			c-8.3,63.6,44.7,121.4,90.5,158.7c50.2,40.9,103.1,66.6,103.6,66.9L1190.2,2636.2z"/>
		<path class="st58" d="M1942.9,3217.7c-26.1,0-55.8-23.8-88.6-71c-26.9-38.7-46.2-79.8-46.3-80.2l8.2-3.8
			c0.2,0.4,19.2,40.9,45.6,79c23.8,34.2,58.5,73.5,88.8,66.2c13.1-3.2,24.8-14.9,35-34.9c11.9-23.4,21.7-58.3,29.1-103.8
			c17.2-105.9,21.7-271.2,13.4-491.4l9-0.3c8.3,220.8,3.8,386.7-13.5,493.2c-7.5,46.4-17.6,82.2-30,106.4
			c-11.4,22.4-25.2,35.7-40.9,39.5C1949.5,3217.3,1946.2,3217.7,1942.9,3217.7z"/>
		<path class="st58" d="M2267.8,2629.1c-34.5,0-68.3-1.8-100.5-5.4c-65-7.3-122.2-22-165.5-42.3c-62-29.1-94.7-69.1-94.7-115.8h9
			c0,54.2,48.7,88.4,89.6,107.6c86.8,40.8,223.6,56.3,365.9,41.5c155.8-16.2,289.7-64.9,376.8-137.2c97.7-81.1,131-185.1,98.9-309.2
			l8.7-2.3c17.1,66.1,15.9,127.7-3.7,183.2c-17.8,50.5-50.8,96-98.1,135.3c-45.8,38-104.3,69.7-173.7,94
			c-62.8,22-134.7,37.7-207.9,45.3C2337.5,2627.3,2302.3,2629.1,2267.8,2629.1z"/>
		<path class="st58" d="M2966.3,2350.7l-8.9-1.6c30.8-168.9-52.3-337.5-240.4-487.5c-164.7-131.4-404.5-242.9-657.9-306
			c-242.4-60.3-458-65.9-576.8-15.1c-61.6,26.4-95.2,66.5-99.9,119.4l-9-0.8c2.5-28.7,13.2-54.1,31.7-75.7
			c17.6-20.5,42.3-37.7,73.6-51.1c120.6-51.6,338.3-46.1,582.6,14.6c254.6,63.3,495.6,175.5,661.3,307.7
			c90.3,72,157.2,148.8,199,228.1C2967.8,2170.2,2982.8,2260.4,2966.3,2350.7z"/>
		<path class="st58" d="M3164,2647.8c-23.9,0-53.8-6.7-89.5-20.2c-50.9-19.2-95.6-45.8-96-46l4.6-7.7c0.4,0.3,44.6,26.5,94.7,45.4
			c45.3,17.1,104.9,31.7,131.5,4.1c21.1-21.9,19.6-67.6-4.4-135.8c-29.3-83.4-92.6-200.5-188.2-348.1l7.6-4.9
			c95.9,148.2,159.6,265.9,189.1,350c13.1,37.2,19.7,68.5,19.6,92.9c0,22.8-5.9,40.3-17.3,52.2
			C3204,2641.7,3186.7,2647.8,3164,2647.8z"/>
		<path class="st58" d="M2732.2,3058.2c-63,0-122.1-104.5-124.6-109.1l7.9-4.4c0.6,1.1,62.5,110.6,121.8,104.2
			c31-3.4,56.7-38.1,76.3-103.3c28.2-93.6-14.7-391.6-102-708.5c-104.1-377.7-244.9-697.9-386.3-878.5
			c-96.9-123.8-193.9-184.1-288.4-179.3l-0.5-9c97.5-5,197,56.5,295.9,182.7c76.1,97.2,150.7,230.9,221.5,397.5
			c61.3,144.2,118.9,311.6,166.4,484.1c42.8,155.5,76.6,312.4,95.1,441.9c18.4,128.9,20.8,225.4,6.9,271.6
			c-20.8,69-49,105.9-83.9,109.7C2736.3,3058.1,2734.2,3058.2,2732.2,3058.2z"/>
	</g>
</g>
</svg>
