<svg width="997" height="359" fill="none" xmlns="http://www.w3.org/2000/svg"><path d="M102.573 162.163c1.779-.889 2.001-.667 3.558-1.557 1.779-.889 7.339-4.225 8.895-5.115 1.78-.889 2.669-.889 0 .445-2.668 1.557-8.228 4.893-7.116 4.448.89-.445 3.558-2.002 7.339-4.003 3.78-2.001 3.336-1.557 4.67-2.669s2.001-1.779 2.001-1.779 4.003.223 4.448.223c.445 0 .667-.223 1.112-.668.445-.444 1.334-1.111 2.002-1.111.667-.223-.223.667.222.667s1.334-.445 2.669-1.335c1.556-.667 1.112-.889 1.112-.889s-.223 0 1.556-.667c1.557-.667 6.449-1.779 7.784-2.224 1.334-.223 6.004-1.779 7.116-2.224 1.112-.222 2.002-.89 3.558-1.334 1.557-.223 2.669-.223 1.112.667-1.556.889-4.892 2.224-3.336 1.779 1.557-.445 4.226-1.112 6.672-2.224 2.446-.89 7.339-2.891 8.673-3.336 1.334-.445 2.002-.445 2.891 0 .89.445 1.779.445 2.224.445.445 0-.222-.222.222-.89.445-.444.445-1.334.223-1.334-.223-.222.222-.445-.223-.667-.444-.222-1.334.222.668-.89 2.001-1.112 3.558-2.001 5.782-2.668 2.224-.667 2.224.222 4.003-.223 1.779-.667 2.001-.444 5.337-1.334 3.336-1.112 2.001-.667 5.56-1.779 3.558-1.112 2.446-.89 3.558-2.002 1.112-1.111 2.001-1.334 2.891-1.779.889-.222 4.003-1.112 3.78-.889 0 .222-1.779 1.334-1.334 1.557.445.222 2.891 0 2.891 0s-.222-.668 0-.89c0 0 .223-.667.667-.89.445-.222 2.669-.667 4.448-2.223 2.002-1.557-.445-.668-.445-.668s-.889.223-.222-.222c.667-.667 3.336-1.557 3.336-1.557-.223-.222-1.779.223-3.559.89-1.779.445-2.891.667-2.891.222 0-.445.445-1.556.89-2.446.445-.89 2.001-1.112 2.446-1.557.445-.444 1.335-2.668 1.112-2.891-.222-.222 1.335-1.556 1.779-2.224.445-.667 2.002-.889 2.002-.889-.223-.223.889-.89 3.336-1.779 2.446-.89 6.671-2.002 6.671-2.002l-1.779.89c-1.334.889-1.112 1.557-3.113 2.668-2.002 1.112-6.005 2.224-6.005 2.224s.667.667 0 1.112c-.667.445-1.334 1.335-1.334 1.335s3.336-.668 3.113 0c-.222.889 1.557.444 1.557 1.112 0 .667-2.446 2.001-2.001 2.001.444 0 .444 0 1.779-.445 1.334-.445 3.113-.889 3.113-.889s-.89.667-.445.889c.445.223-.222.667-.444 1.112-.223.445.444.667.667.445.444-.222 2.446-1.779 2.891-2.446.667-.667.889-.89 1.556-1.112.668-.223 2.447 0 2.447.222 0 .223 0 .445-1.335 1.557-1.556 1.112-1.556 1.334-.667 1.334.89 0 .89-.222 2.669-.222 1.779-.223 1.334-.223 2.446-.667 1.112-.445 0-1.112.222-1.112.223 0 2.669-.89 2.447-1.335-.223-.444-.89-.444.444-1.112l2.224-1.112c-.444-.222-.444-.222-.889-.889s1.112-.89 4.448-1.779c3.335-.89 3.335-.445 4.892-.667 1.557-.223.445.222.89.667.444.445-1.779 1.112-1.779 1.112s-1.335.445-1.335.889c.223.223.445.667 1.112 1.112.667.445-.667 1.112-2.446 2.224-1.779.89-3.558 1.557-5.56 2.224-1.779.445-2.668 1.112-2.668.89 0-.223-.89 0-1.78.222-1.111.445-3.335 1.334-2.668 1.334.667-.222 2.891-.667 1.779.223-1.112.889-2.002 1.112-3.558 1.556-1.779.445-3.336.89-4.448 1.112-1.112.223-6.449 1.779-6.449 1.779s3.336-.222 6.004-.667c2.669-.445 6.005-1.556 6.005-1.556s-1.557 1.111-3.336 2.446c-1.779 1.334-3.114 1.334-4.225 1.779-1.112.445-2.002 1.112-4.448 1.779-2.224.89-6.672 1.779-6.005 1.779.667 0 .89 0 2.002-.222 1.334-.223 2.001-.445 2.891-.445.889 0-.89.667-2.446 1.334-1.557.667-2.002.89-2.891 1.335-.89.667-4.003 2.891-5.115 3.558-1.112.667-2.002 1.779-2.891 2.668-.668 1.112-3.114 2.669-2.447 2.669.668 0 3.781-1.112 5.115-1.112 1.112 0 1.779 1.112 2.669 1.334.667.223 1.334.445 2.669-.222 1.334-.89 3.558-1.334 5.559-1.779 2.002-.445 5.782-.445 6.894-.222 1.112.222 3.558-.668 6.005-1.335 2.668-.667 2.668-.222 2.668-.222s2.669-.667 1.335 0c-1.335.889-1.557.445-.668.889.89.445.223 1.557-.222 2.224-.667.667 3.558-.889 5.115-.889 1.557 0 .89 1.556 1.779 1.112.89-.445 2.446-1.335 2.891-1.779.445-.445.445-.89.445-1.78.222-.667.222-2.001-.445-2.223-.667-.223 2.002-1.112 1.557-1.335-.223-.222 0-.667 1.779-1.334s1.779-.445 2.891-1.112c1.112-.445 1.779-2.001 2.224-2.446.445-.445.445-1.335 0-1.779-.223-.223-1.335-1.112-1.779-1.112-.445 0-1.335 0 .667-1.335 2.001-1.334.889-.889.889-1.112-.222-.222-.222-.667-.222-1.111 0-.445 1.112-1.335.89-2.002-.223-.667-.89-.222-.89-.445.222-.222 4.003-1.112 6.672-1.779 2.668-.667 4.003-1.112 4.67-1.334.889-.223 2.224-.223 3.558-.223 1.334 0 2.001-.222 2.669 0 .667.223.889.445 2.668 0 1.557-.444 3.336-.667 3.336-.667s-1.334.445-1.334 1.335c-.223.667-.89 1.556-.89 1.779 0 .222.445.222 1.112 0 .667-.223 2.446 0 4.67-.223 2.002-.222 2.669-.444 3.558-1.334.89-.89 1.112-.89 2.002-1.112.889-.222 1.112-.222 1.557-.445.444-.222-.445-.222 0-.667.444-.445 1.779-1.334 2.891-2.001 1.112-.668 1.556 0 2.224.444.667.445 2.891 1.78 3.558 2.224.667.445 1.779.223.445 1.112-1.335.89-1.78 1.335-.445 1.112 1.556 0 2.668 0 2.446.667-.222.445-.667.667-.222.667.444 0 2.446-.889 3.78-.889 1.334 0 2.891-.222 3.781 0 .889.222.667.222-.667.889-1.557.445-2.891 1.112-3.781 1.335-.667.222-2.001.889-2.001 1.112 0 .222-.445.667.667.222 1.334-.667 3.113-1.334 4.447-1.779 1.335-.445.223 0 1.557-.445 1.334-.222 2.224-.222 3.781-.445 1.556-.222 1.112.223.444.668-.444.444-1.111.889-.444 1.112.444.222-.445.889-2.224 1.556-1.557.89-2.669 1.112-5.115 1.779-2.446.668-3.781 1.557-5.56 2.447-1.779.889-2.668 1.112-5.115 1.556-2.446.667-1.334-.222-2.001.223-.89.222-1.779.889-3.336 1.334-1.557.445-6.672 1.779-8.895 2.446-2.002.667-1.557 1.112-2.224 1.779-.667.668-1.335.668-2.891 1.112-1.557.667-3.781 2.002-6.005 3.559-2.224 1.779-4.892 3.113-4.892 3.113.445-.222 3.336-1.557 4.67-2.446 1.334-.89 7.116-3.559 8.673-4.448 1.779-.89 5.337-2.224 6.004-2.446.668 0 2.447 0 2.447.222s-.89.667-2.447 1.557c-1.556.889-3.335.889-3.335 1.112 0 .222.889.444 2.001.222 1.112-.222.89.445.667.667 0 .223-.889.667 1.335.89 2.223.222 4.003-.223 5.782-.667 1.779-.445.889 0 1.556-.223.667-.222 1.112-.889 1.557-1.334.445-.445.89-1.112 1.779-1.334.667-.445 1.334-.89 1.334-.223s-1.334 1.779-2.446 2.224c-1.112.445-.889.667-1.112.89 0 .222-1.112.444-4.003 1.779-2.891 1.334-3.78 1.556-4.225 1.556-.445 0-1.557.445-2.891 1.335-1.334.889-3.113 1.779-4.003 2.001-.89.223-1.779.223-.222-.667 1.556-.889 2.223-1.779 3.558-2.224 1.334-.667 2.001-.667 2.891-.889 1.112-.223.667-.445 1.557-.89.889-.445-.668 0-2.002.223-1.334.222-.222-.445-.222-.445-.668.222-.89.445-1.557.667 0 0-2.446 1.112-3.113 1.334-.668.223-.445.223-.668.445-.222.222-2.446.667-2.446.667s-1.334 1.112-3.113 1.779c-1.779.667-.445.223-1.779.667-1.335.445-.89 0-1.112.223-.223.222-.445.445-2.002 1.112-1.557.667-2.224 1.112-3.78 2.891-1.557 1.779-.668 2.001-.668 2.224-.222.222-1.556.222-2.223.667-.445.222-1.78 1.112-3.336 1.779-1.557.667-4.448 1.557-5.115 2.224-.667.445-.89.889-1.557 1.556-.445.668-2.669 2.669-2.669 2.669s.668-.667-.444-.667c-.89 0-.667-.445-.667-.445s-.445.667-.223 1.112c.223.445.89.89.223 1.557-.668.667-1.557 1.779-2.669 2.224-.89.444.445-.445.667-1.112.222-.445-.445-.445-.667-.445-.222-.222 0-.89.889-2.001 1.112-1.112-.444-.223-1.556.667-.89.889-2.002 2.001-1.112 2.446.889.445-1.112.889-.667 1.779.444.89-1.557 1.779-1.335 2.002.223 0 1.335-.445 1.557 0 .222.444-.89.444-1.557.889-.444.222-.444.445-.222.667.222.223.667-.222.445 0-.223.223-.89.667-2.224 1.112-1.112.445-1.112.223-2.002.89-.889.667-1.556 1.112-2.446 1.779-.889.667-1.334.667-2.224 1.112-.889.445-1.334.889-2.446 1.556-1.112.668-3.558 2.002-4.893 3.114-1.556 1.112-1.111 1.112-2.223 2.668-1.112 1.335.222 2.892.667 4.448.445 1.557 1.334.89.889 1.557-.444.667-1.334 1.779-2.446 2.446-1.112.667-1.334.223-2.446 0-1.112 0 0-.667-.89-1.334-.889-.445-.667-.89-.445-1.557.223-.667.223-1.557 0-2.001-.444-.445-1.334-.89-3.558 0-2.224 1.112-1.556.667-2.668.889-1.112.223-3.781.667-5.56 1.557-1.779.889-6.227 2.001-7.339 2.446-1.112.445-1.779.667-2.001 1.112-.223.445-.667.445 1.112.223 1.779-.445 1.334 0 1.112.444-.223.445-1.335.223-2.002.445-.667 0-1.557.667-2.669 1.112-1.111.445-1.111 0-2.223.222-1.112.223-1.557.445-2.447.668-.889.222-2.224.222-3.335.889-1.112.445-6.45 3.781-9.118 5.337-2.447 1.557-4.67 3.114-5.338 4.003-.889.89-.889.89.445 1.335 1.334.444.667.444 0 1.112-.667.667-2.001 1.779-3.78 3.78-1.78 2.002-1.335 2.446-.445 3.336.889.89 1.779 1.557 2.891 1.557.889.222 1.557.444 2.668.444.89-.222 1.112-.222 1.557 0 .445 0 .223.223 2.002-.667 1.779-.889 3.113-1.779 4.225-2.224 1.112-.444 2.224-.889 2.891-.667.445 0 .667-.222.667-.222 0-.222.89-1.112 1.112-1.334.223-.223 2.224-2.002 2.669-2.669.445-.667.889-2.002 2.668-2.669 1.557-.667 5.115-2.224 8.006-3.113 2.891-.89 1.335.222.223 1.334-1.112 1.112-1.335 1.335-1.557 1.779-.222.667.222.445-.89 1.112-1.111.667-.222 0-.889.445-.445.445-2.224 1.557-2.002 1.334.223-.222.445.445.223.667-.223.445-.223.668-.667 1.335-.223.889-3.781 2.891-3.781 2.891s1.112 0 2.669-.667c1.779-.667 3.78-1.335 5.337-1.557 1.557-.222 5.337-2.224 7.561-2.446 2.224-.223 1.335.444 1.112 1.112 0 .444-.445 2.446-.889 3.113-.445.445-2.002 2.224-2.891 3.558-.89 1.112 1.111 1.112 3.113 1.112 2.001 0 3.781-.222 4.892-.445 1.112-.222 3.559-2.001 7.562-3.335 4.003-1.112 4.67.222 4.67.222s.889-1.334 3.113-3.336c2.224-2.001 2.446-2.446 5.115-3.78 2.669-1.335 3.558-1.557 7.561-3.559 4.226-1.779 3.336-1.112 5.338-1.779 2.001-.444 6.894-1.779 11.341-2.446 4.67-.667 12.009-2.669 14.678-2.891 2.668-.222 3.558 1.112 6.004 1.557 2.669.445 6.005.889 7.339.889 1.334.223 10.007-1.556 12.009-1.556 1.779-.223 4.225.889 4.225 1.556 0 .89 1.779.89 4.448.667 2.669 0 3.336.445 4.67 1.557 1.334 1.334.667 2.002 3.114 1.779 2.446-.222 19.125-1.779 23.128-1.779 4.225 0 9.118 1.112 10.674.89 1.335 0 4.003-1.112 5.115-.89 1.112 0-1.112 2.002.223 3.114 1.334.889 1.334.889.222 2.001-1.112 1.112-4.892 4.003-6.449 5.337-1.557 1.335-4.67 2.669-6.227 3.559-1.779.889-3.113.667-1.779 1.334s-.222 1.779-1.557 2.891c-1.334 1.112 0 .667-.889 3.558-.89 2.891-.89 5.782-1.779 7.116-.89 1.335-3.781-.222-8.229 3.336-4.448 3.558-5.782 6.005-8.228 6.894-2.446.89-8.228 3.781-10.452 5.338-2.002 1.556-2.447 2.001-4.003 3.78-1.557 1.779-3.114 5.115-4.893 7.339-1.556 2.224-4.003 4.003-9.34 7.783-5.337 4.003-8.006 7.339-11.564 10.453-3.558 3.113-2.669 2.446-3.336 2.891-1.779 1.556-8.228.889-6.672 1.779 1.112.667-.667.222.223.889.889.667 1.557.89-1.112 3.558-2.891 2.669-5.56 3.114-7.561 4.003-2.002.89-4.448.223-4.893 1.112-.445.89-1.779 3.114-3.558 4.226-1.557.889-5.782 3.113-5.782 3.336.667 5.337 4.67 4.67.445 5.782-11.342 3.113-2.891-1.557-12.899 12.676-1.556 2.224-2.668 1.779-2.891 3.78-.222 2.002-.667 3.781.667 4.448 1.335.667.223 1.112-2.891 4.003-3.113 2.891-3.335 2.669-6.226 6.449-3.114 3.781-5.56 4.67-4.893 6.449.445 1.779.222 5.115 1.112 7.784v8.673c-3.113.667-9.785.445-12.231 0-2.224-.445-5.782-1.334-6.894-3.113s-1.557-3.781-2.891-6.45c-1.335-2.446.444-5.114 2.668-12.231 2.002-7.116 3.781-12.454 5.782-16.679 2.002-4.003 9.341-20.46 11.12-24.462 2.001-4.003 10.23-20.238 11.341-22.684.89-2.224 1.557-4.003 2.892-6.449 1.334-2.446 1.779-6.449 2.001-6.672 0-.222-.222-.222-.667-1.779-.445-1.557-2.002-1.779-4.226-1.779-2.223 0-4.447-.222-6.004-.222-1.779-.223-3.781-.445-5.115-1.112-1.557-.667-2.446-2.891-3.113-3.781-.667-.889-2.891-3.558-5.338-5.115-2.446-1.556-2.446-1.556-3.335-3.78-.668-2.224 2.223-3.336 3.335-5.115 1.112-1.779 3.336-4.003 6.005-6.672 2.669-2.891 5.56-4.225 7.783-6.671 2.224-2.447.89-2.002.89-3.559 0-1.556.667-1.556 0-2.224-.667-.667-.89-1.556-1.779-1.556-.89 0-2.002.222-3.114.889-.889.667-2.891 2.669-3.78 3.114-.89.445-1.112 0-1.557-.223-.445-.222-3.113.89-3.558.668-.445-.223-1.779.222-2.669.444-.889 0-4.003.445-4.892.223-.89 0-1.779-.667-1.335-1.779.445-1.112-1.334-.89-4.892-.89-3.558 0-5.337.445-10.23 1.557-4.892 1.334-6.227 0-7.561.222-1.557 0-1.112-.445-4.892 1.112-3.781 1.557-7.784 2.224-10.453 2.891-2.446.445-7.338 2.002-9.118 2.224-1.779 0-5.337 1.334-6.226.222-.89-1.112-.89-.667.444-2.446 1.335-1.779-2.446-1.334-4.225-1.779-1.779-.445-3.558.222-4.225-1.112-.445-1.334-2.447-.445-4.226-.667-2.001-.222-1.334-1.779-1.556-2.891-.445-1.112-6.227-.223-6.227-.223s.667 1.78 1.112 2.224c.222.668 1.112 2.224 2.224 3.114 1.334.889 2.891.667 4.003 1.556 1.112 1.112-1.112 2.892-1.557 2.447-.445-.445-2.891.445-2.669-.445.445-.89 0-1.112-.445-1.557-.222-.445-2.668 0-4.67 0-2.001 0-3.558.223-2.001-.445 1.557-.667 3.558-.889 3.336-1.111-.223-.445-2.447-.668-3.336-1.335-.89-.445-.667-1.556-1.112-2.891-.445-1.334-4.67-.889-6.894 0-2.446.89-2.669.667-2.891-.445-.223-.889.222-2.446-.223-2.891-.667-.667-3.558-2.001-2.89-3.335.444-1.335 1.111-4.448 3.78-7.339 2.669-2.669 4.448-7.117 4.67-8.006.223-.89-1.779-1.112-1.557-1.779.223-.667 1.78-1.112 3.114-1.335 1.112-.444 3.558-.889 3.558-.889s-1.112-1.112-2.001-1.112c-.89-.222-4.226.667-5.782 1.112-1.557.445-3.559 1.112-4.003.889-.445-.444-.89-.889-1.335-1.111-.222-.223-2.668.222-2.89-.223-.223-.445.444-1.557 0-2.001-.446-.223-1.558 0-3.114.889-1.557.89-1.78.445-2.224 0-.667-.445-2.891.223-3.558.445-.667.222-2.224-.445-2.224-.667 0-.445-2.669-.667-3.558-.667-1.112.222-11.787 3.558-12.232 3.78-.222.223-4.003 2.002-4.67 2.224-.89.222-3.113.445-4.67.89-1.557.444-2.89 1.779-4.225 2.891-1.334 1.334-6.005 4.892-8.45 6.671-2.447 1.779-4.226 2.669-3.782 2.224.445-.445.668-1.112 1.78-2.446 1.111-1.334 1.779-1.779 4.225-3.336 2.446-1.557 2.446-1.557 1.557-1.112-.89.445-1.335.667.667-.667 2.001-1.334 2.669-1.779 2.89-2.224.223-.445-4.002 2.446-6.893 4.448-2.891 2.224-4.67 3.558-7.561 6.227-3.114 2.891-.445 1.112-2.669 3.113-2.446 2.002-9.563 7.561-11.564 9.34-2.224 1.779-10.452 7.784-13.566 9.785-3.113 2.002-4.447 2.891-6.227 4.448-1.779 1.557-5.337 3.558-4.002 2.446 1.334-1.112 4.225-3.335 5.782-4.67 1.779-1.334 6.226-4.447 7.338-5.337 1.335-.89 5.115-3.781 7.34-5.56 2.223-1.779 4.002-3.558 5.559-5.115 1.556-1.556 2.001-2.001-.445-.444-2.446 1.556-4.67 2.668-5.56 2.891-1.112.444-4.447 2.891-5.337 3.113.445-.222 2.224-1.779 1.78-1.779-.446 0-2.892 1.557-4.449 2.224-1.334.667-3.113 1.112-2.446-.223.667-1.334-.222-1.556 1.112-2.891 1.334-1.334 2.669-2.223 4.448-3.558 1.556-1.334 5.782-4.003 6.45-4.225.666-.445 2-1.334 2.89-2.224.89-.667-.445-.89-.445-.89s.445-.444 1.557-1.111c1.112-.89.89-1.112-.89-.223-1.556.89-5.56 3.558-7.783 5.115-2.224 1.334-4.893 2.669-4.67 2.224.445-.667.89-1.112.445-1.112s-.89-.222 0-.667c.89-.667 6.226-4.448 6.226-4.448s1.112.222 2.891-.667c1.78-.89 6.672-4.67 6.672-4.67-2.001.445-1.334 0-1.334 0s-3.78 2.001-4.67 2.224c-.668.222-.668-.223-.668-.667 0-.445-3.558 1.111-2.001-.223s3.558-2.669 5.337-4.225c1.78-1.557 3.78-3.781 8.006-6.449 4.226-2.669 8.896-5.56 11.342-7.339 2.446-1.557 2.89-1.335 3.558-1.557.667-.222 5.337-2.669 7.116-3.558 1.78-.89 1.557 0 2.002 0 .445 0 16.012-7.116 16.012-7.116s13.343-6.005 15.79-6.672c2.446-.89 6.893-2.002 6.893-2.002 3.558-2.001 4.226-3.558 6.005-4.225zm197.035-87.62s-2.002 2.001-7.562 3.78c-5.559 1.78-16.011 5.338-16.679 5.56-.444.222 0 .89 1.112 1.112 1.112.222 2.224.222 3.336.445.89.222 3.114-.223 4.448-.223 1.334.223 2.669-.222 7.339-1.334 4.447-.89 3.335-.667 8.228-1.557 5.115-1.112 10.23-2.001 11.786-1.779 1.557.222 3.336 1.557 4.448 2.446 1.112.89 3.336 2.224 3.336 2.447 0 .222-2.446 2.001-2.446 2.223 0 .223.667.445 1.334.668.667.222.222.444 0 .89-.222.444.445.889.667.889.223 0 2.669-1.335 4.226-1.78 1.556-.444 4.892-.222 4.67.668-.445 1.556.889.667-7.561 4.225-1.112.445-2.891 2.669-2.447 3.336.445.89 2.002 1.557 3.114 2.669 1.112 1.111 4.892 2.223 6.004 2.891 1.112.667 1.112 1.779 4.225 1.556 3.114-.222 6.227-.444 8.451-.667 2.224-.222 3.781-.222 5.115-1.112 1.334-.889 4.448-4.225 6.894-6.449 2.446-2.224.445-2.669 4.893-3.78 4.447-1.112 11.564-3.114 13.343-3.559 2.001-.445 2.001-2.446 6.227-3.558 4.225-1.112 4.67-1.334 8.895-2.224 4.003-.89 9.785-2.446 13.788-3.78 4.003-1.335 5.115-1.112 6.672-2.002 1.557-.89-1.112-1.779-1.112-2.89 0-1.113 1.557-1.335 2.446-2.447.89-1.112 1.557-1.78 4.67-2.891 3.114-1.112 4.893-1.557 4.448-2.224-.445-.667-1.779-1.334-1.779-2.002.222-.667.667-.444-.445-1.112-.667-1.334-.667-1.334.667-2.446 1.335-1.112 4.226-1.112 4.226-1.556-.223-.445-4.671-.445-4.671-1.557 0-1.112 1.112-1.557 1.78-1.78.889-.444 8.673-2.89 9.34-3.113.445-.222 0-.667 3.78-1.334 3.781-.89 5.115-1.334 6.45-1.557 1.334-.222 3.558-.444-.668-.444-4.225 0-5.114 0-8.005.444-2.892.445-3.781.89-8.896 1.557-5.115.667-10.897 2.002-10.897 2.002s1.779-.668.445-.89c-1.334-.223 4.225-2.224 5.115-2.446.889-.223-6.894 0-10.897.444-4.003.223-11.787.668-16.457 1.335-4.67.667-11.342 1.556-13.565 2.224-2.447.444-2.224 1.334-4.893 1.779-2.669.444-7.339.667-10.897 1.556-3.781.668-9.785 2.447-10.452 2.67-.667.221 2.001.221 4.003 0 1.779-.223 4.003.444 4.003.444s-5.115.445-10.008.89c-5.114.444-11.341 2-13.565 2.668-2.224.667-5.115 1.557-9.34 2.446-4.226.89-9.563 2.891-12.232 4.003-2.668 1.112-10.897 4.003-12.898 4.67-2.002.668-1.334.668.667.445 1.557-.445 3.781-.89 3.781-.89zm-121.424 50.926c0 .89-.667 2.224-1.779 2.224-1.112-.222-1.557-1.112-4.003.222-2.668 1.335-4.892 2.002-4.447 1.78.444-.223.222-.668-.668-.445-1.112.222-2.001.667-3.335 1.557-1.335.667-5.338 2.446-3.559 1.334s1.557-1.112 1.335-1.557c-.223-.445-4.67 2.002-7.117 3.336-2.446 1.334-4.225 2.891-5.782 4.003-1.556 1.112-.889 1.112.89.667 1.779-.445 4.892-1.334 2.001 0-2.891 1.334-4.892 2.446-3.78 2.224 1.112-.222 3.335-.89 5.782-1.779 2.446-.89 4.447-2.002 7.783-2.891 3.336-.89 5.56-1.779 5.56-1.779s-1.557.889-4.003 1.779c-2.446 1.112-6.894 2.446-9.34 3.558-2.447 1.112-6.227 2.669-5.338 2.669.668 0 1.112.222 4.003-.445s3.781-1.334 5.56-1.779c1.779-.445.222.889.667.667.445 0 4.226-1.557 8.006-3.113 3.781-1.557 2.446-1.335 5.56-2.669 2.891-1.334 3.558-2.224 5.337-2.891 1.779-.667.223.222 2.002-.223 1.779-.444.667 0 2.668-.667 2.002-.667 1.557 0 3.558-.889 2.002-.667 4.893-2.002 4.448-2.002-.222 0-.445-.222 0-.667.445-.445-2.001.667-3.113 1.112-.89.445-.445-.222 1.334-1.112 2.002-.889 3.336-1.112 4.225-1.334 1.112-.445.668-1.112-1.111-.89-1.78.445-2.224.223-4.671.445-2.446.222-.889-.445-1.334-.89-.445-.444-.889-2.223-2.224-2.223-1.334 0-2.891.667-4.225.889-.445.223-1.112.89-.89 1.779zm-40.919 13.343c.223.445.667 0-1.112 1.335-1.779 1.334-1.334 1.334-2.446 2.446-1.334 1.112-4.225 2.891-3.781 2.891.445.222 2.669-.445 3.559-.667.889 0 1.334.222 3.335-.667 2.002-.89 2.669-1.335 4.003-2.224 1.335-.667 2.669-1.557 2.891-2.224.445-.667.445-.89.89-1.112.445-.222 1.112 0 1.779-.667.667-.667 1.779-1.557 2.669-2.224 1.112-.667 3.78-2.001 5.115-2.669 1.334-.889 3.558-2.001 4.225-2.446.667-.445-.667-.222-1.557 0-.889.223-1.557 0-3.78.667-2.224.89-3.781 2.002-3.559 1.557.223-.445-1.334 0-2.001.222-.89.223-1.557.223-4.448 1.557-2.891 1.112-4.225 1.779-6.449 2.891-1.779 1.334.445.89.667 1.334zm60.934-13.788c-.445.223-1.779.89-2.891 1.557-1.112.667 1.557-.445 2.446-.445.668-.222 1.335 0 1.779-.222.668-.222 4.226-1.112 5.782-2.001 1.557-.668 1.78-.89 1.78-.89s-2.447-.222-4.448 0c-2.002.222-2.002.222-2.446.445-.223.222-1.557 1.334-2.002 1.556zm-5.115-5.559c-1.556.667-2.668 1.334-.667 1.112 2.002-.223 2.669-.223 4.003-.223 1.334-.222 1.557.667 5.115-.667 3.558-1.557 5.115-2.446 6.004-3.113.668-.667-.222-.445-.667-.667-.667-.223-.667-.445-2.446.222-1.779.667-2.224.667-2.224.667s1.334-.889 3.336-1.779c2.001-.89.667-.667 1.557-1.334 1.112-.667-2.002.222-3.336.667-1.335.445-1.335.445-3.558 1.112-2.224.667-6.005 2.446-6.005 2.668 0 .223 1.779-.444 3.114-.667 1.334-.222 1.779-.444-.223 1.112-2.001 1.335-2.224.445-2.668.445-.223 0 .222-.445-1.335.445zm-8.673 1.334c-2.224.89-3.336 1.779-2.669 1.557.89-.223 1.557-.667 2.447-.445 1.112.222 2.001 0 3.113-1.112s.667-1.112-2.891 0zm-32.024 5.337c-2.891 1.779-3.78 2.447-6.004 3.781-2.224 1.112-2.001 1.557-1.557 1.557.445 0 2.669-.89 3.558-1.557 1.112-.445 2.002-1.334 2.447-1.112.444 0 3.336-2.001 4.447-2.669 1.112-.667 2.669-1.556 2.891-1.779.223 0-1.111.89-.889 1.112.222.223 2.001-.445 4.003-1.556 2.001-1.112.889-1.335 2.446-2.224 1.557-.89 2.446-1.335.445-.89-2.224.445-4.003 1.334-4.67 1.779-.667.445-1.335.445-7.117 3.558zm14.456-4.003c-1.335.445-2.002.89-4.671 2.002-2.668 1.334-4.225 2.669-5.114 3.336-.89.889 0 .444 1.779 0 2.001-.445 5.115-2.002 6.226-2.891 1.112-1.112 1.557-.445.89.222-.667.445 1.557-.445 2.446-.889.89-.445 3.781-1.557 4.003-1.557.223 0-2.668 1.557-5.115 2.668-2.446 1.112-4.447 2.002-5.115 2.224-.667.223.445.223 2.891-.444 2.669-.668 4.671-2.224 9.118-4.226 4.226-2.001 4.226-2.001 5.338-2.224 1.112-.222 2.891-1.112 4.447-1.779 1.779-.667 2.224-.667 3.336-1.779 1.112-1.112 2.891-2.446.667-1.779-2.224.667-2.446.667-3.113 1.779-.89 1.112-.667.445-.667.445s-1.112-.445-1.779-.445c-.445-.222-.668-.667-1.557-.667-.89 0-1.557.667-3.336 1.779-2.001 1.112-.889 1.112.667.89 1.335-.223 2.002.222 1.112.667-.889.445-1.556.445-4.447 1.556-2.892 1.112-2.447.668-3.336.668-.667.222 1.556-.89-1.112-.445-2.891.445-2.669.445-3.558.889zm-9.785 4.226c.444-.223-4.226 2.224-5.115 2.891-.89.667.444 0 1.779-.445 1.112-.445 1.779-1.334 3.336-2.446zm9.117-5.338c-1.112.445-1.112.668.445.223 1.557-.445 2.669-1.112 2.446-1.334 0 0-2.001.667-2.891 1.111zm10.453-6.226c-1.112.444-4.671 2.001-4.893 2.224-.222.222-.445.667 0 .889.222.222.445.222 3.336-1.112 2.891-1.112 5.115-2.446 4.225-2.224-.889.223-1.334.223-2.224.445-.889.222.89-.445 2.891-1.334 2.002-.667 2.669-1.112-3.335 1.112zm-9.563 3.78c-.89.445-1.112.445.445.223 1.556-.223 3.336-.89 3.113-1.112-.222 0-1.334-.223-3.558.889zm7.339-4.003c-1.779.667-2.224 1.335-2.669 1.557-.445.222 1.779-.667 2.891-1.112 1.112-.445 1.112-.222 2.224-.89 1.112-.667 2.669-.889 4.448-1.556 1.779-.667 2.224-1.112 2.001-1.335-.222-.222-4.225 1.335-8.895 3.336zm15.789-3.78c-.445.222-.445.444-.222.667.222.222.445 0 1.112 0 .667-.223 1.556-.223 1.556-.223.223 0 .223 0 .89-.444.445-.445 0-.223-.667-.223-.89-.222-1.334-.444-2.669.223zm4.226.889c-1.112.223-2.002.89-2.669 1.112-.445.223 0 .223.222.445.223.222-.222.445 1.557 0s2.446-.89 2.891-1.334c.445-.668-.89-.445-2.001-.223zm6.894-1.556c-1.112 0-1.335 0-2.669.444-1.334.667-.445.445-.445.667 0 .223 1.557-.444 1.334-.222-.222.222.223.222-1.556.89-1.779.667-2.224.667-3.114 1.112-.667.444 1.335-.445 1.779-.223.445 0 1.335-.222 3.114-.889 1.779-.668 4.003-1.557 4.003-1.557s-1.557.889-2.224 1.334c-.667.445-1.112.89-.445.89s1.112-.445 3.558-1.335c2.447-.667 3.336-1.556 3.336-1.556s-.445 0-.222-.445l.222-.445h1.112s0-.222-.222-.667c0-.445.222-.445.222-1.112 0-.445.222-.667-1.779-.222a57.045 57.045 0 0 1-4.67 1.556c-1.557.445-2.224.668-1.112.668.889-.223 1.112 0 1.334.222.445 0 0 .667 0 .667.445.223-1.556.223-1.556.223zm-10.453 5.337c-.889.445-1.334.889-1.556 1.112-.223.222.889-.223 2.668-.89 1.779-.889 1.335-1.334-1.112-.222zm24.241-8.451c-1.557.667-2.891 1.334-3.781 2.002-1.112.444-.445.444 1.557.222 2.001-.222 4.003-.89 5.337-1.557 1.112-.667.667-2.446-3.113-.667zm11.119-5.782c-2.669.89-2.002.667-4.893 1.334-2.891.445-6.671 1.557-7.783 2.002-1.112.222-.667.445 0 .667.667.222.889.445 3.336-.445 2.446-.889 4.225-1.556 5.559-1.112 1.112.445 2.002.445.445 1.112-1.557.667-1.112 1.112-.667 1.557.445.445 2.224-.222 4.892-.89 2.447-.667 18.681-5.337 21.35-6.004 2.668-.89 5.114-2.224 6.671-2.891 1.557-.667 2.446-1.334.89-1.334-1.557 0-4.003.444-6.005.89-2.001.444-4.003 1.334-7.116 2.223-3.114.89-2.669 1.334-5.56 2.001-2.891.89-1.556.89-4.892 1.335-3.114.445-5.338.445-3.781 0s3.114-.89 2.224-1.112c-.89.222-2.001-.223-4.67.667zm-28.91 4.67c1.556-.222 1.779-.222 0 .445-2.002.667-3.559 1.779-1.78 1.112 1.78-.667 3.336-.89 5.56-1.557 2.224-.667 2.224-.667 2.891-.445.89.223 2.002-.222 3.558-.889 1.779-.667 2.002-.667 1.112-.89-.889 0-1.556-.444-2.668-.444-1.335.222-2.224 0-3.559.444-1.334.445-1.779.667-2.668.445-.89-.222-2.002.445-3.781 1.112-1.779.667-2.668 1.334-3.558 1.779-1.779 1.112 3.336-.667 4.893-1.112zm24.462-12.231c-2.446 1.334-4.225 2.446-2.224 2.001 2.224-.444 3.114-.89 3.114-.667 0 .223-.667.445-3.781 1.557-3.336.89-2.446.89-.889 1.112 1.334.222 1.779 0 4.447-.89 2.891-.89 4.003-1.334 6.005-1.779 2.224-.445 2.891-.445.667.445s-7.339 2.669-6.449 2.669c.889 0 4.003 0 5.337-.445 1.557-.445 2.001-.89 5.337-1.78 3.336-.889 2.447-.444 2.891-.889.445-.445 2.891-1.779 3.336-2.224.445-.444 1.557-.89 3.558-1.556 2.002-.667 2.669-.89.89-.667-1.557.222-3.558.667-3.336.444.222-.222 1.557-.89.89-1.112-.668 0-1.78.223-2.669.445-.89.223-1.557-.222-2.669 0-1.112 0-2.224.445-3.336.445-1.334 0-3.113-.222-6.004.667-1.779.222-2.891.667-5.115 2.224zm-7.561 8.228c-.89.445-2.669.89-1.557.89s.667.222 2.669-.667c1.779-.668 4.67-2.002 5.115-2.224.222-.223-1.557 0-2.669.222-1.334.222-2.001.222-4.67.667-4.003.89 1.779.667 1.112 1.112zm96.071-34.47c-2.891.445-13.565 2.002-17.124 3.114-3.558 1.112-3.113.222-8.006 1.556-4.892 1.335-12.453 2.891-14.899 3.558-2.447.668.889.223 2.001.223 1.112 0-6.004 1.112-11.787 3.113-5.782 1.78-9.562 3.114-4.002 2.224 5.559-.667 6.226-.667 6.226-.667s-7.338 1.557-10.452 1.78c-3.113.444-1.334 0-7.561 2.223-6.449 2.224-12.454 4.225-12.454 4.67 0 .445 4.226 0 7.117-.445 2.891-.667 9.562-2.89 10.007-2.89.445-.223-2.891 1.556-2.891 1.556s3.336-1.112 6.894-2.224c3.781-1.112 6.672-2.224 10.23-3.558 3.558-1.112 4.225-1.557 4.225-1.557s-6.449 2.891-10.897 4.448c-4.225 1.557-9.785 3.336-12.231 4.003-2.446.667-2.446 1.112 0 .89 2.224-.223 3.558.222 4.893.222 1.111 0 1.111.445 1.111.445s-3.335 0-8.228 2.224c-4.892 2.223-4.448 2.668-3.336 2.446 1.112-.223 4.67-1.112 5.115-.89.445.223 5.782-2.001 5.782-2.001s-3.113 1.779-5.337 2.446c-2.446.667-2.001 0-5.56.89-3.558 1.112-3.558 1.334-2.224 1.334 1.335 0 2.447-.222-.444.89-2.891 1.111-4.003 1.556-4.448 2.223-.445.667 3.113-.444 5.337-1.112a373.49 373.49 0 0 1 8.451-2.446c4.003-1.112 3.78-1.334 5.337-1.779 1.557-.445 2.891-.667 2.002 0-.89.667.444 0 5.115-1.557 4.67-1.779 3.113-2.001 2.891-2.224-.223-.222-1.779 0-2.669.223-.89 0 3.781-2.224 3.336-2.669-.445-.222 4.892-1.334 8.006-2.89 2.891-1.78 2.446-2.225.667-2.002-1.779.222 3.336-.89 5.115-1.557 1.779-.667 5.337-1.78 6.894-2.669 1.556-.89 2.224-1.112-1.112-.222-3.336.89 5.115-1.557 9.34-3.336s9.34-3.558 10.23-4.003c1.112-.445 2.001-.445-2.669.667s-10.007 2.002-6.894 1.335c3.114-.89 12.232-3.114 14.9-4.003 2.891-1.557 4.003-2.002 4.003-2.002zm-65.382 34.47c-5.115 1.112-12.231 2.891-14.455 4.893-2.224 2.001-6.449 6.227-6.894 7.116-.445.667 5.338-.222 9.785-1.334 4.448-1.112 11.564-3.114 10.23-3.114-1.334 0 0-.444 4.225-1.556 4.003-1.112 4.671-1.557 4.893-1.779.222-.223.445.222 3.113 0 2.669-.223 4.448.667 6.672.889 2.224.222 7.561 0 6.004.89-1.556.889 0 2.891-9.34 5.782s-9.562 2.668-10.007 3.558c-.223.667 0 .889 3.558 0 3.558-.89 9.118-3.336 10.452-2.891 1.334.445 3.558 0 4.893-.223 1.334-.222-2.002.89-2.891 1.335-.89.222 1.779-.223 6.671-.667 4.893-.445 11.12-1.779 8.229-1.779-2.892 0-3.781-.668-5.115-.89-1.112 0 0 0 2.224-.445 2.446-.445 4.225-.222 5.337-.222.889 0 1.556-.445 2.891-2.002 1.112-1.334.222-1.112-3.558-1.112-3.781 0-4.67-.444-4.893-1.112-.222-.667 2.446-1.334 3.781-2.001 1.334-.667 3.558 0 5.337.222 1.779.445 2.891 1.335 4.893 0 2.001-1.334 4.225-4.003 4.447-4.447.223-.445-1.556.444-7.783.667-6.227.445-9.563.667-10.23.889-.667.223 2.001-.889 5.115-2.001 3.113-1.112 4.448-1.334-1.112-2.002-5.337-.667-6.894-.667-10.897.223s-4.448-.445-7.117-.223c-2.668.223-9.785 3.114-11.786 3.781-2.001.667-1.557.89-3.336.222-1.779-.444-3.336-.667-3.336-.667zm4.671-1.334c-2.669.667.667 1.334 4.002.445 3.336-.89 6.227-2.002 7.117-2.224.445-.223-7.117.667-11.119 1.779zm-19.793 20.904c-.667.445-2.224 2.002-2.669 2.891-.444.89-.889 1.112-1.556 1.557-.667.667 1.334-.445 2.001 0 .89.445.223.667 2.669-.667 2.446-1.335 4.67-2.224 7.339-2.669 2.668-.445 4.67-.889 4.003-1.334-.668-.445-2.002 0-3.559-.223-1.556-.444-2.891-.222-5.115.223-2.223 0-1.779-.89-3.113.222zm-10.897 72.276c-.667-.667-1.334-1.779-6.894-.445-5.56 1.335-7.783 3.114-10.007 4.226-2.224 1.112 1.779-.223 4.67-1.557 2.891-1.334 4.892-1.779 5.115-1.557.222.223-1.112.667-1.335.667-.444 0-.667.89 2.002.445 2.891-.445 3.558-.445 3.558 0s0 .89.445 1.334c.445.223.667.445-.667 1.112-1.335.668-.89.445 0 .445.889 0 2.668-.222 5.337-.889 2.669-.668 3.558-.89 2.001-1.335-1.556-.889-4.002-2.224-4.225-2.446zm6.672 3.113c1.334.223.444 1.335.222 1.78-.222.444-1.779.667-4.67 1.111-2.891.668-2.446.668 0 .445 2.446-.222 4.225-.889 3.781.223-.445.889 2.446-.668 3.78-1.557 1.334-.89 1.112-.445 5.56-1.557 4.67-1.112 5.337-.889 4.892-1.779-.444-.667 2.447-1.557-1.334-1.334-4.003.445-13.788 2.446-12.231 2.668zm-13.343 4.893c-1.335-.445-3.559.222-3.781 1.112-.222.889.222.667 1.779.222 1.557-.445 2.891-1.112 2.002-1.334zm32.246-6.449c-1.779.222-2.447 1.112-1.335 1.334 1.112.222 3.114-.667 5.115-1.112 2.002-.667-.445-.667-3.78-.222zm13.788-86.286c-2.447.889-3.781 1.556-2.224 2.001 1.556.445 2.446.667 3.558-.222.889-.89 2.669-3.336-1.334-1.779zm-22.239 14.9c-3.558 1.111-4.67 1.556-4.448 2.001.223.667 1.112.222 3.558-.89 2.669-.889 4.67-2.446.89-1.111zm6.449-.89c-.667.222-.889.667-.445 1.112.445.222 2.224-.667 3.114-1.557.889-.667-.445-.222-2.669.445zm-19.792-22.684c-2.891.89-7.784 2.669-5.115 1.78 2.446-.668 4.448-1.112 8.45-2.447 4.003-1.334 4.448-1.334 4.893-2.224.445-.444-2.891 1.335-8.228 2.891zm-15.567-.222c-3.114 1.334-2.669 1.334.667.667 3.336-.445 3.558-.89 3.558-1.779.445-.89-2.224.445-4.225 1.112zm209.488-18.903c-4.003.89-5.337.667-6.227 1.557-.889.667-2.446.667-3.336.667-.889.222-2.446 2.224-3.113 2.002-.667-.223-.889-.223-1.557-.89-.889-.445.445-.667-1.334-.89-1.557-.444-5.115 0-5.56.445-.222.223 2.224.223 1.335.667-.89.445-3.336 1.112-4.003 1.335-.89.222 1.556 0 3.113-.445 1.557-.222 2.446 0 3.114.222.444.223-.89.668-1.557 1.112-.667.223 2.224-.222 3.336-.222 1.112 0 1.779.222.889.667-.889.445 3.336-.445 5.782-.667 2.224-.222 2.891.222 6.449-.667 3.559-.667 5.338-.89 8.674-2.002 3.335-1.112 3.113-.89 5.114-1.556 2.224-.668 1.78-.89 1.78-1.335.222-.445 1.334 0 .889-.667-.445-.667-3.113-.222-4.892-.222-1.78.222-1.78-.223-2.669-.445-.89 0-2.224.667-6.227 1.334zm306.005 95.404c0 .223-.223.667 0 1.335.222.667.222 1.556.667 2.223.444.668.667 1.335 1.556 1.557.89.223 1.557.667 2.891.445 1.335 0 2.447-.445 1.557-1.334-1.112-.89-2.668-2.447-3.78-3.114-.89-.667-2.669-1.779-2.891-1.112zm-1.557-1.334c.222.445.445.222.889.667.445.222.668.222.223-.222l-.445-.445s-.667-.222-.667 0zm154.559 86.064c-.223.222 0 .222 0 0-2.002.889-4.67-.445-8.896-1.335-4.225-.667-11.119-.444-11.341.667 0 1.112.444 1.557 0 1.112-.668-.444-2.002-1.556-2.002-1.556s-.667 1.112.222 2.668c.89 1.557 2.224 2.669 2.669 4.448.445 1.779-.222 2.446.445 3.781.445 1.334 4.67 4.892 6.227 6.894 1.334 1.779 1.779 1.556 3.335 4.67 1.557 3.113 4.226 5.559 2.447 6.227-1.779.667-3.558-.223-.223 2.446 3.336 2.669 6.005 4.448 10.008 5.115 4.003.667 2.668-.89 5.782 0 3.336.889 3.78.667 6.671 1.556 2.892 1.112 5.115 2.002 5.56.89.667-1.112-.222-1.334 2.446-1.112 2.669.222 2.224-.222 4.003.222 1.779.445 3.336 2.002 5.56 1.557 2.001-.445.222-1.334 6.005 1.112 5.782 2.446 8.45 4.003 10.674 5.56 2.224 1.334 6.227 4.225 7.339 5.782 1.112 1.334 2.891 3.113 3.113 3.336.445.222.89.444 1.779 0 .89-.445 4.003-.667 4.003-.667s.667 2.001 0 2.446c-.667.445-.222 1.556 0 2.001.223.445 1.779-.222 2.002-.222.222 0 1.556 3.336 2.001 3.558.445.445 1.112.667 2.447 2.002 1.111 1.334 2.668 2.446 4.002 4.67 1.557 2.224 5.783 5.559 8.006 7.116a67.895 67.895 0 0 0 6.005 2.891c1.557.667 1.112-.889 3.113.667 2.002 1.557.667 2.002 4.67 3.781 4.226 2.001 4.893 1.334 6.227 1.334 1.335 0 2.446 2.224 3.558.89 1.335-1.335 2.002-.445 1.335-3.336-.667-2.669-.89-3.336.222-5.115 1.112-1.557 2.002 0 2.002-3.336 0-3.113.444-6.004-1.112-9.34-1.335-3.336-.223-1.112-2.669-5.115-2.224-4.003-1.557-3.336-4.892-6.227-3.559-2.891-4.003-2.891-5.56-5.337-1.557-2.446-.89-2.446-2.224-3.114-1.334-.667-2.446-.889-3.781-2.446-1.334-1.779-1.556-2.224-3.558-4.225-2.001-2.002-3.336-2.446-6.671-4.67-3.336-2.224-1.78-1.779-2.447-3.336s-1.112-3.113-3.78-4.893c-2.669-1.779-.667 0-1.779-2.446-1.112-2.446-.89-2.224-2.891-3.336-2.002-1.334-2.669-1.556-4.448-3.558-1.779-2.001-4.448-5.115-5.337-6.227-.89-1.112-1.112-.444-1.557 0-.445.445-.89 1.557-.222 3.114.667 1.556 2.001 2.668 2.891 4.67.889 2.001-.445 3.113-1.335 3.78-.889.668-2.224-.889-3.558-1.779-1.334-.889-2.001-2.001-4.67-3.78s-7.339-4.226-9.785-6.227c-2.446-2.002-1.112-1.557-.89-2.446.223-.89.667-1.557 1.779-1.779 1.112-.223.668-.668-1.556-2.002-2.224-1.334-4.67-2.446-7.784-3.78-3.113-1.335-5.115-2.002-4.448-.89.668 1.112 2.669 2.446 0 1.112-2.891-1.334-5.115-2.446-6.004-2.002-.89.445-.89.668-.89 2.224 0 1.557.89 2.002-.222 1.557-1.112-.445-6.004-3.558-7.783-4.448-1.557-.889-2.447-1.334-3.781-.889-1.334.445-6.227 1.556-8.006 1.556-2.002 0-2.224 0-2.446 3.559zM774.626 192.63c-1.334-.445-2.224-.667-.222.667 2.001 1.335 2.446 1.779 4.447 2.891 1.78 1.112 2.002 0 3.559 1.779 1.779 1.779 1.334 1.557 2.668 2.447 1.335.889 2.446 1.334 2.891 1.779.445.667 1.112 1.556 2.891 2.446 1.557.89 1.557.89 2.891 2.224 1.335 1.334 2.891 2.668 3.781 3.78 1.112 1.112 4.892 3.114 7.339 4.893 2.224 1.779 6.004 4.448 6.449 4.003.222-.445 1.779.445 2.669.667.889 0 .889-.667.889-2.224 0-1.557-1.557-2.668-2.669-3.336-1.111-.667-2.668-1.112-3.335-1.779-.667-.444-1.779-2.001-3.114-2.668-1.112-.668-1.334-.223-1.779-1.335-.445-.889.89-.444-.889-1.556-1.78-.89-2.224-1.335-2.669-1.779-.667-.445-4.225-1.78-5.115-2.447-1.112-.667-5.115-2.446-7.116-3.78-2.002-1.335-4.226-2.447-5.115-3.336-.667-.667-2.669-1.779-8.451-3.336zm43.81 28.91c-1.556-.444-2.446-1.112-3.113-.444-.667.667-.445.667 1.112 1.112 1.557.444 1.334.889 1.334.889s-.889-.222 2.669 1.334c3.558 1.557 5.559 2.002 6.449 2.002.89 0 1.557 1.112 6.004 2.669 4.448 1.779 6.672 1.779 9.563 3.113 2.891 1.334 2.002.445-.222-1.112-2.447-1.557-2.002-.89-4.226-2.446-2.223-1.335-5.115-2.224-6.449-2.891-1.334-.445 1.334 1.112-2.669-.445-4.225-1.557-2.446-.667-4.892-2.002-2.446-1.334-2.446-1.556-3.781-2.001-1.556 0-1.779.222-1.779.222zm33.358 13.344c-1.112-.223-3.113-.445-2.001 0 1.112.667.445.444 3.78 1.334 3.336.889 6.005 1.557 6.227 1.334.223-.222-.667-.222-2.001-1.112-1.557-.667-1.112-.222-2.891-.667-2.002-.222-3.114-.889-3.114-.889zm11.564 3.78c-2.223-.667-1.779-.222.223.667 1.779.89 3.558 1.557 4.67 1.779 1.112.223 1.334 0 3.558.668 2.224.667 3.114.889 5.115 1.556l1.779.445s-.222-.222-1.557-.667c-1.334-.445-2.223-.667-3.558-1.112-1.334-.445-3.335-.445-4.225-.89-.89-.444-2.891-1.334-3.336-1.334-.222 0-.222-.445-2.669-1.112zm13.121 6.005c-1.334 0-1.334.222-1.112.889.445.667.223.667.223.667s2.224.667 3.558.223c1.334-.445 1.334-.445 2.891-.223 1.557.223 3.113-.222 3.113-.222s-1.334-.222-2.891-.89c-1.556-.667-2.891-.667-3.335-.444 0 0 .889.444-2.447 0zm-12.676-4.003c-2.001-1.335-3.558-1.779-3.336-1.335 0 .445-1.334 0 1.335 1.112 2.446 1.335 4.892 2.669 4.447 2.002-.667-.667-1.779-1.112-2.446-1.779zm-26.019-31.579c-.667.444 1.112.667 0 .889-1.112.223-2.224-.445-3.113.223-.89.444-2.669.444-3.336.667-.667 0-3.336-.445-4.226.222-.889.445 1.112 1.557 1.112 1.557s-.667 0-2.891-1.112c-2.224-.89-2.446-1.557-2.446-1.557s-1.334-.445-1.779.445c-.445.89-.667.89.889 2.002 1.78 1.111-.667.444-.222.889.445.667.89 1.334 1.779 1.779.89.445.89-.222 2.224.89s1.334 2.891 2.669 3.336c1.334.444 2.224.444 3.558 1.111 1.334.668 2.224 1.112 3.781 1.335 1.334.222 3.335.889 4.225 1.556.889.445 4.003 2.002 5.56 2.447 1.334.445 1.779.667 1.556-.445-.222-1.112-.889-2.224.445-2.446 1.334-.223 1.334-.223 1.112-1.112-.223-.667-.667-1.557.222-2.002.667-.445 1.779 1.112 2.224.445.223-.445.89-.222.445-.667-.445-.445-2.002-.89-2.891-1.779-.89-.89-.222-.89-1.557-2.224-1.334-1.334-1.556-1.112-.667-1.557.667-.445 1.557-.222 1.334-.667 0-.445.223-.445 1.335-.445 1.112 0-.223-.222-1.779-1.112-1.335-.889-4.448-3.335-6.005-3.78-.889-.445-3.113.667-3.558 1.112zm134.989 138.992c-2.669-2.002-1.779.222-.89 1.779.89 1.779 1.779 3.113 3.114 4.892 1.334 1.779 5.115 4.003 6.227 4.226 1.112.222 1.556-1.112 2.446-2.224.889-1.112.889-2.669.222-3.781s-1.779-.222-2.668-.222c-.89-.223-2.224.222-4.448-1.335-2.224-1.556-2.891-2.668-4.003-3.335zm-65.16-102.298c-1.779-.445-3.335-2.002-5.782-4.448-2.446-2.669-3.78-3.336-7.338-4.003-3.559-.667-3.114-.667-.223 1.112 2.891 1.556 3.336 2.001 3.781 2.001.445.223 4.448 2.002 3.78 2.002-.667 0-4.225-1.112-1.556.889 2.668 1.779 1.556.667 8.45 5.115 6.894 4.226 7.339 3.336 10.23 6.449 3.114 3.336 2.891 2.891 1.557 2.891s-3.114-.222-2.224.223c.89.445 2.669 1.334 6.894 3.113s.89 1.779 5.56 3.781c4.67 2.001 5.337 1.557 6.671.889 1.112-.667 2.002.223 6.005 2.447 4.225 2.223 6.449 5.115 11.786 8.228 5.338 3.113 7.784 5.337 4.003 2.001-3.78-3.335-5.559-5.114-10.674-9.117-5.115-4.003-5.338-4.226-7.339-6.45-2.002-2.224-6.894-5.782-12.231-8.895-5.338-3.114-8.006-4.448-14.011-7.561-6.004-3.336-5.559-.223-7.339-.667zm-35.137-18.459c-1.556 0-2.001-.444-3.558-1.334-1.557-.889-.445.667-4.003-1.112-3.336-1.779-4.67-2.668-7.339-2.224-2.668.223-.444 1.557 0 2.447.223.889-1.112 2.891-1.779 3.558-.667.667-.444 1.112.667 2.001 1.112.89 2.002 1.112 2.669 1.557.667.445 1.112 2.891 1.112 3.558-.222.667 1.779 1.557 3.558 2.002 1.779.444 0-.223-.222-1.112-.445-.89.445-1.112-.445-2.669-.667-1.779-1.112-2.446-1.112-2.446s.445 0 1.334.889c.89.89 2.669 2.891 3.781 4.003s2.224 2.002 3.336 2.002c1.112-.223 2.001-.445 2.001-.445s-2.668-1.334-2.891-1.779c-.222-.445.668-.445-1.779-2.891-2.446-2.224-3.336-2.669-1.334-2.002 2.224.668 1.557-.667 2.669-.444 1.112 0 3.113.889 3.113.889s-1.557-1.334-3.558-1.557c-1.779-.444-3.558-.889-5.115-.889-1.557 0-2.891-.222-3.558-1.334-.667-1.112-1.112-1.335-1.335-2.669-.444-1.334 2.669.667 4.67.89 1.78.444 1.78.444 6.227 2.001 4.448 1.557 4.448 1.112 5.338.667.889-.667 1.112-1.557 1.112-1.557s-2.002-.222-3.559 0zm8.673 0c.223-.222-2.446.223-3.113.445-.445.223.445.89 1.112 1.557.667.667 1.334 2.446 1.779 2.891.445.445 2.446 1.557 2.446 1.557s-.667-1.335-.222-1.557c.445-.222-.445-1.334-.89-2.224-.444-1.112-1.556-1.779-1.112-2.669zm-2.223 8.451c-3.114-1.557-4.003-1.557-3.559-.667.445.89.223 1.112 3.336 2.224 2.891.889 6.005 1.334.223-1.557zm5.337 1.334c-.667-.222-.89.89 0 1.78.667.889.889.667 2.446.889 1.557.445.89-.445 2.891.222 2.002.668 6.449 3.114 6.449 3.114s.667-.222-3.113-2.669c-3.558-2.224-5.115-2.668-8.673-3.336zm-72.276-55.819s-2.669-.667-3.113-.889c-.445 0-1.112.222-1.779.222-.668 0-.445.223.222.89s1.557.889 2.891 1.334c1.334.445.667 0 1.557 0 .889 0 .889-.222 1.112-.667 0-.445.667-.445.889-.445.223 0-1.112-.889-1.112-.889 0 .444-.667.444-.667.444zm33.136 11.342c-1.335-.667-1.112.445-1.112 1.112s0 1.112.667 1.779c.89.667.667.89.667.89-.667-.445-1.112-.668-1.779-1.112 0 0 0 .667.222 1.112.223.667 0 .667 2.002 1.779 2.001.889 2.446.889 3.113 1.779.445.667.667 1.112 2.002 1.557 1.334.444 2.668 1.111 3.336 1.779.667.667-.223-1.112.667-.668.889.445 2.001 1.112 2.891 2.002.889.667 1.779 1.112 1.779 1.112s-2.002-1.557-1.334-1.557c.444 0 .667 0-1.112-1.112-1.779-.889-2.891-1.334-4.226-1.779-1.334-.445-.889 0-2.446-1.334-1.557-1.557-1.112-2.002-1.112-2.224-.222-.222.89.667 1.112 0 .222-.667.222-1.112-.222-2.002-.445-.889.444-.889-.445-1.111-1.335-.89-4.003-1.78-4.67-2.002zm21.571 20.237c.445.667-1.112-.444-1.556-.222-.223.222-.668 0-1.335 0-.667 0-2.224.222-2.224.222l-.222-.667c0-.222-.89-1.112-1.334-.667-.445.222-.667.445-1.779.445-1.112 0-1.78.222-1.557.667.222.667 1.112.889 1.112.889s.445 0 .889-.444c.445-.445.667-.445 2.224 0 1.557.444 1.335.444 2.002.889.667.667.667 1.112.889 1.779.223.445.445 1.112 2.224 2.002 1.779.889.89.222 2.224.667 1.334.445 1.334.445.89 0-.445-.445-.89-.89-1.335-1.557-.222-.445.445-.445.667-.445.223 0 .668.668 1.335 1.335.667.667.889.667.889.445 0-.445 0-1.335-.444-1.78a12.66 12.66 0 0 1-.89-1.556c-.222-.445-1.112-1.335-1.557-1.557-.445-.222-2.224-1.334-2.224-1.334s.667.222 1.112.889zm-8.673-6.004s-.222-.445-1.779-1.557c-1.557-1.112-1.779-1.334-3.78-2.224-2.002-.889-4.004-1.112-2.669.223 1.334 1.334 1.779 1.556 3.336 2.224 1.779.667 2.446.444 2.446.444s.222.223-1.112.223-1.112.889.445 1.779c1.334.889 1.779 1.334 2.224 1.334.667 0 .667-.889 1.779-1.334 1.112-.223 1.112-.445 1.112-1.112-.223-.667-.667-1.334-.667-1.334-.445.889-.89 1.111-1.335 1.334zm2.446-1.112c-.222 0-1.334-.445 0 .445 1.335.889 2.447 1.334 2.447 1.779 0 .445.222.445-.445.222-.667-.222-.89-.445-1.112-.445-.222 0-.222.223 0 .445.222.223.222 0 .89.667.667.667.667.667 1.111 1.335.445.667.668.444.668.444s-.668-1.334-.668-1.556c0-.223-.667-.89.223-.445.889.445.889 1.112 1.112.667.222-.445-.445-1.112-.89-1.779-.444-.667-1.334-.89-2.224-1.112-.889-.445-1.112-.667-1.112-.667zm-14.677-2.891c-.445 0-.667 0-.445.889 0 .668-.667.89-1.334 1.112-.667.223-2.669.668-2.669.89 0 .222-.222 0 1.557.222 1.779 0 2.891 0 2.891-.667s-.445-.222 1.112-.222c1.557 0 .667-.223.445-.89-.445-.667-.89-1.112-1.557-1.334zm111.861 64.714c.222.89 1.111 1.557 0 1.557-1.112.223-2.669-.667-4.226-1.112-1.557-.445-.445-.445-2.446-1.334-2.002-.89-2.446-.89-1.112 0 1.112 1.112 1.112 1.557 4.003 2.669 2.669 1.112 4.67 1.112 6.227 1.556 1.557.445 1.112-.667.889-.889 0-.223-3.558-3.558-3.335-2.447zm8.895 5.783c1.112 1.111.667.889 2.224 2.223 1.334 1.557 3.113 2.447 4.448 3.114 1.334.889-.223-.223-1.335-1.557-1.334-1.112-1.556-1.779-3.113-3.113-1.779-1.112-4.226-2.669-2.224-.667zm-125.649-91.402c-3.113 0-4.892-.444-2.668 1.335 2.224 2.001 3.558 2.891 3.78 3.336.445.444.89 0 1.335-.89.444-.889-.223-2.446 0-2.669.222-.222-1.335-1.112-2.447-1.112zm33.136-34.025c.667.667 1.779 2.002.89 1.779-.89-.222-.89.445-.668 1.112.223.667.445 1.557 1.557 2.447 1.334.889.667.667.89 1.334.222.445 1.334 2.001 1.334 2.446 0 .667-.222.667.445 1.557.667.889.667 1.112 1.334 2.224s1.112 2.224 1.557 2.668c.445.445.445 0 .889 0 .223 0 1.779.445 2.891 1.112l1.112.667s1.557.668-1.334-1.779c-2.891-2.446-2.891-2.223-3.558-3.558-.445-1.557-.223-1.334 1.556-.889 1.78.444 3.336 2.001 3.781 2.224l-1.557-1.557c-1.112-1.112-2.001-1.557-2.891-2.891-.889-1.112-2.224-2.446-3.335-3.114-1.112-.667-.89-1.112-.89-1.334.222-.222 0-.89-.667-1.779-.667-.89-1.779-2.002-2.224-2.446-.445-.445-1.112-.223-1.112-.223-.445-.222-.222-.222 0 0zm8.895 17.569c.445.667.89 1.112.445 1.557-.444.444.223.667.223 1.334s-2.669-.89-2.447-.667c0 .222.223.667-.222.667s-2.224-.445-1.334.445c1.112 1.112 2.668 2.224 2.668 2.224s.89-.223 1.112 0c.223 0 1.112.222 1.112.222s-.222-.222-1.779-.89c-1.334-.667-1.557-1.334-1.557-1.334 0-.222 1.78.667 2.669.89.89.222 1.779.222 3.114 1.112a79.97 79.97 0 0 0 3.335 1.779s-.222-.668 0-.89c.223-.222 2.002.445 3.559.89 1.556.222 2.668.667 1.779 0-.668-.445-1.112-1.335-1.779-2.002-.668-.667-1.335-.445-2.002-.667-.667 0-1.779-.667-3.113-1.334-1.335-.667-4.003-2.669-5.115-3.559.222.223-1.112-.444-.668.223zm-.444 6.449c-.445 0-.667.445-.223 1.112.445.89 1.335.445.89 2.224-.445 1.779-.89 2.001-2.224 2.001s-2.891-.444-3.558-.889c-.667-.445-.223-.667.222-.667s-1.556-.667-2.224-.89c-.667-.222.223.445.445.89.223.444-.889.889-.445 1.334.445.445.445.667-.444.445-.89-.223-2.002-.89-2.224-1.112-.445-.223-1.779-.445-3.781-.89-2.001-.444-2.224-.444-2.669 0-.444.445-2.446 0-3.78-.222-1.334-.222-.222 1.112-1.557.889-1.334-.222-1.112.445-.889.89.222.445 1.112.445 1.112.445.222 0-.223-.667.889-.223 1.112.445 1.112.445.89.89-.223.445-.445.667-.667.889-.223.223.444.668 1.556 1.557 1.112.667 1.557.445 2.669 0 1.112-.222 1.334-.445.667-1.557-.667-1.111-1.334-1.334-2.669-2.001-1.334-.667-1.556-.445-.444-.89.889-.222 2.001.668 2.668.445.667 0 2.891.667 4.893 1.112 2.001.445 3.78.667 4.003 1.112.222.445 1.556 1.779 1.779 2.002.222.222 1.334.222 2.446.444 1.334.223 0-.444-.445-.889-.444-.445.223-.445.223-.445s1.112.89 3.113 1.112c2.002.222 2.002 0 2.669.445.667.222 1.112.667 2.001.667.667 0 1.112.445 1.112.445 0 .222 2.446.444 2.891.444.445 0 .223 0-.445-.889-.667-.89-1.556-1.334-1.556-2.224-.223-.89-.223-1.112-.445-1.779-.222-.667.222-.445.445-.445.222 0-.223-.889.222-1.112.445-.222.223-.445-.445-1.556-.667-1.112-1.556-1.335-2.223-2.002-.445-.667-.445-1.334-.445-1.334s-2.224-.445-2.224-.223v.223s-1.112.222-1.779.222zm-9.341 6.449c-2.446-.667-4.225-1.112-5.559-1.334-1.335-.222-1.557 0-.89.89.667.889 1.557 1.779 2.002 2.223.445.445 1.112.445 2.224.445s.667-1.112 2.001-.667c1.334.445 1.334 1.112 2.446.667 1.335-.445-.222-1.112-.444-1.557-.223-.667-1.78-.667-1.78-.667zm116.531 1.335c-2.668-1.335-3.558-2.002-3.336-1.557 0 .445 0 .445 1.557 1.334 1.779.89 2.224.89 4.003 2.002 1.779 1.112 2.224 1.334 3.336 1.779 1.112.445 1.334.222 1.334.222s-4.892-2.891-6.894-3.78zm-40.252-30.467c-.889-.223-1.779-.89-.889.222.889 1.112 1.556 1.334 4.225 2.224 2.669.889.667.222 4.225 1.557 3.781 1.334 4.226 1.334 4.226 1.334s-.89-.667-2.447-1.779c-1.556-.89-2.668-.89-5.782-2.224-2.891-1.112-3.558-1.334-3.558-1.334zm-94.292-42.476c.222.222 4.67 2.224 6.227 2.891 1.557.667 2.446.889 5.337 1.556 2.891.668 2.669.223 2.891.223.223-.223-1.556-.667-3.558-1.334-2.001-.668-3.336-.89-4.225-1.335-.667-.445.889 0-1.112-.667-1.779-.667-2.002-.445-2.446-.667-.445-.223-.668-.445-1.557-.667-.89-.223-1.779-.223-1.557 0zm-13.565-2.224c-1.112-.223-.89 0 .889.889 1.779.89 1.334.668.89.89-.445.222 0 0 2.446.889 2.446.89 3.78 2.002 5.115 2.447 1.334.445 2.224.667 2.224.667s-.89-.667-2.447-1.779c-1.779-1.112-4.447-2.002-5.337-2.669-1.112-.889-2.001-1.112-3.78-1.334zm11.786 1.112s-2.224-1.112-5.56-2.446c-3.335-1.557-4.67-2.002-5.559-2.224-1.112-.223-.667.222-.667.444-.223.223-.445 0-2.224-.667-1.779-.667-3.559-1.556-5.115-2.001-1.557-.445-2.224-.223-3.558-.223-1.335.223-.223.668 2.668 2.224 2.891 1.557 3.781 1.779 5.337 2.002 1.557 0 .89-.223 2.224.222 1.335.445 5.338 1.334 5.56 1.334.222 0 .445.89 2.001 1.112 1.78.223 3.336.668 4.004.445.444-.222.889-.222.889-.222zM713.025 60.31c-.445 0-3.781-.445-4.893 0-1.334.445-2.668-.223-3.335.222-.668.445-1.112.89-1.112.89s1.779.667 3.335.89c1.557.222 4.448.889 6.45 1.778 2.001.89 3.113 1.112 6.894 1.78 3.78.89 2.224.667 4.225.89 2.002.221 4.67.889 4.003.444-.667-.445-1.334-.667-1.334-1.334 0-.445 1.779-.223-.668-.89-2.223-.667-3.558-.667-3.558-.667s1.779 0 .89-.223c-.667-.222-4.225-.667-4.893-1.334-.667-.667.668-.445 1.335-.445.667 0 .444 0-1.779-.89a922.425 922.425 0 0 1-5.115-1.556c-1.112.222 0 .222-.445.445zm21.127 7.339c-1.335-.223-2.447 0-2.891.444-.667.223-2.002.667-2.891.667-.89 0-.668.223 1.334.668 1.779.445 4.448.445 5.337.667.89.222 1.779.667 4.448 1.112 2.669.445 6.672.89 4.448.222-2.224-.89-1.335-.445-4.003-1.334-2.447-.89-5.338-1.557-5.338-1.557s4.226.222 3.114 0c-1.334-.445-3.558-.89-3.558-.89zm-118.533-20.46c-2.446 0-1.556.222-3.113.445-1.557.222-.445.445 3.113.445 3.559 0 3.781 0 6.005-.223 2.224 0-2.224-.89-6.005-.667zm6.45 2.224c-2.447.222-1.557.445-.89.89.667.222 2.446 0 2.891.444.667.223.667.223 2.891 0 2.224-.222 1.334-.222.223-.667-.89-.89-1.112-.89-5.115-.667zM608.281 48.3c-1.557.222-1.557 0 0 .445 1.556.222 5.337.667 7.116.444 1.779-.222 1.557-.222-.667-.444-2.446-.223-4.67-.445-6.449-.445zm-22.906-.222c2.446 0 4.67 0 6.671.222 2.002.222 1.335.667-2.223.445-3.559 0 .444.222 2.891.444 2.446 0 .667-.667 2.891-.667h6.004c2.446-.222-1.557-.667-4.67-.667-2.891-.222-4.003-.222-6.449-.222-2.447-.223-4.448 0-7.117 0-5.115 0-.444.222 2.002.445zm19.347 1.111c-2.223-.222-7.116 0-2.891.223 4.448.445 4.003.445 5.782.445 1.78-.223-.667-.667-2.891-.667zm15.123 1.112c-3.114-.444-3.114-.444-5.56-.444-2.446-.223-3.113.222-1.557.444 1.557.223 2.669.223 3.781.223 1.334 0 1.112 0 .222-.223-.667 0 5.115.223 3.114 0zm12.453 0c-2.223 0-2.446 0-2.446.223-.222.222.445.222 2.891.222h5.115c1.557 0-.667-.89-.667-.89s-2.224.223-2.669.223c-.889 0 .445.222-2.224.222zM445.049 92.334c-1.335 1.334-3.559 2.001-1.112 1.556 2.668-.445 5.115-1.779 4.892-.89-.222.89-2.668.89-2.001 1.78.667.89.222.667 4.447.667 4.226 0 .89.222 1.78.89.889.667 1.779.89.667 1.334-1.112.222-4.448-.445-4.67 0-.223.445.444.667 1.112 1.334.667.445-.668.89-3.114 1.557-2.446.667-.445.667 1.557.445 2.001-.223 6.671-.89 6.004-.223-.889.667-3.113.223-4.892 1.335-1.779 1.112-8.006 2.446-4.67 2.223 3.113-.444 2.668-.667 12.231-1.779 9.563-1.112 2.891-.222 9.118-1.334s4.225-1.112.889-.667c-3.558.445 2.224-1.334 1.557-2.446-.667-1.112-3.113.222-4.448-.445-1.334-.667-1.112-.89 1.557-.89s2.446-.445-2.891-1.112-2.002-.667-4.448-1.556c-2.446-.668-6.449-.223-6.449-.223s1.779-.445 2.891-1.334c1.112-.667 1.334-.667 2.446-1.557 1.112-.89-1.112-.667-3.78-.222-2.891.445-3.781.667-3.114.222.667-.444 1.112-.667 2.224-1.112 1.334-.445 1.557-.89-.889-.445-2.447.445-2.669.445-4.893.89-2.669.223-.667.667-2.001 2.002zm-6.894 3.335c-4.226.89-3.114 1.112-2.447 1.335.668.222 2.002-.445-2.001.667s-4.225 2.001-2.224 2.001c2.002 0 1.779-.667-.445 1.112-2.446 1.557-4.003 2.891.667 2.002 4.671-.89 6.005-1.779 8.229-2.002 2.224-.222 2.668-.89 2.668-1.779 0-.89-1.334-.667.445-1.556 1.779-.89 2.002-1.557-1.334-1.78-3.558 0-.89-.444-3.558 0zm54.262 16.679c-.222.223.222.89-1.557 1.335-1.779.444.89.667 1.557 1.112.667.444 1.334-1.335 1.112-2.224-.222-.667-.445-.89-1.112-.223zm-.889 3.336c-2.891.667-3.114 1.112-3.559 1.779-.444.89 2.447 0 1.779.89-.667.667 0 1.112 3.114.222 3.113-.889 1.334-1.334 1.779-2.224.445-.889.667-1.556-3.113-.667zm46.478 7.784c-2.668 0-3.78.444.89.667 4.448.222 6.672.222 8.228 0 1.557-.223.223 0-2.001-.667-2.224-.445-3.558 0-7.117 0zm25.352.667c-3.78-.445-2.446 1.334 1.335 1.112 3.78-.223 2.224.222 3.78-.89 1.557-.889-1.334.223-5.115-.222zm-90.511-5.56c-2.891.223-3.113.667-.89.667 2.224 0 2.002-.222 3.336-.667 1.112-.222-1.334-.222-2.446 0zm-169.236 5.338c-1.78.889-4.003 2.001-7.117 4.225-2.891 2.224-2.668 2.001-5.337 3.558-2.669 1.557-1.334.89 5.782-.222s6.449-.445 8.228-1.112c1.779-.445 2.002 0 1.779.445-.222.667 1.557-.001 2.669-1.112 1.112-1.112 0-2.447-1.112-2.891-1.112-.668-1.557-.445-4.003.222s-1.557.222-2.224-.445c-.667-.445-2.224.445.223-1.112 2.001-1.556 2.891-2.446 1.112-1.556zM88.34 193.52c-.667 1.112.667 2.001 2.224 1.779 1.334-.223 1.334-.445 1.112-1.335 0-.889.445-1.334.667-2.001 0-.667-3.78 1.112-4.003 1.557zm8.228.889c.445 0 1.112.445 3.336.223 2.002-.223 2.669-.445 4.893-1.112 2.446-.668 3.78-1.779 2.446-1.779-1.334 0 0-.668-2.669.444-2.891.89-3.558 1.335-4.67 1.557-1.334 0-4.003.667-3.336.667zM39.86 211.755c-1.78.668-2.447 1.112-4.003 2.224-1.557 1.112-2.224 1.779-1.78 2.224.445.222.223.222 2.002-1.334 2.002-1.557 1.334-1.112 3.336-2.446 2.224-1.335 2.001-1.557 2.001-1.557s-.444.445-1.556.889zm.222-1.112c-1.557 1.112-2.002 1.557-.667.668 1.557-.89 1.557-1.112 2.446-1.557l1.334-.667s-1.556.444-3.113 1.556zM6.724 225.988c-2.002 1.334-3.113 1.779-2.446 1.557.89-.223 2.001-.667 3.113-1.334 1.334-.668 2.002-1.112 1.78-1.112-.223 0-.223-.223-.223-.445.222-.445-.223 0-2.224 1.334zm620.46-23.795c-2.002 2.446-7.562.667-11.342 2.446-4.003 1.779-3.336 1.112.222 4.225 3.781 3.114-2.224 2.447-3.113 5.782-.89 3.336 2.224 2.891 4.447 6.005 2.224 3.113 2.892 2.224 6.227 2.224 3.114-.223 5.338-.667 5.338-.667s0-2.669 1.556-6.227c1.335-3.558 2.447-6.227 2.447-8.451 0-2.446 0-4.003 1.112-3.113 1.111.889 1.334.889 1.111-.223-.222-1.112-2.223-4.448-4.225-5.337-4.003-2.224-1.779.667-3.78 3.336zM600.719 70.984c-2.668 0-4.002.445-1.779.89 2.002.222 1.779.222 5.115 0 3.114-.222-.667-.89-3.336-.89zm46.035-11.119c-1.112-.445-1.78 0-10.675.445-8.895.445-9.34-.667-17.346.89-8.228 1.556-6.449 1.334-6.449 2.668-.223 1.334-2.447.445-2.891 1.557-.445 1.112-5.115.89-2.447 2.001 2.669 1.112 5.782 1.78 10.675 2.669 4.892.667 6.227.445 5.115.222-1.112-.222-5.338-2.224-5.115-4.225.222-2.002 2.669-1.334 4.448-2.002 1.779-.667 6.671-2.001 9.785-2.446 3.113-.222 11.786-.445 16.234-.445h.445c2.891-.89-.89-.667-1.779-1.334zm-21.127 10.897c-1.112 0-1.557 0 .667.667 2.224.89 4.225 1.334 3.336.445-.89-.667-2.891-1.112-4.003-1.112zm32.024-2.891c-1.557-.445-2.447-.667-2.669-.445-.223.223 2.001 1.112 4.003 1.334 2.224.445.222-.667-1.334-.889zm-372.943 64.047c-2.224 0-4.67.223-6.227.668-1.557.444 0 .667 2.446.444 2.446 0 5.115-1.112 3.781-1.112zm-7.339 5.56c.445-.889-1.779 1.334 0 1.334s2.669-.222 4.003-.889.222-.223-1.334 0c-1.78.222-3.114.222-2.669-.445zm710.749 38.473c-2.669-1.112-4.893-2.446-4.893-2.446s.667 1.112.222 1.334c-.444.223.445 1.112.445 1.112s-3.113-1.779-4.892-2.891c-1.779-.89-3.114-1.334-4.893-2.891s-4.448-2.669-6.449-3.558c-2.224-.89-2.446-2.002-2.446-2.002l-1.335-.444c-1.334-.445 0 1.111-1.334.889-1.334-.222-6.449-2.001-6.449-2.001s4.225 2.668 5.56 3.78c1.334 1.335 3.335 2.891 3.335 2.891s0 .445-4.447-1.779c-4.448-2.001-3.559-1.112-7.339-2.001-3.781-.89-8.006-1.557-8.896-1.557-.889 0-1.112-.222-5.337-2.224-4.225-2.001-4.448-1.334-5.115-1.334-.889-.223-1.334-1.335-1.334-1.335s-1.335-.444-2.891-.667c-15.123-2.446-2.891 2.002-2.891 2.669.222 1.112.222 1.557.222 2.669-.222 2.891-3.336.222-3.78 2.446-1.112 7.339-12.232-5.56-13.788-8.229-.89-1.556-2.891-3.78-1.112-3.558 15.122 2.447 1.334 0 14.455.667 4.225.223.667-1.779 1.556-2.001.89 0 2.669.445 2.669.445l-2.891-1.112c-2.891-1.112-2.891-.89-4.448-.667-1.556.444-3.113 0-3.336-.89 0-.667-.667-1.557-2.001-1.779-1.334-.222-2.224-.445-5.115-1.334-3.113-.89-6.004-1.335-7.783-.667-1.779.667-.223 1.111.889 1.779 1.112.667-4.448-1.335-7.339-2.224-2.668-1.112-1.556-.667 0-.445 1.335.222-2.668-1.334-6.449-2.669-3.78-1.556-2.001-.444-3.78-.667-1.779-.222-2.224-.889-3.336-1.334-1.112-.445-5.782-2.002-9.118-3.336-3.336-1.112-2.891-.89-3.558-.667-.667.222-5.338.667-7.117 1.112-1.779.445-4.892-.223-7.338.222-2.224.445-2.891.223-.223 1.112 2.446.89 2.891.89 3.781 2.002.889 1.112 2.224 1.779 4.892 2.668 2.669.89 2.002.89 2.002.223 0-.668-1.779-2.002.889-.668 2.669 1.557 4.671 2.669 6.005 4.003 1.334 1.335.889 2.002.889 3.336 0 1.557 1.112 4.226.445 5.115-.667.89-1.334 1.557-2.224 2.669-.889 1.112-7.116 2.446-8.895 2.224-1.779-.223-2.891-.667-4.226-1.779-1.334-1.112-2.001-1.112-3.558-.89-1.779.222-2.446.445-2.446 1.779 0 1.112-2.001.667-3.336 1.112-1.334.445-2.001.222 0 1.779 2.002 1.779 5.115 3.781 6.227 5.115.89 1.334.445 2.669 0 3.336-.445.445-4.893-.445-4.893-.89 0-.444-1.112-2.224-1.779-3.335-.667-1.112-2.446-1.557-2.001-1.78.445-.222 2.669 0 .445-1.334s-3.114-1.112-4.448-2.224c-1.334-1.112-.445-1.556-1.112-2.001-.667-.445-2.001-1.112-4.67-2.002-2.669-.889-2.669.223-3.781-1.112-1.112-1.112-.444-1.112-1.779-1.779-1.334-.667-2.224-.667-4.67-.445-2.446.445-3.113 0-5.56-.222-2.223-.222-2.223 0-1.334.667.89.667 3.781 2.891 5.782 3.558 2.002.668 2.891.445 5.56 1.335 2.668.667 3.336 1.112 2.891 1.334-.445.222-2.002.222-4.67.89-2.669.667-1.779.667-.223 1.556 1.335.89 3.558 2.224 5.338 3.781 1.779 1.557.889 1.779 1.112 2.446.222.667.444 1.779 3.335 3.558s1.112.89 1.112 1.335c0 .444-2.224 2.668-3.113 3.78-.89 1.112-.89 1.335-5.56 1.779-4.892.445-7.338-.222-10.23-.667-2.891-.667-5.559-.889-6.894-.889-1.556 0-.444.667-.444 1.112 0 .444-1.779-.445-1.779-.89s-.445-1.112-1.335-1.334c-.889-.445-3.558-1.557-5.56-.89-2.001.445-5.114-.222-5.559 1.112-.445 1.334-.445.667.889 1.779 1.335.89 8.229 5.115 10.23 6.894 2.002 1.779 2.669 2.891 3.558 4.67.89 1.557-4.67 2.891-7.116 3.114-2.446.222-2.669.889-2.891-.445-.222-1.334-2.224-2.669-4.892-4.448-2.669-1.779-9.341-4.225-10.675-4.67-1.334-.445 0-.889-.667-1.112-.89-.222-2.891-.889-2.002.667.89 1.557-1.556.445-1.334 1.779.222 1.335.222 2.669 2.001 3.114 1.78.445 2.002 1.779 4.226 3.78 2.224 2.002 1.112.89 5.559 3.336 4.226 2.446 3.336 2.002 4.671 3.781 1.556 1.779 1.556 2.668 4.002 4.448 2.447 2.001 2.669 2.223-.667.667-3.335-1.557-6.226-3.336-8.006-4.448-1.556-1.334-3.335-4.003-4.447-5.337-1.335-1.335-6.672-4.003-8.673-5.338-2.002-1.334-1.335-1.779-1.112-3.335 0-1.78-1.779-3.781-2.669-5.115-.667-1.112-4.003-4.893-5.337-6.005-1.335-1.334-.89-1.112-2.002-.445-1.112.668-2.001.89-3.336.668-1.334-.223-3.335-.89-3.335-1.112 0-.445.667-1.557.222-2.224-.667-.667-2.669-2.891-4.893-3.781-2.223-1.112-4.67-2.446-6.449-4.225-1.779-1.779-2.001-1.334-4.003-1.112-2.001.222-7.338-.667-10.007-1.112-2.446-.445-.222.667-.667 1.112-.445.445-3.114.667-8.229 2.224-5.114 1.779-6.004 1.779-7.561 1.779-1.556 0-2.446-.222-2.001.889.445 1.112.889 2.002.889 2.891 0 1.112-.444 1.335-.889 2.002-.445.667-.667 1.779-.667 2.446 0 .667-1.112 1.112-2.891 1.557-1.78.222-1.78.222-3.114-.89-1.334-1.112-7.339-5.782-12.453-9.785-4.893-4.003-4.226-4.447-4.893-5.559-.667-1.112-2.669-6.672-2.669-7.117 0-.222-1.556.445-2.001.667-.445.445-.222.89-2.446.668-2.224-.223-2.669-.223-4.893-1.557-2.446-1.112-3.336-1.779-3.113-1.779.444 0 2.668.222 4.003.222 1.334 0 .667-.445.667-.445l-3.113-.444c-1.78-.223-1.112-.223-3.559-1.112-2.446-.667-2.891-.89-3.558-1.335-.445-.444-1.334-1.112-1.779-1.556-.445-.445-.667-.445-1.334-.89-.445-.445-1.557-.222-4.003-.445-2.447-.222-2.002-.222-4.893 0-2.891.223-3.336 0-6.894-.444-3.336-.445-6.004-1.335-7.783-1.78-1.78-.444-2.002-.444-4.671-.667-2.668-.444-2.223-.889-2.891-1.334-.667-.445-1.779-.667-5.114-.89-3.336-.222-3.336-.222-5.338-.667-2.001-.444-2.224-.667-3.78-1.334-1.779-.667-1.112-.222-2.224-.667-1.112-.445-2.224-.89-3.336-1.779-1.112-.89-.89-1.112-2.001-1.557-1.112-.445-.89-.445-3.781-.667-2.891-.223-1.557 0-2.001 0-.445 0-1.112.445-1.78.889-.667.445.89.89 2.224 1.557 1.335.667.223.445 2.224 1.557 2.002.889 1.334.889 2.891 2.001 1.557 1.335 2.446 1.557 2.891 2.002.445.445.445 0 .667-.445.223-.222-.444-1.557-.444-1.557s.667.445 1.334 1.335c.667.889.445.889.889 1.334.445.667 0 .445 2.447.667 2.224.222 3.78.445 6.227.222 2.446 0 3.335-.889 4.447-.889 1.112-.222.89-1.112 1.779-.89.89.223.223 1.112 1.335 1.779.889.668 1.112.445 2.891.89s2.446.667 4.225 1.112c1.779.445.667.445 1.779 1.112 1.112.889 1.112.445 2.002.889 1.112.445.667.223.222.89-.445.89-.445.89-2.001 1.334-1.335.445-1.557.223-1.78.223-.222 0-.889-.667-.889-.667s-.89.667-.667 1.779c.222.889.889.667-1.779.889-2.891.223-4.448.223-5.56.445-1.112.222-.89.89-1.557 1.112-.667.222-1.556-.222-3.336 0-2.001 0-1.334 0-2.891.445-1.556.444 0 .444-2.223.667-2.002.222-5.782.667-7.784.445-2.001 0-1.557.222-2.001.444-.445.223-.445.445-2.892.445-2.446 0-5.559 0-6.894.223-1.556.222-3.558.667-5.114.444-1.557-.222-1.112-.222-1.779-.889-.668-.667-1.112-1.112-1.335-2.002-.445-.889-1.557-2.446-3.113-3.558l-3.114-2.224c-1.556-1.112-2.891-2.001-4.225-2.446-1.334-.445-2.001-.445-2.669-.89-.667-.222-.444-1.334-1.334-2.001-.889-.89-1.334-1.557-2.446-2.002-1.112-.444-2.669-1.111-4.003-2.001-1.557-.89-1.557-1.112-3.781-2.669-2.001-1.556-2.891-1.779-4.225-2.668-1.334-.89-.445-.667-1.112-1.335-.445-.667-1.557.89-2.446 1.112-.89.223-1.335 0-2.224-.667-.89-.889-1.557-1.557-2.224-1.334-.445.222-.89.667 0 1.557.89.889 1.334.667 2.446 1.556 1.112.89 4.226 3.114 5.56 4.003 1.334.89.667.445 2.001 1.779 1.335 1.335 2.002 1.557 3.336 2.224 1.557.667 1.334.223 2.002 1.334.889.89.667 2.002.889 2.669.223.667 1.112.89 2.891 1.557 1.779.667.89.445 1.779 1.112.89.667 1.779 1.556 2.447 2.224.667.667 1.112 1.112 2.668 1.334 1.335.445 1.779.445 3.114.667 1.334.223.889.445 2.001.89 1.112.444 2.891 1.112 4.225 1.779 1.335.889.445.667.445 1.334s-.667.445.223.89c.889.444 2.446.889 4.892 1.779 2.446.889.445.222 2.669.445 2.224.222 2.446 0 4.67-.223 2.224 0 5.115-.222 7.783-.222h6.894c1.335 0 1.557.667.668 1.556-.89.89-1.112 1.78-2.002 2.669-.667.89-1.112.89-1.557 1.557-.444.667-4.67 3.113-5.337 4.003-.889.889-1.779 1.556-3.113 2.224-1.335.667-5.56 1.779-7.561 2.446-2.002.667-1.335.667-2.891 1.557-1.335.889-5.783 3.113-6.894 3.78-1.112.89-1.78 1.112-2.669 2.002-.89.889-3.336 2.001-3.336 2.668 0 .667-1.557.667-.445 1.335 1.335.667 2.002.667 2.447 1.556.444.667-1.112 1.557.222 2.891 1.334 1.335.445.445 2.224 1.557 1.779 1.112 2.001 2.002 2.224 3.558.445 1.557.889 3.336.444 4.448-.444 1.112-.889 1.779-1.556 2.669-.667.889-4.67 1.334-7.117 1.779-2.446.445-2.223.222-3.335.889s-4.226 1.779-5.115 2.891c-.89 1.112-1.779.89-1.335 1.557.445.667 1.557 1.557 2.891 2.891 1.335 1.334.445 1.112.445 2.224-.222 1.112 0 .889-.222 2.224-.223 1.334-3.336 1.334-6.672 1.779-3.558.667-2.224.222-2.446 1.334-.223.89.222 2.891.222 4.226 0 1.112-1.112.667-2.891 2.001-1.779 1.334-2.446 2.224-4.447 3.781-2.002 1.779-1.78 1.556-4.226 2.668-2.446 1.112-4.67 1.335-5.559 2.669-1.112 1.334-2.447.445-8.229 1.334-5.559.89-1.557.445-6.894.667-5.337.223-7.339.445-10.23.89-2.891.222-2.446 0-4.447-1.112-1.779-1.112-2.002-.89-2.891-1.779-.89-.89-.223-1.112-.668-2.669-.444-1.556-.667-1.556-1.779-2.446-1.112-.89-1.112-1.112-2.223-2.669-1.335-1.556-1.78-1.779-3.114-2.891-1.334-.889-1.779-.667-2.891-1.334-1.334-.667-1.334-1.112-1.557-2.001-.222-.89-.889-3.114-1.556-5.115-.668-2.224-.223-1.112-.89-2.002a28.92 28.92 0 0 0-2.669-3.113c-1.111-1.112-.889-.89-2.668-2.224-1.779-1.334-1.557-1.112-2.669-2.446-1.112-1.335-1.334-.668-1.334-1.112 0-.445.445-1.335.667-2.224 0-.89.667-1.779.89-3.114.444-1.334-.668-1.334.444-2.223 1.112-.89 2.224-1.78 2.891-2.669.668-.89.667-1.112.445-2.224 0-1.334-.222-1.112-1.112-2.001-.889-.89-1.112-2.224-2.224-3.781s-.889-1.557-1.112-2.224c-.222-.667-.889-2.001-1.556-2.669-.667-.889-.89-.444-2.447-.889-1.334-.445-.444-.223-1.779-.89-1.334-.444-1.112-.667-2.224-1.334-1.111-.667-1.334-.667-2.446-1.334-.889-.667-.445-.223-.445-1.557 0-1.112.89-3.558 1.335-4.67.444-1.334.445-1.334-.667-1.779-1.112-.445-2.002-1.112-2.891-1.335-.89 0-2.891.223-6.005.445-3.113.223-2.891-.222-4.225-.667-1.335-.667-3.114-1.334-3.558-1.557-.668-.222-1.557-.222-6.672.445-5.115.445-2.002.445-5.56.89-3.336.444-4.67 1.334-7.338 2.001-2.669.667-3.336.667-8.006.667-4.671 0-6.894 1.112-9.341 1.779-2.446.668-3.558.668-5.115.223-1.779-.445-2.668-.667-5.337-.89-2.668-.222-2.001-.667-4.448-.889-2.446-.223-1.779-.445-3.78-1.112-2.002-.667-2.224-1.557-3.558-2.224-1.335-.667-2.447-1.779-4.448-2.446-1.779-.668-3.558-2.447-4.448-2.891-.889-.445-1.557-.445-1.557-.668 0-.222 2.002-2.001 2.891-2.891.89-.889 1.112-.889 1.335-1.334.445-.445-.223-1.779-.89-2.669-.667-.667-1.334-2.223-1.779-2.891-.445-.667.445-.889 1.112-1.334.667-.445 2.446-1.557 4.448-3.113 1.779-1.557 2.891-2.224 3.78-2.891.89-.668 3.114-2.669 4.671-3.336 1.334-.667 4.892-2.002 6.449-2.446 1.556-.445 2.668-.668 2.891-1.112.222-.223 1.112-2.447 1.557-3.336.444-.89-.001-1.334 1.556-1.779 1.779-.445 4.448-1.335 5.782-1.779 1.335-.445 1.557-.89 2.447-1.557.667-.667 1.112-1.557 2.223-1.779 1.112-.445.668 0 2.224.222 1.335.223 1.557.223 2.224.223.667 0 1.334-.223 2.891-.445 1.557-.223 1.779 0 2.669 0 .889.222.445.222 3.336-.667 2.891-.89 5.115-1.335 8.673-2.224 3.558-.667 6.004-1.112 7.783-1.334 1.779-.223.89-.001 2.669.222 1.779.222 2.001.222 2.446 0 .445-.223 1.557-.89 2.446-.89h3.781c2.001 0 2.891 0 3.781-.222.889-.222 1.779-.667 2.001-.667.222 0 2.002.222 3.336.222 1.334.223 1.334.223 1.112.223-.223.222-.667.222-1.335.889-.667.667-.444.223.223.89s1.112.444.889.889c-.222.445-1.556.89-2.668 1.335-.89.444-.667.444 1.779.889 2.446.445 1.779.445 4.67.667 2.669.445 2.891.223 6.004.445 3.114.222 2.891.222 4.003.667 1.112.445 1.112.89 3.114 1.112 2.001.223 4.003.223 5.115.445s2.001.667 3.558.667 1.557.222 2.224-.222c.667-.445 1.334-.89.889-1.112-.222-.223-1.112-.445-.889-.667.222-.223 1.334-1.112 1.779-1.335.445-.222 1.334-.222 3.78-.445 2.447 0 4.003-.222 4.448.223.445.445.223.222 2.224.667 1.779.222 2.002.222 3.558.445 1.557.222.89.445 1.557.445h3.558c1.557.222 4.225.667 6.894.667 2.891 0 3.781-.223 4.225-.223.445 0 2.224-.889 3.559-.222 1.334.667 2.891.667 5.782.667s2.891-.222 3.558-.445c.667-.222 2.224-1.334 2.669-2.001.444-.667 1.779-2.224 2.001-2.891.222-.667-.222-1.334-.445-1.779-.222-.445 0-.667.445-1.112.445-.445-1.334-.223-2.224-.223-.667 0-.889-.222-1.556-.222-.668 0-1.335-.222-1.78.222-.444.445-.222.668-2.891.668-2.668-.223-2.224-.223-3.113-.445-.89-.445-2.446-.445-3.781-.667-1.112-.223-1.334-.223-1.334.222 0 .222 0 .445-.89.667-.889 0-2.891 0-4.67-.445-1.779-.222-2.224-.444-4.003-1.112-1.779-.667-1.556-.667-2.223-1.556-.89-.89-.89-1.779-.668-2.002.223-.222.668-.444-.444-.222-1.335.222-2.002.222-1.335-.445.667-.667 1.557-.667 2.447-.889h3.78c1.557 0 2.891-.223 3.558-.445.667 0 1.779-.223 1.112-.223-.667 0-2.446-.222-2.224-.444.223-.223.445-.223 1.557-.223h3.781c1.334 0 2.001 0 2.446-.222.445-.223.889-.667 1.779-.89.89-.222 2.001 0 4.67 0s2.224.223 3.114.445c.889.222 1.556.222 2.668.222 1.112.223.445.445 1.334.445.89.223 2.447.445 4.448.667 2.002.223.667.223 3.114.223h4.225c1.779 0 2.669-.223 3.781-.445 1.334-.222.222-1.112-.445-1.557-.667-.667-2.669-1.112-3.781-1.334-1.112-.222-3.113-1.112-4.447-1.557-1.112-.444-2.447-.444-3.781-.889-1.334-.223-3.558-.667-3.781-1.112-.222-.223.445-.223 2.224-.445 1.779 0 1.112-.222 1.334-.667.223-.223.445-.223 1.78-.445 1.334-.222-1.779-.667-2.224-.889-.445-.223.889-.223 2.446-.223 1.334 0 1.557-.222 1.557-.445.222-.222 0-.222-1.557-.444-1.779 0-3.781.222-6.672.222-2.891.222-1.556.222-3.113.667-1.557.445-1.779.223-1.557.445.223.222.445.445 2.224.889 1.779.445 1.112.445 1.557.445.445 0 1.779.223 1.112.223-.445 0-.89.222-1.779.222-.89 0-1.112.222-2.447.445-1.334.222-2.001.222-2.891.222-1.112 0-1.779 0-1.779-.667s-.444-.222-1.556-.445c-1.112-.222-1.557-.222-1.557-.222s1.112 0 2.001-.223c1.112-.222 1.557-.444 2.002-.889.445-.445-1.112-.222-2.446-.222-1.112 0-.89-.223-2.002-.223-1.112 0-1.779-.445-1.779-.445h1.557c.889 0 .667-.222 1.112-.222.444 0 .667-.222.444-.222h-4.67c-1.112 0-.667.222-1.556.444-.89.223-.89.223-1.335.445-.445.223-.667.223-.889.445-.223.222-.223.667-.223.889 0 .223-.222.445-.667.668-.445.222-.445.222-1.334.222-.89.222-.223.222-.445.667 0 .223-.445.445-.445.89s-.444.445-1.112.667c-.667.222-1.112.222-1.112.667 0 .222-.222.445.223 1.112.222.667.667.445 2.001 1.112 1.335.667 2.002.445 1.557.667-.445.222-.445.222-2.001 0-1.557 0-1.779 0-2.891.445s-1.335.667-2.002.667c-.667.222-.445-.222-.667-.445-.222-.222-2.891-.222-4.893-.445-1.779-.222-2.446-.222-2.891-.222-.444 0-1.112 0-3.113.445-1.779.445-1.334.667-1.334 1.112.222.445 1.779.667 1.334 1.779-.222 1.112 1.779.667 2.669 1.334.889.667.222.667-.445.667-.445 0-.89.668-1.335 1.335-.444.667.223.667-.444.667-.445 0-1.112 0-2.002-.445-.889-.445-1.779 0-1.779-.222-.222-.223-1.334-.667-.889-1.335.444-.667 1.111-.667-.445-1.112-1.557-.222-1.112-.444-2.002-1.111-.889-.668-.889-.89-2.446-1.335-1.557-.667-1.334-.445-1.112-1.112.445-.667.667-1.556-.222-1.779-.89-.445-4.67-1.557-7.561-2.001-2.891-.445-3.559 0-4.893-.89-1.334-.889-2.001-1.779-4.225-2.224-2.224-.445-1.112-.445-3.114-.222-2.001.445-2.001.445-2.001.667.222.222.667.445.445 1.112-.223.667-.668.445 1.556.89 2.224.444 1.335.222 2.447 1.111 1.111.89 1.334.89 2.223 1.335.89.222 1.112.667 3.336.667 2.224.222 1.779 0 2.447 0 .667.222-1.557.222-1.112.445.444 0 .889.222 2.668.667 1.779.445 3.781.667 4.226 1.112.444.222 2.223 1.557-.223.667-2.446-.89-2.446-.445-3.113.222-.667.668.667 1.112.667 1.557 0 .445-1.112.222-2.002.667-.667.445-1.112.89-2.001 1.112-.89.223-.667-.222-1.112-.222-.445 0-.667.222-1.334.667-.667.445 0 .667.222 1.112.222.667.667.667-.889.667-1.78 0-1.335-.667-2.892-.89-1.556-.444-2.446-.222-3.78-.444-1.334-.223.667-.445 3.78-.667 3.336-.223 3.781-.445 4.671-.668.889-.222.667-.444 1.779-.889 1.112-.667 0-.89-.89-1.557-.667-.667-2.224-.889-2.668-1.112-.445-.222-1.557-.445-2.669-.889-.89-.445-2.002-.445-3.558-.445-1.557 0-1.335-.667-2.224-.667-.89-.223-1.779-.667-4.003-1.112-2.002-.667-1.334-1.112-2.224-1.779-.89-.445-2.002-.89-4.003-.89-2.001 0-3.558.667-5.782 1.557-2.002.889-1.557 1.112-4.003.667-2.446-.445-3.336-.222-5.115.222-1.779.668-2.001 1.112-2.001 2.224s-2.002.667-3.781 1.112c-1.557.445-3.113 1.335-5.782 3.114-2.669 2.001.222.889-.445 1.556-.445.667.223 1.112-2.224 2.002-2.446.889-1.334 0-2.668.667-1.335.667-3.336 1.334-6.672 1.557-3.336.222-2.446.444-4.448.889-2.223.445-3.335.667-2.668-.222.667-.89.222-.89-4.003-.445-4.003.445-5.56.89-5.115.667.445-.222.667-.667 1.112-1.556.445-.89 1.112-1.112.445-1.112-.668 0-2.002.222-.89-1.335 1.112-1.556 1.557-1.779 1.112-2.668-.445-.89.222-2.002-.222-2.447-.445-.444 1.111-1.112.444-1.334-.667-.222-1.334-.445-.889-.445.445 0 2.668-.222 5.337-.222 2.669 0 5.56-.667 7.339-.667 1.557 0 5.115 0 8.451-.223 3.558 0 3.335-.444 3.113-2.224-.222-1.779.445-2.668-.667-2.891-1.112-.222-2.224-.222-3.114-.667-1.112-.445-.222-1.112-2.668-1.112-2.447 0-5.115.445-3.781 0 1.334-.222 1.779-.444.445-.667-1.334-.222-1.557-.667-.667-.667 1.112-.222 4.003-.445 4.003-.445s.222.445 1.779.223c1.557-.445 3.558-.668 3.113-1.112-.445-.223-1.112-.667-.889-.667.222 0 .889.444 4.003.222 3.335-.222 2.891-.445 2.668-.89-.222-.444 2.224-.667 3.781-1.112 1.557-.444-.667-.667-.223-1.112.445-.444 2.224-.667 5.56-.89 3.336-.221 2.669-.444 2.446-.444-.222-.222 0-.667.445-1.334.223-.667-.222-.89 1.335-1.335 1.779-.444 1.111-.222 4.67-.667 3.335-.222 1.334-.444 2.001-.444.667 0 4.67-.668 5.337-.668.668-.222.668 0 0-.667-.667-.445-1.556-.667-2.446-2.89-.667-2.225-.667-2.225 3.558-2.67 4.226-.667 3.114-.444 2.891.89-.222 1.335-2.224 1.335-2.446 2.224-.445.89 0 1.557 1.779 2.446 1.779.89 1.557.445 5.337.223 3.781-.223 2.892.222 5.56.444 2.446.223 1.557-.667 4.003-.89 2.446-.444 2.002.223 7.561-.222 2.224-.222 3.114-.222 3.114-.222s-.89 0-.223-.222c1.335-.223 1.557-.667 3.559-.89 2.001 0 3.335.223 3.113-.89-.222-.889-1.334-.889-.89-1.556.223-.667.445-.445.445-.89.223-.667-.222-.667 2.002-.89 2.446-.222.889.668 3.78.89 2.891.223 2.446.445 2.891-.444.445-.668 1.779-1.78.445-1.557-1.334 0-1.779 0-3.113-.667-1.557-.667-2.224-.89-1.335-.89.89 0 4.003-.222 8.229-.222 4.447 0 5.559.222 5.782 0 .222-.223-.668-.223.667-.667 1.334-.223 6.449.222 5.559 0-.889-.223-5.114-.668-8.005-.445-2.891.222-9.785.445-10.897.445s-3.114-.223-3.559-.445c-.444-.222-2.001-.222-2.223-1.112 0-.89.889-1.112-.668-1.78-1.556-.666 2.447-1.334 5.338-2.223 2.668-.89 2.001-1.557 3.558-1.557 1.779 0 2.224-.222 1.557-.667-.89-.222-4.003-1.112-5.338-1.112-1.556 0-3.78-.667-5.782.667-2.224 1.335.223 1.335.667 2.002.445.667-3.113 1.112-5.782 1.779-2.668.667-3.558.445-4.225 2.001-.667 1.557-1.557 1.557 1.557 2.002 3.113.445 3.78.667 2.224 1.334-1.335.445-4.226.445-6.005 1.78-1.779 1.111-.889 1.778-1.779 2.223-.667.445-3.113.89-3.558 1.335-.667.444-.667 1.556-3.336 1.334-2.891 0-1.334-1.334-2.669-2.002-1.334-.667-2.224-1.112-3.78-1.779-1.557-.667-.445-1.556-1.779-1.779-1.335-.445-1.779-1.112-1.779-1.112l-.445.445c-.445.445-.223.667-3.114 1.779-2.891 1.334-7.116 1.557-9.117 1.334-2.002-.222-1.78-.89-1.78-1.556 0-.89-.444-1.78 0-3.114.445-1.334 1.557-1.334 5.782-2.224 4.226-1.112 4.448-.89 5.338-1.556 1.112-.668 4.003-1.335 5.782-2.002 1.779-.445 4.67-2.446 6.227-3.78 1.556-1.335 4.447-2.224 7.338-3.559 2.669-1.334 7.784-2.668 14.233-3.558 6.449-.89 5.337-.89 6.672-1.556 1.334-.668 2.001-.223 4.67-.445 2.446-.223 2.224 0-.222.667-2.447.667-3.559 1.557-1.335.89 2.002-.668 3.558-1.335 6.894-1.335 3.336 0 2.002 0 5.338.445 3.335.445 3.78.445 2.001.89-1.779.444-4.892.222-4.892.222s1.111.667 4.225.89c3.113.222 4.67-.668 6.671-.223 2.002.445 2.669.667 0 .445-2.668 0-3.335.444 0 .89 3.336.444 3.781.444 8.229.666 4.448.223 6.449 1.335 10.007 1.78 3.336.444 7.339.222 6.449 1.111-.889.89 1.335 1.78-4.447 2.224-5.782.223-5.782-.222-10.675-.89-4.892-.666-8.451-1.111-8.451-1.111s1.335.445 3.781 1.334c2.446.667 2.669 1.335 2.669 2.447 0 1.111-1.112 1.556 2.891 2.223 4.003.668 3.335.445 4.67.445 1.112 0 3.113-.222 2.668-.222-.444-.223-.889-.667-2.223-.89-1.335-.222-1.557-.667-.223-.89 1.335-.222 2.446.223 5.337.223 2.891 0 0-.222 1.112-.667 1.335-.445 1.112-1.112 4.448-1.335 3.114-.222 6.894.445 7.561 0 .667-.444 1.557-.889-.444-1.556-2.002-.667-3.559-1.112-2.447-1.335 1.112-.222 3.114-1.111 4.226-.444 1.112.444 4.003 1.112.444.89-3.335-.223-.667 1.556 2.447 1.556 3.113 0 2.668-.222 5.115-.445 2.446-.222 6.894-1.112 10.229-1.334 3.336-.223 4.003 0 5.56.222 1.334.223 1.557.667 5.115.667 3.558 0 4.67-.222 8.228 0 3.336 0 0 .445 1.557.668 1.557.222 1.779.444 2.891.222s4.67-.222 2.891-.89c-1.779-.667-3.336-.89-3.336-.89s.89-.666 4.226-.444c3.335.445 8.673 1.78 12.231 2.891 3.558 1.112 8.006 2.891 8.006 2.891s1.112-.667-.445-2.001c-1.557-1.335-4.448-1.335-4.893-2.669-.444-1.112-3.113-1.112-2.446-2.001.667-.668 3.114-.89 3.558-1.78.223-.89.668-1.779 3.114-1.556 2.446.222 7.783 1.112 7.783 1.112s.445.89-.889 2.224 1.557 1.779 2.001 3.558c.223 1.779.223 2.001 1.779 2.668 1.557.668 4.226 1.335 3.559 2.002-.668.667-.89 1.112-4.226 1.112s-8.006-.667-6.227-.223c1.78.445 4.003 1.112 6.45 1.557 2.446.445 1.111 0 2.891-.222 1.779-.223 5.559-.89 5.337-1.335-.445-.444-2.891-1.556-1.557-1.779 1.335-.222 1.779-.667 4.448 0 2.669.668 5.782 2.669 5.782 2.669s-1.112-1.78-4.448-3.113c-3.336-1.335-7.783-.89-8.006-1.78-.222-.89.445-1.779-.222-2.668-.667-.89-2.224-2.002-.667-2.446 1.557-.445 1.334-1.112 1.334-1.112s1.112.89.89 1.556c-.223.89.889 1.557 2.224 1.557 1.334.222 7.338.89 4.003.222-3.336-.667-4.448-1.112-1.335-1.334 2.891-.222 2.891.222 7.784 1.112 4.892.89 6.004 1.334 7.561 1.557 1.557.222 1.334 0 .445-.445-.668-.445-1.557-.89-3.114-1.334-1.556-.445-2.446-.223-3.113-.668-.667-.444-2.002-1.779-2.669-2.223-.667-.445 1.112 0 3.558.444 2.447.223 9.118 1.112 14.233 1.78 5.115.667-.667-1.78-1.779-2.891-.889-1.335 8.896.222 13.566.667 4.67.444 10.229 1.334 18.903 2.223 8.673.89 2.891 0 3.78-.667.89-.667 2.891-.444 5.56.223 2.668.444 5.115 1.112 4.225 1.112-.889 0-3.558-.223 1.112 1.112 4.893 1.111 3.558.89 1.334.667-2.224-.223 0 .667 4.671 1.556 4.67.89 1.779.223.667-.444-1.112-.668.444-.223 4.447.667s5.56 1.557 8.229 2.668c2.446 1.112 2.891 1.112 4.003 2.002 1.334 1.112.444.667-2.447.89-2.891.222-4.67-.223-8.895 0-4.225 0-2.669.89-4.893 1.111-2.223.223-1.556 0 3.559.668 5.337.667 8.006.89 10.897 1.556 2.891.668 4.447 1.335 6.671 1.78 2.224.444 0 0 6.672 1.556 6.671 1.557 5.782 1.335 3.78 1.335-2.001.222.89.889 4.003 1.556 3.114.667 6.672 1.557 9.341 2.002 2.668.444-.223-.89 3.113 0 3.336.667 4.225.89 7.784 1.779 3.558.89 2.668 1.112 4.225 2.001 1.557.89 3.336 1.557 2.891 2.224-.445.667-1.112.445.445 2.002 1.556 1.556 3.336 2.223 5.782 2.891 2.224.889 1.334-.668 3.113-.668s3.114 1.557 5.337 2.002c2.224.445 5.115 1.334 7.339 2.001 2.224.89 4.003 1.557 6.894 2.002 2.669.667 1.557-.222 0-1.112-1.556-.89-1.556-.89-.222-1.112 1.334-.222 2.891.445 9.118 2.891 6.449 2.446 4.447 1.779 8.006 3.113 3.558 1.335 2.446.89 8.228 3.559 5.782 2.446 5.56 3.335 8.228 4.67 2.891 1.334 2.447.889 7.117 2.224 4.67 1.334 4.892 1.779 10.452 4.003 5.56 2.223 4.67 2.668 5.115 3.335.445.668-.667.668 2.668 2.002 3.336 1.334 4.893 2.224 7.562 2.891 2.446.667.444.445 6.671 2.669 6.227 2.223 3.781 1.112 6.005 2.446 2.223 1.334 3.558 2.668 6.449 3.558 2.891.89 2.669.89.667-.667-2.001-1.557-2.891-2.224-1.112-1.557 1.779.667 5.56 2.446 12.454 5.337 6.894 3.114 7.561 3.781 14.01 7.562 6.449 3.78 8.228 4.67 13.121 7.783 2.001 1.112 2.224 1.557 2.446 1.557 0 0 .667.222 2.224 1.334 4.893 2.891 4.003 2.224 8.228 4.67a175.707 175.707 0 0 1 8.229 5.115s2.001.445-.667-.667zm-362.714-64.27s-.444.223 1.78-.222c2.223-.445-1.112-.223-2.447-.445-1.334-.222-2.001-.445-1.556-1.112.222-.667-.445-.667-2.002-1.557 0 0-.889-.222-2.446 0-1.557.223-2.669-.444-4.448-.444-2.001.222-4.003-.223-5.115.889-.889.89-2.446.223-2.668 1.112-.223.89-3.781 1.112-3.781 1.112s1.557.667 2.891 1.112c1.334.667.445.222 1.779 1.779 1.557 1.779 2.224 1.557 3.781 2.002a176.16 176.16 0 0 0 4.225 1.112s-1.557-.445-1.334.444c.222.89-2.002 1.335-1.335 2.669.668 1.334-2.668 2.446.223 2.669 2.891.222 2.001.667 5.337 1.334 3.113.445 4.893.889 9.563 1.334 4.447.445 1.779-.445.889-1.556-.889-1.112-1.334-1.557-1.779-2.669-.445-1.112-1.334-.89-2.224-1.557-.889-.667 0-.889 2.224-.889 2.002.222 2.446.222 1.112-.668-1.334-.889-.667-.889-2.224-1.334-1.556-.445-1.779.89-1.779.89s-.889-.445-.889-1.557c0-1.112.444-.667-.668-.89-1.112-.222-1.556 0-3.335-.889-1.557-.89-.223-.667-2.224-1.779-1.779-1.112-.89-.445.889-.445 1.779.222.89 0-.222-.445-.89-.445-1.557-.889.667-.667 2.446.222 5.337.667 6.449.667 1.112-.222.667 0 .667 0zM318.733 91.444c-.89.667.889.667 2.446.222 1.557-.444 1.779-.444 2.669-.667.889-.444 1.112-.667.222-.89-.889-.222-.445-.444-.445-.444-1.779.222-4.003 1.334-4.892 1.779zm379.17-33.58c-2.002-.223-4.226-.445-2.224 0 2.001.444 1.779 1.334 4.892 1.334 3.336 0 2.447-.223 4.893-.223 2.224 0 .889 0-2.224-.667-2.002-.444-3.336-.222-5.337-.444z" fill="#173569" fill-opacity=".844"/><path fill-rule="evenodd" clip-rule="evenodd" d="M500.496 8.865c-30.472-6.39-61.144-4.838-88.697 6.54 51.678 5.654 108.237 26.956 166.892 69.277 8.397.347 15.006 2.99 14.945 6.06-.064 3.185-7.289 5.624-16.138 5.447-8.849-.177-15.971-2.903-15.907-6.088.045-2.248 3.655-4.124 8.884-4.972-59.479-41.734-116.452-61.545-167.996-65.434-18.343 9.343-35.047 23.391-49.048 42.748 6.224-1.463 11.015-1.56 11.491-.045.595 1.89-5.766 5.578-14.208 8.235-8.442 2.658-15.769 3.28-16.364 1.388-.522-1.658 4.307-4.698 11.197-7.213 13.415-20.134 29.505-35.168 47.271-45.66-30.264-1.136-58.54 3.234-84.211 11.846-71.147 23.867-122.565 80.391-141.164 143.324 5.969-.897 10.626-.096 11.322 2.251.906 3.054-5.237 7.571-13.723 10.089-8.485 2.518-16.098 2.082-17.004-.972-.906-3.052 5.226-7.564 13.699-10.083 18.38-65.643 71.485-124.729 145.239-149.471 28.683-9.622 60.445-14.039 94.461-11.656C432.108-.726 467.053-3.388 501.549 3.846c57.043 11.962 113.01 50.971 147.037 105.174 5.223.144 9.813 1.176 12.63 2.659 5.195.191 10.153.888 14.783 2.065 9.355 2.378 17.441 6.742 23.345 12.899 8.828.01 15.978 3.261 15.979 7.27.001 4.018-7.174 7.276-16.024 7.277-8.851.002-16.026-3.253-16.027-7.27-.001-2.92 3.789-5.439 9.258-6.597-4.769-3.904-10.803-6.832-17.794-8.609-3.595-.914-7.431-1.518-11.456-1.792-2.177 2.241-8.206 3.767-15.269 3.626-3.647-.073-7.001-.579-9.679-1.371a98.951 98.951 0 0 0-8.184 2.323c-30.686 10.135-63.688 37.148-83.293 86.831 6.113 1.024 10.472 3.692 10.472 6.823.001 4.017-7.173 7.275-16.024 7.276-8.851.002-16.026-3.253-16.027-7.27-.001-4.017 7.174-7.275 16.024-7.277h.081l.143.001c20.036-51.87 54.447-80.496 87.016-91.254 1.263-.417 2.524-.807 3.781-1.171a2.26 2.26 0 0 1-.217-1c.049-2.479 4.438-4.507 10.554-5.2-33.453-51.776-87.411-88.913-142.162-100.394zM246.89 244.648c-.257.084-.515.172-.774.262-8.357 2.916-14.28 7.719-13.23 10.727 1.049 3.009 8.675 3.083 17.031.167 8.357-2.916 14.28-7.718 13.23-10.727-.752-2.156-4.882-2.805-10.238-1.926 19.859-52.892 55.653-103.419 100.936-133.608 44.896-29.931 99.108-39.897 156.743-12.378-4.252.954-7.064 2.647-7.104 4.629-.064 3.186 7.058 5.912 15.907 6.089 8.849.176 16.074-2.263 16.138-5.448.062-3.092-6.647-5.751-15.133-6.066C458.138 63.309 399.18 73.156 351 105.276c-47.296 31.531-84.217 84.496-104.11 139.372zM757.367 96.205c-17.005-1.278-34.174 2.174-50.687 11.279 4.522 1.109 7.509 2.984 7.468 5.052-.064 3.186-7.289 5.625-16.138 5.448-8.849-.177-15.97-2.903-15.907-6.089.064-3.185 7.289-5.624 16.138-5.447l.133.002c19.102-12.135 39.317-16.866 59.377-15.36 22.729 1.709 45.091 11.41 65.313 27.115 39.623 30.773 71.324 84.811 81.996 148.441l.099.042c8.121 3.519 13.677 8.742 12.411 11.665-1.267 2.924-8.878 2.441-16.999-1.077-8.121-3.519-13.677-8.742-12.41-11.665.964-2.227 5.609-2.478 11.357-.916-10.938-61.328-41.714-113.016-79.6-142.44-19.602-15.224-41.029-24.433-62.551-26.05z" fill="url(#a)"/><defs><linearGradient id="a" x1="532.849" y1="0" x2="532.849" y2="280.266" gradientUnits="userSpaceOnUse"><stop stop-color="#21CBFF"/><stop offset="1" stop-color="#3688C8"/></linearGradient></defs></svg>