<svg width="1428" height="376" viewBox="0 0 1428 376" fill="none" xmlns="http://www.w3.org/2000/svg">
<path d="M569.065 207.348L567.878 208.733L569.263 207.546L570.846 208.733L569.659 207.348L570.846 205.766L569.263 206.953L567.878 205.766L569.065 207.348Z" fill="white"/>
<path d="M569.263 207.546L569.461 210.514V207.546L573.22 207.349L569.461 207.151L569.263 203.589V207.151L565.899 207.349L569.263 207.546Z" fill="white"/>
<path d="M280.004 128.01L280.4 130.186L280.598 128.01L282.774 127.614L280.598 127.416L280.4 125.24L280.004 127.416L277.828 127.614L280.004 128.01Z" fill="white"/>
<g opacity="0.28">
<path opacity="0.28" d="M480.032 258.79L480.428 262.549L480.823 258.79L484.583 258.394L480.823 257.998L480.428 254.239L480.032 257.998L476.273 258.394L480.032 258.79Z" fill="white"/>
</g>
<g opacity="0.28">
<path opacity="0.28" d="M1305.86 102.883L1306.26 106.642L1306.66 102.883L1310.42 102.487L1306.66 102.092L1306.26 98.3325L1305.86 102.092L1302.11 102.487L1305.86 102.883Z" fill="white"/>
</g>
<path d="M194.928 118.513L195.323 121.283L195.521 118.513L198.291 118.315L195.521 117.919L195.323 115.347L194.928 117.919L192.355 118.315L194.928 118.513Z" fill="white"/>
<g opacity="0.73">
<path opacity="0.73" d="M144.475 59.9489L144.871 63.7081L145.267 59.9489L149.026 59.5532L145.267 59.1575L144.871 55.5962L144.475 59.1575L140.716 59.5532L144.475 59.9489Z" fill="white"/>
</g>
<g opacity="0.36">
<path opacity="0.36" d="M1143.63 133.154L1143.82 135.528L1144.22 133.154L1146.4 132.956L1144.22 132.758L1143.82 130.384L1143.63 132.758L1141.45 132.956L1143.63 133.154Z" fill="white"/>
</g>
<g opacity="0.36">
<path opacity="0.36" d="M1424.97 105.257L1425.17 107.433L1425.56 105.257L1427.74 104.861L1425.56 104.663L1425.17 102.487L1424.97 104.663L1422.79 104.861L1424.97 105.257Z" fill="white"/>
</g>
<g opacity="0.32">
<path opacity="0.32" d="M490.914 154.127L491.31 157.886L491.705 154.127L495.464 153.731L491.705 153.335L491.31 149.774L490.914 153.335L487.353 153.731L490.914 154.127Z" fill="white"/>
</g>
<g opacity="0.36">
<path opacity="0.36" d="M556.798 87.8458L557.194 90.6157L557.392 87.8458L560.162 87.6479L557.392 87.4501L557.194 84.6802L556.798 87.4501L554.226 87.6479L556.798 87.8458Z" fill="white"/>
</g>
<path d="M1254.82 142.651V144.036L1255.02 142.651L1256.4 142.453L1255.02 142.255L1254.82 141.068V142.255L1253.43 142.453L1254.82 142.651Z" fill="white"/>
<path d="M473.107 2.57207V3.95703L473.305 2.57207L474.69 2.37422L473.305 2.17637L473.107 0.989258V2.17637L471.722 2.37422L473.107 2.57207Z" fill="white"/>
<g opacity="0.28">
<path opacity="0.28" d="M468.556 148.587V150.17L468.754 148.587H470.337L468.754 148.389L468.556 146.806V148.389L466.974 148.587H468.556Z" fill="white"/>
</g>
<g opacity="0.32">
<path opacity="0.32" d="M311.462 204.578L311.66 207.15L312.056 204.578L314.628 204.38L312.056 203.985L311.66 201.413L311.462 203.985L308.89 204.38L311.462 204.578Z" fill="white"/>
</g>
<path d="M452.135 209.327L452.333 211.899L452.729 209.327L455.301 208.931L452.729 208.733L452.333 205.963L452.135 208.733L449.365 208.931L452.135 209.327Z" fill="white"/>
<path d="M309.88 1.78066L310.077 3.16563L310.275 1.78066L311.66 1.58281L310.275 1.38496L310.077 0L309.88 1.38496L308.495 1.58281L309.88 1.78066Z" fill="white"/>
<path d="M255.668 34.8219L256.064 37.3939L256.262 34.8219L259.032 34.4262L256.262 34.2283L256.064 31.6562L255.668 34.2283L253.096 34.4262L255.668 34.8219Z" fill="white"/>
<g opacity="0.28">
<path opacity="0.28" d="M301.57 254.041L301.768 256.811L302.163 254.041L304.735 253.843L302.163 253.448L301.768 250.875L301.57 253.448L298.8 253.843L301.57 254.041Z" fill="white"/>
</g>
<path d="M390.207 144.629L390.405 147.202L390.603 144.629L393.373 144.234L390.603 144.036L390.405 141.464L390.207 144.036L387.635 144.234L390.207 144.629Z" fill="white"/>
<path d="M383.876 246.523L384.074 247.908L384.272 246.523L385.657 246.326L384.272 246.128L384.074 244.743L383.876 246.128L382.491 246.326L383.876 246.523Z" fill="white"/>
<path d="M414.741 55.794L414.939 57.3769L415.137 55.794L416.917 55.5962L415.137 55.3983L414.939 53.6177L414.741 55.3983L412.96 55.5962L414.741 55.794Z" fill="white"/>
<path d="M962.988 192.114L963.186 194.884L963.383 192.114L966.153 191.916L963.383 191.52L963.186 188.948L962.988 191.52L960.218 191.916L962.988 192.114Z" fill="white"/>
<g opacity="0.36">
<path opacity="0.36" d="M1003.15 75.5792L1003.35 78.3491L1003.75 75.5792L1006.32 75.3814L1003.75 75.1835L1003.35 72.4136L1003.15 75.1835L1000.38 75.3814L1003.15 75.5792Z" fill="white"/>
</g>
<g opacity="0.36">
<path opacity="0.36" d="M1100.69 72.8093L1101.09 75.3813L1101.29 72.8093L1104.06 72.4136L1101.29 72.2157L1101.09 69.4458L1100.69 72.2157L1098.12 72.4136L1100.69 72.8093Z" fill="white"/>
</g>
<g opacity="0.44">
<path opacity="0.44" d="M920.45 90.22L920.648 91.605L920.845 90.22H922.033L920.845 90.0222L920.648 88.6372L920.45 90.0222L919.263 90.22H920.45Z" fill="white"/>
</g>
<path d="M1076.75 94.7706L1076.95 97.5405L1077.35 94.7706L1079.92 94.5728L1077.35 94.177L1076.95 91.605L1076.75 94.177L1073.98 94.5728L1076.75 94.7706Z" fill="white"/>
<path d="M242.61 212.097L243.006 215.658L243.402 212.097L247.161 211.503L243.402 211.108L243.006 207.546L242.61 211.108L238.851 211.503L242.61 212.097Z" fill="white"/>
<path d="M645.436 37.7898L645.832 40.3618L646.029 37.7898L648.601 37.394L646.029 37.1962L645.832 34.4263L645.436 37.1962L642.864 37.394L645.436 37.7898Z" fill="white"/>
<path d="M1331.98 261.362L1332.18 262.549L1332.38 261.362L1333.76 261.164L1332.38 260.966L1332.18 259.779L1331.98 260.966L1330.79 261.164L1331.98 261.362Z" fill="white"/>
<g opacity="0.36">
<path opacity="0.36" d="M1371.75 284.511L1371.95 287.083L1372.34 284.511L1374.91 284.115L1372.34 283.917L1371.95 281.345L1371.75 283.917L1369.18 284.115L1371.75 284.511Z" fill="white"/>
</g>
<g opacity="0.28">
<path opacity="0.28" d="M708.748 105.257L709.144 107.829L709.342 105.257L711.914 104.861L709.342 104.663L709.144 102.091L708.748 104.663L706.176 104.861L708.748 105.257Z" fill="white"/>
</g>
<path d="M1420.22 17.8065V18.9937L1420.42 17.8065L1421.81 17.6087L1420.42 17.4108L1420.22 16.0259V17.4108L1418.84 17.6087L1420.22 17.8065Z" fill="white"/>
<path d="M1412.9 199.237L1413.1 201.809L1413.5 199.237L1416.07 198.841L1413.5 198.643L1413.1 195.873L1412.9 198.643L1410.13 198.841L1412.9 199.237Z" fill="white"/>
<g opacity="0.28">
<path opacity="0.28" d="M1262.34 243.951L1262.54 246.721L1262.93 243.951L1265.5 243.753L1262.93 243.358L1262.54 240.786L1262.34 243.358L1259.57 243.753L1262.34 243.951Z" fill="white"/>
</g>
<path d="M1349.79 189.542L1349.99 190.927L1350.18 189.542L1351.57 189.344H1350.18L1349.99 187.761L1349.79 189.344H1348.4L1349.79 189.542Z" fill="white"/>
<path d="M1259.76 206.755L1259.96 208.338L1260.16 206.755H1261.55L1260.16 206.557L1259.96 204.974L1259.76 206.557L1258.38 206.755H1259.76Z" fill="white"/>
<path d="M1220.39 276.003L1220.59 278.575L1220.99 276.003L1223.56 275.607L1220.99 275.409L1220.59 272.837L1220.39 275.409L1217.82 275.607L1220.39 276.003Z" fill="white"/>
<path d="M598.149 130.582L598.545 133.748L598.941 130.582L601.909 130.384L598.941 129.989L598.545 127.021L598.149 129.989L595.182 130.384L598.149 130.582Z" fill="white"/>
<path d="M344.108 73.9964L344.306 77.162L344.701 73.9964L347.669 73.7985L344.701 73.4028L344.306 70.4351L344.108 73.4028L341.14 73.7985L344.108 73.9964Z" fill="white"/>
<g opacity="0.28">
<path opacity="0.28" d="M1179.64 106.246L1176.87 109.808L1180.43 107.038L1184.19 109.808L1181.22 106.246L1184.19 102.487L1180.43 105.257L1176.87 102.487L1179.64 106.246Z" fill="white"/>
<path opacity="0.28" d="M1179.64 107.038L1180.43 115.15L1181.42 107.038L1189.53 106.246L1181.42 105.257L1180.43 97.145L1179.64 105.257L1171.52 106.246L1179.64 107.038Z" fill="white"/>
</g>
<path d="M807.872 138.101L808.268 140.871L808.465 138.101L811.235 137.903L808.465 137.507L808.268 134.935L807.872 137.507L805.3 137.903L807.872 138.101Z" fill="white"/>
<path d="M925.99 44.1212L926.385 46.6933L926.583 44.1212L929.155 43.9233L926.583 43.5276L926.385 40.9556L925.99 43.5276L923.417 43.9233L925.99 44.1212Z" fill="white"/>
<path d="M114.402 168.965L114.6 170.35L114.798 168.965L116.183 168.767L114.798 168.57L114.6 167.185L114.402 168.57L113.017 168.767L114.402 168.965Z" fill="white"/>
<path d="M1002.95 23.1483V24.5333L1003.15 23.1483L1004.73 22.9505L1003.15 22.7526L1002.95 21.3677V22.7526L1001.37 22.9505L1002.95 23.1483Z" fill="white"/>
<g opacity="0.32">
<path opacity="0.32" d="M862.281 191.125L862.677 193.895L862.875 191.125L865.644 190.927L862.875 190.531L862.677 187.959L862.281 190.531L859.709 190.927L862.281 191.125Z" fill="white"/>
</g>
<g opacity="0.28">
<path opacity="0.28" d="M852.388 240.587L852.784 243.357L852.982 240.587L855.554 240.39L852.982 240.192L852.784 237.422L852.388 240.192L849.816 240.39L852.388 240.587Z" fill="white"/>
</g>
<g opacity="0.28">
<path opacity="0.28" d="M140.518 230.102L140.716 232.872L141.112 230.102L143.684 229.904L141.112 229.508L140.716 226.936L140.518 229.508L137.749 229.904L140.518 230.102Z" fill="white"/>
</g>
<g opacity="0.36">
<path opacity="0.36" d="M872.57 372.95L872.965 375.522L873.163 372.95L875.933 372.752L873.163 372.357L872.965 369.785L872.57 372.357L869.998 372.752L872.57 372.95Z" fill="white"/>
</g>
<path d="M849.619 265.319L849.817 266.902V265.319L851.399 265.121H849.817V263.539L849.619 265.121H848.036L849.619 265.319Z" fill="white"/>
<path d="M842.892 82.702L843.09 84.087L843.288 82.702L844.672 82.5042L843.288 82.3063L843.09 80.9214L842.892 82.3063L841.507 82.5042L842.892 82.702Z" fill="white"/>
<g opacity="0.44">
<path opacity="0.44" d="M1059.54 236.037L1059.74 237.422V236.037H1061.12L1059.74 235.839V234.454L1059.54 235.839L1058.15 236.037H1059.54Z" fill="white"/>
</g>
<path d="M99.3655 141.662L99.7612 144.432L99.9591 141.662L102.531 141.464L99.9591 141.266L99.7612 138.496L99.3655 141.266L96.7935 141.464L99.3655 141.662Z" fill="white"/>
<path d="M921.834 281.147L922.626 287.281L923.219 281.147L929.353 280.554L923.219 279.762L922.626 273.827L921.834 279.762L915.899 280.554L921.834 281.147Z" fill="white"/>
<path d="M1071.21 304.296L1071.41 307.264L1071.81 304.296L1074.77 303.9L1071.81 303.504L1071.41 300.537L1071.21 303.504L1068.05 303.9L1071.21 304.296Z" fill="white"/>
<path d="M895.916 114.952L896.312 117.92L896.51 114.952L899.675 114.556L896.51 114.161L896.312 111.193L895.916 114.161L892.948 114.556L895.916 114.952Z" fill="white"/>
<g opacity="0.28">
<path opacity="0.28" d="M787.493 32.0521L784.525 35.8113L788.285 32.8436L792.044 35.8113L789.076 32.0521L792.044 28.293L788.285 31.2607L784.525 28.293L787.493 32.0521Z" fill="white"/>
<path opacity="0.28" d="M787.296 33.0411L788.285 41.153L789.076 33.0411L797.386 32.0519L789.076 31.0626L788.285 22.9507L787.296 31.0626L779.184 32.0519L787.296 33.0411Z" fill="white"/>
</g>
<g opacity="0.36">
<path opacity="0.36" d="M710.925 184.595L711.123 187.167L711.32 184.595L714.09 184.2L711.32 184.002L711.123 181.232L710.925 184.002L708.155 184.2L710.925 184.595Z" fill="white"/>
</g>
<path d="M636.731 168.174L636.928 169.559V168.174H638.313L636.928 167.976V166.591L636.731 167.976L635.346 168.174H636.731Z" fill="white"/>
<g opacity="0.28">
<path opacity="0.28" d="M407.222 94.1773L407.618 96.9473L407.816 94.1773L410.388 93.9795L407.816 93.5838L407.618 91.0117L407.222 93.5838L404.65 93.9795L407.222 94.1773Z" fill="white"/>
</g>
<path d="M782.547 256.218L782.943 258.988L783.141 256.218L785.911 256.02L783.141 255.624L782.943 253.052L782.547 255.624L779.975 256.02L782.547 256.218Z" fill="white"/>
<path d="M17.8504 260.769L18.2461 263.539L18.444 260.769L21.2139 260.571L18.444 260.175L18.2461 257.603L17.8504 260.175L15.2783 260.571L17.8504 260.769Z" fill="white"/>
<g opacity="0.41">
<path opacity="0.41" d="M676.697 97.3427L676.894 98.9255L677.092 97.3427H678.477L677.092 97.1448L676.894 95.562L676.697 97.1448L675.312 97.3427H676.697Z" fill="white"/>
</g>
<path d="M685.6 290.842V292.227L685.798 290.842L687.183 290.644L685.798 290.446L685.6 289.062V290.446L684.017 290.644L685.6 290.842Z" fill="white"/>
<path d="M-0.945119 145.817L-0.747271 147.202V145.817L0.637688 145.619H-0.747271V144.234L-0.945119 145.619H-2.33008L-0.945119 145.817Z" fill="white"/>
<g opacity="0.28">
<path opacity="0.28" d="M548.489 12.6625L545.521 16.4217L549.28 13.4539L553.039 16.4217L550.072 12.6625L553.039 8.90332L549.28 11.8711L545.521 8.90332L548.489 12.6625Z" fill="white"/>
</g>
<g opacity="0.32">
<path opacity="0.32" d="M61.9716 90.4183L62.3673 93.9796L62.763 90.4183L66.5222 90.0226L62.763 89.429L62.3673 85.8677L61.9716 89.429L58.2124 90.0226L61.9716 90.4183Z" fill="white"/>
</g>
<g opacity="0.28">
<path opacity="0.28" d="M39.4162 84.6806L39.6141 86.2634L39.8119 84.6806H41.1969L39.8119 84.4827L39.6141 82.8999L39.4162 84.4827L38.0312 84.6806H39.4162Z" fill="white"/>
</g>
<path d="M1116.92 211.503L1117.11 214.075L1117.51 211.503L1120.08 211.305L1117.51 210.909L1117.11 208.337L1116.92 210.909L1114.15 211.305L1116.92 211.503Z" fill="white"/>
</svg>
