<svg width="113" height="45" viewBox="0 0 113 45" fill="none" xmlns="http://www.w3.org/2000/svg">
<g clip-path="url(#clip0)">
<path d="M109.765 28.8471C107.984 28.8471 106.925 27.8006 106.925 26.0564V18.314H112.868V11.8605H106.713V4.75466H104.979L98.2517 11.8605H88.8585L83.0213 21.3872V3.08286H74.5859V20.3398C73.1439 14.7584 68.4025 11.0677 62.1963 11.0677C60.2255 11.0542 58.2842 11.5434 56.5586 12.4884V11.1759L47.8789 11.1986V44.966H56.2265V35.3913C58.031 36.4638 60.0983 37.0226 62.2016 37.0064C68.4104 37.0064 73.1518 33.2939 74.5911 27.7108V36.184H83.0266V25.9012L89.1634 36.1858H99.1128L90.7037 23.4532L94.0849 18.314H98.4863V27.4901C98.4863 32.8971 101.78 36.1823 107.199 36.1823H113.001V28.8454L109.765 28.8471ZM61.5812 29.5893C58.4179 29.5893 56.0964 27.2189 56.0964 24.0236C56.0964 20.8282 58.4206 18.4579 61.5812 18.4579C64.7419 18.4579 67.066 20.8282 67.066 24.0236C67.066 27.2189 64.7234 29.5893 61.5812 29.5893Z" fill="#191944"/>
<path d="M10.6386 10.0265H1.36133V19.234H10.6386V10.0265Z" fill="#3CADEF"/>
<path d="M5.86401 0.0351562H-0.00390625V5.85899H5.86401V0.0351562Z" fill="#3CADEF"/>
<path d="M21.616 0.613098H15.293V6.88868H21.616V0.613098Z" fill="#3CADEF"/>
<path d="M12.2182 2.18198H9.05664V5.31977H12.2182V2.18198Z" fill="#3CADEF"/>
<path d="M40.3313 11.2273V31.3151C40.3313 32.0756 40.1804 32.8286 39.8872 33.5311C39.594 34.2337 39.1642 34.872 38.6224 35.4098C38.0806 35.9475 37.4374 36.374 36.7295 36.665C36.0217 36.956 35.263 37.1058 34.4968 37.1058H14.2578V11.2273H40.3313Z" fill="#3CADEF"/>
</g>
<defs>
<clipPath id="clip0">
<rect width="113" height="45" fill="white"/>
</clipPath>
</defs>
</svg>
