<svg width="113" height="45" viewBox="0 0 113 45" fill="none" xmlns="http://www.w3.org/2000/svg">
<g clip-path="url(#clip0)">
<path d="M109.765 28.8473C107.984 28.8473 106.925 27.8007 106.925 26.0566V18.3141H112.868V11.8606H106.713V4.75481H104.979L98.2517 11.8606H88.8585L83.0213 21.3874V3.08301H74.5859V20.34C73.1439 14.7586 68.4025 11.0679 62.1963 11.0679C60.2255 11.0544 58.2842 11.5436 56.5586 12.4885V11.176L47.8789 11.1987V44.9661H56.2265V35.3914C58.031 36.464 60.0983 37.0228 62.2016 37.0066C68.4104 37.0066 73.1518 33.2941 74.5911 27.7109V36.1842H83.0266V25.9013L89.1634 36.1859H99.1128L90.7037 23.4534L94.0849 18.3141H98.4863V27.4903C98.4863 32.8973 101.78 36.1824 107.199 36.1824H113.001V28.8455L109.765 28.8473ZM61.5812 29.5894C58.4179 29.5894 56.0964 27.2191 56.0964 24.0237C56.0964 20.8284 58.4206 18.458 61.5812 18.458C64.7419 18.458 67.066 20.8284 67.066 24.0237C67.066 27.2191 64.7234 29.5894 61.5812 29.5894Z" fill="#F5FCFE"/>
<path d="M10.6366 10.0264H1.35938V19.2339H10.6366V10.0264Z" fill="#3CADEF"/>
<path d="M5.86401 0.0351562H-0.00390625V5.85899H5.86401V0.0351562Z" fill="#3CADEF"/>
<path d="M21.616 0.613281H15.293V6.88886H21.616V0.613281Z" fill="#3CADEF"/>
<path d="M12.2201 2.18164H9.05859V5.31943H12.2201V2.18164Z" fill="#3CADEF"/>
<path d="M40.3313 11.2275V31.3153C40.3313 32.0758 40.1804 32.8288 39.8872 33.5313C39.594 34.2339 39.1642 34.8723 38.6224 35.41C38.0806 35.9477 37.4374 36.3742 36.7295 36.6652C36.0217 36.9563 35.263 37.106 34.4968 37.106H14.2578V11.2275H40.3313Z" fill="#3CADEF"/>
</g>
<defs>
<clipPath id="clip0">
<rect width="113" height="45" fill="white"/>
</clipPath>
</defs>
</svg>
