<svg width="119" height="47" viewBox="0 0 119 47" fill="none" xmlns="http://www.w3.org/2000/svg">
<path d="M114.789 30.1438C112.929 30.1438 111.819 29.0487 111.819 27.2259V19.1233H118.034V12.3685H111.597V4.93982H109.783L102.748 12.3762H92.927L86.8263 22.3398V3.18604H78.0005V21.237C76.4926 15.4013 71.5324 11.5338 65.0413 11.5338C62.9822 11.5184 60.9537 12.0316 59.1472 13.0195V11.6486L50.0688 11.6716V47.0001H58.7951V36.9905C60.6858 38.1163 62.8444 38.6983 65.0413 38.683C71.5324 38.683 76.4926 34.8002 78.0005 28.9568V37.8252H86.8187V27.0651L93.2332 37.8252H103.644L94.8484 24.5072L98.3848 19.1309H102.985V28.7347C102.985 34.3943 106.43 37.8252 112.094 37.8252H118.164V30.1438H114.789ZM64.3983 30.9173C61.0915 30.9173 58.665 28.436 58.665 25.0969C58.665 21.7501 61.0992 19.2765 64.3983 19.2765C67.7051 19.2765 70.1316 21.7578 70.1316 25.0969C70.1316 28.4436 67.6821 30.9173 64.3983 30.9173Z" fill="#4DABE0"/>
<path d="M11.1296 10.4536H1.43115V20.088H11.1296V10.4536Z" fill="white"/>
<path d="M6.139 0H0V6.09614H6.139V0Z" fill="white"/>
<path d="M22.6116 0.60498H15.998V7.16828H22.6116V0.60498Z" fill="white"/>
<path d="M12.7834 2.24365H9.47656V5.52913H12.7834V2.24365Z" fill="white"/>
<path d="M42.1769 11.7095V32.7243C42.1769 33.5208 42.0161 34.3096 41.7099 35.0448C41.4038 35.78 40.9521 36.4463 40.3857 37.013C39.8193 37.5721 39.1456 38.0239 38.4032 38.3226C37.6607 38.629 36.8722 38.7821 36.0685 38.7821H14.9111V11.7095H42.1769Z" fill="white"/>
</svg>
