<svg width="251" height="39" viewBox="0 0 251 39" fill="none" xmlns="http://www.w3.org/2000/svg">
<path d="M48.5455 30C47.9273 30 47.6182 29.8473 47.3091 29.6947C47.1545 29.3893 47 29.084 47 28.626V11.5267C47 11.0687 47.1545 10.6107 47.3091 10.458C47.6182 10.1527 47.9273 10 48.5455 10H55.8091C58.5909 10 60.6 10.6107 61.9909 11.6794C63.2273 12.9008 64 14.5802 64 16.8702C64 19.1603 63.3818 20.8397 61.9909 22.0611C60.7545 23.1298 58.5909 23.7405 55.8091 23.7405H53.0273V28.4733C53.0273 28.9313 52.8727 29.3893 52.7182 29.542C52.4091 29.8473 52.1 29.8473 51.4818 29.8473H48.5455V30ZM55.3455 19.4657C56.1182 19.4657 56.7364 19.313 57.2 18.855C57.6636 18.397 57.8182 17.7863 57.8182 16.8702C57.8182 15.9542 57.6636 15.3435 57.2 14.8855C56.7364 14.4275 56.1182 14.2748 55.3455 14.2748H53.0273V19.4657H55.3455Z" fill="black"/>
<path d="M71.4151 31C69.4906 31 67.8868 30.3535 66.7641 29.0606C65.6415 27.7677 65 25.9899 65 23.7273C65 21.9495 65.3208 20.495 66.1226 19.202C66.9245 17.9091 68.0472 16.9394 69.4906 16.1313C70.934 15.4848 72.6981 15 74.4623 15C76.066 15 77.3491 15.1616 78.6321 15.4849C79.9151 15.8081 80.8774 16.2929 82 16.9394V29.3838C82 29.7071 82 30.0303 81.8396 30.1919C81.6792 30.3535 81.3585 30.3535 81.0377 30.3535H77.8302C77.6698 30.3535 77.3491 30.3535 77.3491 30.1919C77.1887 30.0303 77.1887 30.0303 77.0283 29.8687L76.5472 28.899C75.9057 29.5454 75.2642 30.0303 74.4623 30.3535C73.6604 30.8384 72.5377 31 71.4151 31ZM73.6604 26.798C74.4623 26.798 75.1038 26.6364 75.5849 26.1515C76.066 25.8283 76.2264 25.1818 76.2264 24.5354V19.6869C75.9057 19.5253 75.2641 19.3636 74.783 19.3636C73.6604 19.3636 72.8585 19.6869 72.217 20.495C71.5755 21.303 71.2547 22.2727 71.2547 23.7273C71.2547 25.6667 72.0566 26.798 73.6604 26.798Z" fill="black"/>
<path d="M86.4851 30C85.8911 30 85.5941 29.8421 85.297 29.6842C85 29.3684 85 29.0526 85 28.579V16.2632C85 15.9474 85 15.6316 85.1485 15.4737C85.297 15.3158 85.5941 15.3158 85.8911 15.3158H88.8614C89.1584 15.3158 89.3069 15.3158 89.3069 15.4737C89.4554 15.4737 89.4554 15.6316 89.604 15.7895L89.7525 16.7368C90.3465 16.1053 90.9406 15.7895 91.8317 15.4737C92.7228 15.1579 93.6139 15 94.802 15C96.2871 15 97.6238 15.4737 98.5149 16.421C99.4059 17.3684 100 18.6316 100 20.5263V28.579C100 29.0526 99.8515 29.5263 99.703 29.6842C99.5544 30 99.1089 30 98.5149 30H95.6931C95.099 30 94.802 29.8421 94.5049 29.6842C94.2079 29.3684 94.2079 29.0526 94.2079 28.579V20.8421C94.2079 20.2105 94.0594 19.7368 93.7624 19.5789C93.4653 19.2632 93.1683 19.1053 92.5743 19.1053C91.9802 19.1053 91.5347 19.2632 91.2376 19.5789C90.9406 19.8947 90.7921 20.3684 90.7921 20.8421V28.4211C90.7921 28.8947 90.6436 29.3684 90.495 29.5263C90.3465 29.8421 89.901 29.8421 89.3069 29.8421H86.4851V30Z" fill="black"/>
<path d="M110.906 31C108.094 31 105.906 30.3469 104.344 28.8775C102.781 27.5714 102 25.6122 102 23C102 21.3673 102.312 20.0612 103.094 18.7551C103.719 17.6122 104.812 16.6327 106.062 15.9796C107.469 15.3265 109.031 15 110.75 15C112.156 15 113.25 15.1633 114.188 15.4898C115.125 15.8163 116.063 16.1429 116.688 16.7959C116.844 16.9592 117 17.1224 117 17.2857C117 17.449 116.844 17.6122 116.688 17.9388L115.438 20.2245C115.281 20.551 115.125 20.7143 114.969 20.7143C114.813 20.7143 114.656 20.551 114.344 20.3878C113.875 20.0612 113.25 19.7347 112.781 19.5714C112.313 19.4082 111.688 19.2449 111.063 19.2449C110.125 19.2449 109.187 19.5714 108.562 20.2245C107.937 20.8776 107.625 21.8571 107.625 23C107.625 24.1429 107.937 25.1224 108.562 25.7755C109.187 26.4286 109.969 26.7551 111.063 26.7551C111.688 26.7551 112.313 26.5918 112.781 26.4286C113.25 26.2653 113.875 25.9388 114.344 25.6122C114.656 25.449 114.813 25.2857 114.969 25.2857C115.125 25.2857 115.281 25.449 115.438 25.7755L116.844 28.2245C117 28.3878 117 28.551 117 28.7143C117 28.8775 116.844 29.0408 116.688 29.2041C115.906 29.6939 114.969 30.1837 113.875 30.5102C113.406 30.8367 112.312 31 110.906 31Z" fill="black"/>
<path d="M125.415 31C123.491 31 121.887 30.3535 120.764 29.0606C119.642 27.7677 119 25.9899 119 23.7273C119 21.9495 119.321 20.495 120.123 19.202C120.925 17.9091 122.047 16.9394 123.491 16.1313C124.934 15.4848 126.698 15 128.462 15C130.066 15 131.349 15.1616 132.632 15.4849C133.915 15.8081 134.877 16.2929 136 16.9394V29.3838C136 29.7071 136 30.0303 135.84 30.1919C135.679 30.3535 135.358 30.3535 135.038 30.3535H131.83C131.67 30.3535 131.349 30.3535 131.349 30.1919C131.189 30.0303 131.189 30.0303 131.028 29.8687L130.547 28.899C129.906 29.5454 129.264 30.0303 128.462 30.3535C127.66 30.8384 126.698 31 125.415 31ZM127.821 26.798C128.623 26.798 129.264 26.6364 129.745 26.1515C130.226 25.8283 130.387 25.1818 130.387 24.5354V19.6869C130.066 19.5253 129.425 19.3636 128.943 19.3636C127.821 19.3636 127.019 19.6869 126.377 20.495C125.736 21.303 125.415 22.2727 125.415 23.7273C125.255 25.6667 126.057 26.798 127.821 26.798Z" fill="black"/>
<path d="M154.84 28.9313C155 29.084 155 29.2367 155 29.3893C155 29.542 155 29.6947 154.84 29.8473C154.679 30 154.519 30 154.358 30H149.547C149.226 30 149.066 30 148.906 30C148.745 30 148.585 29.8473 148.425 29.6947L144.255 24.1985V28.4733C144.255 28.9313 144.094 29.3893 143.934 29.542C143.613 29.8473 143.292 29.8473 142.651 29.8473H139.604C138.962 29.8473 138.642 29.6947 138.321 29.542C138.16 29.2366 138 28.9313 138 28.4733V11.5267C138 11.0687 138.16 10.6107 138.321 10.458C138.642 10.1527 138.962 10 139.604 10H142.651C143.292 10 143.613 10.1527 143.934 10.458C144.255 10.7634 144.255 11.0687 144.255 11.5267V21.2977L148.264 16.2595C148.425 16.1069 148.585 15.9542 148.745 15.9542C148.906 15.9542 149.066 15.8015 149.387 15.8015H154.198C154.358 15.8015 154.519 15.8015 154.679 15.9542C154.84 16.1069 154.84 16.2595 154.84 16.4122C154.84 16.5649 154.84 16.7176 154.679 16.8702L149.387 22.6718L154.84 28.9313Z" fill="black"/>
<path d="M164.533 31C162.857 31 161.486 30.6701 160.114 30.1753C158.895 29.5155 157.829 28.6907 157.067 27.5361C156.305 26.3814 156 24.8969 156 23.2474C156 20.6082 156.762 18.4639 158.133 17.1443C159.505 15.6598 161.638 15 164.229 15C166.819 15 168.8 15.6598 170.019 17.1443C171.39 18.4639 172 20.4433 172 22.9175C172 23.9072 171.543 24.567 170.781 24.567H161.638C161.638 25.5567 161.943 26.2165 162.552 26.7113C163.162 27.2062 164.229 27.3711 165.448 27.3711C166.21 27.3711 166.971 27.3711 167.429 27.2062C168.038 27.0412 168.495 26.7113 169.105 26.5464C169.41 26.3814 169.562 26.3814 169.562 26.3814C169.714 26.3814 169.867 26.5464 170.019 26.7113L171.086 28.6907C171.238 28.8557 171.238 29.0206 171.238 29.1856C171.238 29.3505 171.086 29.5155 170.933 29.6804C170.171 30.1753 169.257 30.6701 168.19 31C166.971 30.8351 165.905 31 164.533 31ZM166.819 21.1031C166.819 20.2784 166.667 19.6186 166.21 19.2887C165.752 18.7938 165.143 18.6289 164.229 18.6289C163.314 18.6289 162.705 18.7938 162.248 19.2887C161.79 19.7835 161.638 20.2784 161.638 21.1031H166.819Z" fill="black"/>
<path d="M182.686 31C181.01 31 179.486 30.837 177.962 30.5111C176.438 30.1852 175.371 29.5333 174.457 28.8815C174.152 28.7185 174 28.3926 174 28.2296C174 28.0667 174 27.9037 174.152 27.7407L175.524 25.2963C175.676 24.9704 175.829 24.9704 175.981 24.9704C176.133 24.9704 176.286 24.9704 176.438 25.1333C177.2 25.6222 177.962 25.9481 178.876 26.2741C179.79 26.6 180.705 26.763 181.619 26.763C182.533 26.763 183.143 26.6 183.6 26.2741C184.057 25.9481 184.21 25.4593 184.21 24.8074C184.21 24.1556 183.905 23.6667 183.448 23.3407C182.99 23.0148 182.076 22.5259 180.705 22.037C178.724 21.2222 177.2 20.4074 176.133 19.4296C175.067 18.4519 174.457 16.9852 174.457 15.3556C174.457 13.237 175.219 11.7704 176.59 10.6296C177.962 9.48889 179.79 9 182.076 9C183.752 9 185.124 9.16296 186.19 9.48889C187.41 9.81481 188.324 10.3037 189.086 10.7926C189.39 11.1185 189.543 11.2815 189.543 11.6074C189.543 11.7704 189.543 11.9333 189.39 12.0963L188.019 14.5407C187.867 14.8667 187.714 14.8667 187.562 14.8667C187.41 14.8667 187.257 14.8667 187.105 14.7037C186.038 13.8889 184.667 13.563 182.99 13.563C182.076 13.563 181.467 13.7259 181.01 14.0518C180.552 14.3778 180.4 14.8667 180.4 15.5185C180.4 16.0074 180.552 16.3333 180.705 16.6593C181.01 16.9852 181.314 17.1481 181.619 17.4741C182.076 17.637 182.686 17.963 183.448 18.2889L184.057 18.4519C185.429 19.1037 186.648 19.5926 187.41 20.2444C188.324 20.7333 188.933 21.5481 189.39 22.363C189.848 23.1778 190 24.1556 190 25.2963C190 27.0889 189.39 28.7185 188.019 29.6963C187.105 30.3481 185.124 31 182.686 31Z" fill="black"/>
<path d="M196.837 30C196.525 30 196.369 30 196.213 29.8495C196.057 29.6989 195.901 29.5484 195.901 29.2473L192 16.7527C192 16.6022 192 16.6021 192 16.4516C192 16.1505 192.156 16 192.624 16H196.525C196.837 16 196.993 16 197.149 16.1505C197.305 16.3011 197.305 16.3011 197.461 16.6021L199.021 23.2258L201.05 17.957C201.206 17.6559 201.206 17.5054 201.362 17.5054C201.518 17.3548 201.674 17.3548 201.986 17.3548H203.858C204.17 17.3548 204.326 17.3548 204.482 17.5054C204.638 17.6559 204.638 17.8065 204.794 17.957L206.823 23.2258L208.539 16.6021C208.539 16.4516 208.695 16.3011 208.851 16.1505C209.007 16 209.163 16 209.319 16H213.376C213.844 16 214 16.1505 214 16.4516C214 16.4516 214 16.6022 214 16.7527L210.099 29.2473C209.943 29.5484 209.943 29.6989 209.787 29.8495C209.631 30 209.475 30 209.163 30H206.199C205.887 30 205.731 30 205.574 29.8495C205.418 29.6989 205.262 29.5484 205.262 29.2473L203.234 23.9785L201.206 29.2473C201.05 29.5484 201.05 29.6989 200.894 29.8495C200.738 30 200.582 30 200.27 30H196.837Z" fill="black"/>
<path d="M221.415 31C219.491 31 217.887 30.3535 216.764 29.0606C215.641 27.7677 215 25.9899 215 23.7273C215 21.9495 215.321 20.495 216.123 19.202C216.925 17.9091 218.047 16.9394 219.491 16.1313C220.934 15.4848 222.698 15 224.462 15C226.066 15 227.349 15.1616 228.632 15.4849C229.915 15.8081 230.877 16.2929 232 16.9394V29.3838C232 29.7071 232 30.0303 231.84 30.1919C231.679 30.3535 231.359 30.3535 231.038 30.3535H227.83C227.67 30.3535 227.509 30.3535 227.349 30.1919C227.189 30.0303 227.189 30.0303 227.028 29.8687L226.547 28.899C225.906 29.5454 225.264 30.0303 224.462 30.3535C223.66 30.8384 222.698 31 221.415 31ZM223.821 26.798C224.623 26.798 225.264 26.6364 225.745 26.1515C226.226 25.8283 226.387 25.1818 226.387 24.5354V19.6869C226.066 19.5253 225.425 19.3636 224.943 19.3636C223.821 19.3636 223.019 19.6869 222.377 20.495C221.736 21.303 221.415 22.2727 221.415 23.7273C221.255 25.6667 222.057 26.798 223.821 26.798Z" fill="black"/>
<path d="M235.589 36C234.953 36 234.636 35.8421 234.318 35.6842C234.159 35.3684 234 35.0526 234 34.5789V17.2105C234.953 16.5789 236.065 15.9474 237.495 15.6316C238.925 15.1579 240.355 15 241.785 15C247.981 15 251 17.5263 251 22.7368C251 25.1053 250.364 27 249.093 28.4211C247.822 29.8421 245.916 30.4737 243.533 30.4737C242.897 30.4737 242.262 30.3158 241.626 30.1579C240.991 30 240.514 29.8421 240.037 29.5263V34.5789C240.037 35.0526 239.879 35.5263 239.72 35.6842C239.402 36 239.084 36 238.449 36H235.589ZM242.262 26.2105C243.215 26.2105 243.85 25.8947 244.168 25.2632C244.645 24.6316 244.804 23.6842 244.804 22.5789C244.804 21.3158 244.486 20.3684 244.009 19.7368C243.533 19.2632 242.738 18.9474 241.626 18.9474C240.991 18.9474 240.355 19.1053 240.037 19.2632V24C240.037 24.6316 240.196 25.2632 240.673 25.5789C240.991 26.0526 241.626 26.2105 242.262 26.2105Z" fill="black"/>
<path fill-rule="evenodd" clip-rule="evenodd" d="M7.13415 6.1579C6.5 3 9.03659 0 12.2073 0C15.061 0 17.439 2.36842 17.439 5.21053V11.5263C18.2317 11.5263 18.8659 11.5263 19.6585 11.5263C20.2927 11.5263 21.0854 11.5263 21.7195 11.5263V5.21053C21.7195 2.36842 24.0976 0 26.9512 0C30.122 0 32.6585 3 32.0244 6.1579L30.5976 13.5789C35.3537 15.6316 39 19.2632 39 23.8421V26.5263C39 30.3158 36.4634 33.4737 32.9756 35.5263C29.4878 37.7368 24.7317 39 19.5 39C14.2683 39 9.51219 37.7368 6.02439 35.5263C2.53658 33.4737 0 30.3158 0 26.5263V23.8421C0 19.2632 3.64634 15.6316 8.40244 13.5789L7.13415 6.1579ZM28.8537 14.6842L30.439 6C30.9146 3.78947 29.1707 1.73684 26.9512 1.73684C24.8902 1.73684 23.3049 3.31579 23.3049 5.36842V13.4211C22.8293 13.4211 22.1951 13.2632 21.7195 13.2632C21.0854 13.2632 20.2927 13.2632 19.6585 13.2632C18.8659 13.2632 18.2317 13.2632 17.439 13.4211C16.9634 13.4211 16.3293 13.5789 15.8537 13.5789V5.52632C15.8537 3.47368 14.2683 1.89474 12.2073 1.89474C9.98781 1.89474 8.2439 3.94737 8.71951 6.1579L10.3049 15C5.23171 16.8947 1.7439 20.3684 1.7439 24.3158V27C1.7439 33 9.67073 37.8947 19.5 37.8947C29.3293 37.8947 37.2561 33 37.2561 27V24.3158C37.4146 20.0526 33.9268 16.5789 28.8537 14.6842Z" fill="#633001"/>
<path d="M36.8444 26.5698C36.8444 32.314 29.0667 37 19.4222 37C9.77778 37 2 32.314 2 26.5698V24H37V26.5698H36.8444Z" fill="#FEDC90"/>
<path fill-rule="evenodd" clip-rule="evenodd" d="M8.5625 6.11429C8.09375 3.98095 9.8125 2 12 2C14.0312 2 15.5937 3.52381 15.5937 5.50476V13.4286C16.8437 13.2762 18.0937 13.1238 19.3437 13.1238C20.5937 13.1238 21.8438 13.2762 22.9375 13.2762V5.50476C22.9375 3.52381 24.5 2 26.5312 2C28.7187 2 30.4375 3.98095 29.9688 6.11429L28.4062 14.4952C33.5625 16.3238 37 19.6762 37 23.4857C37 29.2762 29.1875 34 19.5 34C9.8125 34 2 29.2762 2 23.4857C2 19.6762 5.4375 16.3238 10.4375 14.4952L8.5625 6.11429Z" fill="#D1884F"/>
<path d="M15 23C15 24.579 14 26 13 26C12 26 11 24.7368 11 23C11 21.4211 12 20 13 20C14 20 15 21.2632 15 23Z" fill="#633001"/>
<path d="M28 23C28 24.579 27.25 26 26.5 26C25.625 26 25 24.7368 25 23C25 21.4211 25.75 20 26.5 20C27.25 20 28 21.2632 28 23Z" fill="#633001"/>
</svg>
