<svg width="558" height="509" viewBox="0 0 558 509" fill="none" xmlns="http://www.w3.org/2000/svg">
<path d="M43.1912 136.527C44.1117 81.0848 101.216 38.2293 152.939 32.4165C148.821 31.7227 140.201 27.7591 113.194 27.3107C55.7703 32.7716 11.1573 83.0746 18.6858 150.364C25.6408 212.529 61.8953 245.246 103.37 249.28C138.142 250.435 140.268 248.104 150.56 246.879C99.0549 239.561 42.2707 191.969 43.1912 136.527Z" fill="url(#paint0_linear_2253_171)"/>
<path d="M129.249 247.063C77.8224 246.21 36.9983 196.935 37.9953 136.884C38.9923 76.8331 81.4297 28.9412 132.856 29.795C184.282 30.6488 225.106 79.9231 224.109 139.974C222.908 200.022 180.471 247.914 129.249 247.063Z" fill="url(#paint1_linear_2253_171)"/>
<path d="M129.214 249.148C76.7675 248.277 34.9403 197.944 35.9546 136.85C36.9689 75.7562 80.4439 26.8387 132.891 27.7095C185.337 28.5802 227.164 78.914 226.15 140.008C225.136 201.101 181.457 250.016 129.214 249.148ZM132.818 32.0882C82.616 31.2547 41.0088 78.3261 40.0326 137.126C39.0564 195.926 79.078 244.353 129.28 245.186C179.482 246.02 221.089 198.949 222.065 140.148C222.837 81.3449 182.816 32.9183 132.818 32.0882Z" fill="url(#paint2_linear_2253_171)"/>
<path opacity="0.6" d="M133.064 226.27C91.0247 225.572 57.5989 185.597 58.3986 137.431C59.2017 89.0568 94.1367 50.4259 135.972 51.1205C177.806 51.815 211.436 91.7928 210.636 139.959C210.041 188.128 175.102 226.968 133.064 226.27ZM135.937 53.2056C95.1224 52.5279 61.2217 90.3417 60.4393 137.465C59.6569 184.589 92.2837 223.507 133.098 224.185C173.913 224.862 207.813 187.048 208.596 139.925C209.378 92.8015 176.751 53.8832 135.937 53.2056Z" fill="url(#paint3_linear_2253_171)"/>
<path opacity="0.6" d="M133.814 217.94C96.0605 217.313 65.8341 181.354 66.5542 137.984C67.2777 94.4054 98.6811 59.4701 136.434 60.0969C174.188 60.7237 204.414 96.6822 203.691 140.261C202.971 183.631 171.567 218.567 133.814 217.94ZM136.424 60.7224C99.0789 60.1024 67.8865 94.624 67.1699 137.786C66.4533 180.948 96.2784 216.482 133.828 217.106C171.377 217.729 202.365 183.204 203.082 140.042C203.799 96.8805 173.973 61.3459 136.424 60.7224Z" fill="url(#paint4_linear_2253_171)"/>
<path d="M187.927 143.127L185.485 142.67L188.553 142.304L191.199 142.765L187.927 143.127Z" fill="#8E92BF"/>
<path d="M187.722 143.124L185.076 142.663L187.722 143.124Z" fill="#9093C0"/>
<path d="M187.722 143.124L185.076 142.663L185.281 142.667L187.722 143.124C187.927 143.128 187.927 143.128 187.722 143.124Z" fill="#8D91BF"/>
<path d="M187.11 143.115L184.464 142.654L184.668 142.657L187.314 143.118C187.314 143.118 187.314 143.118 187.11 143.115Z" fill="#9296C2"/>
<path d="M187.314 143.118L184.667 142.657C184.872 142.661 184.872 142.661 185.076 142.664L187.722 143.125C187.518 143.122 187.518 143.122 187.314 143.118Z" fill="#9093C0"/>
<path d="M185.433 121.186L182.991 120.729L189.124 120.205L191.566 120.662L185.433 121.186Z" fill="#8E92BF"/>
<path d="M183.949 112.194L181.507 111.736L183.143 111.554L185.789 112.016L183.949 112.194Z" fill="#8E92BF"/>
<path d="M182.862 153.055L180.216 152.594C176.145 151.901 173.963 148.11 174.06 142.272L176.706 142.733C176.609 148.571 178.791 152.362 182.862 153.055Z" fill="#868BBB"/>
<path d="M176.709 142.525L174.063 142.064L174.465 130.182L177.111 130.643L176.709 142.525Z" fill="#8489BA"/>
<path d="M177.048 122.091L174.402 121.63L181.507 111.737L183.949 112.194L177.048 122.091Z" fill="#8589BA"/>
<path d="M167.641 123.185L164.995 122.724L174.403 121.629L177.049 122.09L167.641 123.185Z" fill="#8E92BF"/>
<path d="M167.11 155.088L164.464 154.627L158.757 141.809L161.403 142.27L167.11 155.088Z" fill="#8489BA"/>
<path d="M161.504 136.224L158.858 135.763L164.994 122.725L167.641 123.186L161.504 136.224Z" fill="#8489BA"/>
<path d="M152.594 156.515L149.948 156.054L150.336 145.006L152.778 145.464L152.594 156.515Z" fill="#8489BA"/>
<path d="M153.722 113.152L151.073 112.899L159.46 111.787L162.106 112.248L153.722 113.152Z" fill="#8E92BF"/>
<path d="M153.14 135.876L150.494 135.415L151.072 112.899L153.722 113.152L153.14 135.876Z" fill="#8489BA"/>
<path d="M139.444 149.415L136.798 148.954L139.444 149.415Z" fill="#9093C0"/>
<path d="M139.444 149.415L136.798 148.954L137.002 148.957C137.206 148.961 137.206 148.961 137.41 148.964L140.056 149.425C139.852 149.422 139.852 149.422 139.648 149.418C139.648 149.418 139.648 149.418 139.444 149.415Z" fill="#8D91BF"/>
<path d="M140.06 149.216L137.414 148.755C137.618 148.759 137.826 148.554 138.03 148.557L140.676 149.018C140.468 149.223 140.264 149.22 140.06 149.216Z" fill="#8B8FBE"/>
<path d="M140.675 149.018L138.029 148.557C138.234 148.561 138.645 148.359 138.853 148.154L141.499 148.615C141.291 148.82 141.084 149.025 140.675 149.018Z" fill="#898DBC"/>
<path d="M141.495 148.823L138.849 148.362C141.115 147.148 142.588 144.461 142.644 141.125L145.29 141.586C145.238 144.714 143.761 147.609 141.495 148.823Z" fill="#868BBB"/>
<path d="M145.497 141.381L142.851 140.92C142.91 137.375 141.322 134.637 138.88 134.179L141.526 134.641C143.761 135.303 145.556 137.836 145.497 141.381Z" fill="#868BBB"/>
<path d="M138.423 149.398L135.777 148.937C135.981 148.941 135.981 148.941 136.185 148.944L138.832 149.405C138.832 149.405 138.627 149.402 138.423 149.398Z" fill="#9296C2"/>
<path d="M138.832 149.405L136.186 148.944C136.39 148.947 136.594 148.95 136.594 148.95L139.24 149.411C139.24 149.411 139.036 149.408 138.832 149.405Z" fill="#9093C0"/>
<path d="M137.652 158.978L135.006 158.517C133.785 158.288 132.568 157.851 131.561 157L134.207 157.461C135.214 158.312 136.431 158.749 137.652 158.978Z" fill="#868BBB"/>
<path d="M135.318 127.446L132.672 126.985C133.295 126.37 133.914 125.963 134.737 125.559L137.383 126.02C136.56 126.424 135.937 127.039 135.318 127.446Z" fill="#868BBB"/>
<path d="M137.38 126.229L134.734 125.768C135.35 125.57 135.765 125.159 136.377 125.169L139.023 125.631C138.411 125.62 137.795 125.819 137.38 126.229Z" fill="#898DBC"/>
<path d="M139.027 125.422L136.381 124.961C136.793 124.759 137.201 124.766 137.612 124.564L140.258 125.025C139.847 125.227 139.439 125.22 139.027 125.422Z" fill="#8B8FBE"/>
<path d="M140.259 125.026L137.609 124.773C137.813 124.776 138.017 124.78 138.429 124.578C138.633 124.581 138.837 124.585 139.245 124.592L141.891 125.053C141.687 125.049 141.483 125.046 141.075 125.039C140.667 125.032 140.463 125.029 140.259 125.026Z" fill="#8D91BF"/>
<path d="M141.687 125.049L139.041 124.588L139.245 124.591C139.653 124.598 140.061 124.605 140.469 124.611L143.115 125.072C142.711 124.857 142.302 124.85 141.687 125.049C141.891 125.052 141.687 125.049 141.687 125.049Z" fill="#9093C0"/>
<path d="M143.115 125.073L140.469 124.612C140.673 124.615 141.081 124.622 141.285 124.625L143.931 125.086C143.727 125.083 143.319 125.076 143.115 125.073Z" fill="#9296C2"/>
<path d="M125.614 170.876L122.968 170.415L124.11 126.217L126.756 126.678L125.614 170.876Z" fill="#8489BA"/>
<path d="M185.754 129.612L185.585 139.829C185.55 141.915 186.55 143.183 188.182 143.21L188.386 143.213L191.658 142.85L191.499 152.442L185.771 153.181C185.567 153.178 185.363 153.174 184.955 153.167C180.054 153.295 177.055 149.491 177.169 142.61L177.574 130.519L173.074 131.07L169.487 138.102L177.391 153.876L167.37 154.961L161.663 142.144L161.234 155.694L152.85 156.597L153.033 145.546C151.48 153.029 146.493 158.369 140.357 159.101C140.152 159.098 139.744 159.091 139.54 159.088C137.704 159.057 135.874 158.61 134.463 157.543L134.051 170.051L125.667 170.954L126.809 126.757L135.397 125.856L135.369 127.524C137.23 126.095 139.081 125.292 141.125 125.117C141.533 125.124 141.737 125.127 141.941 125.131C147.659 125.017 151.875 129.259 152.989 135.951L153.567 113.435L161.951 112.532L161.349 136.507L167.485 123.469L176.893 122.374L183.797 112.269L185.433 112.087L185.277 121.47L191.413 120.738L191.271 129.287L185.754 129.612ZM145.756 141.254C145.822 137.292 143.826 134.548 140.765 134.497C140.561 134.493 140.561 134.493 140.357 134.49C137.289 134.856 134.785 138.152 134.715 142.322C134.65 146.284 136.645 149.028 139.706 149.079C139.911 149.082 139.91 149.082 140.115 149.086C143.179 148.928 145.483 145.421 145.756 141.254Z" fill="white"/>
<path d="M126.757 126.678L124.111 126.217L132.699 125.317L135.345 125.778L126.757 126.678Z" fill="#8E92BF"/>
<path d="M79.9546 142.378L77.3086 141.917L77.7135 129.827L80.1554 130.285L79.9546 142.378Z" fill="#8489BA"/>
<path d="M80.1549 130.285L77.713 129.827L86.917 128.728L89.359 129.186L80.1549 130.285Z" fill="#8E92BF"/>
<path d="M89.359 129.186L89.1582 141.279L79.9542 142.378L80.155 130.284L89.359 129.186Z" fill="white"/>
<path d="M79.0209 124.843L76.3749 124.382L76.4995 116.875L79.1455 117.336L79.0209 124.843Z" fill="#8489BA"/>
<path d="M79.1456 117.336L76.4996 116.875L82.4315 116.14L85.0775 116.601L79.1456 117.336Z" fill="#8E92BF"/>
<path d="M85.0775 116.6L84.7454 124.311L79.021 124.842L79.1456 117.336L85.0775 116.6Z" fill="white"/>
<path d="M94.1291 124.677L91.6872 124.219L91.8257 115.879L94.4717 116.34L94.1291 124.677Z" fill="#8489BA"/>
<path d="M94.4712 116.34L91.8252 115.878L98.1618 115.358L100.811 115.61L94.4712 116.34Z" fill="#8E92BF"/>
<path d="M100.812 115.611L100.469 123.948L94.1292 124.677L94.4717 116.34L100.812 115.611Z" fill="white"/>
<path d="M88.0278 123.323L85.3818 122.862L85.6551 118.695L88.0971 119.152L88.0278 123.323Z" fill="#8489BA"/>
<path d="M88.0958 119.153L85.6538 118.695L88.7219 118.329L91.3679 118.79L88.0958 119.153Z" fill="#8E92C0"/>
<path d="M91.3697 118.79L91.0963 122.957L88.0283 123.323L88.0976 119.153L91.3697 118.79Z" fill="white"/>
<path d="M92.2468 164.273L89.6008 163.812L90.5698 130.04L93.0152 130.289L92.2468 164.273Z" fill="#8489BA"/>
<path d="M93.0151 130.289L90.5697 130.04L116.542 127.134L119.188 127.595L93.0151 130.289Z" fill="#8E92C0"/>
<path d="M119.188 127.595L118.548 153.864C118.531 154.906 118.309 155.946 118.091 156.776C117.666 157.812 117.244 158.639 116.822 159.467C116.196 160.29 115.573 160.906 114.954 161.313C114.335 161.719 113.512 162.123 112.696 162.109L92.4508 164.276L93.4232 130.296L119.188 127.595Z" fill="white"/>
<ellipse opacity="0.4" cx="177.017" cy="170.835" rx="145.439" ry="140.113" transform="rotate(-11.27 177.017 170.835)" fill="url(#paint5_radial_2253_171)"/>
<path d="M145.725 281.357C147.346 183.718 247.914 108.244 339.004 98.0072C331.751 96.7853 316.571 89.8051 269.008 89.0153C167.879 98.6326 89.3099 187.222 102.569 305.727C114.817 415.206 178.665 472.824 251.708 479.93C312.946 481.964 316.69 477.858 334.814 475.702C244.108 462.813 144.104 378.997 145.725 281.357Z" fill="url(#paint6_linear_2253_171)"/>
<path d="M297.282 476.025C206.714 474.522 134.818 387.744 136.574 281.987C138.33 176.23 213.067 91.8867 303.634 93.3903C394.202 94.894 466.098 181.672 464.342 287.429C462.227 393.18 387.49 477.523 297.282 476.025Z" fill="url(#paint7_linear_2253_171)"/>
<path d="M297.221 479.697C204.856 478.163 131.194 389.52 132.98 281.927C134.766 174.334 211.331 88.1841 303.695 89.7176C396.06 91.2511 469.722 179.895 467.936 287.488C466.15 395.081 389.226 481.224 297.221 479.697ZM303.567 97.429C215.156 95.9612 141.881 178.859 140.162 282.413C138.442 385.967 208.925 471.252 297.337 472.72C385.748 474.188 459.023 391.289 460.742 287.736C462.102 184.176 391.619 98.8909 303.567 97.429Z" fill="url(#paint8_linear_2253_171)"/>
<path opacity="0.6" d="M304 439.406C229.965 438.176 171.098 367.777 172.507 282.951C173.921 197.758 235.446 129.724 309.122 130.947C382.798 132.171 442.024 202.576 440.615 287.402C439.566 372.234 378.036 440.635 304 439.406ZM309.061 134.619C237.182 133.426 177.478 200.021 176.1 283.01C174.723 366 232.182 434.54 304.061 435.733C375.94 436.927 435.643 370.332 437.021 287.342C438.399 204.352 380.94 135.813 309.061 134.619Z" fill="url(#paint9_linear_2253_171)"/>
<path opacity="0.6" d="M305.322 424.735C238.834 423.631 185.602 360.304 186.87 283.924C188.144 207.177 243.45 145.652 309.938 146.756C376.426 147.859 429.658 211.187 428.384 287.934C427.116 364.314 371.81 425.839 305.322 424.735ZM309.919 147.857C244.15 146.765 189.217 207.562 187.955 283.575C186.693 359.588 239.218 422.168 305.347 423.266C371.475 424.364 426.05 363.562 427.312 287.549C428.574 211.536 376.048 148.955 309.919 147.857Z" fill="url(#paint10_linear_2253_171)"/>
<path d="M400.621 292.982L396.32 292.176L401.723 291.531L406.383 292.343L400.621 292.982Z" fill="#8E92BF"/>
<path d="M400.261 292.977L395.601 292.165L400.261 292.977Z" fill="#9093C0"/>
<path d="M400.261 292.977L395.601 292.165L395.96 292.171L400.261 292.977C400.62 292.983 400.62 292.983 400.261 292.977Z" fill="#8D91BF"/>
<path d="M399.182 292.96L394.522 292.148L394.881 292.154L399.541 292.966C399.541 292.966 399.541 292.966 399.182 292.96Z" fill="#9296C2"/>
<path d="M399.54 292.966L394.88 292.154C395.24 292.16 395.24 292.16 395.599 292.166L400.259 292.978C399.9 292.972 399.9 292.972 399.54 292.966Z" fill="#9093C0"/>
<path d="M396.229 254.341L391.928 253.535L402.728 252.613L407.029 253.419L396.229 254.341Z" fill="#8E92BF"/>
<path d="M393.616 238.504L389.315 237.698L392.197 237.379L396.857 238.191L393.616 238.504Z" fill="#8E92BF"/>
<path d="M391.701 310.466L387.041 309.654C379.872 308.433 376.028 301.758 376.199 291.476L380.859 292.288C380.688 302.57 384.532 309.245 391.701 310.466Z" fill="#868BBB"/>
<path d="M380.865 291.921L376.205 291.109L376.912 270.184L381.572 270.996L380.865 291.921Z" fill="#8489BA"/>
<path d="M381.463 255.935L376.803 255.123L389.315 237.7L393.615 238.506L381.463 255.935Z" fill="#8589BA"/>
<path d="M364.895 257.862L360.235 257.05L376.803 255.121L381.463 255.933L364.895 257.862Z" fill="#8E92BF"/>
<path d="M363.96 314.046L359.301 313.234L349.25 290.661L353.91 291.473L363.96 314.046Z" fill="#8489BA"/>
<path d="M354.087 280.824L349.427 280.012L360.234 257.051L364.894 257.863L354.087 280.824Z" fill="#8489BA"/>
<path d="M338.395 316.56L333.735 315.748L334.418 296.291L338.718 297.097L338.395 316.56Z" fill="#8489BA"/>
<path d="M340.383 240.192L335.717 239.747L350.488 237.788L355.148 238.6L340.383 240.192Z" fill="#8E92BF"/>
<path d="M339.358 280.212L334.698 279.4L335.716 239.747L340.382 240.192L339.358 280.212Z" fill="#8489BA"/>
<path d="M315.236 304.055L310.576 303.243L315.236 304.055Z" fill="#9093C0"/>
<path d="M315.236 304.055L310.576 303.243L310.935 303.249C311.295 303.255 311.295 303.255 311.654 303.261L316.314 304.073C315.955 304.067 315.955 304.067 315.595 304.061C315.595 304.061 315.595 304.061 315.236 304.055Z" fill="#8D91BF"/>
<path d="M316.321 303.705L311.661 302.893C312.021 302.899 312.386 302.538 312.745 302.544L317.405 303.356C317.04 303.717 316.68 303.711 316.321 303.705Z" fill="#8B8FBE"/>
<path d="M317.405 303.356L312.745 302.544C313.105 302.55 313.83 302.195 314.195 301.834L318.855 302.646C318.49 303.007 318.124 303.368 317.405 303.356Z" fill="#898DBC"/>
<path d="M318.85 303.013L314.19 302.201C318.18 300.063 320.775 295.331 320.872 289.456L325.532 290.268C325.441 295.776 322.84 300.875 318.85 303.013Z" fill="#868BBB"/>
<path d="M325.897 289.906L321.237 289.094C321.341 282.851 318.545 278.03 314.245 277.224L318.905 278.036C322.84 279.203 326.001 283.663 325.897 289.906Z" fill="#868BBB"/>
<path d="M313.439 304.028L308.779 303.216C309.138 303.222 309.138 303.222 309.498 303.228L314.158 304.039C314.158 304.039 313.798 304.034 313.439 304.028Z" fill="#9296C2"/>
<path d="M314.158 304.037L309.498 303.225C309.858 303.231 310.217 303.237 310.217 303.237L314.877 304.049C314.877 304.049 314.518 304.043 314.158 304.037Z" fill="#9093C0"/>
<path d="M312.082 320.897L307.422 320.085C305.271 319.682 303.127 318.912 301.355 317.413L306.015 318.225C307.787 319.724 309.931 320.494 312.082 320.897Z" fill="#868BBB"/>
<path d="M307.97 265.366L303.31 264.554C304.406 263.47 305.496 262.754 306.946 262.043L311.606 262.855C310.156 263.566 309.06 264.65 307.97 265.366Z" fill="#868BBB"/>
<path d="M311.601 263.222L306.941 262.41C308.025 262.061 308.756 261.338 309.834 261.356L314.494 262.168C313.416 262.15 312.332 262.5 311.601 263.222Z" fill="#898DBC"/>
<path d="M314.502 261.801L309.843 260.989C310.567 260.634 311.286 260.645 312.011 260.29L316.671 261.102C315.946 261.458 315.227 261.446 314.502 261.801Z" fill="#8B8FBE"/>
<path d="M316.671 261.103L312.005 260.658C312.364 260.664 312.724 260.67 313.449 260.315C313.808 260.321 314.167 260.327 314.886 260.339L319.546 261.151C319.187 261.145 318.827 261.139 318.108 261.127C317.39 261.115 317.03 261.109 316.671 261.103Z" fill="#8D91BF"/>
<path d="M319.186 261.144L314.526 260.332L314.886 260.338C315.604 260.35 316.323 260.362 317.042 260.374L321.702 261.186C320.989 260.806 320.27 260.795 319.186 261.144C319.545 261.15 319.186 261.144 319.186 261.144Z" fill="#9093C0"/>
<path d="M321.701 261.186L317.041 260.374C317.401 260.38 318.119 260.391 318.479 260.397L323.139 261.209C322.779 261.203 322.061 261.192 321.701 261.186Z" fill="#9296C2"/>
<path d="M290.881 341.85L286.221 341.038L288.233 263.201L292.893 264.013L290.881 341.85Z" fill="#8489BA"/>
<path d="M396.795 269.181L396.496 287.174C396.435 290.846 398.196 293.079 401.071 293.127L401.43 293.133L407.193 292.494L406.912 309.386L396.825 310.688C396.465 310.682 396.106 310.676 395.387 310.664C386.756 310.888 381.475 304.189 381.676 292.071L382.389 270.778L374.464 271.749L368.147 284.132L382.065 311.912L364.418 313.823L354.368 291.25L353.612 315.113L338.846 316.704L339.17 297.242C336.434 310.42 327.65 319.824 316.844 321.114C316.485 321.108 315.766 321.096 315.407 321.09C312.172 321.036 308.95 320.248 306.464 318.37L305.739 340.397L290.973 341.989L292.985 264.151L308.11 262.566L308.061 265.504C311.338 262.987 314.597 261.572 318.197 261.264C318.916 261.276 319.275 261.282 319.635 261.288C329.704 261.088 337.129 268.558 339.091 280.344L340.108 240.691L354.874 239.1L353.814 281.323L364.62 258.362L381.189 256.433L393.348 238.637L396.229 238.317L395.955 254.842L406.761 253.552L406.511 268.607L396.795 269.181ZM326.353 289.683C326.469 282.706 322.954 277.872 317.563 277.783C317.204 277.777 317.204 277.777 316.845 277.771C311.442 278.416 307.031 284.22 306.909 291.564C306.794 298.541 310.308 303.374 315.699 303.464C316.059 303.47 316.059 303.47 316.418 303.476C321.815 303.198 325.872 297.021 326.353 289.683Z" fill="white"/>
<path d="M292.893 264.013L288.233 263.201L303.359 261.615L308.018 262.427L292.893 264.013Z" fill="#8E92BF"/>
<path d="M210.468 291.663L205.808 290.851L206.521 269.558L210.822 270.364L210.468 291.663Z" fill="#8489BA"/>
<path d="M210.82 270.364L206.519 269.558L222.728 267.623L227.029 268.43L210.82 270.364Z" fill="#8E92BF"/>
<path d="M227.031 268.429L226.677 289.727L210.468 291.662L210.821 270.364L227.031 268.429Z" fill="white"/>
<path d="M208.825 260.78L204.165 259.968L204.384 246.749L209.044 247.561L208.825 260.78Z" fill="#8489BA"/>
<path d="M209.044 247.561L204.384 246.749L214.831 245.453L219.491 246.265L209.044 247.561Z" fill="#8E92BF"/>
<path d="M219.491 246.264L218.906 259.845L208.824 260.779L209.044 247.56L219.491 246.264Z" fill="white"/>
<path d="M235.433 260.488L231.132 259.682L231.376 244.994L236.036 245.806L235.433 260.488Z" fill="#8489BA"/>
<path d="M236.035 245.805L231.375 244.993L242.535 244.077L247.201 244.521L236.035 245.805Z" fill="#8E92BF"/>
<path d="M247.201 244.522L246.598 259.205L235.432 260.488L236.036 245.806L247.201 244.522Z" fill="white"/>
<path d="M224.688 258.103L220.028 257.292L220.509 249.953L224.81 250.759L224.688 258.103Z" fill="#8489BA"/>
<path d="M224.807 250.759L220.506 249.953L225.909 249.308L230.569 250.12L224.807 250.759Z" fill="#8E92C0"/>
<path d="M230.572 250.121L230.091 257.46L224.688 258.105L224.81 250.76L230.572 250.121Z" fill="white"/>
<path d="M232.116 330.221L227.456 329.409L229.163 269.933L233.469 270.371L232.116 330.221Z" fill="#8489BA"/>
<path d="M233.47 270.371L229.163 269.932L274.904 264.815L279.564 265.627L233.47 270.371Z" fill="#8E92C0"/>
<path d="M279.564 265.627L278.436 311.89C278.406 313.726 278.016 315.556 277.632 317.019C276.883 318.843 276.139 320.3 275.396 321.757C274.294 323.208 273.197 324.291 272.107 325.008C271.016 325.724 269.567 326.435 268.129 326.411L232.476 330.227L234.188 270.383L279.564 265.627Z" fill="white"/>
<ellipse opacity="0.4" cx="406.344" cy="363.256" rx="146.5" ry="138.5" fill="url(#paint11_radial_2253_171)"/>
<path d="M361.56 393.285C362.481 337.843 419.585 294.987 471.308 289.175C467.19 288.481 458.57 284.517 431.563 284.069C374.139 289.53 329.526 339.833 337.055 407.123C344.01 469.287 380.264 502.004 421.739 506.038C456.512 507.193 458.638 504.862 468.929 503.637C417.424 496.319 360.64 448.727 361.56 393.285Z" fill="url(#paint12_linear_2253_171)"/>
<path d="M447.617 503.822C396.191 502.968 355.367 453.693 356.364 393.642C357.361 333.591 399.798 285.699 451.225 286.553C502.651 287.407 543.475 336.681 542.478 396.732C541.277 456.78 498.84 504.672 447.617 503.822Z" fill="url(#paint13_linear_2253_171)"/>
<path d="M447.583 505.906C395.136 505.035 353.309 454.702 354.323 393.608C355.338 332.514 398.813 283.597 451.259 284.468C503.706 285.338 545.533 335.672 544.519 396.766C543.504 457.859 499.825 506.774 447.583 505.906ZM451.187 288.846C400.985 288.013 359.378 335.084 358.401 393.884C357.425 452.684 397.447 501.111 447.649 501.944C497.85 502.778 539.458 455.707 540.434 396.906C541.206 338.103 501.184 289.676 451.187 288.846Z" fill="url(#paint14_linear_2253_171)"/>
<path opacity="0.6" d="M451.433 483.028C409.394 482.33 375.968 442.355 376.768 394.189C377.571 345.815 412.506 307.184 454.341 307.879C496.175 308.573 529.805 348.551 529.006 396.717C528.41 444.886 493.472 483.726 451.433 483.028ZM454.306 309.964C413.492 309.286 379.591 347.1 378.808 394.223C378.026 441.347 410.653 480.265 451.467 480.943C492.282 481.62 526.182 443.807 526.965 396.683C527.747 349.56 495.12 310.641 454.306 309.964Z" fill="url(#paint15_linear_2253_171)"/>
<path opacity="0.6" d="M452.183 474.698C414.43 474.071 384.203 438.112 384.923 394.742C385.647 351.163 417.05 316.228 454.804 316.855C492.557 317.482 522.783 353.44 522.06 397.019C521.34 440.389 489.936 475.325 452.183 474.698ZM454.793 317.481C417.448 316.86 386.256 351.382 385.539 394.544C384.822 437.706 414.648 473.24 452.197 473.864C489.746 474.487 520.734 439.962 521.451 396.8C522.168 353.639 492.342 318.104 454.793 317.481Z" fill="url(#paint16_linear_2253_171)"/>
<path d="M506.295 399.886L503.853 399.428L506.921 399.062L509.567 399.523L506.295 399.886Z" fill="#8E92BF"/>
<path d="M506.091 399.883L503.445 399.422L506.091 399.883Z" fill="#9093C0"/>
<path d="M506.091 399.883L503.445 399.422L503.649 399.425L506.091 399.883C506.295 399.886 506.295 399.886 506.091 399.883Z" fill="#8D91BF"/>
<path d="M505.479 399.873L502.833 399.412L503.037 399.415L505.683 399.877C505.683 399.877 505.683 399.877 505.479 399.873Z" fill="#9296C2"/>
<path d="M505.682 399.877L503.036 399.416C503.24 399.419 503.24 399.419 503.444 399.422L506.09 399.883C505.886 399.88 505.886 399.88 505.682 399.877Z" fill="#9093C0"/>
<path d="M503.802 377.945L501.36 377.487L507.492 376.963L509.934 377.421L503.802 377.945Z" fill="#8E92BF"/>
<path d="M502.318 368.952L499.876 368.494L501.512 368.313L504.158 368.774L502.318 368.952Z" fill="#8E92BF"/>
<path d="M501.231 409.813L498.585 409.352C494.514 408.659 492.332 404.869 492.428 399.03L495.074 399.491C494.978 405.33 497.16 409.12 501.231 409.813Z" fill="#868BBB"/>
<path d="M495.078 399.283L492.432 398.822L492.833 386.94L495.479 387.401L495.078 399.283Z" fill="#8489BA"/>
<path d="M495.417 378.849L492.771 378.388L499.876 368.495L502.318 368.953L495.417 378.849Z" fill="#8589BA"/>
<path d="M486.01 379.944L483.364 379.483L492.772 378.387L495.418 378.848L486.01 379.944Z" fill="#8E92BF"/>
<path d="M485.479 411.846L482.833 411.385L477.126 398.567L479.772 399.028L485.479 411.846Z" fill="#8489BA"/>
<path d="M479.873 392.982L477.227 392.521L483.363 379.483L486.009 379.944L479.873 392.982Z" fill="#8489BA"/>
<path d="M470.963 413.273L468.317 412.812L468.704 401.765L471.146 402.222L470.963 413.273Z" fill="#8489BA"/>
<path d="M472.091 369.91L469.442 369.658L477.829 368.545L480.475 369.006L472.091 369.91Z" fill="#8E92BF"/>
<path d="M471.509 392.635L468.863 392.173L469.441 369.658L472.091 369.91L471.509 392.635Z" fill="#8489BA"/>
<path d="M457.812 406.173L455.166 405.712L457.812 406.173Z" fill="#9093C0"/>
<path d="M457.812 406.173L455.166 405.712L455.37 405.716C455.574 405.719 455.574 405.719 455.778 405.722L458.424 406.183C458.22 406.18 458.22 406.18 458.016 406.177C458.016 406.177 458.016 406.177 457.812 406.173Z" fill="#8D91BF"/>
<path d="M458.429 405.975L455.783 405.513C455.987 405.517 456.194 405.312 456.398 405.315L459.044 405.776C458.837 405.981 458.633 405.978 458.429 405.975Z" fill="#8B8FBE"/>
<path d="M459.044 405.776L456.398 405.315C456.602 405.319 457.014 405.117 457.221 404.912L459.867 405.373C459.66 405.578 459.452 405.783 459.044 405.776Z" fill="#898DBC"/>
<path d="M459.864 405.581L457.218 405.12C459.484 403.906 460.957 401.219 461.013 397.883L463.659 398.344C463.607 401.472 462.13 404.367 459.864 405.581Z" fill="#868BBB"/>
<path d="M463.866 398.139L461.22 397.678C461.279 394.133 459.691 391.395 457.249 390.938L459.895 391.399C462.13 392.062 463.925 394.594 463.866 398.139Z" fill="#868BBB"/>
<path d="M456.792 406.157L454.146 405.696C454.35 405.699 454.35 405.699 454.554 405.703L457.2 406.164C457.2 406.164 456.996 406.16 456.792 406.157Z" fill="#9296C2"/>
<path d="M457.2 406.163L454.554 405.702C454.759 405.705 454.963 405.709 454.963 405.709L457.609 406.17C457.609 406.17 457.405 406.166 457.2 406.163Z" fill="#9093C0"/>
<path d="M456.021 415.736L453.375 415.275C452.154 415.046 450.937 414.609 449.93 413.758L452.576 414.219C453.583 415.07 454.8 415.507 456.021 415.736Z" fill="#868BBB"/>
<path d="M453.686 384.205L451.04 383.744C451.663 383.128 452.282 382.721 453.105 382.318L455.751 382.779C454.928 383.182 454.305 383.798 453.686 384.205Z" fill="#868BBB"/>
<path d="M455.748 382.987L453.102 382.526C453.718 382.328 454.133 381.918 454.745 381.928L457.391 382.389C456.779 382.379 456.163 382.577 455.748 382.987Z" fill="#898DBC"/>
<path d="M457.396 382.18L454.75 381.719C455.161 381.518 455.569 381.524 455.981 381.323L458.627 381.784C458.215 381.985 457.807 381.979 457.396 382.18Z" fill="#8B8FBE"/>
<path d="M458.627 381.784L455.978 381.532C456.182 381.535 456.386 381.538 456.798 381.337C457.002 381.34 457.206 381.343 457.614 381.35L460.26 381.811C460.056 381.808 459.852 381.804 459.444 381.798C459.036 381.791 458.832 381.787 458.627 381.784Z" fill="#8D91BF"/>
<path d="M460.055 381.807L457.409 381.346L457.614 381.35C458.022 381.356 458.43 381.363 458.838 381.37L461.484 381.831C461.079 381.616 460.671 381.609 460.055 381.807C460.26 381.811 460.055 381.807 460.055 381.807Z" fill="#9093C0"/>
<path d="M461.483 381.831L458.837 381.37C459.041 381.373 459.45 381.38 459.654 381.383L462.3 381.844C462.096 381.841 461.687 381.834 461.483 381.831Z" fill="#9296C2"/>
<path d="M443.983 427.634L441.337 427.173L442.479 382.976L445.125 383.437L443.983 427.634Z" fill="#8489BA"/>
<path d="M504.123 386.371L503.954 396.588C503.919 398.673 504.919 399.941 506.551 399.968L506.755 399.971L510.027 399.609L509.868 409.2L504.14 409.939C503.936 409.936 503.732 409.932 503.324 409.926C498.423 410.053 495.424 406.249 495.538 399.368L495.943 387.278L491.443 387.829L487.856 394.861L495.759 410.634L485.739 411.719L480.032 398.902L479.603 412.452L471.219 413.355L471.402 402.304C469.849 409.787 464.861 415.127 458.725 415.859C458.521 415.856 458.113 415.849 457.909 415.846C456.073 415.815 454.243 415.368 452.832 414.302L452.42 426.809L444.036 427.713L445.178 383.515L453.766 382.615L453.738 384.283C455.599 382.854 457.45 382.05 459.494 381.876C459.902 381.882 460.106 381.886 460.31 381.889C466.028 381.775 470.244 386.017 471.357 392.709L471.935 370.194L480.32 369.29L479.718 393.265L485.854 380.227L495.262 379.132L502.166 369.027L503.802 368.846L503.646 378.229L509.782 377.496L509.64 386.045L504.123 386.371ZM464.125 398.012C464.191 394.05 462.195 391.306 459.134 391.255C458.93 391.252 458.93 391.252 458.726 391.248C455.658 391.615 453.154 394.91 453.084 399.08C453.019 403.042 455.014 405.787 458.075 405.837C458.279 405.841 458.279 405.841 458.483 405.844C461.548 405.686 463.852 402.179 464.125 398.012Z" fill="white"/>
<path d="M445.126 383.436L442.48 382.975L451.068 382.075L453.714 382.536L445.126 383.436Z" fill="#8E92BF"/>
<path d="M398.323 399.136L395.677 398.675L396.082 386.585L398.524 387.042L398.323 399.136Z" fill="#8489BA"/>
<path d="M398.522 387.042L396.081 386.585L405.285 385.486L407.727 385.944L398.522 387.042Z" fill="#8E92BF"/>
<path d="M407.727 385.943L407.527 398.037L398.323 399.136L398.523 387.042L407.727 385.943Z" fill="white"/>
<path d="M397.389 381.601L394.743 381.14L394.867 373.633L397.513 374.094L397.389 381.601Z" fill="#8489BA"/>
<path d="M397.517 374.094L394.871 373.633L400.803 372.898L403.449 373.359L397.517 374.094Z" fill="#8E92BF"/>
<path d="M403.446 373.358L403.114 381.07L397.389 381.6L397.514 374.094L403.446 373.358Z" fill="white"/>
<path d="M412.498 381.435L410.056 380.977L410.195 372.637L412.841 373.098L412.498 381.435Z" fill="#8489BA"/>
<path d="M412.84 373.098L410.194 372.637L416.531 372.116L419.18 372.369L412.84 373.098Z" fill="#8E92BF"/>
<path d="M419.181 372.369L418.838 380.706L412.498 381.435L412.841 373.098L419.181 372.369Z" fill="white"/>
<path d="M406.397 380.081L403.751 379.62L404.024 375.453L406.466 375.911L406.397 380.081Z" fill="#8489BA"/>
<path d="M406.464 375.911L404.022 375.453L407.09 375.087L409.736 375.548L406.464 375.911Z" fill="#8E92C0"/>
<path d="M409.738 375.548L409.465 379.715L406.397 380.081L406.466 375.911L409.738 375.548Z" fill="white"/>
<path d="M410.615 421.031L407.969 420.57L408.938 386.798L411.384 387.047L410.615 421.031Z" fill="#8489BA"/>
<path d="M411.384 387.047L408.939 386.798L434.911 383.892L437.557 384.353L411.384 387.047Z" fill="#8E92C0"/>
<path d="M437.557 384.353L436.917 410.622C436.9 411.664 436.678 412.704 436.46 413.534C436.035 414.57 435.613 415.397 435.191 416.225C434.565 417.048 433.942 417.664 433.323 418.071C432.704 418.478 431.881 418.881 431.065 418.867L410.82 421.034L411.792 387.054L437.557 384.353Z" fill="white"/>
<defs>
<linearGradient id="paint0_linear_2253_171" x1="166.203" y1="194.066" x2="67.4201" y2="78.1759" gradientUnits="userSpaceOnUse">
<stop offset="0.0873016" stop-color="#00B9F2"/>
<stop offset="0.9709" stop-color="#435DAA"/>
</linearGradient>
<linearGradient id="paint1_linear_2253_171" x1="224.147" y1="54.3954" x2="44.317" y2="209.947" gradientUnits="userSpaceOnUse">
<stop offset="0.0873016" stop-color="#00B9F2"/>
<stop offset="0.9709" stop-color="#435DAA"/>
</linearGradient>
<linearGradient id="paint2_linear_2253_171" x1="15.4401" y1="54.3521" x2="214.545" y2="193.35" gradientUnits="userSpaceOnUse">
<stop offset="0.0873016" stop-color="#00B9F2"/>
<stop offset="0.9709" stop-color="#435DAA"/>
</linearGradient>
<linearGradient id="paint3_linear_2253_171" x1="178.994" y1="66.5668" x2="87.4576" y2="208.932" gradientUnits="userSpaceOnUse">
<stop offset="1.08255e-07" stop-color="#32C5F4"/>
<stop offset="0.4947" stop-color="#2D3A96"/>
<stop offset="1" stop-color="#232262"/>
</linearGradient>
<linearGradient id="paint4_linear_2253_171" x1="175.146" y1="74.0494" x2="92.7403" y2="202.214" gradientUnits="userSpaceOnUse">
<stop offset="1.08255e-07" stop-color="#32C5F4"/>
<stop offset="0.4947" stop-color="#2D3A96"/>
<stop offset="1" stop-color="#232262"/>
</linearGradient>
<radialGradient id="paint5_radial_2253_171" cx="0" cy="0" r="1" gradientUnits="userSpaceOnUse" gradientTransform="translate(165.254 188.883) rotate(109.781) scale(153.505 113.053)">
<stop stop-color="#070036"/>
<stop offset="0.1173" stop-color="#0A083E" stop-opacity="0.9707"/>
<stop offset="0.3039" stop-color="#112055" stop-opacity="0.9242"/>
<stop offset="0.3342" stop-color="#122459" stop-opacity="0.9166"/>
<stop offset="0.4199" stop-color="#173569" stop-opacity="0.8438"/>
<stop offset="0.589" stop-color="#246093" stop-opacity="0.7001"/>
<stop offset="0.734375" stop-color="#39A6D6" stop-opacity="0.33"/>
<stop offset="0.848958" stop-color="#4CB4DE" stop-opacity="0"/>
</radialGradient>
<linearGradient id="paint6_linear_2253_171" x1="362.363" y1="382.692" x2="188.395" y2="178.595" gradientUnits="userSpaceOnUse">
<stop offset="0.0873016" stop-color="#00B9F2"/>
<stop offset="0.9709" stop-color="#435DAA"/>
</linearGradient>
<linearGradient id="paint7_linear_2253_171" x1="464.409" y1="136.715" x2="147.707" y2="410.659" gradientUnits="userSpaceOnUse">
<stop offset="0.0873016" stop-color="#00B9F2"/>
<stop offset="0.9709" stop-color="#435DAA"/>
</linearGradient>
<linearGradient id="paint8_linear_2253_171" x1="96.8515" y1="136.638" x2="447.498" y2="381.43" gradientUnits="userSpaceOnUse">
<stop offset="0.0873016" stop-color="#00B9F2"/>
<stop offset="0.9709" stop-color="#435DAA"/>
</linearGradient>
<linearGradient id="paint9_linear_2253_171" x1="384.889" y1="158.15" x2="223.683" y2="408.872" gradientUnits="userSpaceOnUse">
<stop offset="1.08255e-07" stop-color="#32C5F4"/>
<stop offset="0.4947" stop-color="#2D3A96"/>
<stop offset="1" stop-color="#232262"/>
</linearGradient>
<linearGradient id="paint10_linear_2253_171" x1="378.113" y1="171.328" x2="232.987" y2="397.04" gradientUnits="userSpaceOnUse">
<stop offset="1.08255e-07" stop-color="#32C5F4"/>
<stop offset="0.4947" stop-color="#2D3A96"/>
<stop offset="1" stop-color="#232262"/>
</linearGradient>
<radialGradient id="paint11_radial_2253_171" cx="0" cy="0" r="1" gradientUnits="userSpaceOnUse" gradientTransform="translate(394.495 381.096) rotate(110.127) scale(152.071 113.628)">
<stop stop-color="#070036"/>
<stop offset="0.1173" stop-color="#0A083E" stop-opacity="0.9707"/>
<stop offset="0.3039" stop-color="#112055" stop-opacity="0.9242"/>
<stop offset="0.3342" stop-color="#122459" stop-opacity="0.9166"/>
<stop offset="0.4199" stop-color="#173569" stop-opacity="0.8438"/>
<stop offset="0.589" stop-color="#246093" stop-opacity="0.7001"/>
<stop offset="0.734375" stop-color="#39A6D6" stop-opacity="0.33"/>
<stop offset="0.848958" stop-color="#4CB4DE" stop-opacity="0"/>
</radialGradient>
<linearGradient id="paint12_linear_2253_171" x1="484.572" y1="450.825" x2="385.789" y2="334.934" gradientUnits="userSpaceOnUse">
<stop offset="0.0873016" stop-color="#00B9F2"/>
<stop offset="0.9709" stop-color="#435DAA"/>
</linearGradient>
<linearGradient id="paint13_linear_2253_171" x1="542.516" y1="311.153" x2="362.686" y2="466.705" gradientUnits="userSpaceOnUse">
<stop offset="0.0873016" stop-color="#00B9F2"/>
<stop offset="0.9709" stop-color="#435DAA"/>
</linearGradient>
<linearGradient id="paint14_linear_2253_171" x1="333.809" y1="311.11" x2="532.914" y2="450.108" gradientUnits="userSpaceOnUse">
<stop offset="0.0873016" stop-color="#00B9F2"/>
<stop offset="0.9709" stop-color="#435DAA"/>
</linearGradient>
<linearGradient id="paint15_linear_2253_171" x1="497.363" y1="323.325" x2="405.827" y2="465.69" gradientUnits="userSpaceOnUse">
<stop offset="1.08255e-07" stop-color="#32C5F4"/>
<stop offset="0.4947" stop-color="#2D3A96"/>
<stop offset="1" stop-color="#232262"/>
</linearGradient>
<linearGradient id="paint16_linear_2253_171" x1="493.515" y1="330.807" x2="411.109" y2="458.972" gradientUnits="userSpaceOnUse">
<stop offset="1.08255e-07" stop-color="#32C5F4"/>
<stop offset="0.4947" stop-color="#2D3A96"/>
<stop offset="1" stop-color="#232262"/>
</linearGradient>
</defs>
</svg>
