<svg width="130" height="33" viewBox="0 0 130 33" fill="none" xmlns="http://www.w3.org/2000/svg">
<path d="M54.489 17.6881H48.1149V24.6105H44.002V7.75H48.1149V14.3297H54.489V7.75H58.601V24.5419H54.489V17.6881Z" fill="#4EA8DD"/>
<path d="M67.5109 24.7468C63.6039 24.7468 60.7939 22.1423 60.7939 17.8929C60.7939 13.6435 63.5359 11.0391 67.5109 11.0391C71.4179 11.0391 74.1589 13.6435 74.1589 17.6873C74.1589 18.0985 74.1589 18.5098 74.0909 18.8525H64.838C64.975 20.5659 66.072 21.3884 67.374 21.3884C68.539 21.3884 69.156 20.8401 69.499 20.0862H73.8849C73.1999 22.7592 70.8009 24.7468 67.5109 24.7468ZM64.838 16.5907H69.9789C69.9789 15.1514 68.8129 14.2604 67.4429 14.2604C66.0719 14.3289 65.044 15.1514 64.838 16.5907Z" fill="#4EA8DD"/>
<path d="M76.2842 6.85938H80.3962V24.5423H76.2842V6.85938Z" fill="#4EA8DD"/>
<path d="M82.9321 7.61508C82.9321 6.38138 83.8921 5.42188 85.4001 5.42188C86.8391 5.42188 87.7991 6.38138 87.7991 7.61508C87.7991 8.84878 86.8391 9.80828 85.4001 9.80828C83.9601 9.80828 82.9321 8.84878 82.9321 7.61508ZM83.3441 11.2476H87.4561V24.6126H83.3441V11.2476Z" fill="#4EA8DD"/>
<path d="M103.563 24.6149H99.4501V22.7644C98.6281 23.9296 97.1881 24.752 95.4061 24.752C92.3221 24.752 90.2661 22.6273 90.2661 19.0633V11.25H94.3101V18.515C94.3101 20.3656 95.3381 21.3251 96.8461 21.3251C98.4221 21.3251 99.4501 20.297 99.4501 18.515V11.25H103.563V24.6149Z" fill="#4EA8DD"/>
<path d="M124.947 17.3446C124.947 15.6312 123.919 14.6716 122.411 14.6716C120.903 14.6716 119.875 15.6312 119.875 17.3446V24.6097H115.831V17.3446C115.831 15.6312 114.803 14.6716 113.295 14.6716C111.787 14.6716 110.759 15.6312 110.759 17.3446V24.6097H106.647V11.2447H110.759V12.8896C111.582 11.793 112.884 11.0391 114.666 11.0391C116.654 11.0391 118.299 11.9301 119.19 13.5065C120.081 12.0672 121.725 11.0391 123.713 11.0391C127.003 11.0391 129.128 13.1638 129.128 16.7278V24.5412H125.084V17.3446H124.947Z" fill="#4EA8DD"/>
<path d="M15.901 0.828125C24.674 0.828125 31.802 7.95613 31.802 16.729C31.802 25.5019 24.674 32.6299 15.901 32.6299C7.128 32.6299 0 25.5019 0 16.729C0.069 7.88752 7.128 0.828125 15.901 0.828125ZM19.259 8.23022C18.711 8.77852 18.437 9.39542 18.3 10.0808C15.764 9.12122 12.817 9.73813 10.898 11.6571C8.97901 13.5762 8.36198 16.5234 9.32098 19.0593C8.63598 19.1964 8.01901 19.5391 7.47101 20.0188C6.10001 21.3896 6.10001 23.7199 7.47101 25.0907C8.84201 26.4614 11.172 26.4614 12.543 25.0907C13.091 24.5424 13.365 23.9255 13.502 23.2401C14.256 23.5143 15.147 23.6514 15.901 23.6514C17.752 23.6514 19.534 22.966 20.836 21.5952C22.755 19.6761 23.372 16.729 22.412 14.1931C23.098 14.056 23.714 13.7133 24.263 13.2335C25.634 11.8628 25.634 9.53252 24.263 8.16172C22.961 6.79092 20.699 6.79092 19.259 8.23022ZM23.509 9.05272C24.4 9.94372 24.4 11.4515 23.509 12.4111C22.961 12.9594 22.275 13.165 21.521 13.0965C21.453 13.0965 21.453 13.0965 21.384 13.0965C21.179 13.0965 20.904 13.0965 20.699 13.165C20.356 13.3021 20.15 13.5762 20.082 13.8504C19.945 14.1245 20.013 14.4672 20.15 14.8099C20.973 16.5234 20.562 18.5795 19.259 19.9503C17.889 21.3211 15.832 21.6638 14.119 20.8413C13.845 20.7042 13.502 20.7042 13.159 20.7728C12.885 20.9098 12.611 21.1154 12.474 21.3896C12.406 21.5952 12.337 21.8008 12.337 22.0064C12.337 22.075 12.337 22.075 12.337 22.1435C12.474 22.8974 12.2 23.6514 11.652 24.1997C10.761 25.0907 9.25303 25.0907 8.29303 24.1997C7.81303 23.7199 7.60797 23.1716 7.60797 22.5548C7.60797 21.9379 7.88203 21.3211 8.29303 20.9098C8.84203 20.3615 9.527 20.1559 10.349 20.2244C10.418 20.2244 10.486 20.2244 10.624 20.2244C10.829 20.2244 10.966 20.1559 11.103 20.0874C11.377 19.9503 11.652 19.6761 11.72 19.402C11.857 19.1278 11.857 18.7851 11.72 18.4425C10.898 16.729 11.309 14.6728 12.611 13.3021C13.982 11.9313 16.038 11.5886 17.752 12.4111C18.026 12.5482 18.368 12.5481 18.711 12.4796C18.985 12.3425 19.259 12.1369 19.397 11.8628C19.534 11.6571 19.534 11.383 19.465 11.1088C19.328 10.3549 19.602 9.60102 20.15 9.05272C21.041 8.16172 22.549 8.16172 23.509 9.05272ZM14.05 14.8099C13.022 15.838 13.022 17.4829 14.05 18.511C15.079 19.5391 16.724 19.5391 17.752 18.511C18.78 17.4829 18.78 15.838 17.752 14.8099C16.792 13.7818 15.079 13.7818 14.05 14.8099Z" fill="#3CADEF"/>
</svg>
