<svg width="101" height="82" viewBox="0 0 101 82" fill="none" xmlns="http://www.w3.org/2000/svg">
<g clip-path="url(#clip0_3720_20195)">
<path d="M101 5.45087C101 29.1503 101 52.8497 101 76.5491C100.632 77.4181 100.342 78.3661 99.8427 79.1297C98.3961 81.3154 96.2656 82 93.7143 82C64.9135 81.9737 36.0865 82 7.28568 81.9737C6.78594 81.9737 6.2862 81.9737 5.81276 81.8947C3.15625 81.5523 1.36771 80.104 0.394531 77.6288C0.263021 77.2601 0.13151 76.8915 0 76.5228C0 52.8234 0 29.124 0 5.42453C1.47292 1.50096 3.34036 0 6.89115 0C35.9549 0 65.0451 0 94.1089 0C97.6333 0 99.869 1.76429 100.842 5.18754C100.868 5.29287 100.947 5.37187 101 5.45087ZM4.60286 17.5112C4.60286 17.8799 4.60286 18.1432 4.60286 18.4066C4.60286 37.2344 4.60286 56.0623 4.60286 74.8902C4.60286 76.7335 5.23412 77.3391 7.12786 77.3391C36.0339 77.3391 64.9135 77.3391 93.8195 77.3391C95.8711 77.3391 96.4497 76.7598 96.4497 74.6795C96.4497 55.9833 96.4497 37.2871 96.4497 18.5909C96.4497 18.2486 96.4497 17.8799 96.4497 17.4849C65.7552 17.5112 35.2448 17.5112 4.60286 17.5112ZM21.6992 8.00514C17.2016 8.00514 12.7039 8.00514 8.20625 8.00514C7.91693 8.00514 7.5224 7.89981 7.33828 8.0578C6.94375 8.34746 6.47031 8.74245 6.3388 9.19011C6.15469 9.82209 6.54922 10.3487 7.23307 10.4804C7.575 10.5594 7.94323 10.5331 8.31146 10.5331C17.1753 10.5331 26.0391 10.5331 34.9029 10.5331C35.2974 10.5331 35.7971 10.6121 36.0602 10.4277C36.4284 10.1381 36.8492 9.61143 36.8492 9.16378C36.8492 8.79512 36.3495 8.34746 35.9549 8.0578C35.7445 7.89981 35.3237 8.00514 34.9818 8.00514C30.563 8.00514 26.1443 8.00514 21.6992 8.00514ZM76.9073 13.377C79.3008 13.377 80.9841 11.718 80.9841 9.29544C81.0104 6.89916 79.3008 5.16121 76.9336 5.16121C74.5664 5.16121 72.8568 6.87283 72.8305 9.26911C72.8305 11.639 74.5138 13.3507 76.9073 13.377ZM89.1641 13.377C91.5576 13.377 93.2409 11.718 93.2672 9.29544C93.2935 6.89916 91.5839 5.16121 89.2167 5.13487C86.8232 5.10854 85.1398 6.79383 85.1398 9.21644C85.1398 11.6654 86.7969 13.3507 89.1641 13.377ZM68.6747 9.29544C68.6747 6.87283 67.044 5.16121 64.6505 5.16121C62.2833 5.13487 60.5737 6.8465 60.5737 9.26911C60.5737 11.6917 62.2307 13.4033 64.6242 13.4033C67.0177 13.377 68.6747 11.718 68.6747 9.29544Z" fill="white"/>
<path d="M21.6992 8.0051C26.1443 8.0051 30.563 8.0051 35.0081 8.0051C35.3237 8.0051 35.7445 7.89977 35.9813 8.05776C36.3495 8.34742 36.8755 8.79508 36.8755 9.16374C36.8755 9.58506 36.4547 10.1117 36.0865 10.4277C35.8235 10.6384 35.3237 10.533 34.9292 10.533C26.0391 10.533 17.1753 10.533 8.31147 10.533C7.94324 10.533 7.57502 10.5594 7.23309 10.4804C6.54923 10.3224 6.1547 9.82205 6.33882 9.19007C6.47033 8.74241 6.94376 8.37375 7.3383 8.05776C7.52241 7.9261 7.91694 8.0051 8.20627 8.0051C12.7039 8.0051 17.2016 8.0051 21.6992 8.0051Z" fill="#4DABE0"/>
<path d="M76.9073 13.3769C74.5138 13.3769 72.8304 11.6653 72.8567 9.24267C72.8567 6.84639 74.5927 5.13477 76.9599 5.13477C79.3271 5.13477 81.0104 6.87272 81.0104 9.269C80.9578 11.7179 79.3008 13.3769 76.9073 13.3769ZM78.5117 9.269C78.5117 8.34735 77.8278 7.63637 76.9336 7.63637C76.013 7.63637 75.3554 8.32102 75.3554 9.269C75.3554 10.1906 75.9867 10.8226 76.881 10.8226C77.8015 10.8753 78.4854 10.217 78.5117 9.269Z" fill="#4DABE0"/>
<path d="M89.164 13.377C86.7706 13.377 85.1398 11.6654 85.1398 9.24276C85.1398 6.82015 86.8232 5.13486 89.2167 5.16119C91.5838 5.18753 93.2935 6.92548 93.2672 9.32176C93.2672 11.6917 91.5838 13.377 89.164 13.377ZM90.7685 9.24276C90.7685 8.32112 90.1372 7.6628 89.243 7.6628C88.3487 7.63647 87.6122 8.37378 87.6122 9.29543C87.6122 10.2171 88.3224 10.9017 89.2693 10.8754C90.1898 10.8227 90.7685 10.1644 90.7685 9.24276Z" fill="#4DABE0"/>
<path d="M68.6747 9.29533C68.6747 11.7179 67.0177 13.3769 64.5979 13.3769C62.2044 13.3769 60.5474 11.6653 60.5474 9.24267C60.5474 6.84639 62.257 5.13477 64.6242 5.13477C67.044 5.1611 68.6747 6.84639 68.6747 9.29533ZM66.2023 9.21633C66.176 8.29469 65.4396 7.61004 64.519 7.6627C63.6247 7.71537 63.0198 8.40002 63.0461 9.32166C63.0724 10.296 63.7299 10.9016 64.7031 10.849C65.6237 10.7963 66.2286 10.1116 66.2023 9.21633Z" fill="#4DABE0"/>
<path d="M67.9646 57.4579C56.2864 57.4579 44.7135 57.4579 33.0617 57.4579C33.0617 51.217 33.0617 45.0025 33.0617 38.7354C44.6872 38.7354 56.2864 38.7354 67.9646 38.7354C67.9646 44.9762 67.9646 51.1644 67.9646 57.4579ZM58.8904 47.3988C58.9693 47.3725 59.0482 47.3461 59.1271 47.3198C59.3638 47.6095 59.6268 47.8991 59.8635 48.1888C60.9156 49.4528 61.9151 50.7694 63.0198 51.9807C63.3091 52.2967 63.9667 52.481 64.3875 52.402C64.7031 52.3494 65.1239 51.77 65.1239 51.4277C65.1765 48.8208 65.1765 46.2402 65.1502 43.6332C65.1502 42.9222 64.7031 42.5536 64.0193 42.5536C63.3091 42.5536 62.8883 42.9222 62.862 43.6332C62.8094 44.7392 62.8357 45.8715 62.8357 46.9775C62.8357 47.2408 62.7831 47.5041 62.7305 47.9255C62.2833 47.3725 61.9677 47.0038 61.6521 46.6088C60.6789 45.4239 59.17 43.5429 58.6799 43.0539C58.1898 42.5649 57.7143 42.5649 57.3122 42.6589C56.9102 42.753 56.6284 43.2382 56.6284 43.5806C56.5495 46.1875 56.5495 48.7681 56.5758 51.375C56.5758 52.1124 56.9966 52.56 57.7594 52.56C58.4958 52.56 58.864 52.086 58.9167 51.3487C58.943 51.0327 58.9167 50.6904 58.9167 50.3744C58.8904 49.3474 58.8904 48.3731 58.8904 47.3988ZM49.5531 50.0321C50.0265 50.0321 50.5 50.0584 50.9471 50.0321C52.8935 49.8477 54.156 48.4258 54.1823 46.4508C54.2086 44.4759 52.8935 42.9749 50.9208 42.7906C50.1055 42.7116 49.2901 42.7379 48.4484 42.7643C47.5542 42.7906 47.0807 43.2382 47.0807 44.1862C47.107 46.0295 47.0807 47.8728 47.0807 49.7161C47.0807 50.6114 47.0544 51.4804 47.1333 52.3757C47.1859 53.0077 47.6331 53.4817 48.238 53.35C48.6588 53.271 49.1849 52.8233 49.2901 52.4284C49.5531 51.77 49.5005 50.9801 49.5531 50.0321ZM40.2948 48.6891C39.5057 46.8985 38.7956 45.3449 38.0854 43.8176C37.6646 42.9222 37.1122 42.6326 36.4021 42.9486C35.6919 43.2646 35.5341 43.8702 35.9286 44.7655C36.9544 47.0828 37.9539 49.4001 39.0323 51.6647C39.2427 52.1124 39.8476 52.6917 40.2685 52.6917C40.6893 52.6917 41.268 52.1387 41.5047 51.6647C42.5831 49.4264 43.5562 47.1355 44.5557 44.8445C45.0029 43.8439 44.845 43.2382 44.1086 42.9222C43.3721 42.6063 42.8461 42.8959 42.3989 43.8966C41.7414 45.4502 41.0838 46.9775 40.2948 48.6891Z" fill="white"/>
<path d="M57.6016 25.4111C66.7284 28.0181 73.9878 37.0502 74.2245 46.8723C72.9883 46.8723 71.7521 46.8723 70.3844 46.8723C70.3844 46.53 70.3844 46.1876 70.3844 45.819C70.3844 43.1857 70.3844 40.5524 70.3844 37.9192C70.3844 36.7342 69.9635 36.3129 68.7799 36.3129C67.0966 36.2865 65.4396 36.2865 63.7562 36.3129C63.1776 36.3129 62.8883 36.1549 62.7305 35.5756C61.731 31.889 60.2055 28.4657 57.6016 25.4111Z" fill="#3CADEF"/>
<path d="M30.6156 46.8723C29.2479 46.8723 28.0117 46.8723 26.7755 46.8723C26.9596 37.3399 34.0086 28.1498 43.3195 25.4375C42.7409 26.2275 42.1885 26.9121 41.7151 27.6758C40.137 30.0721 39.0586 32.7317 38.2958 35.4966C38.1117 36.1549 37.8224 36.3656 37.1385 36.3656C35.5341 36.3129 33.9297 36.3392 32.2989 36.3392C30.9838 36.3392 30.5893 36.7342 30.5893 38.0509C30.5893 40.9475 30.6156 43.8704 30.6156 46.8723Z" fill="#3CADEF"/>
<path d="M26.7492 49.321C28.038 49.321 29.2479 49.321 30.6156 49.321C30.6156 49.6634 30.6156 50.0057 30.6156 50.348C30.6156 52.9023 30.6156 55.4829 30.6156 58.0372C30.6156 59.5381 30.9575 59.8805 32.4831 59.8805C34.0875 59.8805 35.6919 59.8541 37.3226 59.9068C37.612 59.9068 38.0854 60.1701 38.1643 60.4334C39.269 64.1727 40.7682 67.7013 43.3721 70.7822C35.2185 68.5702 27.1437 60.1438 26.7492 49.321Z" fill="#3CADEF"/>
<path d="M70.3844 49.321C71.7521 49.321 72.9357 49.321 74.1456 49.321C74.3034 57.4578 67.9646 67.8329 57.6016 70.7822C59.3638 68.6756 60.6789 66.4373 61.5995 63.9884C61.994 62.9087 62.3885 61.8291 62.7042 60.7231C62.8883 60.0385 63.1776 59.8541 63.8615 59.8805C65.4922 59.9331 67.1492 59.9068 68.7799 59.8805C69.9635 59.8805 70.3581 59.4855 70.3844 58.2742C70.4107 55.3249 70.3844 52.3756 70.3844 49.321Z" fill="#3CADEF"/>
<path d="M40.5841 36.2339C42.1096 29.8614 45.7656 25.0425 49.2375 24.4895C49.2375 28.3867 49.2375 32.284 49.2375 36.2339C46.3969 36.2339 43.5299 36.2339 40.5841 36.2339Z" fill="#3CADEF"/>
<path d="M51.7099 24.5156C53.1567 24.5156 54.3138 25.569 55.2607 26.4643C58.0487 29.0976 59.3901 32.5472 60.4685 36.2337C57.4964 36.2337 54.6294 36.2337 51.7099 36.2337C51.7099 32.3102 51.7099 28.4129 51.7099 24.5156Z" fill="#3CADEF"/>
<path d="M49.2901 59.9595C49.2901 63.9094 49.2901 67.8066 49.2901 71.7565C47.9487 71.5195 46.8966 70.8349 45.9497 69.9659C43.6351 67.8856 42.32 65.147 41.2679 62.3031C41.0049 61.5658 40.7945 60.8021 40.5052 59.9595C43.4773 59.9595 46.3442 59.9595 49.2901 59.9595Z" fill="#3CADEF"/>
<path d="M51.7099 71.7302C51.7099 67.7803 51.7099 63.9094 51.7099 59.9595C54.6031 59.9595 57.4701 59.9595 60.337 59.9595C60.1266 64.5414 55.4711 70.9139 51.7099 71.7302Z" fill="#3CADEF"/>
<path d="M78.5117 9.2691C78.5117 10.1907 77.8016 10.8491 76.881 10.8227C75.9867 10.7964 75.3818 10.1644 75.3555 9.2691C75.3555 8.32112 76.013 7.63647 76.9336 7.63647C77.8279 7.63647 78.5117 8.37379 78.5117 9.2691Z" fill="white"/>
<path d="M90.7685 9.24277C90.7685 10.1644 90.1898 10.8227 89.2693 10.8491C88.3224 10.8754 87.6122 10.2171 87.6122 9.2691C87.6122 8.34746 88.3224 7.63647 89.243 7.63647C90.1372 7.66281 90.7685 8.32112 90.7685 9.24277Z" fill="white"/>
<path d="M66.2024 9.21637C66.2287 10.1117 65.5974 10.7963 64.7031 10.849C63.73 10.9017 63.0724 10.2697 63.0461 9.3217C63.0198 8.40005 63.6248 7.7154 64.519 7.66274C65.4396 7.58374 66.1761 8.29472 66.2024 9.21637Z" fill="white"/>
<path d="M49.5269 44.9236C50.8137 44.9236 51.0051 45.0326 51.441 45.3817C51.8769 45.7309 51.8725 46.9072 51.7547 47.2596C51.591 47.7493 51.1274 47.9518 49.5269 47.9518C49.5269 46.8459 49.5269 46.0822 49.5269 44.9236Z" fill="white"/>
</g>
<defs>
<clipPath id="clip0_3720_20195">
<rect width="101" height="82" fill="white"/>
</clipPath>
</defs>
</svg>
