<svg width="88" height="28" viewBox="0 0 88 28" fill="none" xmlns="http://www.w3.org/2000/svg">
<path d="M52.8441 5.75V22.542H48.7311L41.8771 12.1927V22.542H37.7651V5.75H41.8771L48.7311 16.1679V5.75H52.8441Z" fill="#4EA8DD"/>
<path d="M59.903 15.1398V22.542H55.791V5.75H59.903V13.1522L65.523 5.75H70.321L63.81 13.9747L70.527 22.542H65.523L59.903 15.1398Z" fill="#4EA8DD"/>
<path d="M87.5243 5.75V22.542H83.4123L76.5583 12.1927V22.542H72.4463V5.75H76.5583L83.4123 16.1679V5.75H87.5243Z" fill="#4EA8DD"/>
<path d="M23.0983 11.7752C23.2353 16.847 18.7112 20.3425 13.3652 19.2459C13.7762 13.7628 18.1633 10.4044 23.0983 11.7752Z" fill="#3CADEF"/>
<path d="M7.88188 27.7468C4.24888 23.9771 5.00284 18.5626 9.52684 15.5469C13.1598 19.4536 12.4059 25.0052 7.88188 27.7468Z" fill="#3CADEF"/>
<path d="M16.7921 10.0678C12.6801 13.7004 7.60808 13.0835 4.45508 8.49137C8.29308 4.85887 13.2971 5.47577 16.7921 10.0678Z" fill="#3CADEF"/>
<path d="M15.5582 0.46875C19.1912 1.97655 20.1502 4.64955 18.4372 8.35065C14.9412 7.04845 13.8452 4.23835 15.5582 0.46875Z" fill="#3CADEF"/>
<path d="M13.2969 21.5114C17.5459 20.3462 20.0819 21.5799 20.9039 25.1439C17.6149 26.7203 14.9419 25.4866 13.2969 21.5114Z" fill="#3CADEF"/>
<path d="M7.95099 13.8299C6.09999 17.531 3.29 18.4905 0 16.64C1.234 13.2131 3.97499 12.185 7.95099 13.8299Z" fill="#3CADEF"/>
<path d="M12.8849 5.19395C9.66386 4.78275 8.70383 3.82325 8.84183 1.21875C11.7198 1.28725 12.7479 2.24685 12.8849 5.19395Z" fill="#3CADEF"/>
<path d="M19.6021 20.0737C21.6581 18.0175 23.2351 17.949 25.3591 19.7995C23.3031 21.9242 22.0011 21.9928 19.6021 20.0737Z" fill="#3CADEF"/>
<path d="M0.547852 23.705C0.616852 20.6893 1.4389 19.7983 4.3869 19.25C4.7289 21.9915 3.76985 23.0881 0.547852 23.705Z" fill="#3CADEF"/>
</svg>
