<svg width="127" height="31" viewBox="0 0 127 31" fill="none" xmlns="http://www.w3.org/2000/svg">
<path d="M54.6302 23.75C49.9002 23.75 45.9902 20.186 45.9902 15.1142C45.9902 10.0423 49.9002 6.54688 54.6302 6.54688C59.4202 6.54688 63.1902 10.1109 63.1902 15.1142C63.1902 20.186 59.3502 23.75 54.6302 23.75ZM54.6302 20.0489C57.3002 20.0489 59.0802 18.1299 59.0802 15.1827C59.0802 12.167 57.3702 10.3165 54.6302 10.3165C51.8802 10.3165 50.1703 12.2356 50.1703 15.1827C50.1703 18.0613 51.8802 20.0489 54.6302 20.0489Z" fill="#4EA8DD"/>
<path d="M69.5702 23.6097H65.4502V10.2447H69.5702V12.4379C70.5302 10.9986 71.9702 10.0391 73.7502 10.0391V14.357H72.6503C70.7303 14.357 69.5702 15.0424 69.5702 17.3042V23.6097Z" fill="#4EA8DD"/>
<path d="M81.6301 10.0391C84.9901 10.0391 87.3201 11.8896 88.0701 15.0424H83.6901C83.3401 14.0829 82.6602 13.5345 81.5602 13.5345C80.1202 13.5345 79.0901 14.6997 79.0901 16.8929C79.0901 19.0862 80.1202 20.2513 81.5602 20.2513C82.6602 20.2513 83.3401 19.703 83.6901 18.7435H88.0701C87.3901 21.8277 84.9901 23.7468 81.6301 23.7468C77.7201 23.7468 74.9102 21.1423 74.9102 16.8929C74.9102 12.7121 77.6501 10.0391 81.6301 10.0391Z" fill="#4EA8DD"/>
<path d="M90.2002 5.85938H94.3103V12.0279C95.1303 10.8627 96.5703 10.1088 98.4203 10.1088C101.44 10.1088 103.49 12.2335 103.49 15.7975V23.6109H99.4502V16.3458C99.4502 14.4953 98.4203 13.5357 96.9103 13.5357C95.4103 13.5357 94.3802 14.5638 94.3802 16.3458V23.6109H90.2703V5.85938H90.2002Z" fill="#4EA8DD"/>
<path d="M105.96 6.61508C105.96 5.38138 106.92 4.42188 108.43 4.42188C109.87 4.42188 110.83 5.38138 110.83 6.61508C110.83 7.84878 109.87 8.80828 108.43 8.80828C106.92 8.80828 105.96 7.84878 105.96 6.61508ZM106.3 10.2476H110.42V23.6126H106.3V10.2476Z" fill="#4EA8DD"/>
<path d="M118.44 10.042C120.22 10.042 121.73 10.8644 122.55 12.0981V5.92969H126.66V23.6126H122.55V21.6935C121.79 22.9272 120.42 23.8182 118.44 23.8182C115.15 23.8182 112.54 21.1452 112.54 16.8958C112.54 12.6464 115.21 10.042 118.44 10.042ZM119.67 13.606C118.16 13.606 116.72 14.7711 116.72 16.8958C116.72 19.0205 118.09 20.2542 119.67 20.2542C121.25 20.2542 122.62 19.0891 122.62 16.9644C122.62 14.8397 121.25 13.606 119.67 13.606Z" fill="#4EA8DD"/>
<path d="M0 2.08994C0 2.02144 -3.02717e-05 1.95294 0.0689697 1.88434C0.20597 1.26754 0.617009 0.856238 1.23401 0.787738C1.91901 0.719238 2.60397 1.19894 2.67297 1.95294C2.74197 2.70684 2.262 3.32364 1.508 3.46074C0.684996 3.59784 0.069 2.91244 0 2.29554V2.22704C0 2.15854 0 2.15854 0 2.08994Z" fill="#3CADEF"/>
<path d="M18.9201 30.468C18.4401 30.468 18.0301 30.468 17.6101 30.3995C16.7201 30.3309 15.9001 30.1938 15.0101 29.9882C12.9541 29.4399 11.0351 28.4804 9.39014 27.1096C7.53914 25.6018 6.10014 23.6827 5.14014 21.4209C4.72914 20.4614 4.38712 19.4333 4.25012 18.3367C4.18112 17.8569 4.11213 17.3086 4.04413 16.8289C3.97513 16.3491 3.9751 15.8008 3.9751 15.321C3.9751 14.9783 3.97513 14.6356 4.04413 14.2929C4.11213 13.6761 4.38713 13.1278 4.72913 12.5795C5.27813 11.8941 5.9631 11.4829 6.7851 11.3458C8.6361 11.0031 10.4181 12.2368 10.7611 14.0188C10.8291 14.3615 10.8291 14.7042 10.8291 15.0469C10.8291 15.321 10.8291 15.5952 10.8291 15.8693C10.8291 16.0749 10.8291 16.2805 10.8981 16.4862C10.9661 17.0345 11.0351 17.5142 11.1721 17.994C11.3781 18.8165 11.7891 19.5704 12.2691 20.2558C13.3701 21.6951 14.7401 22.7232 16.4501 23.2715C16.9301 23.4085 17.4801 23.5456 17.9601 23.5456C18.3701 23.6142 18.8501 23.6142 19.2601 23.5456C20.9701 23.4085 22.4802 22.8602 23.7802 21.7636C25.0202 20.7355 25.9101 19.4333 26.3901 17.9255C26.5201 17.4457 26.5901 16.9659 26.6601 16.4862C26.7301 16.0064 26.7301 15.5952 26.7301 15.1154C26.6601 14.1559 26.4601 13.1963 26.0401 12.3739C25.2901 10.7975 24.1901 9.49518 22.6901 8.67278C21.9301 8.26158 21.1101 7.91887 20.2201 7.78177C19.6701 7.71317 19.1201 7.64467 18.5701 7.64467C17.7501 7.64467 16.9301 7.85027 16.1101 8.05587C15.6301 8.19297 15.1501 8.33007 14.6701 8.46717C14.3901 8.53567 14.1201 8.53567 13.8401 8.46717C13.0901 8.33007 12.4061 7.98738 11.9261 7.43908C11.4461 6.89078 11.1031 6.34248 11.0351 5.58858C10.8291 4.28628 11.3091 3.18967 12.4061 2.36717C12.8171 2.02457 13.3701 1.81888 13.8401 1.61328C14.5301 1.33918 15.2801 1.20208 15.9701 1.06498C16.2401 0.996476 16.5901 0.996476 16.8601 0.927876C17.2001 0.859376 17.5501 0.859375 17.8201 0.859375C18.1601 0.859375 18.5101 0.859375 18.8501 0.859375C19.3301 0.859375 19.8101 0.927876 20.2901 0.927876C21.5201 1.06498 22.7601 1.33918 23.9201 1.75038C25.3601 2.29868 26.6601 3.05257 27.9001 4.01217C29.4001 5.24587 30.7101 6.68517 31.6701 8.39857C32.3501 9.63227 32.8301 10.9345 33.1701 12.3053C33.3101 12.8536 33.3801 13.4019 33.4501 14.0188C33.5201 14.3615 33.5201 14.7727 33.5201 15.1154C33.5201 15.5266 33.5201 15.8693 33.5201 16.2805C33.5201 16.6232 33.4501 17.0345 33.4501 17.3772C33.3801 18.1996 33.1701 19.0221 32.9701 19.8445C32.4901 21.4895 31.7301 22.9973 30.7101 24.3681C29.4001 26.1501 27.7601 27.5208 25.8401 28.6175C24.5401 29.3028 23.1701 29.8511 21.7301 30.1253C21.2501 30.1938 20.7701 30.2624 20.2901 30.3309C19.8101 30.3995 19.3301 30.3995 18.9201 30.468Z" fill="#3CADEF"/>
<path d="M2.46777 7.70959C2.46777 6.33879 3.56375 5.24219 4.93475 5.24219C6.23675 5.24219 7.40174 6.33879 7.33374 7.77819C7.26474 9.08039 6.16878 10.1085 4.86578 10.1085C3.56378 10.177 2.46777 9.08039 2.46777 7.70959Z" fill="#3CADEF"/>
<path d="M5.48291 2.70806C5.48291 1.74856 6.23692 0.857562 7.40192 0.789062C8.49892 0.789062 9.25293 1.68006 9.25293 2.70806C9.25293 3.66766 8.42992 4.55866 7.33392 4.62716C6.30592 4.62716 5.48291 3.73616 5.48291 2.70806Z" fill="#3CADEF"/>
</svg>
