<svg width="93" height="35" viewBox="0 0 93 35" fill="none" xmlns="http://www.w3.org/2000/svg">
<path d="M55.379 23.5791H52.844V29.6105H48.731V12.75H55.379C59.492 12.75 61.548 15.0804 61.548 18.1646C61.548 20.9747 59.629 23.5791 55.379 23.5791ZM55.037 20.2893C56.682 20.2893 57.367 19.4668 57.367 18.1646C57.367 16.8624 56.682 16.0399 55.037 16.0399H52.844V20.2207H55.037V20.2893Z" fill="white"/>
<path d="M67.7849 22.1398V29.542H63.6729V12.75H67.7849V20.1522L73.4048 12.75H78.2029L71.6918 20.9747L78.4088 29.542H73.4048L67.7849 22.1398Z" fill="white"/>
<path d="M79.437 12.75H92.459V16.0399H88.004V29.542H83.892V16.0399H79.437V12.75Z" fill="white"/>
<path d="M9.80087 9.1875H1.23389V17.6862H9.80087V9.1875Z" fill="#3CADEF"/>
<path d="M5.41501 0H0V5.346H5.41501V0Z" fill="#3CADEF"/>
<path d="M19.9452 0.546875H14.1191V6.30417H19.9452V0.546875Z" fill="#3CADEF"/>
<path d="M11.3087 1.98438H8.42969V4.86297H11.3087V1.98438Z" fill="#3CADEF"/>
<path d="M37.1482 10.2812V28.7865C37.1482 29.4719 37.0112 30.1574 36.7372 30.8428C36.4632 31.4596 36.0522 32.0764 35.5722 32.5561C35.0922 33.0359 34.4752 33.4472 33.8582 33.7214C33.1732 33.9955 32.4882 34.1325 31.8022 34.1325H13.1592V10.2812H37.1482Z" fill="#3CADEF"/>
</svg>
