<svg width="91" height="81" viewBox="0 0 91 81" fill="none" xmlns="http://www.w3.org/2000/svg">
<g clip-path="url(#clip0_3720_17494)">
<path d="M2.03773e-06 53.8321C0.402867 52.9441 0.71094 51.9841 1.25599 51.1921C2.36979 49.5361 4.02865 48.7201 5.99558 48.6001C6.20886 48.6001 6.39844 48.6001 6.61172 48.6001C32.5135 48.6001 58.4391 48.6001 84.3409 48.6001C87.8245 48.6001 90.3365 50.6401 90.9052 53.9521C90.9763 54.3841 90.9763 54.8401 90.9763 55.2961C90.9763 59.8321 90.9763 64.3441 90.9763 68.8801C90.9763 72.9361 88.3695 75.6001 84.3646 75.6001C82.9901 75.6001 81.5919 75.6001 80.1227 75.6001C80.1227 76.5121 80.1464 77.3521 80.1227 78.1681C80.099 79.7761 78.9852 80.9761 77.4922 80.9761C75.9755 81.0001 74.8143 79.8001 74.7906 78.1441C74.7906 77.3281 74.7906 76.5361 74.7906 75.6481C55.2636 75.6481 35.7602 75.6481 16.1383 75.6481C16.1383 76.4401 16.1383 77.2321 16.1383 78.0241C16.1146 79.7761 15.0245 80.9761 13.4604 80.9761C11.8964 80.9761 10.8063 79.7521 10.8063 78.0001C10.8063 77.2321 10.8063 76.4641 10.8063 75.5761C9.45547 75.5761 8.15209 75.5761 6.8487 75.5761C3.17552 75.5761 1.1612 74.0641 0.0710958 70.4881C0.0473979 70.4401 2.03773e-06 70.3921 -0.0473938 70.3441C2.03773e-06 64.8721 2.03773e-06 59.3521 2.03773e-06 53.8321ZM13.4841 59.4001C12.0385 59.4001 10.83 60.6241 10.83 62.0881C10.83 63.5521 12.0148 64.7761 13.4604 64.8001C14.9297 64.8241 16.1857 63.5521 16.162 62.0641C16.162 60.6001 14.9297 59.4001 13.4841 59.4001ZM37.4901 62.0641C37.4664 60.6001 36.2578 59.4001 34.8122 59.4001C33.3667 59.4001 32.1581 60.6241 32.1581 62.0881C32.1581 63.5761 33.4141 64.8241 34.8833 64.8001C36.3289 64.7761 37.5138 63.5281 37.4901 62.0641ZM45.5237 59.4001C44.0781 59.3761 42.8695 60.5761 42.8221 62.0401C42.7984 63.5041 43.9596 64.7521 45.4052 64.8001C46.8745 64.8481 48.1305 63.6001 48.1542 62.1121C48.1779 60.6481 46.9693 59.4241 45.5237 59.4001ZM56.1878 64.8001C57.6333 64.7761 58.8182 63.5521 58.8182 62.0881C58.8182 60.6241 57.6096 59.4001 56.1641 59.4001C54.6948 59.4001 53.4625 60.6721 53.4862 62.1601C53.5336 63.6241 54.7659 64.8241 56.1878 64.8001ZM69.4823 62.1361C69.506 60.6721 68.3211 59.4241 66.8755 59.4001C65.43 59.3761 64.1977 60.5521 64.1503 62.0161C64.1029 63.5041 65.3352 64.7761 66.8044 64.8001C68.25 64.8001 69.4586 63.6001 69.4823 62.1361Z" fill="white"/>
<path d="M21.494 43.1761C19.6693 43.1761 17.963 43.1761 16.1857 43.1761C16.162 42.9361 16.162 42.7441 16.162 42.5281C16.162 29.3281 16.162 16.1521 16.162 2.95212C16.162 0.816119 17.963 -0.527881 19.7878 0.216119C20.8068 0.624119 21.3518 1.44012 21.4703 2.54412C21.494 2.76012 21.4703 2.95212 21.4703 3.16812C21.4703 16.2001 21.4703 29.2561 21.4703 42.2881C21.494 42.5521 21.494 42.8161 21.494 43.1761Z" fill="white"/>
<path d="M74.8143 43.1759C73.0133 43.1759 71.307 43.1759 69.4823 43.1759C69.4823 42.8399 69.4823 42.5279 69.4823 42.2159C69.4823 29.2079 69.4823 16.1999 69.4823 3.19194C69.4823 2.78394 69.506 2.35194 69.6245 1.94394C69.9799 0.695938 71.1648 -0.0960618 72.3971 0.0239382C73.6768 0.143938 74.6958 1.19994 74.8143 2.51994C74.838 2.68794 74.8143 2.87994 74.8143 3.04794C74.8143 16.1759 74.8143 29.3039 74.8143 42.4319C74.8143 42.6479 74.8143 42.8639 74.8143 43.1759Z" fill="white"/>
<path d="M45.4289 10.7759C51.9695 10.8959 57.5622 13.1519 62.2307 17.7119C63.4867 18.9359 63.5815 20.5679 62.4914 21.6959C61.425 22.8239 59.7898 22.7759 58.5338 21.5759C50.9268 14.3759 40.0495 14.3519 32.4898 21.5519C31.2339 22.7519 29.6224 22.8239 28.5323 21.7199C27.3948 20.5679 27.5133 18.9359 28.8167 17.6639C33.4615 13.1519 39.0542 10.9199 45.4289 10.7759Z" fill="#3CADEF"/>
<path d="M46.1635 21.6001C49.0073 21.6721 52.0169 22.8481 54.5763 25.2001C55.8797 26.4001 56.0456 28.1041 55.0029 29.2561C53.9602 30.4321 52.3013 30.4081 50.9742 29.2081C47.7039 26.2321 43.2724 26.2321 39.9784 29.2321C38.912 30.1921 37.7271 30.4081 36.637 29.7841C35.6654 29.2321 35.0966 28.1281 35.3573 26.9761C35.4995 26.4001 35.8313 25.8001 36.2578 25.3921C38.6987 22.9441 42.0638 21.6001 46.1635 21.6001Z" fill="#3CADEF"/>
<path d="M48.1542 35.088C48.1779 36.552 46.993 37.776 45.5237 37.8C44.0781 37.824 42.8458 36.624 42.8221 35.16C42.7984 33.672 43.9359 32.448 45.4052 32.4C46.8982 32.376 48.1542 33.576 48.1542 35.088Z" fill="#3CADEF"/>
<path d="M13.4841 59.3999C14.9297 59.3999 16.1383 60.5999 16.162 62.0639C16.1857 63.5519 14.9297 64.8239 13.4604 64.7999C12.0148 64.7759 10.8299 63.5519 10.8299 62.0879C10.8536 60.6479 12.0622 59.4239 13.4841 59.3999Z" fill="#3CADEF"/>
<path d="M37.4901 62.0639C37.5138 63.5279 36.3289 64.7519 34.8833 64.7999C33.4141 64.8239 32.1581 63.5759 32.1581 62.0879C32.1581 60.6239 33.3667 59.3999 34.8122 59.3999C36.2578 59.3999 37.4901 60.6239 37.4901 62.0639Z" fill="#3CADEF"/>
<path d="M45.5237 59.3999C46.9693 59.4239 48.1542 60.6479 48.1542 62.1119C48.1542 63.5999 46.8982 64.8479 45.4052 64.7999C43.9596 64.7519 42.7984 63.5039 42.8221 62.0399C42.8695 60.5999 44.1018 59.3999 45.5237 59.3999Z" fill="#3CADEF"/>
<path d="M56.1878 64.7999C54.7422 64.8239 53.5336 63.6239 53.4862 62.1599C53.4625 60.6719 54.6948 59.3999 56.1641 59.3999C57.6096 59.3999 58.8182 60.6239 58.8182 62.0879C58.8419 63.5519 57.6333 64.7759 56.1878 64.7999Z" fill="#3CADEF"/>
<path d="M69.4823 62.136C69.4586 63.6 68.25 64.8 66.8044 64.8C65.3352 64.8 64.1029 63.504 64.1503 62.016C64.1977 60.552 65.43 59.376 66.8755 59.4C68.3211 59.448 69.506 60.672 69.4823 62.136Z" fill="#3CADEF"/>
</g>
<defs>
<clipPath id="clip0_3720_17494">
<rect width="91" height="81" fill="white"/>
</clipPath>
</defs>
</svg>
