<svg width="240" height="131" viewBox="0 0 240 131" fill="none" xmlns="http://www.w3.org/2000/svg">
<path d="M62.748 111.8H55V130H60.018V124.982H62.748C66.622 124.982 69.508 122.2 69.508 118.378C69.508 114.582 66.622 111.8 62.748 111.8ZM62.15 120.614H60.018V116.194H62.15C63.476 116.194 64.334 117.104 64.334 118.404C64.334 119.704 63.476 120.614 62.15 120.614Z" fill="black"/>
<path d="M87.9558 130L81.5858 120.64L87.4098 111.8H81.5858L76.7758 119.496V111.8H71.7578V130H76.7758V121.966L82.0018 130H87.9558Z" fill="black"/>
<path d="M103.004 111.8H88.0795V116.324H93.0195V130H98.0635V116.324H103.004V111.8Z" fill="black"/>
<path d="M129.737 111.8L126.851 122.304L122.431 111.904H120.715L116.373 122.304L113.409 111.8H108.027L113.721 130H118.141L121.573 121.238L125.057 130H129.477L135.093 111.8H129.737Z" fill="black"/>
<path d="M142.453 130.468C147.029 130.468 150.331 127.322 150.331 122.98C150.331 118.638 147.029 115.518 142.453 115.518C137.877 115.518 134.601 118.638 134.601 122.98C134.601 127.322 137.877 130.468 142.453 130.468ZM142.453 126.126C140.711 126.126 139.437 124.852 139.437 123.006C139.437 121.134 140.711 119.86 142.453 119.86C144.221 119.86 145.495 121.16 145.495 123.006C145.495 124.852 144.221 126.126 142.453 126.126Z" fill="black"/>
<path d="M160.423 115.908C158.759 115.908 157.563 116.376 156.575 117.52L155.821 115.96H152.571V130H157.407V122.876C157.407 121.082 158.135 120.328 159.825 120.328H161.723V115.908H160.423Z" fill="black"/>
<path d="M163.539 130H168.375V110.89H163.539V130Z" fill="black"/>
<path d="M181.447 110.89V116.48C180.459 115.856 179.263 115.518 177.963 115.518C173.673 115.518 170.605 118.638 170.605 122.98C170.605 127.348 173.673 130.494 177.963 130.494C179.601 130.494 181.057 129.922 182.201 128.96L182.669 130H186.231V110.89H181.447ZM178.613 126.204C176.819 126.204 175.467 124.826 175.467 123.006C175.467 121.16 176.819 119.782 178.613 119.782C180.433 119.782 181.759 121.16 181.759 123.006C181.759 124.826 180.433 126.204 178.613 126.204Z" fill="black"/>
<path d="M233.023 61.1924C229.247 61.1924 226.994 58.9692 226.994 55.269V38.8205H239.612V25.1082H226.543V10.0278H222.861L208.58 25.1237H188.644L176.259 45.3501V6.46753H158.343V43.1114C155.281 31.2647 145.212 23.4136 132.035 23.4136C127.855 23.3825 123.737 24.4241 120.07 26.4297V23.6468L101.641 23.6934V95.4109H119.355V75.0912C123.193 77.3766 127.575 78.5582 132.035 78.5271C145.212 78.5271 155.281 70.6448 158.343 58.7826V76.7858H176.243V54.9425L189.265 76.7858H210.398L192.544 49.7499L199.723 38.836H209.062V58.3317C209.062 69.8209 216.054 76.7858 227.553 76.7858H239.876V61.1924H233.023ZM130.73 62.7626C124.017 62.7626 119.091 57.7254 119.091 50.947C119.091 44.153 124.032 39.1314 130.73 39.1314C137.443 39.1314 142.368 44.1686 142.368 50.947C142.368 57.741 137.396 62.7626 130.73 62.7626Z" fill="#141638"/>
<path d="M22.5937 21.2214H2.90576V40.7793H22.5937V21.2214Z" fill="#4DABE0"/>
<path d="M12.4623 0H0V12.3753H12.4623V0Z" fill="#4DABE0"/>
<path d="M45.9023 1.22827H32.4766V14.5519H45.9023V1.22827Z" fill="#4DABE0"/>
<path d="M25.9502 4.55518H19.2373V11.2248H25.9502V4.55518Z" fill="#4DABE0"/>
<path d="M85.62 23.771V66.4315C85.62 68.0484 85.2937 69.6497 84.6721 71.1422C84.0506 72.6347 83.1338 73.9873 81.9839 75.1377C80.834 76.2726 79.4666 77.1899 77.9593 77.7962C76.452 78.4181 74.8515 78.729 73.2199 78.729H30.27V23.771H85.62Z" fill="#4DABE0"/>
</svg>
