<svg width="100" height="106" viewBox="0 0 100 106" fill="none" xmlns="http://www.w3.org/2000/svg">
<path d="M49.8376 41.5183H37.6875V53.5759H49.8376V41.5183Z" fill="white"/>
<path d="M45.0522 28.7202H38.6611V35.0575H45.0522V28.7202Z" fill="white"/>
<path d="M61.685 29.1777H51.4521V39.3261H61.685V29.1777Z" fill="white"/>
<path d="M62.0457 46.2803H56.9258V51.3544H62.0457V46.2803Z" fill="white"/>
<path d="M92.9634 28.8148C92.0411 28.0162 91.0533 27.2541 89.993 26.5353C88.9981 25.8385 87.9377 25.1851 86.8192 24.5609C86.5288 24.4011 86.2164 24.2488 85.926 24.089C87.9377 10.1441 82.1133 0.445801 69.854 0.445801C63.6882 0.445801 56.7378 2.89941 49.8603 7.117C42.99 2.89941 36.0396 0.445801 29.8738 0.445801C17.7526 0.445801 11.9281 9.93358 13.7437 23.6388C13.4459 23.7914 13.1482 23.951 12.8577 24.1108C11.7102 24.735 10.6353 25.3884 9.64038 26.0779C-1.71096 33.7946 -3.51207 44.5455 6.77893 53.4814C7.70128 54.28 8.68898 55.0349 9.74206 55.7537C10.737 56.4505 11.7974 57.1111 12.9158 57.7281C13.2063 57.8879 13.5113 58.0402 13.8091 58.2C11.8046 72.1521 17.6219 81.8504 29.881 81.8504C36.047 81.8504 42.9972 79.3968 49.8747 75.1793C56.7453 79.3968 63.6954 81.8504 69.8685 81.8504C81.9969 81.8504 87.8216 72.3626 85.9986 58.6574C86.2965 58.5048 86.5942 58.3452 86.8846 58.1854C88.0322 57.5612 89.107 56.9078 90.1019 56.2183C101.453 48.5016 103.254 37.7507 92.9706 28.8148H92.9634ZM67.9803 4.25689C78.1552 4.25689 83.4422 11.6322 82.8539 22.5936C77.4798 20.1836 71.2195 18.3978 64.516 17.3234C63.877 17.2218 63.2234 17.1274 62.5769 17.0403C59.3307 13.9261 55.9319 11.1531 52.4748 8.8084C57.8419 5.91198 63.1725 4.26414 67.9875 4.26414L67.9803 4.25689ZM49.8675 71.9925C47.0061 70.2357 44.1446 68.1305 41.3776 65.7495C46.8899 66.2722 52.5765 66.3304 58.1903 65.8947C55.4743 68.2177 52.6782 70.2648 49.8675 71.9925ZM38.3346 62.991C38.2475 62.9112 38.1603 62.8314 38.0732 62.7442C31.7985 56.6682 26.1845 49.2058 22.2263 41.1482C26.2352 32.9888 31.929 25.4391 38.3129 19.3196C38.3855 19.2471 38.4582 19.1817 38.5308 19.1165C46.1347 18.18 54.0072 18.2744 61.4004 19.3052C61.4877 19.385 61.5747 19.4648 61.662 19.552C67.9368 25.628 73.5506 33.0905 77.5015 41.1408C73.4926 49.3002 67.7988 56.8497 61.4151 62.9694C61.3423 63.0419 61.2624 63.1071 61.1898 63.1797C53.5931 64.1162 45.7206 64.0146 38.3346 62.9838V62.991ZM20.8828 38.2299C19.2487 34.4625 18.123 30.8473 17.4839 27.4863C17.3387 26.7386 17.2225 26.0054 17.1353 25.2795C20.004 23.7842 23.323 22.4629 27.0996 21.3886C28.719 20.9241 30.3749 20.5174 32.0526 20.169C32.8586 19.9947 33.6794 19.8423 34.5001 19.6972C34.3476 19.857 34.195 20.0094 34.0425 20.169C28.995 25.5117 24.4559 31.6603 20.8828 38.2299ZM20.8828 44.0663C24.3761 50.5052 28.8134 56.5377 33.7374 61.8004C33.9045 61.9821 34.0788 62.1563 34.2459 62.3304C33.3888 62.1635 32.5465 61.9893 31.7112 61.8004C26.3225 60.5882 21.3694 58.8388 17.1934 56.6103C17.2951 55.877 17.4185 55.1366 17.5711 54.3889C18.2247 51.144 19.3213 47.6813 20.89 44.0663H20.8828ZM49.8603 10.3038C52.729 12.0605 55.5832 14.1657 58.3502 16.5467C52.8307 16.024 47.1368 15.966 41.5228 16.4088C44.2391 14.0858 47.0351 12.0315 49.8531 10.3038H49.8603ZM65.6853 62.1273C70.7328 56.7845 75.2719 50.6432 78.8523 44.0735C80.4791 47.8411 81.6048 51.449 82.2439 54.81C82.3891 55.5576 82.498 56.2909 82.5925 57.0167C79.7238 58.512 76.4048 59.8333 72.6357 60.9076C71.0161 61.3722 69.3602 61.7788 67.6826 62.1273C66.8692 62.3015 66.0558 62.4539 65.235 62.599C65.3876 62.4394 65.5401 62.2869 65.6925 62.1273H65.6853ZM78.8523 38.2155C75.3445 31.7766 70.9144 25.7513 65.9904 20.4958C65.8233 20.3141 65.649 20.1401 65.4819 19.9584C66.339 20.1255 67.1888 20.2997 68.0238 20.4958C73.4053 21.708 78.3584 23.4574 82.5343 25.6787C82.4328 26.4048 82.3093 27.1452 82.1568 27.9001C81.5031 31.145 80.4137 34.6077 78.845 38.2155H78.8523ZM31.7547 4.25689C36.5626 4.25689 41.9005 5.90473 47.2676 8.80113C43.8904 11.0878 40.5642 13.7955 37.3832 16.8153C36.7587 16.8951 36.1341 16.9677 35.5169 17.0621C31.8273 17.592 28.2179 18.3542 24.7464 19.3415C21.8849 20.1545 19.256 21.0983 16.8666 22.1435C16.4454 11.4362 21.7253 4.25689 31.7622 4.25689H31.7547ZM10.8169 52.3199C10.7806 52.2911 10.737 52.2548 10.708 52.2185C2.42869 44.9591 2.93707 36.4005 10.5772 29.6785C11.4342 28.9237 12.3784 28.1904 13.4169 27.4863C13.7074 27.2904 14.0124 27.0943 14.3175 26.9056C14.5063 27.8131 14.7169 28.735 14.9711 29.6785C15.9588 33.3154 17.4185 37.1628 19.3722 41.1482C17.4912 44.9882 16.0604 48.6977 15.0873 52.2185C14.8186 53.1548 14.6007 54.0623 14.4046 54.9623C14.1068 54.7737 13.7945 54.5848 13.5113 54.3889C12.5527 53.7355 11.6594 53.0387 10.8242 52.3199H10.8169ZM16.8811 59.7026C22.2554 62.1198 28.523 63.9057 35.2262 64.98C35.8653 65.0816 36.5118 65.1761 37.1653 65.2631C40.4117 68.3773 43.8178 71.1504 47.2676 73.4951C41.9005 76.3915 36.5698 78.0394 31.7547 78.0394C21.58 78.0394 16.3001 70.6568 16.8811 59.7026ZM67.9803 78.0394C63.1725 78.0394 57.8345 76.3915 52.4676 73.4951C55.8446 71.2084 59.1708 68.5008 62.3518 65.481C62.9765 65.401 63.6009 65.3285 64.2256 65.2342C67.9149 64.7043 71.5244 63.942 74.9958 62.9547C77.8573 62.1417 80.4865 61.1979 82.8758 60.1527C83.297 70.8601 78.0172 78.0394 67.9803 78.0394ZM89.1579 52.6177C88.3008 53.3726 87.3568 54.1058 86.3181 54.81C86.0277 55.0059 85.7228 55.2019 85.4177 55.3906C85.2289 54.4833 85.0183 53.5614 84.7639 52.6177C83.7836 48.9808 82.3237 45.1262 80.3701 41.1482L84.6478 30.0779C84.9166 29.1486 85.1344 28.2339 85.3304 27.3339C85.6283 27.5298 85.9406 27.7114 86.2311 27.9073C87.1897 28.5607 88.083 29.2575 88.9182 29.9763C88.9545 30.0052 88.9981 30.0416 89.0272 30.0779C97.3137 37.3371 96.7979 45.9029 89.1579 52.6177Z" fill="white"/>
<path d="M34.8621 99.3209C34.1613 99.3209 33.7448 98.9201 33.7448 98.2548V95.2954H36.0829V92.8296H33.6616V90.113H32.979L30.3342 92.8296H26.6412L24.3457 96.4701V89.4734H21.0285V96.0693C20.4618 93.9352 18.597 92.5256 16.1553 92.5256C15.3793 92.5196 14.6175 92.7072 13.9391 93.0685V92.567L10.5264 92.5749V105.481H13.8091V101.82C14.518 102.231 15.3326 102.444 16.1593 102.438C18.601 102.438 20.4658 101.019 21.0326 98.8846V102.122H24.3498V98.1916L26.7631 102.122H30.6755L27.3684 97.2558L28.6989 95.2915H30.4297V98.7977C30.4297 100.865 31.7257 102.12 33.8566 102.12H36.1378V99.317H34.8662L34.8621 99.3209ZM15.9135 99.6052C14.6703 99.6052 13.7562 98.699 13.7562 97.4789C13.7562 96.2589 14.6703 95.3527 15.9135 95.3527C17.1567 95.3527 18.0708 96.2589 18.0708 97.4789C18.0708 98.699 17.1486 99.6052 15.9135 99.6052Z" fill="white"/>
<path d="M38.8389 100.973C38.8389 99.9513 39.5973 99.2808 40.55 99.2808C41.5027 99.2808 42.2611 99.9513 42.2611 100.973C42.2611 101.996 41.5027 102.701 40.55 102.701C39.5973 102.701 38.8389 101.977 38.8389 100.973Z" fill="white"/>
<path d="M58.4458 93.0745L55.0072 102.56H52.3618L50.2275 96.6726L48.0236 102.56H45.3782L41.958 93.0745H44.5503L46.7888 99.4917L49.1153 93.0745H51.4418L53.6988 99.4917L56.009 93.0745H58.4418H58.4458Z" fill="white"/>
<path d="M58.4102 97.8171C58.4102 94.9611 60.614 92.9331 63.6294 92.9331C66.6449 92.9331 68.8303 94.9611 68.8303 97.8171C68.8303 100.673 66.6449 102.701 63.6294 102.701C60.614 102.701 58.4102 100.673 58.4102 97.8171ZM66.0438 97.8171C66.0438 96.1775 65.0032 95.1901 63.6294 95.1901C62.2556 95.1901 61.1966 96.1775 61.1966 97.8171C61.1966 99.4567 62.2536 100.444 63.6294 100.444C65.0053 100.444 66.0438 99.4567 66.0438 97.8171Z" fill="white"/>
<path d="M76.1993 92.9331V95.4722C75.9703 95.4538 75.7945 95.4375 75.5819 95.4375C74.065 95.4375 73.0612 96.2654 73.0612 98.0829V102.562H70.3115V93.0742H72.9385V94.3253C73.6091 93.4094 74.7376 92.9331 76.2014 92.9331H76.1993Z" fill="white"/>
<path d="M77.4873 89.478H80.237V102.56H77.4873V89.478Z" fill="white"/>
<path d="M92.1057 89.478V102.56H89.4787V101.466C88.7918 102.294 87.7859 102.701 86.5164 102.701C83.8362 102.701 81.7734 100.798 81.7734 97.817C81.7734 94.8363 83.8362 92.933 86.5164 92.933C87.6796 92.933 88.6671 93.303 89.354 94.0799V89.478H92.1036H92.1057ZM89.4071 97.817C89.4071 96.1774 88.3502 95.19 86.9907 95.19C85.6312 95.19 84.5579 96.1774 84.5579 97.817C84.5579 99.4566 85.6148 100.444 86.9907 100.444C88.3665 100.444 89.4071 99.4566 89.4071 97.817Z" fill="white"/>
</svg>
