<svg width="156" height="149" viewBox="0 0 156 149" fill="none" xmlns="http://www.w3.org/2000/svg">
<path d="M40.5956 40.1165H6.21094V74.5011H40.5956V40.1165Z" fill="#141638"/>
<path d="M23.4036 0H0.480469V22.9231H23.4036V0Z" fill="#141638"/>
<path d="M86.4421 5.7301H63.519V28.6532H86.4421V5.7301Z" fill="#141638"/>
<path d="M46.3263 11.4619H34.8647V22.9235H46.3263V11.4619Z" fill="#141638"/>
<path d="M155.212 45.8462V125.918C155.212 128.953 154.604 131.959 153.445 134.76C152.287 137.561 150.578 140.1 148.435 142.259C146.292 144.39 143.744 146.111 140.935 147.249C138.126 148.416 135.143 149 132.102 149H52.0581V45.8462H155.212Z" fill="#141638"/>
<path d="M104.12 71.007C118.703 70.8926 130.355 82.7172 130.914 96.3487C131.518 111.947 118.61 123.817 104.399 123.977C89.1652 124.16 77.1407 111.97 77.0012 97.6295C76.8616 82.9688 89.3047 70.6639 104.12 71.007ZM128.099 97.538C128.146 84.5927 117.61 73.9803 104.585 73.7516C90.77 73.5 79.9084 84.0209 79.7921 97.5609C79.6991 110.163 90.5839 121.073 103.399 121.21C117.098 121.347 127.983 110.895 128.099 97.538Z" fill="white"/>
<path d="M126.155 97.57C126.34 109.312 116.461 119.321 104.291 119.205C92.4922 119.09 82.8446 109.474 82.7289 97.7549C82.5901 85.3887 92.9781 75.6807 104.662 75.7731C116.16 75.8656 126.456 85.5967 126.155 97.57ZM104.384 116.385C114.726 116.501 123.378 107.995 123.448 97.6625C123.517 87.3997 115.026 78.7086 104.777 78.5931C94.2274 78.4775 86.1299 86.7756 85.5515 96.3449C84.8805 107.532 94.0654 116.524 104.384 116.385Z" fill="white"/>
<path d="M87.5014 97.4206C87.5479 88.2374 94.941 81.0694 104.194 81.0236C113.493 80.9778 121.003 88.5809 120.91 97.5351C120.84 106.764 113.331 113.817 104.543 113.955C94.5225 114.092 87.3852 106.1 87.5014 97.4206ZM104.124 111.115C111.866 111.298 117.957 104.84 118.143 97.9244C118.352 89.9778 111.843 84.0236 104.868 83.7488C96.5451 83.4282 90.2447 90.2297 90.3377 97.4893C90.4075 105.047 96.4521 111.092 104.124 111.115Z" fill="white"/>
<path d="M114.227 97.4431C114.34 103.287 109.543 107.797 104.206 107.751C98.666 107.728 94.2745 103.31 94.1845 97.7653C94.0944 91.6911 98.5309 87.2275 104.454 87.2275C109.813 87.2505 114.227 91.8522 114.227 97.4431Z" fill="white"/>
</svg>
