<svg width="199" height="208" viewBox="0 0 199 208" fill="none" xmlns="http://www.w3.org/2000/svg">
<path d="M188.851 144.051L176.754 185.041L171.738 183.663L174.421 173.908L172.538 171.478L169.247 169.465L169.472 169.983L166.448 167.753L163.924 168.037L165.498 166.517L165.598 166.425L166.148 165.891L167.273 164.805L188.851 144.051Z" fill="#3688C8"/>
<path d="M188.851 144.051L167.273 164.805L166.149 165.891L165.599 166.425L165.499 166.517L163.924 168.037L160.358 168.438L163.583 164.02L163.832 163.669L164.074 163.335L165.707 161.097L175.913 147.082L188.851 144.051Z" fill="#3688C8"/>
<path d="M171.056 113.141L188.851 144.051L175.913 147.083L171.056 113.141ZM171.056 113.141L182.503 105.19L188.851 144.051L171.056 113.141Z" fill="#74BFEB"/>
<path d="M144.296 174.827L144.246 175.103L140.763 173.741L127.483 168.546L135.715 171.177L141.396 173.599H141.405L144.296 174.827Z" fill="#3688C8"/>
<path d="M182.502 105.19L171.055 113.141L148.353 93.9153L182.502 105.19Z" fill="#74BFEB"/>
<path d="M193.308 79.3999L187.76 83.676L192.167 87.3507L186.718 92.5706L190.334 95.3517L182.503 105.19L148.353 93.9152L128.825 69.2692L197.474 19.234L198.957 47.1037L189.393 76.2763L193.308 79.3999Z" fill="url(#paint0_linear_1568_9122)"/>
<path d="M197.474 19.234L128.825 69.2693L127.934 35.3278L197.474 19.234Z" fill="#3688C8"/>
<path d="M158.542 157.455L155.518 168.989L148.004 169.841L123.618 132.617L117.52 117.417L101.516 68.3757L76.8804 31.2522L127.934 35.3278L128.825 69.2693L139.181 116.674L144.788 139.524L158.542 157.455Z" fill="#74BFEB"/>
<path d="M148.353 93.9153L171.055 113.141L139.18 116.665L148.353 93.9153Z" fill="#3688C8"/>
<path d="M148.353 93.9153L139.181 116.674L128.825 69.2693L148.353 93.9153Z" fill="#3688C8"/>
<path d="M77.3216 177.742L93.5341 194.687L71.4731 174.56L77.3216 177.742Z" fill="#CCE0F4"/>
<path d="M175.912 147.082L165.707 161.097L164.074 163.335L163.832 163.669L163.582 164.02L160.358 168.438L155.518 168.989L158.542 157.455L158.733 156.737L158.925 155.994L160.691 149.262L175.912 147.082Z" fill="#196FA2"/>
<path d="M15.2212 92.6708L11.5972 96.1952L15.0796 92.5288L15.1712 92.4286L15.2212 92.6708Z" fill="#3688C8"/>
<path d="M171.056 113.141L160.7 149.262L175.913 147.074L171.056 113.141Z" fill="#74BFEB"/>
<path d="M171.055 113.141L160.7 149.262L159.858 131.623L171.055 113.141Z" fill="#A9D2EE"/>
<path d="M139.18 116.674L171.055 113.149L159.85 131.623L139.18 116.674Z" fill="#196FA2"/>
<path d="M0 159.059L12.7883 208L76.83 188.123L0 159.059ZM76.88 31.2522L27.8094 0L101.515 68.3757L76.88 31.2522Z" fill="#3688C8"/>
<path d="M159.85 131.624L147.361 125.31L139.18 116.666L159.85 131.624Z" fill="#196FA2"/>
<path d="M144.788 139.524L147.362 125.309L159.85 131.623L144.788 139.524Z" fill="#233447"/>
<path d="M160.692 149.262L150.719 143.157L144.788 139.524L147.487 138.113L159.85 131.623L160.692 149.262Z" fill="#74BFEB"/>
<path d="M65.5747 94.1073L67.8574 116.365L117.52 117.409L65.5747 94.1073ZM101.515 68.3756L65.583 94.1157L67.8658 116.373L117.528 117.417L101.515 68.3756Z" fill="#3688C8"/>
<path d="M92.6925 154.983L62.1588 156.47L0 159.059L21.1195 108.422L65.5746 94.1074L67.8573 116.373L92.6925 154.983Z" fill="#74BFEB"/>
<path d="M147.361 125.318L145.579 135.131L144.787 139.524L139.18 116.674L147.361 125.318Z" fill="#196FA2"/>
<path d="M101.515 68.3756L65.5745 94.1073L21.1195 108.422L11.5969 96.1953L15.221 92.6708L15.171 92.4286L15.0794 92.5288L8.62271 85.9644L13.0882 81.3876L6.43994 75.675L10.4556 71.9001L8.23114 33.6909L27.8094 0L101.515 68.3756Z" fill="url(#paint1_linear_1568_9122)"/>
<path d="M0 159.05L62.1588 156.47L76.83 188.123L0 159.05Z" fill="#3688C8"/>
<path d="M76.8299 188.123L62.1587 156.47L92.6924 154.983L76.8299 188.123Z" fill="#196FA2"/>
<path d="M144.637 172.864L76.8296 188.123L92.6921 154.983L144.637 172.864Z" fill="#3688C8"/>
<path d="M144.637 172.873L144.295 174.827L144.245 175.102L141.513 190.653L134.923 197.911L76.8296 188.123L140.763 173.741L141.396 173.599H141.404L144.637 172.873Z" fill="#F7F7F7"/>
<path d="M15.1712 92.4286L15.0796 92.5288L15.2212 92.6708L15.1712 92.4286Z" fill="#CCE0F4"/>
<path d="M106.422 127.255L117.527 117.417L115.944 141.47L106.422 127.255Z" fill="#196FA2"/>
<path d="M117.519 117.417L106.414 127.255L90.2515 135.649L117.519 117.417Z" fill="#196FA2"/>
<path d="M169.473 169.983L166.449 167.753L165.499 166.517L163.583 164.02L158.542 157.455L144.788 139.524L158.734 156.737L161.908 160.654L164.074 163.335L166.149 165.891L168.848 169.223L169.473 169.983Z" fill="#74BFEB"/>
<path d="M90.2599 135.649L67.8574 116.373L117.519 117.417L90.2599 135.649Z" fill="#196FA2"/>
<path d="M123.617 132.617L115.936 141.462L117.519 117.417L123.617 132.617Z" fill="#A9D2EE"/>
<path d="M115.936 141.462L90.2598 135.649L106.422 127.255L115.936 141.462Z" fill="#233447"/>
<path d="M148.003 169.841L144.637 172.873L92.6925 154.983L90.2598 135.649L115.936 141.462L148.003 169.833V169.841Z" fill="#74BFEB"/>
<path d="M92.6926 154.983L67.8574 116.373L90.2599 135.649L92.6926 154.983Z" fill="#A9D2EE"/>
<path d="M150.719 143.157L144.788 139.524L161.908 160.654L150.719 143.157Z" fill="#74BFEB"/>
<path d="M147.486 138.113L144.787 139.524L139.18 116.674L143.246 131.481L145.579 135.131L147.486 138.113Z" fill="#74BFEB"/>
<path d="M123.618 132.617L148.003 169.841V169.833L123.618 132.617Z" fill="#74BFEB"/>
<path d="M169.473 169.983L168.848 169.223L166.149 165.891L164.074 163.335L161.908 160.654L163.833 163.669L165.599 166.425L166.449 167.753L163.924 168.037L160.359 168.438L155.518 168.989L158.542 157.455L144.788 139.524L150.719 143.157L160.692 149.262L165.707 161.097L167.273 164.805L169.248 169.465L169.473 169.983Z" fill="#74BFEB"/>
<path d="M150.719 143.157L144.788 139.524L147.487 138.113L150.719 143.157Z" fill="#74BFEB"/>
<path d="M148.003 169.841V169.833L115.936 141.462L123.617 132.617L148.003 169.841Z" fill="#A9D2EE"/>
<path d="M171.305 185.241L163.374 201.193L137.647 205.369L93.5336 194.679L76.8296 188.123L134.923 197.911L141.513 190.653L146.37 188.716L171.305 185.241Z" fill="#CCE0F4"/>
<path d="M169.473 169.983L166.449 167.753L168.848 169.223L169.248 169.465L169.473 169.983Z" fill="#161616"/>
<path d="M174.421 173.908L171.739 183.663L171.305 185.242L146.37 188.716L141.513 190.653L144.246 175.102L144.296 174.827L144.637 172.873L148.003 169.841L155.518 168.989L160.358 168.438L163.924 168.037L166.448 167.753L169.473 169.983L169.248 169.465L172.538 171.478L174.421 173.908Z" fill="#161616"/>
<defs>
<linearGradient id="paint0_linear_1568_9122" x1="180.3" y1="21.444" x2="115.425" y2="88.5407" gradientUnits="userSpaceOnUse">
<stop stop-color="#070036"/>
<stop offset="0.1173" stop-color="#0A083E" stop-opacity="0.9707"/>
<stop offset="0.3039" stop-color="#112055" stop-opacity="0.9242"/>
<stop offset="0.3342" stop-color="#122459" stop-opacity="0.9166"/>
<stop offset="0.4199" stop-color="#173569" stop-opacity="0.8438"/>
<stop offset="0.589" stop-color="#246093" stop-opacity="0.7001"/>
<stop offset="0.8243" stop-color="#39A6D6" stop-opacity="0.5"/>
<stop offset="1" stop-color="#4CB4DE" stop-opacity="0.5"/>
</linearGradient>
<linearGradient id="paint1_linear_1568_9122" x1="76.2227" y1="2.78762" x2="-5.19939" y2="93.2932" gradientUnits="userSpaceOnUse">
<stop stop-color="#070036"/>
<stop offset="0.1173" stop-color="#0A083E" stop-opacity="0.9707"/>
<stop offset="0.3039" stop-color="#112055" stop-opacity="0.9242"/>
<stop offset="0.3342" stop-color="#122459" stop-opacity="0.9166"/>
<stop offset="0.4199" stop-color="#173569" stop-opacity="0.8438"/>
<stop offset="0.589" stop-color="#246093" stop-opacity="0.7001"/>
<stop offset="0.8243" stop-color="#39A6D6" stop-opacity="0.5"/>
<stop offset="1" stop-color="#4CB4DE" stop-opacity="0.5"/>
</linearGradient>
</defs>
</svg>
