<svg width="216" height="218" viewBox="0 0 216 218" fill="none" xmlns="http://www.w3.org/2000/svg">
<path fill-rule="evenodd" clip-rule="evenodd" d="M121.438 182.591C108.761 168.627 94.2202 148.208 80.6154 124.644C67.0105 101.079 56.5976 78.2772 50.8427 60.3167C47.9925 51.4217 46.0992 43.1503 45.7578 36.3164C45.588 32.9161 45.7662 29.2703 46.7852 25.8645C47.8239 22.3927 50.0135 18.3555 54.3735 15.8383C58.7335 13.321 63.3246 13.4433 66.8507 14.2797C70.3096 15.1001 73.5561 16.7687 76.4159 18.6159C82.1635 22.3285 88.3802 28.1039 94.6584 35.0197C107.335 48.9839 121.876 69.4027 135.481 92.967C149.086 116.531 159.498 139.333 165.253 157.294C168.104 166.189 169.997 174.46 170.338 181.294C170.508 184.694 170.33 188.34 169.311 191.746C168.272 195.218 166.083 199.255 161.723 201.772C157.363 204.29 152.771 204.167 149.245 203.331C145.786 202.51 142.54 200.842 139.68 198.995C133.933 195.282 127.716 189.507 121.438 182.591ZM89.9054 119.28C116.587 165.493 146.339 198.267 156.359 192.482C166.379 186.697 152.872 144.544 126.191 98.3306C99.5093 52.117 69.757 19.3432 59.7371 25.1282C49.7172 30.9132 63.224 73.0664 89.9054 119.28Z" fill="url(#paint0_linear_1568_8568)"/>
<path fill-rule="evenodd" clip-rule="evenodd" d="M179.024 134.554C160.48 138.592 135.375 141 108 141C80.6251 141 55.52 138.592 36.9761 134.554C27.7923 132.555 19.6329 130.033 13.5068 126.879C10.4586 125.31 7.37177 123.312 4.91715 120.701C2.41483 118.038 0 114.084 0 109C0 103.916 2.41483 99.9621 4.91715 97.2995C7.37177 94.6876 10.4586 92.69 13.5068 91.1208C19.6329 87.9671 27.7923 85.4452 36.9761 83.4455C55.52 79.4078 80.6251 77 108 77C135.375 77 160.48 79.4078 179.024 83.4455C188.208 85.4452 196.367 87.9671 202.493 91.1208C205.541 92.69 208.628 94.6876 211.083 97.2995C213.585 99.9621 216 103.916 216 109C216 114.084 213.585 118.038 211.083 120.701C208.628 123.312 205.541 125.31 202.493 126.879C196.367 130.033 188.208 132.555 179.024 134.554ZM108 130.166C161.686 130.166 205.208 120.69 205.208 109C205.208 97.3104 161.686 87.8342 108 87.8342C54.3136 87.8342 10.7922 97.3104 10.7922 109C10.7922 120.69 54.3136 130.166 108 130.166Z" fill="url(#paint1_linear_1568_8568)"/>
<path fill-rule="evenodd" clip-rule="evenodd" d="M50.7505 157.378C56.5212 139.432 66.9425 116.639 80.546 93.0769C94.1495 69.515 108.678 49.0935 121.335 35.1226C127.603 28.2037 133.807 22.4246 139.538 18.7061C142.39 16.8564 145.628 15.1823 149.079 14.3547C152.596 13.5115 157.194 13.3738 161.564 15.8968C165.934 18.4197 168.114 22.471 169.142 25.9379C170.151 29.3407 170.32 32.9822 170.144 36.3763C169.79 43.1992 167.887 51.4612 165.029 60.3492C159.258 78.2959 148.837 101.089 135.233 124.651C121.63 148.213 107.101 168.634 94.4443 182.605C88.176 189.524 81.9724 195.303 76.2408 199.021C73.3896 200.871 70.1513 202.545 66.6999 203.373C63.1835 204.216 58.5849 204.354 54.2151 201.831C49.8452 199.308 47.6651 195.257 46.6371 191.79C45.6282 188.387 45.4588 184.745 45.6352 181.351C45.9896 174.528 47.8927 166.266 50.7505 157.378ZM89.836 98.4405C63.1546 144.654 49.6079 186.784 59.5786 192.541C69.5494 198.297 99.2618 165.501 125.943 119.287C152.625 73.0735 166.171 30.9434 156.201 25.1868C146.23 19.4302 116.517 52.227 89.836 98.4405Z" fill="url(#paint2_linear_1568_8568)"/>
<path d="M101 103H94V109H101V103Z" fill="#4DABE0"/>
<path d="M97 96H93V100H97V96Z" fill="#4DABE0"/>
<path d="M109 96H104V101H109V96Z" fill="#4DABE0"/>
<path d="M102 97H100V99H102V97Z" fill="#4DABE0"/>
<path d="M122 104V117.972C122 118.502 121.888 119.026 121.675 119.515C121.461 120.004 121.147 120.447 120.752 120.824C120.357 121.195 119.888 121.496 119.37 121.694C118.853 121.898 118.303 122 117.743 122H103V104H122Z" fill="#4DABE0"/>
<defs>
<linearGradient id="paint0_linear_1568_8568" x1="187.679" y1="186.779" x2="8.77201" y2="161.087" gradientUnits="userSpaceOnUse">
<stop stop-color="#3688C8"/>
<stop offset="0.9996" stop-color="#1B0B3E" stop-opacity="0.8"/>
</linearGradient>
<linearGradient id="paint1_linear_1568_8568" x1="215.994" y1="78.7183" x2="103.041" y2="221.81" gradientUnits="userSpaceOnUse">
<stop stop-color="#3688C8"/>
<stop offset="0.9996" stop-color="#1B0B3E" stop-opacity="0.8"/>
</linearGradient>
<linearGradient id="paint2_linear_1568_8568" x1="80.0935" y1="216.765" x2="12.7603" y2="49.4241" gradientUnits="userSpaceOnUse">
<stop stop-color="#3688C8"/>
<stop offset="0.9996" stop-color="#1B0B3E" stop-opacity="0.8"/>
</linearGradient>
</defs>
</svg>
