<svg width="825" height="97" viewBox="0 0 825 97" fill="none" xmlns="http://www.w3.org/2000/svg">
<path d="M21.7118 48.1922L10.8528 59.045L0 48.1922L10.8528 37.3393L21.7118 48.1922ZM48.0669 21.837L66.6709 40.441L77.5177 29.6126L48.0608 0.131348L18.604 29.6126L29.4568 40.4654L48.0669 21.837ZM85.2749 37.3393L74.4221 48.1922L85.2688 59.045L96.1217 48.1922L85.2749 37.3393ZM48.0669 74.5473L29.4629 55.9433L18.604 66.784L48.0608 96.2347L77.5177 66.784L66.6648 55.9311L48.0669 74.5473ZM48.0669 59.045L58.9198 48.1922L48.0669 37.3393L37.2141 48.1922L48.0669 59.045ZM117.84 21.8309H142.318C148.345 21.8309 153.091 23.4884 156.102 26.4987C157.288 27.6642 158.221 29.0617 158.843 30.604C159.464 32.1463 159.761 33.8002 159.715 35.4625V35.6087C159.715 41.5623 156.553 44.8772 152.787 46.9856C158.88 49.3195 162.652 52.8599 162.652 59.9408V60.0809C162.652 69.7211 154.822 74.5412 142.921 74.5412H117.833L117.84 21.8309ZM139.832 43.1588C144.956 43.1588 148.192 41.5074 148.192 37.5892V37.4368C148.192 33.9756 145.48 32.0135 140.587 32.0135H129.131V43.1405L139.832 43.1588ZM142.921 64.4014C148.046 64.4014 151.129 62.5733 151.129 58.6794V58.5271C151.129 54.9866 148.497 52.8051 142.543 52.8051H129.137V64.3831L142.921 64.4014ZM174.096 21.8492H184.797L209.501 54.3102V21.8309H220.945V74.5473H211.073L185.54 41.0321V74.5473H174.09L174.096 21.8492ZM235.478 21.8492H259.975C266.001 21.8492 270.748 23.5067 273.758 26.517C274.945 27.6825 275.878 29.08 276.499 30.6223C277.121 32.1646 277.418 33.8185 277.372 35.4808V35.627C277.372 41.5805 274.209 44.8955 270.444 47.0039C276.537 49.3378 280.309 52.8782 280.309 59.9591V60.0809C280.309 69.7211 272.479 74.5412 260.578 74.5412H235.472L235.478 21.8492ZM257.47 43.1771C262.595 43.1771 265.831 41.5257 265.831 37.6075V37.4551C265.831 33.9939 263.119 32.0317 258.226 32.0317H246.77V43.1405L257.47 43.1771ZM260.584 64.3831C265.709 64.3831 268.792 62.555 268.792 58.6611V58.5088C268.792 54.9683 266.16 52.7868 260.206 52.7868H246.8V64.3648L260.584 64.3831Z" fill="#F0B90B"/>
<path d="M440.552 68.5096C439.371 68.5096 438.78 68.2138 438.19 67.9181C437.895 67.3267 437.6 66.7352 437.6 65.848V32.7268C437.6 31.8396 437.895 30.9524 438.19 30.6567C438.78 30.0653 439.371 29.7695 440.552 29.7695H454.427C459.74 29.7695 463.578 30.9524 466.235 33.0225C468.597 35.3883 470.073 38.6413 470.073 43.0772C470.073 47.5131 468.892 50.766 466.235 53.1318C463.873 55.2019 459.74 56.3848 454.427 56.3848H449.113V65.5523C449.113 66.4395 448.818 67.3267 448.522 67.6224C447.932 68.2138 447.342 68.2138 446.161 68.2138H440.552V68.5096ZM453.541 48.1045C455.017 48.1045 456.198 47.8088 457.084 46.9216C457.969 46.0344 458.264 44.8515 458.264 43.0772C458.264 41.3028 457.969 40.1199 457.084 39.2327C456.198 38.3456 455.017 38.0499 453.541 38.0499H449.113V48.1045H453.541Z" fill="black"/>
<path d="M483.821 69.6491C480.21 69.6491 477.2 68.4522 475.093 66.0583C472.986 63.6644 471.782 60.3727 471.782 56.1834C471.782 52.8917 472.384 50.1986 473.889 47.8046C475.394 45.4107 477.501 43.6153 480.21 42.1191C482.918 40.9221 486.229 40.0244 489.54 40.0244C492.55 40.0244 494.957 40.3237 497.365 40.9221C499.773 41.5206 501.579 42.4183 503.686 43.6153V66.6567C503.686 67.2552 503.686 67.8537 503.385 68.1529C503.084 68.4522 502.482 68.4522 501.88 68.4522H495.86C495.559 68.4522 494.957 68.4522 494.957 68.1529C494.656 67.8537 494.656 67.8537 494.355 67.5545L493.453 65.759C492.249 66.956 491.045 67.8537 489.54 68.4522C488.035 69.3499 485.928 69.6491 483.821 69.6491ZM488.035 61.8689C489.54 61.8689 490.744 61.5697 491.647 60.6719C492.55 60.0735 492.851 58.8765 492.851 57.6796V48.7024C492.249 48.4031 491.045 48.1039 490.142 48.1039C488.035 48.1039 486.53 48.7024 485.326 50.1986C484.122 51.6948 483.52 53.4902 483.52 56.1834C483.52 59.7742 485.025 61.8689 488.035 61.8689Z" fill="black"/>
<path d="M511.233 68.5094C510.037 68.5094 509.439 68.2155 508.841 67.9217C508.243 67.334 508.243 66.7463 508.243 65.8647V42.9445C508.243 42.3568 508.243 41.7691 508.542 41.4753C508.841 41.1814 509.439 41.1814 510.037 41.1814H516.016C516.614 41.1814 516.913 41.1814 516.913 41.4753C517.212 41.4753 517.212 41.7691 517.511 42.063L517.81 43.8261C519.006 42.6507 520.201 42.063 521.995 41.4753C523.789 40.8876 525.583 40.5938 527.974 40.5938C530.964 40.5938 533.654 41.4753 535.448 43.2384C537.242 45.0015 538.438 47.3523 538.438 50.8784V65.8647C538.438 66.7463 538.139 67.6278 537.84 67.9217C537.541 68.5094 536.644 68.5094 535.448 68.5094H529.768C528.572 68.5094 527.974 68.2155 527.376 67.9217C526.778 67.334 526.778 66.7463 526.778 65.8647V51.4661C526.778 50.2908 526.479 49.4092 525.881 49.1154C525.284 48.5277 524.686 48.2338 523.49 48.2338C522.294 48.2338 521.397 48.5277 520.799 49.1154C520.201 49.703 519.902 50.5846 519.902 51.4661V65.5709C519.902 66.4524 519.603 67.334 519.304 67.6278C519.006 68.2155 518.109 68.2155 516.913 68.2155H511.233V68.5094Z" fill="black"/>
<path d="M558.769 69.6488C553.428 69.6488 549.274 68.4628 546.307 65.7945C543.34 63.4227 541.856 59.8649 541.856 55.1213C541.856 52.1565 542.449 49.7846 543.933 47.4128C545.12 45.3374 547.197 43.5585 549.571 42.3726C552.241 41.1867 555.208 40.5938 558.472 40.5938C561.143 40.5938 563.22 40.8902 565 41.4832C566.781 42.0761 568.561 42.6691 569.748 43.855C570.045 44.1515 570.341 44.448 570.341 44.7445C570.341 45.0409 570.045 45.3374 569.748 45.9304L567.374 50.0811C567.077 50.6741 566.781 50.9705 566.484 50.9705C566.187 50.9705 565.89 50.6741 565.297 50.3776C564.407 49.7846 563.22 49.1917 562.33 48.8952C561.44 48.5987 560.253 48.3022 559.066 48.3022C557.286 48.3022 555.505 48.8952 554.318 50.0811C553.131 51.267 552.538 53.0459 552.538 55.1213C552.538 57.1966 553.131 58.9755 554.318 60.1614C555.505 61.3473 556.989 61.9403 559.066 61.9403C560.253 61.9403 561.44 61.6438 562.33 61.3473C563.22 61.0509 564.407 60.4579 565.297 59.8649C565.89 59.5685 566.187 59.272 566.484 59.272C566.781 59.272 567.077 59.5684 567.374 60.1614L570.045 64.6086C570.341 64.9051 570.341 65.2016 570.341 65.498C570.341 65.7945 570.045 66.091 569.748 66.3875C568.264 67.2769 566.484 68.1664 564.407 68.7593C563.517 69.3523 561.44 69.6488 558.769 69.6488Z" fill="black"/>
<path d="M585.798 69.6491C582.187 69.6491 579.177 68.4522 577.07 66.0583C574.963 63.6644 573.759 60.3727 573.759 56.1834C573.759 52.8917 574.361 50.1986 575.866 47.8046C577.371 45.4107 579.478 43.6153 582.187 42.1191C584.895 40.9221 588.206 40.0244 591.517 40.0244C594.527 40.0244 596.934 40.3237 599.342 40.9221C601.75 41.5206 603.556 42.4183 605.663 43.6153V66.6567C605.663 67.2552 605.663 67.8537 605.362 68.1529C605.061 68.4522 604.459 68.4522 603.857 68.4522H597.837C597.536 68.4522 596.934 68.4522 596.934 68.1529C596.634 67.8537 596.634 67.8537 596.333 67.5545L595.43 65.759C594.226 66.956 593.022 67.8537 591.517 68.4522C590.012 69.3499 588.206 69.6491 585.798 69.6491ZM590.313 61.8689C591.818 61.8689 593.022 61.5697 593.925 60.6719C594.828 60.0735 595.129 58.8765 595.129 57.6796V48.7024C594.527 48.4031 593.323 48.1039 592.42 48.1039C590.313 48.1039 588.808 48.7024 587.604 50.1986C586.4 51.6948 585.798 53.4902 585.798 56.1834C585.497 59.7742 587.002 61.8689 590.313 61.8689Z" fill="black"/>
<path d="M641.829 66.4395C642.124 66.7352 642.124 67.0309 642.124 67.3267C642.124 67.6224 642.124 67.9181 641.829 68.2138C641.533 68.5096 641.238 68.5096 640.942 68.5096H632.074C631.483 68.5096 631.187 68.5096 630.891 68.5096C630.596 68.5096 630.3 68.2138 630.005 67.9181L622.319 57.272V65.5523C622.319 66.4395 622.023 67.3267 621.728 67.6224C621.137 68.2138 620.545 68.2138 619.363 68.2138H613.747C612.564 68.2138 611.973 67.9181 611.382 67.6224C611.086 67.0309 610.791 66.4395 610.791 65.5523V32.7268C610.791 31.8396 611.086 30.9524 611.382 30.6567C611.973 30.0653 612.564 29.7695 613.747 29.7695H619.363C620.545 29.7695 621.137 30.0653 621.728 30.6567C622.319 31.2482 622.319 31.8396 622.319 32.7268V51.6532L629.709 41.8943C630.005 41.5986 630.3 41.3028 630.596 41.3028C630.891 41.3028 631.187 41.0071 631.778 41.0071H640.646C640.942 41.0071 641.238 41.0071 641.533 41.3028C641.829 41.5986 641.829 41.8943 641.829 42.19C641.829 42.4857 641.829 42.7814 641.533 43.0772L631.778 54.3147L641.829 66.4395Z" fill="black"/>
<path d="M660.545 69.6488C657.262 69.6488 654.577 69.0497 651.891 68.1511C649.503 66.9529 647.415 65.4553 645.922 63.3585C644.43 61.2618 643.833 58.5659 643.833 55.5706C643.833 50.778 645.326 46.884 648.011 44.4877C650.697 41.7919 654.875 40.5938 659.948 40.5938C665.021 40.5938 668.901 41.7919 671.288 44.4877C673.974 46.884 675.167 50.4784 675.167 54.9715C675.167 56.7687 674.272 57.9668 672.78 57.9668H654.875C654.875 59.7641 655.472 60.9622 656.665 61.8608C657.859 62.7594 659.948 63.059 662.335 63.059C663.827 63.059 665.32 63.059 666.215 62.7594C667.408 62.4599 668.304 61.8608 669.497 61.5613C670.094 61.2617 670.393 61.2618 670.393 61.2618C670.691 61.2618 670.99 61.5613 671.288 61.8608L673.377 65.4553C673.675 65.7548 673.675 66.0543 673.675 66.3539C673.675 66.6534 673.377 66.9529 673.078 67.2525C671.586 68.1511 669.796 69.0497 667.707 69.6488C665.32 69.3492 663.231 69.6488 660.545 69.6488ZM665.021 51.6766C665.021 50.1789 664.723 48.9808 663.827 48.3817C662.932 47.4831 661.739 47.1835 659.948 47.1835C658.158 47.1835 656.964 47.4831 656.069 48.3817C655.173 49.2803 654.875 50.1789 654.875 51.6766H665.021Z" fill="black"/>
<path d="M695.025 69.6488C691.743 69.6488 688.759 69.3492 685.774 68.75C682.79 68.1507 680.701 66.9522 678.911 65.7537C678.314 65.4541 678.016 64.8549 678.016 64.5553C678.016 64.2556 678.016 63.956 678.314 63.6564L681 59.162C681.298 58.5628 681.597 58.5628 681.895 58.5628C682.193 58.5628 682.492 58.5628 682.79 58.8624C684.282 59.7613 685.774 60.3605 687.565 60.9598C689.356 61.559 691.146 61.8586 692.937 61.8586C694.727 61.8586 695.921 61.559 696.816 60.9598C697.711 60.3605 698.01 59.4617 698.01 58.2632C698.01 57.0647 697.413 56.1658 696.518 55.5666C695.622 54.9673 693.832 54.0684 691.146 53.1696C687.267 51.6715 684.282 50.1733 682.193 48.3756C680.105 46.5779 678.911 43.8813 678.911 40.885C678.911 36.9899 680.403 34.2933 683.089 32.1959C685.774 30.0986 689.356 29.1997 693.832 29.1997C697.114 29.1997 699.8 29.4993 701.889 30.0986C704.276 30.6978 706.067 31.5967 707.559 32.4956C708.156 33.0948 708.454 33.3944 708.454 33.9937C708.454 34.2933 708.454 34.5929 708.156 34.8926L705.47 39.3869C705.172 39.9861 704.873 39.9861 704.575 39.9861C704.276 39.9861 703.978 39.9861 703.68 39.6865C701.591 38.1884 698.905 37.5892 695.622 37.5892C693.832 37.5892 692.638 37.8888 691.743 38.488C690.848 39.0873 690.549 39.9861 690.549 41.1846C690.549 42.0835 690.848 42.6828 691.146 43.282C691.743 43.8812 692.34 44.1809 692.937 44.7801C693.832 45.0797 695.025 45.679 696.518 46.2782L697.711 46.5779C700.397 47.7763 702.784 48.6752 704.276 49.8737C706.067 50.7726 707.261 52.2707 708.156 53.7688C709.051 55.2669 709.349 57.0647 709.349 59.162C709.349 62.4579 708.156 65.4541 705.47 67.2519C703.68 68.4503 699.8 69.6488 695.025 69.6488Z" fill="black"/>
<path d="M722.036 68.51C721.438 68.51 721.139 68.51 720.84 68.2159C720.541 67.9219 720.242 67.6278 720.242 67.0397L712.768 42.6343C712.768 42.3402 712.768 42.3402 712.768 42.0462C712.768 41.4581 713.067 41.1641 713.964 41.1641H721.438C722.036 41.1641 722.335 41.1641 722.634 41.4581C722.933 41.7521 722.933 41.7521 723.232 42.3402L726.222 55.2781L730.109 44.9866C730.408 44.3985 730.408 44.1045 730.707 44.1045C731.006 43.8104 731.305 43.8104 731.903 43.8104H735.491C736.089 43.8104 736.388 43.8104 736.687 44.1045C736.986 44.3985 736.986 44.6926 737.285 44.9866L741.172 55.2781L744.461 42.3402C744.461 42.0462 744.76 41.7521 745.059 41.4581C745.358 41.1641 745.657 41.1641 745.956 41.1641H753.73C754.627 41.1641 754.926 41.4581 754.926 42.0462C754.926 42.0462 754.926 42.3402 754.926 42.6343L747.451 67.0397C747.152 67.6278 747.152 67.9219 746.853 68.2159C746.554 68.51 746.255 68.51 745.657 68.51H739.976C739.378 68.51 739.079 68.51 738.78 68.2159C738.481 67.9219 738.182 67.6278 738.182 67.0397L734.295 56.7483L730.408 67.0397C730.109 67.6278 730.109 67.9219 729.81 68.2159C729.511 68.51 729.212 68.51 728.614 68.51H722.036Z" fill="black"/>
<path d="M768.674 69.6491C765.063 69.6491 762.053 68.4522 759.946 66.0583C757.839 63.6644 756.635 60.3727 756.635 56.1834C756.635 52.8917 757.237 50.1986 758.742 47.8046C760.247 45.4107 762.354 43.6153 765.063 42.1191C767.771 40.9221 771.082 40.0244 774.393 40.0244C777.403 40.0244 779.81 40.3237 782.218 40.9221C784.626 41.5206 786.432 42.4183 788.539 43.6153V66.6567C788.539 67.2552 788.539 67.8537 788.238 68.1529C787.937 68.4522 787.335 68.4522 786.733 68.4522H780.713C780.412 68.4522 780.111 68.4522 779.81 68.1529C779.51 67.8537 779.51 67.8537 779.209 67.5545L778.306 65.759C777.102 66.956 775.898 67.8537 774.393 68.4522C772.888 69.3499 771.082 69.6491 768.674 69.6491ZM773.189 61.8689C774.694 61.8689 775.898 61.5697 776.801 60.6719C777.704 60.0735 778.005 58.8765 778.005 57.6796V48.7024C777.403 48.4031 776.199 48.1039 775.296 48.1039C773.189 48.1039 771.684 48.7024 770.48 50.1986C769.276 51.6948 768.674 53.4902 768.674 56.1834C768.373 59.7742 769.878 61.8689 773.189 61.8689Z" fill="black"/>
<path d="M796.078 80.4732C794.885 80.4732 794.289 80.1733 793.693 79.8735C793.394 79.2738 793.096 78.6741 793.096 77.7746V44.7916C794.885 43.5922 796.972 42.3928 799.656 41.7931C802.339 40.8936 805.023 40.5938 807.706 40.5938C819.335 40.5938 825 45.3913 825 55.2862C825 59.7839 823.807 63.382 821.422 66.0806C819.036 68.7792 815.458 69.9786 810.986 69.9786C809.793 69.9786 808.601 69.6788 807.408 69.3789C806.215 69.0791 805.321 68.7792 804.426 68.1795V77.7746C804.426 78.6741 804.128 79.5737 803.83 79.8735C803.234 80.4732 802.637 80.4732 801.445 80.4732H796.078ZM808.601 61.8828C810.39 61.8828 811.582 61.2831 812.179 60.0837C813.073 58.8843 813.371 57.0852 813.371 54.9863C813.371 52.5876 812.775 50.7885 811.881 49.5891C810.986 48.6896 809.495 48.0899 807.408 48.0899C806.215 48.0899 805.023 48.3897 804.426 48.6896V57.6849C804.426 58.8843 804.725 60.0837 805.619 60.6834C806.215 61.5829 807.408 61.8828 808.601 61.8828Z" fill="black"/>
<path fill-rule="evenodd" clip-rule="evenodd" d="M361.599 23.1431C360.404 17.1923 365.184 11.5391 371.159 11.5391C376.537 11.5391 381.018 16.0021 381.018 21.3578V33.2594C382.512 33.2594 383.707 33.2594 385.201 33.2594C386.396 33.2594 387.889 33.2594 389.084 33.2594V21.3578C389.084 16.0021 393.566 11.5391 398.943 11.5391C404.918 11.5391 409.698 17.1923 408.503 23.1431L405.814 37.1274C414.777 40.9954 421.648 47.8388 421.648 56.4674V61.5256C421.648 68.6665 416.868 74.6173 410.295 78.4853C403.723 82.6509 394.761 85.0312 384.902 85.0312C375.043 85.0312 366.081 82.6509 359.508 78.4853C352.936 74.6173 348.156 68.6665 348.156 61.5256V56.4674C348.156 47.8388 355.027 40.9954 363.989 37.1274L361.599 23.1431ZM402.528 39.2102L405.515 22.8455C406.412 18.68 403.125 14.812 398.943 14.812C395.059 14.812 392.072 17.7874 392.072 21.6554V36.8299C391.176 36.8299 389.981 36.5323 389.084 36.5323C387.889 36.5323 386.396 36.5323 385.201 36.5323C383.707 36.5323 382.512 36.5323 381.018 36.8299C380.122 36.8299 378.927 37.1274 378.031 37.1274V21.9529C378.031 18.0849 375.043 15.1095 371.159 15.1095C366.977 15.1095 363.691 18.9775 364.587 23.1431L367.574 39.8053C358.014 43.3757 351.442 49.9216 351.442 57.3601V62.4182C351.442 73.7247 366.379 82.9484 384.902 82.9484C403.424 82.9484 418.362 73.7247 418.362 62.4182V57.3601C418.66 49.3265 412.088 42.7806 402.528 39.2102Z" fill="#633001"/>
<path d="M418.501 62.0708C418.501 73.147 403.562 82.1828 385.037 82.1828C366.513 82.1828 351.574 73.147 351.574 62.0708V57.1157H418.8V62.0708H418.501Z" fill="#FEDC90"/>
<path fill-rule="evenodd" clip-rule="evenodd" d="M364.641 22.445C363.749 18.2671 367.022 14.3877 371.188 14.3877C375.056 14.3877 378.032 17.3719 378.032 21.2513V36.769C380.413 36.4706 382.793 36.1722 385.174 36.1722C387.554 36.1722 389.935 36.4706 392.018 36.4706V21.2513C392.018 17.3719 394.994 14.3877 398.862 14.3877C403.028 14.3877 406.301 18.2671 405.409 22.445L402.433 38.8579C412.253 42.4389 418.799 49.0041 418.799 56.4646C418.799 67.8044 403.921 77.0554 385.471 77.0554C367.022 77.0554 352.144 67.8044 352.144 56.4646C352.144 49.0041 358.69 42.4389 368.212 38.8579L364.641 22.445Z" fill="#D1884F"/>
<path d="M376.071 55.4065C376.071 58.405 374.22 61.1036 372.368 61.1036C370.517 61.1036 368.665 58.7048 368.665 55.4065C368.665 52.4081 370.517 49.7095 372.368 49.7095C374.22 49.7095 376.071 52.1082 376.071 55.4065Z" fill="#633001"/>
<path d="M401.708 55.4065C401.708 58.405 399.856 61.1036 398.005 61.1036C395.845 61.1036 394.302 58.7048 394.302 55.4065C394.302 52.4081 396.153 49.7095 398.005 49.7095C399.856 49.7095 401.708 52.1082 401.708 55.4065Z" fill="#633001"/>
</svg>
