<svg width="88" height="48" viewBox="0 0 88 48" fill="none" xmlns="http://www.w3.org/2000/svg">
<circle opacity="0.5" cx="64" cy="24" r="23" stroke="#00B127" stroke-width="2"/>
<circle cx="24" cy="24" r="24" fill="#00B127"/>
<path d="M10.8849 29V18.8182H14.902C15.6742 18.8182 16.3321 18.9657 16.8757 19.2607C17.4193 19.5523 17.8336 19.9583 18.1186 20.4787C18.407 20.9957 18.5511 21.5923 18.5511 22.2685C18.5511 22.9446 18.4053 23.5412 18.1136 24.0582C17.822 24.5753 17.3994 24.978 16.8459 25.2663C16.2957 25.5547 15.6295 25.6989 14.8473 25.6989H12.2869V23.9737H14.4993C14.9136 23.9737 15.255 23.9025 15.5234 23.7599C15.7952 23.6141 15.9974 23.4136 16.13 23.1584C16.2659 22.8999 16.3338 22.6032 16.3338 22.2685C16.3338 21.9304 16.2659 21.6354 16.13 21.3835C15.9974 21.1283 15.7952 20.9311 15.5234 20.7919C15.2517 20.6494 14.907 20.5781 14.4893 20.5781H13.0376V29H10.8849ZM19.5294 29V18.8182H21.6821V23.3075H21.8163L25.4804 18.8182H28.0606L24.2822 23.3771L28.1054 29H25.5301L22.741 24.8139L21.6821 26.1065V29H19.5294ZM28.374 20.593V18.8182H36.7362V20.593H33.619V29H31.4911V20.593H28.374Z" fill="white"/>
<path d="M52.7244 18.8182L55.1854 26.554H55.2798L57.7457 18.8182H60.1321L56.6222 29H53.848L50.3331 18.8182H52.7244ZM60.9376 29V18.8182H64.9546C65.7269 18.8182 66.3848 18.9657 66.9284 19.2607C67.4719 19.5523 67.8862 19.9583 68.1713 20.4787C68.4596 20.9957 68.6038 21.5923 68.6038 22.2685C68.6038 22.9446 68.458 23.5412 68.1663 24.0582C67.8746 24.5753 67.452 24.978 66.8985 25.2663C66.3483 25.5547 65.6822 25.6989 64.9 25.6989H62.3396V23.9737H64.5519C64.9662 23.9737 65.3076 23.9025 65.5761 23.7599C65.8479 23.6141 66.0501 23.4136 66.1826 23.1584C66.3185 22.8999 66.3865 22.6032 66.3865 22.2685C66.3865 21.9304 66.3185 21.6354 66.1826 21.3835C66.0501 21.1283 65.8479 20.9311 65.5761 20.7919C65.3043 20.6494 64.9596 20.5781 64.542 20.5781H63.0903V29H60.9376ZM78.0984 18.8182V29H76.239L71.8093 22.5916H71.7348V29H69.5821V18.8182H71.4713L75.8661 25.2216H75.9556V18.8182H78.0984Z" fill="#00B127"/>
</svg>
