<svg width="88" height="48" viewBox="0 0 88 48" fill="none" xmlns="http://www.w3.org/2000/svg">
<circle opacity="0.5" cx="64" cy="24" r="23" stroke="#00B127" stroke-width="2"/>
<circle cx="24" cy="24" r="24" fill="#00B127"/>
<path d="M10.8849 29V18.8182H14.902C15.6742 18.8182 16.3321 18.9657 16.8757 19.2607C17.4193 19.5523 17.8336 19.9583 18.1186 20.4787C18.407 20.9957 18.5511 21.5923 18.5511 22.2685C18.5511 22.9446 18.4053 23.5412 18.1136 24.0582C17.822 24.5753 17.3994 24.978 16.8459 25.2663C16.2957 25.5547 15.6295 25.6989 14.8473 25.6989H12.2869V23.9737H14.4993C14.9136 23.9737 15.255 23.9025 15.5234 23.7599C15.7952 23.6141 15.9974 23.4136 16.13 23.1584C16.2659 22.8999 16.3338 22.6032 16.3338 22.2685C16.3338 21.9304 16.2659 21.6354 16.13 21.3835C15.9974 21.1283 15.7952 20.9311 15.5234 20.7919C15.2517 20.6494 14.907 20.5781 14.4893 20.5781H13.0376V29H10.8849ZM19.5294 29V18.8182H21.6821V23.3075H21.8163L25.4804 18.8182H28.0606L24.2822 23.3771L28.1054 29H25.5301L22.741 24.8139L21.6821 26.1065V29H19.5294ZM28.374 20.593V18.8182H36.7362V20.593H33.619V29H31.4911V20.593H28.374Z" fill="white"/>
<path d="M58.0582 19.2727V28H56.4645L52.6676 22.5071H52.6037V28H50.7585V19.2727H52.3778L56.1449 24.7614H56.2216V19.2727H58.0582ZM59.2227 28V19.2727H61.0679V26.4787H64.8094V28H59.2227ZM67.4526 24.2159V28H65.6372V21.4545H67.3674V22.6094H67.4441C67.5889 22.2287 67.8318 21.9276 68.1728 21.706C68.5137 21.4815 68.927 21.3693 69.4128 21.3693C69.8674 21.3693 70.2637 21.4688 70.6017 21.6676C70.9398 21.8665 71.2026 22.1506 71.3901 22.5199C71.5776 22.8864 71.6713 23.3239 71.6713 23.8324V28H69.856V24.1562C69.8588 23.7557 69.7566 23.4432 69.5492 23.2188C69.3418 22.9915 69.0563 22.8778 68.6926 22.8778C68.4483 22.8778 68.2324 22.9304 68.0449 23.0355C67.8603 23.1406 67.7154 23.294 67.6103 23.4957C67.508 23.6946 67.4554 23.9347 67.4526 24.2159ZM75.725 28.1278C75.0517 28.1278 74.4722 27.9915 73.9864 27.7188C73.5035 27.4432 73.1313 27.054 72.8699 26.5511C72.6086 26.0455 72.4779 25.4474 72.4779 24.7571C72.4779 24.0838 72.6086 23.4929 72.8699 22.9844C73.1313 22.4759 73.4992 22.0795 73.9736 21.7955C74.4509 21.5114 75.0106 21.3693 75.6526 21.3693C76.0844 21.3693 76.4864 21.4389 76.8586 21.5781C77.2336 21.7145 77.5603 21.9205 77.8387 22.196C78.1199 22.4716 78.3387 22.8182 78.4949 23.2358C78.6512 23.6506 78.7293 24.1364 78.7293 24.6932V25.1918H73.2023V24.0668H77.0205C77.0205 23.8054 76.9637 23.5739 76.85 23.3722C76.7364 23.1705 76.5787 23.0128 76.377 22.8991C76.1782 22.7827 75.9466 22.7244 75.6824 22.7244C75.4069 22.7244 75.1625 22.7884 74.9495 22.9162C74.7392 23.0412 74.5745 23.2102 74.4552 23.4233C74.3358 23.6335 74.2748 23.8679 74.2719 24.1264V25.196C74.2719 25.5199 74.3316 25.7997 74.4509 26.0355C74.5731 26.2713 74.7449 26.4531 74.9665 26.581C75.1881 26.7088 75.4509 26.7727 75.7549 26.7727C75.9566 26.7727 76.1412 26.7443 76.3088 26.6875C76.4765 26.6307 76.6199 26.5455 76.7392 26.4318C76.8586 26.3182 76.9495 26.179 77.012 26.0142L78.691 26.125C78.6057 26.5284 78.431 26.8807 78.1668 27.1818C77.9054 27.4801 77.5674 27.7131 77.1526 27.8807C76.7407 28.0455 76.2648 28.1278 75.725 28.1278ZM83.0355 21.4545V22.8182H79.0937V21.4545H83.0355ZM79.9886 19.8864H81.804V25.9886C81.804 26.1562 81.8295 26.2869 81.8807 26.3807C81.9318 26.4716 82.0028 26.5355 82.0937 26.5724C82.1875 26.6094 82.2954 26.6278 82.4176 26.6278C82.5028 26.6278 82.5881 26.6207 82.6733 26.6065C82.7585 26.5895 82.8238 26.5767 82.8693 26.5682L83.1548 27.919C83.0639 27.9474 82.9361 27.9801 82.7713 28.017C82.6065 28.0568 82.4062 28.081 82.1704 28.0895C81.7329 28.1065 81.3494 28.0483 81.0199 27.9148C80.6932 27.7812 80.4389 27.5739 80.2571 27.2926C80.0753 27.0114 79.9858 26.6562 79.9886 26.2273V19.8864Z" fill="#00B127"/>
</svg>
