<svg width="88" height="48" viewBox="0 0 88 48" fill="none" xmlns="http://www.w3.org/2000/svg">
<circle opacity="0.5" cx="64" cy="24" r="23" stroke="#00B127" stroke-width="2"/>
<circle cx="24" cy="24" r="24" fill="#00B127"/>
<path d="M10.8849 29V18.8182H14.902C15.6742 18.8182 16.3321 18.9657 16.8757 19.2607C17.4193 19.5523 17.8336 19.9583 18.1186 20.4787C18.407 20.9957 18.5511 21.5923 18.5511 22.2685C18.5511 22.9446 18.4053 23.5412 18.1136 24.0582C17.822 24.5753 17.3994 24.978 16.8459 25.2663C16.2957 25.5547 15.6295 25.6989 14.8473 25.6989H12.2869V23.9737H14.4993C14.9136 23.9737 15.255 23.9025 15.5234 23.7599C15.7952 23.6141 15.9974 23.4136 16.13 23.1584C16.2659 22.8999 16.3338 22.6032 16.3338 22.2685C16.3338 21.9304 16.2659 21.6354 16.13 21.3835C15.9974 21.1283 15.7952 20.9311 15.5234 20.7919C15.2517 20.6494 14.907 20.5781 14.4893 20.5781H13.0376V29H10.8849ZM19.5294 29V18.8182H21.6821V23.3075H21.8163L25.4804 18.8182H28.0606L24.2822 23.3771L28.1054 29H25.5301L22.741 24.8139L21.6821 26.1065V29H19.5294ZM28.374 20.593V18.8182H36.7362V20.593H33.619V29H31.4911V20.593H28.374Z" fill="white"/>
<path d="M54.4972 20.593V18.8182H62.8594V20.593H59.7422V29H57.6143V20.593H54.4972ZM69.3399 21.7464C69.3002 21.3454 69.1295 21.0339 68.8279 20.8118C68.5263 20.5897 68.1169 20.4787 67.5999 20.4787C67.2486 20.4787 66.9519 20.5284 66.71 20.6278C66.468 20.724 66.2824 20.8582 66.1532 21.0305C66.0272 21.2029 65.9642 21.3984 65.9642 21.6172C65.9576 21.7995 65.9957 21.9586 66.0786 22.0945C66.1648 22.2304 66.2824 22.348 66.4316 22.4474C66.5807 22.5436 66.7531 22.6281 66.9486 22.701C67.1442 22.7706 67.353 22.8303 67.575 22.88L68.4898 23.0987C68.9339 23.1982 69.3416 23.3307 69.7128 23.4964C70.084 23.6622 70.4055 23.866 70.6773 24.108C70.9491 24.3499 71.1595 24.6349 71.3087 24.9631C71.4612 25.2912 71.539 25.6674 71.5424 26.0916C71.539 26.7147 71.38 27.255 71.0651 27.7124C70.7535 28.1664 70.3028 28.5194 69.7128 28.7713C69.1262 29.0199 68.4185 29.1442 67.5899 29.1442C66.768 29.1442 66.0521 29.0182 65.4422 28.7663C64.8357 28.5144 64.3617 28.1416 64.0203 27.6477C63.6823 27.1506 63.505 26.5357 63.4884 25.8033H65.5715C65.5947 26.1446 65.6925 26.4297 65.8648 26.6584C66.0405 26.8838 66.2741 27.0545 66.5658 27.1705C66.8608 27.2831 67.1939 27.3395 67.5651 27.3395C67.9297 27.3395 68.2462 27.2865 68.5147 27.1804C68.7864 27.0743 68.9969 26.9268 69.1461 26.7379C69.2952 26.549 69.3698 26.3319 69.3698 26.0866C69.3698 25.858 69.3018 25.6657 69.1659 25.5099C69.0334 25.3542 68.8378 25.2216 68.5793 25.1122C68.3241 25.0028 68.0109 24.9034 67.6397 24.8139L66.531 24.5355C65.6726 24.3267 64.9948 24.0002 64.4976 23.5561C64.0005 23.112 63.7535 22.5137 63.7568 21.7614C63.7535 21.1449 63.9176 20.6063 64.249 20.1456C64.5838 19.6849 65.0428 19.3253 65.6262 19.0668C66.2095 18.8082 66.8724 18.679 67.6148 18.679C68.3705 18.679 69.03 18.8082 69.5935 19.0668C70.1603 19.3253 70.6011 19.6849 70.9159 20.1456C71.2308 20.6063 71.3932 21.1399 71.4032 21.7464H69.3399Z" fill="#00B127"/>
</svg>
