<svg width="22" height="23" viewBox="0 0 22 23" fill="none" xmlns="http://www.w3.org/2000/svg">
<path d="M10.7039 6.2373C9.24502 6.2373 7.84587 6.82297 6.81427 7.86545C5.78267 8.90794 5.20313 10.3218 5.20312 11.7961C5.20313 13.2704 5.78267 14.6844 6.81427 15.7268C7.84587 16.7693 9.24502 17.355 10.7039 17.355C12.1628 17.355 13.562 16.7693 14.5936 15.7268C15.6252 14.6844 16.2047 13.2704 16.2047 11.7961C16.2047 10.3218 15.6252 8.90794 14.5936 7.86545C13.562 6.82297 12.1628 6.2373 10.7039 6.2373ZM10.7039 15.4063C9.75614 15.4063 8.84718 15.0258 8.17699 14.3485C7.50681 13.6713 7.13031 12.7527 7.13031 11.7949C7.13031 10.8372 7.50681 9.91861 8.17699 9.24135C8.84718 8.5641 9.75614 8.18362 10.7039 8.18362C11.6517 8.18362 12.5607 8.5641 13.2308 9.24135C13.901 9.91861 14.2775 10.8372 14.2775 11.7949C14.2775 12.7527 13.901 13.6713 13.2308 14.3485C12.5607 15.0258 11.6517 15.4063 10.7039 15.4063Z" fill="white"/>
<path d="M16.4211 7.32861C17.1293 7.32861 17.7035 6.74842 17.7035 6.03271C17.7035 5.31701 17.1293 4.73682 16.4211 4.73682C15.7128 4.73682 15.1387 5.31701 15.1387 6.03271C15.1387 6.74842 15.7128 7.32861 16.4211 7.32861Z" fill="white"/>
<path d="M20.8552 4.71535C20.5798 3.99668 20.1589 3.34403 19.6195 2.79918C19.0802 2.25433 18.4342 1.82929 17.7229 1.55127C16.8906 1.23553 16.0113 1.0648 15.1224 1.04636C13.9768 0.995871 13.614 0.981445 10.7089 0.981445C7.80388 0.981445 7.43153 0.981445 6.29545 1.04636C5.40727 1.06386 4.52858 1.23462 3.69733 1.55127C2.98586 1.82897 2.33969 2.25389 1.80029 2.79878C1.26088 3.34367 0.840141 3.99649 0.565068 4.71535C0.252561 5.55639 0.0840042 6.44506 0.0666185 7.34327C0.015465 8.49974 0 8.8664 0 11.8033C0 14.7389 -8.86333e-09 15.1128 0.0666185 16.2633C0.0844627 17.1625 0.252199 18.0497 0.565068 18.8924C0.840913 19.611 1.26206 20.2636 1.8016 20.8084C2.34114 21.3532 2.9872 21.7783 3.69852 22.0565C4.52819 22.3849 5.40725 22.5679 6.29783 22.5975C7.44343 22.6479 7.80626 22.6636 10.7113 22.6636C13.6163 22.6636 13.9887 22.6636 15.1248 22.5975C16.0135 22.5792 16.8928 22.4089 17.7253 22.0938C18.4364 21.8151 19.0822 21.3897 19.6215 20.8447C20.1608 20.2997 20.5818 19.6471 20.8575 18.9285C21.1704 18.087 21.3381 17.1998 21.356 16.3006C21.4071 15.1441 21.4226 14.7774 21.4226 11.8405C21.4226 8.90367 21.4226 8.531 21.356 7.38053C21.3421 6.46963 21.1727 5.56798 20.8552 4.71535ZM19.4062 16.1743C19.3985 16.8671 19.2734 17.5535 19.0362 18.2036C18.8576 18.671 18.5841 19.0956 18.2333 19.4498C17.8826 19.8041 17.4623 20.0802 16.9996 20.2605C16.3634 20.499 15.6915 20.6255 15.013 20.6343C13.8828 20.6872 13.564 20.7005 10.6661 20.7005C7.76582 20.7005 7.4696 20.7004 6.31805 20.6343C5.63988 20.6259 4.96822 20.4995 4.33258 20.2605C3.86826 20.0813 3.44632 19.8057 3.09406 19.4514C2.7418 19.097 2.46707 18.6719 2.28763 18.2036C2.05381 17.5605 1.92874 16.8822 1.91766 16.1972C1.86651 15.0551 1.85461 14.7329 1.85461 11.8045C1.85461 8.87482 1.85461 8.57548 1.91766 7.41059C1.92535 6.71817 2.05049 6.03222 2.28763 5.38255C2.65047 4.43404 3.39398 3.6875 4.33258 3.32445C4.96854 3.08659 5.64 2.96015 6.31805 2.95058C7.44938 2.89889 7.767 2.88446 10.6661 2.88446C13.5652 2.88446 13.8626 2.88446 15.013 2.95058C15.6915 2.95883 16.3636 3.08531 16.9996 3.32445C17.4623 3.5051 17.8825 3.78152 18.2332 4.13595C18.5839 4.49038 18.8575 4.91499 19.0362 5.38255C19.2701 6.02564 19.3951 6.70391 19.4062 7.38895C19.4574 8.5322 19.4704 8.85318 19.4704 11.7828C19.4704 14.7113 19.4704 15.0263 19.4193 16.1755H19.4062V16.1743Z" fill="white"/>
</svg>
