<svg width="210" height="41" viewBox="0 0 210 41" fill="none" xmlns="http://www.w3.org/2000/svg">
<path d="M76.85 18.5628C76.85 25.0526 72.3521 29.2721 66.255 29.2721C63.5991 29.2721 61.2502 28.3725 59.5724 26.4591V36.583H54.6889V8.13192H59.3368V10.8664C60.9789 8.87443 63.3992 7.89631 66.255 7.89631C72.3521 7.89631 76.85 12.1158 76.85 18.5628ZM71.8881 18.5628C71.8881 14.5789 69.2322 12.0372 65.7124 12.0372C62.1926 12.0372 59.501 14.5789 59.501 18.5628C59.501 22.5466 62.1997 25.0883 65.7124 25.0883C69.225 25.0883 71.8881 22.5466 71.8881 18.5628Z" fill="white"/>
<path d="M89.2372 20.0478L85.6031 23.4891V29.0008H80.7197V-1.14441e-05H85.6031V17.5061L95.727 8.12478H101.589L92.8712 16.8778L102.41 28.9936H96.4695L89.2372 20.0407V20.0478Z" fill="white"/>
<path d="M116.51 27.8656C115.339 28.8009 113.576 29.2721 111.819 29.2721C107.25 29.2721 104.63 26.8518 104.63 22.2396V3.51978H109.513V8.28899H115.104V12.1943H109.513V22.1183C109.513 24.153 110.57 25.2454 112.405 25.2454C113.419 25.2454 114.397 24.9741 115.139 24.3886L116.51 27.8656Z" fill="white"/>
<path d="M141.913 18.5628C141.913 25.0526 137.415 29.2721 131.318 29.2721C128.662 29.2721 126.313 28.3725 124.635 26.4591V36.583H119.752V8.13192H124.399V10.8664C126.041 8.87443 128.462 7.89631 131.318 7.89631C137.415 7.89631 141.913 12.1158 141.913 18.5628ZM136.951 18.5628C136.951 14.5789 134.295 12.0372 130.775 12.0372C127.255 12.0372 124.564 14.5789 124.564 18.5628C124.564 22.5466 127.262 25.0883 130.775 25.0883C134.288 25.0883 136.951 22.5466 136.951 18.5628Z" fill="white"/>
<path d="M145.618 18.5628C145.618 12.3085 150.309 7.89631 156.72 7.89631C163.131 7.89631 167.858 12.3157 167.858 18.5628C167.858 24.8099 163.21 29.2721 156.72 29.2721C150.23 29.2721 145.618 24.817 145.618 18.5628ZM162.931 18.5628C162.931 14.5789 160.275 12.0372 156.72 12.0372C153.165 12.0372 150.544 14.5789 150.544 18.5628C150.544 22.5466 153.2 25.0883 156.72 25.0883C160.24 25.0883 162.931 22.5466 162.931 18.5628Z" fill="white"/>
<path d="M171.599 18.5628C171.599 12.3085 176.289 7.89631 182.701 7.89631C189.112 7.89631 193.838 12.3157 193.838 18.5628C193.838 24.8099 189.191 29.2721 182.701 29.2721C176.211 29.2721 171.599 24.817 171.599 18.5628ZM188.912 18.5628C188.912 14.5789 186.256 12.0372 182.701 12.0372C179.145 12.0372 176.525 14.5789 176.525 18.5628C176.525 22.5466 179.181 25.0883 182.701 25.0883C186.221 25.0883 188.912 22.5466 188.912 18.5628Z" fill="white"/>
<path d="M199.307 22.4752V-1.14441e-05H204.191V22.1183C204.191 24.153 205.169 25.2454 207.118 25.2454C207.782 25.2454 208.489 25.0526 208.874 24.8527L209.11 28.758C208.167 29.1079 207.154 29.2649 206.176 29.2649C201.835 29.2649 199.3 26.8018 199.3 22.461L199.307 22.4752Z" fill="white"/>
<path d="M29.5577 1.19942V8.79589C29.5577 9.63835 29.5077 10.4665 29.4149 11.2876H11.666V30.3858C10.3452 30.6357 8.98867 30.7642 7.59646 30.7642H0V1.19942H29.5577Z" fill="white"/>
<path d="M29.422 11.2876C28.3368 20.8974 21.0544 28.6295 11.666 30.3858V11.2876H29.422Z" fill="#BBBBBB"/>
<path d="M41.2236 11.2876V18.8841C41.2236 31.0141 31.3925 40.8453 19.2624 40.8453H11.666V30.3858C21.0544 28.6295 28.3368 20.8974 29.422 11.2876H41.2308H41.2236Z" fill="white"/>
</svg>
