<svg width="178" height="51" viewBox="0 0 178 51" fill="none" xmlns="http://www.w3.org/2000/svg">
<path d="M80.9405 22.4991C80.9405 26.6433 77.8233 29.6638 73.6298 29.6638H70.6776V35.1224H65.2301V15.3599H73.6298C77.8233 15.3599 80.9405 18.3549 80.9405 22.4991ZM75.3534 22.5118C75.3534 21.1084 74.4091 20.1143 72.98 20.1143H70.6801V24.9094H72.98C74.4116 24.9094 75.3534 23.9153 75.3534 22.5118Z" fill="white"/>
<path d="M95.0694 35.1224L89.4112 26.3916V35.1224H83.9764V15.3599H89.4112V23.689L94.6277 15.3599H100.931L94.6125 24.9323L101.52 35.1224H95.0694Z" fill="white"/>
<path d="M118.415 20.2618H113.057V35.1224H107.597V20.2618H102.238V15.3599H118.418V20.2618H118.415Z" fill="white"/>
<path d="M118.809 30.2434H123.893V35.1224H118.809V30.2434Z" fill="white"/>
<path d="M145.432 15.3599V35.1224H140.936L133.098 24.3983V35.1224H127.83V15.3599H132.587L140.165 25.728V15.3599H145.432Z" fill="white"/>
<path d="M165.013 27.3552C165.013 27.8154 164.973 28.273 164.904 28.7459H153.603C153.946 30.4952 155.055 31.3977 156.71 31.3977C157.934 31.3977 158.959 30.8613 159.462 29.9689H164.678C163.607 33.4469 160.528 35.6207 156.71 35.6207C151.961 35.6207 148.443 32.1452 148.443 27.4874C148.443 22.8297 151.933 19.377 156.71 19.377C161.488 19.377 165.013 22.883 165.013 27.3552ZM153.697 25.8374H159.85C159.391 24.3144 158.294 23.4907 156.713 23.4907C155.131 23.4907 154.121 24.3221 153.697 25.8374Z" fill="white"/>
<path d="M178 30.5231V35.1224H174.393C171.027 35.1224 168.981 33.0605 168.981 29.6739V23.9229H166.194V22.6949L173.015 15.4209H174.091V19.8779H177.914V23.9229H174.223V28.7739C174.223 29.8646 174.88 30.5231 175.987 30.5231H178Z" fill="white"/>
<path d="M55.0078 13.3973L28.0446 0.870661C27.8415 0.774047 27.608 0.774047 27.4024 0.870661L13.5933 7.28527H13.4842V7.33612L0.441687 13.3973C0.192921 13.5143 0.0253843 13.7584 0.00507687 14.0329H0V36.8337H0.0126922C0.0558455 37.0726 0.208152 37.2837 0.431534 37.393L10.6132 42.2948L17.7208 45.717L27.3948 50.3748C27.4988 50.4256 27.6105 50.451 27.7248 50.451C27.839 50.451 27.9507 50.4256 28.0548 50.3748L55.0155 37.393C55.282 37.2633 55.447 36.9964 55.447 36.704V14.0863C55.447 13.7889 55.2744 13.5219 55.0078 13.3973ZM1.52306 15.3042L10.6893 19.7179L1.52306 23.979V15.3042ZM10.6919 40.6397L10.6132 40.6016L2.54605 36.7167L10.6132 32.9691L10.6919 32.9335V40.6397ZM10.6919 31.2479L10.6132 31.2835L1.52306 35.5116V26.3893L10.6919 30.803V31.2504V31.2479ZM10.6919 29.1071L2.54605 25.1841L10.6919 21.3984V29.1071ZM13.4842 15.2991L10.6919 16.5983V18.022L2.54605 14.1016L13.4842 9.01668V15.2991ZM42.0466 9.05482L42.1228 9.09041L52.9035 14.1016L44.8389 17.9839V16.7076L42.0466 15.4084V9.05482ZM44.8389 21.434L52.9035 25.1841L44.8389 29.0665V21.434ZM15.0072 14.5897V8.31242L15.0834 8.27683L26.8871 2.78767V9.05736L15.0072 14.5897ZM27.0419 48.5137L26.9632 48.4755L17.7995 44.0619V37.3625L27.0419 41.6694V48.5137ZM27.7248 34.2353L17.7995 29.4682V21.1416L27.7654 16.5322L37.7313 21.251V29.3944L27.7248 34.2353ZM40.5235 42.6788L40.4449 42.7169L28.565 48.4374V41.6694L40.5235 35.9082V42.6788ZM40.5235 14.6991L28.4101 9.05736V2.71902L28.4863 2.75462L40.5235 8.35056V14.7016V14.6991ZM42.0466 41.944V35.1734L44.8389 33.8285V32.9666L52.9035 36.7167L42.0466 41.944ZM53.9239 35.509L44.8389 31.286V30.7597L53.9239 26.3867V35.509ZM53.9239 23.9765L44.8389 19.7509V19.6772L53.9239 15.3042V23.9765Z" fill="white"/>
<path d="M32.1061 24.9679H26.8871V29.8138H32.1061V24.9679Z" fill="white"/>
<path d="M25.7423 21.2508H23.0515V23.7475H25.7423V21.2508Z" fill="white"/>
<path d="M25.6077 27.2739V25.2526H23.5897V27.2739H25.6077Z" fill="white"/>
<path d="M29.0219 23.3915V21.6067H27.2399V23.3915H29.0219Z" fill="white"/>
</svg>
