<svg width="230" height="49" viewBox="0 0 230 49" fill="none" xmlns="http://www.w3.org/2000/svg">
<g clip-path="url(#clip0_10504_61392)">
<path d="M51.0156 36.7694V12.5909H59.9414C61.7773 12.5909 63.3008 12.9281 64.5508 13.6223C65.8008 14.3165 66.7383 15.2686 67.3828 16.4785C68.0273 17.6884 68.3398 19.057 68.3398 20.5843C68.3398 22.1314 68.0273 23.5199 67.3828 24.7099C66.7383 25.9199 65.8008 26.8521 64.5313 27.5463C63.2813 28.2405 61.7383 28.5777 59.9023 28.5777H53.9844V24.9876H59.3164C60.3906 24.9876 61.2695 24.7893 61.9336 24.4124C62.6172 24.0356 63.125 23.5199 63.457 22.8455C63.7891 22.1909 63.9453 21.4174 63.9453 20.5645C63.9453 19.7116 63.7891 18.9579 63.457 18.3033C63.125 17.6488 62.6172 17.1331 61.9336 16.7761C61.25 16.419 60.3711 16.2207 59.2969 16.2207H55.3516V36.7298H51.0156V36.7694ZM76.6992 37.1265C75.5664 37.1265 74.5508 36.9281 73.6523 36.5116C72.7539 36.0951 72.0313 35.4802 71.5234 34.6868C70.9961 33.8736 70.7422 32.8818 70.7422 31.6918C70.7422 30.6604 70.9375 29.8273 71.3086 29.1529C71.6797 28.4785 72.1875 27.943 72.832 27.5463C73.4766 27.1496 74.1992 26.8323 75.0195 26.6339C75.8203 26.4157 76.6602 26.2769 77.5391 26.1777C78.5938 26.0587 79.4336 25.9595 80.0781 25.8802C80.7227 25.781 81.2109 25.6422 81.5039 25.4637C81.7969 25.2653 81.9531 24.9678 81.9531 24.5513V24.4719C81.9531 23.5794 81.6992 22.8851 81.1719 22.4091C80.6445 21.9132 79.9023 21.6752 78.9258 21.6752C77.8906 21.6752 77.0898 21.9132 76.4844 22.3694C75.8789 22.8256 75.4883 23.3612 75.2734 23.9761L71.3477 23.4008C71.6602 22.2901 72.168 21.3777 72.8906 20.6438C73.5938 19.9099 74.4727 19.3347 75.5078 18.9777C76.543 18.6008 77.6758 18.4223 78.9258 18.4223C79.7852 18.4223 80.6445 18.5215 81.4844 18.7199C82.3438 18.9182 83.1055 19.2554 83.8281 19.7314C84.5313 20.2075 85.0977 20.8422 85.5273 21.6356C85.957 22.4289 86.1719 23.4405 86.1719 24.6504V36.7893H82.1289V34.2901H81.9922C81.7383 34.786 81.3867 35.262 80.918 35.6984C80.4492 36.1347 79.8828 36.4918 79.1797 36.7496C78.4375 37.0075 77.6367 37.1265 76.6992 37.1265ZM77.793 33.9926C78.6328 33.9926 79.375 33.8141 79.9805 33.4769C80.6055 33.1397 81.0742 32.6835 81.4063 32.1083C81.7383 31.5331 81.9141 30.9182 81.9141 30.2637V28.1215C81.7773 28.2405 81.5625 28.3397 81.25 28.419C80.9375 28.5182 80.5859 28.5975 80.1953 28.657C79.8047 28.7364 79.4336 28.7959 79.043 28.8554C78.6719 28.9149 78.3398 28.9546 78.0469 28.9942C77.4219 29.0736 76.8555 29.2323 76.3672 29.4108C75.8789 29.6091 75.4883 29.8868 75.1953 30.224C74.9023 30.581 74.7656 31.0174 74.7656 31.5727C74.7656 32.3661 75.0391 32.9612 75.6055 33.3579C76.2109 33.7942 76.9141 33.9926 77.793 33.9926ZM98.1445 37.1265C96.3672 37.1265 94.8438 36.7298 93.5547 35.9364C92.2852 35.143 91.3086 34.0521 90.6055 32.6438C89.9023 31.2356 89.5703 29.6289 89.5703 27.7843C89.5703 25.9397 89.9219 24.3132 90.625 22.905C91.3281 21.4967 92.3047 20.386 93.5742 19.5926C94.8438 18.7992 96.3477 18.4025 98.1055 18.4025C99.5508 18.4025 100.84 18.6802 101.953 19.2157C103.066 19.7513 103.965 20.505 104.629 21.4967C105.293 22.4686 105.684 23.619 105.762 24.9281H101.738C101.582 24.0554 101.191 23.3215 100.586 22.7463C99.9805 22.1711 99.1602 21.8736 98.1445 21.8736C97.2852 21.8736 96.5234 22.1116 95.8789 22.5678C95.2344 23.0438 94.7266 23.6984 94.3555 24.5711C94.0039 25.4438 93.8086 26.4951 93.8086 27.705C93.8086 28.9347 93.9844 30.0058 94.3359 30.8785C94.6875 31.7711 95.1953 32.4455 95.8399 32.9215C96.4844 33.3975 97.2461 33.6356 98.125 33.6356C98.75 33.6356 99.2969 33.5165 99.7852 33.2785C100.273 33.0405 100.684 32.6835 101.016 32.2273C101.348 31.7711 101.582 31.2157 101.699 30.5612H105.723C105.625 31.8504 105.254 32.981 104.609 33.9727C103.965 34.9645 103.086 35.738 101.992 36.2934C100.898 36.8488 99.6484 37.1265 98.1445 37.1265ZM109.258 36.7694V12.5909H113.477V36.7496L109.258 36.7694ZM113.086 31.0769L113.066 25.9199H113.75L120.156 18.6405H125.078L117.188 27.5661H116.309L113.086 31.0769ZM120.469 36.7694L114.648 28.5182L117.48 25.5033L125.488 36.7694H120.469ZM135.039 37.1265C133.242 37.1265 131.699 36.7496 130.41 35.9959C129.121 35.2422 128.125 34.1513 127.422 32.7628C126.719 31.3744 126.367 29.7281 126.367 27.824C126.367 25.9595 126.719 24.3132 127.422 22.905C128.125 21.4967 129.102 20.386 130.371 19.5926C131.641 18.7992 133.125 18.4025 134.824 18.4025C135.918 18.4025 136.973 18.581 137.949 18.938C138.926 19.2951 139.805 19.8504 140.547 20.6042C141.309 21.3579 141.895 22.3099 142.324 23.4603C142.754 24.6108 142.969 25.9794 142.969 27.5661V28.8752H128.34V25.9992H138.945C138.945 25.186 138.77 24.4521 138.418 23.8174C138.086 23.1827 137.598 22.667 136.992 22.3099C136.387 21.9331 135.684 21.7546 134.863 21.7546C134.004 21.7546 133.242 21.9727 132.598 22.3893C131.953 22.8058 131.445 23.3612 131.074 24.0356C130.723 24.7099 130.527 25.4637 130.527 26.2769V28.7959C130.527 29.8471 130.723 30.7595 131.094 31.5132C131.465 32.267 132.012 32.8422 132.676 33.2389C133.359 33.6356 134.16 33.8339 135.078 33.8339C135.684 33.8339 136.25 33.7546 136.738 33.5761C137.227 33.3975 137.656 33.1397 138.027 32.7827C138.398 32.4256 138.672 32.0091 138.848 31.4934L142.773 31.9496C142.52 33.0008 142.051 33.9132 141.367 34.7066C140.684 35.5 139.785 36.0951 138.711 36.5314C137.656 36.9083 136.426 37.1265 135.039 37.1265ZM155.43 18.6405V21.9529H145.176V18.6405H155.43ZM147.715 14.2967H151.914V31.3149C151.914 31.8901 151.992 32.3265 152.168 32.624C152.344 32.9215 152.578 33.1397 152.852 33.2389C153.145 33.3579 153.457 33.3975 153.809 33.3975C154.063 33.3975 154.316 33.3777 154.531 33.338C154.746 33.2984 154.922 33.2587 155.039 33.2389L155.742 36.5711C155.508 36.6504 155.195 36.7298 154.785 36.8289C154.375 36.9281 153.867 36.9876 153.262 36.9876C152.207 37.0273 151.25 36.8488 150.41 36.4918C149.57 36.1347 148.906 35.5794 148.398 34.8256C147.91 34.0719 147.656 33.1199 147.676 31.9893V14.2967H147.715ZM172.793 23.4405L168.965 23.857C168.848 23.4603 168.672 23.1033 168.398 22.7463C168.125 22.3893 167.773 22.1116 167.324 21.9132C166.875 21.6951 166.328 21.5959 165.684 21.5959C164.805 21.5959 164.082 21.7942 163.477 22.1711C162.891 22.548 162.598 23.0637 162.598 23.6785C162.598 24.2141 162.773 24.6306 163.164 24.9678C163.555 25.305 164.199 25.5628 165.117 25.781L168.164 26.4356C169.844 26.8124 171.113 27.3876 171.934 28.2008C172.754 29.0141 173.184 30.0455 173.184 31.3546C173.184 32.505 172.852 33.4967 172.207 34.3694C171.563 35.2422 170.664 35.9165 169.512 36.4124C168.359 36.9083 167.051 37.1463 165.566 37.1463C163.379 37.1463 161.621 36.6901 160.293 35.7579C158.965 34.8256 158.164 33.5165 157.91 31.8504L162.012 31.4537C162.207 32.267 162.598 32.8818 163.203 33.2984C163.809 33.7149 164.59 33.9331 165.566 33.9331C166.563 33.9331 167.363 33.7149 167.969 33.2984C168.574 32.8818 168.887 32.3661 168.887 31.7513C168.887 31.2356 168.691 30.7992 168.301 30.462C167.91 30.1248 167.305 29.867 166.484 29.6884L163.438 29.0339C161.719 28.6769 160.469 28.062 159.629 27.2091C158.809 26.3562 158.398 25.2653 158.418 23.9364C158.418 22.8256 158.711 21.8537 159.316 21.0207C159.922 20.2075 160.781 19.5529 161.855 19.1165C162.949 18.6603 164.199 18.4422 165.625 18.4422C167.715 18.4422 169.355 18.8984 170.566 19.7909C171.758 20.6637 172.5 21.8934 172.793 23.4405ZM184.434 37.1265C182.656 37.1265 181.133 36.7298 179.844 35.9364C178.574 35.143 177.598 34.0521 176.914 32.6438C176.23 31.2356 175.879 29.6289 175.879 27.7843C175.879 25.9397 176.23 24.3132 176.934 22.905C177.637 21.4967 178.613 20.386 179.883 19.5926C181.152 18.7992 182.656 18.4025 184.414 18.4025C185.859 18.4025 187.148 18.6802 188.262 19.2157C189.375 19.7513 190.273 20.505 190.938 21.4967C191.602 22.4686 191.992 23.619 192.07 24.9281H188.047C187.891 24.0554 187.5 23.3215 186.895 22.7463C186.289 22.1513 185.469 21.8736 184.453 21.8736C183.594 21.8736 182.832 22.1116 182.188 22.5678C181.543 23.0438 181.035 23.6984 180.664 24.5711C180.313 25.4438 180.117 26.4951 180.117 27.705C180.117 28.9347 180.293 30.0058 180.645 30.8785C180.996 31.7711 181.504 32.4455 182.148 32.9215C182.793 33.3975 183.555 33.6356 184.434 33.6356C185.059 33.6356 185.605 33.5165 186.094 33.2785C186.582 33.0405 186.992 32.6835 187.324 32.2273C187.656 31.7711 187.891 31.2157 188.008 30.5612H192.031C191.934 31.8504 191.563 32.981 190.918 33.9727C190.273 34.9645 189.395 35.738 188.301 36.2934C187.227 36.8488 185.918 37.1265 184.434 37.1265ZM200.684 37.1265C199.551 37.1265 198.535 36.9281 197.637 36.5116C196.738 36.0951 196.016 35.4802 195.508 34.6868C194.98 33.8736 194.727 32.8818 194.727 31.6918C194.727 30.6604 194.922 29.8273 195.293 29.1529C195.664 28.4785 196.172 27.943 196.816 27.5463C197.461 27.1496 198.184 26.8323 199.004 26.6339C199.805 26.4157 200.645 26.2769 201.523 26.1777C202.578 26.0587 203.418 25.9595 204.063 25.8802C204.707 25.781 205.195 25.6422 205.488 25.4637C205.781 25.2653 205.938 24.9678 205.938 24.5513V24.4719C205.938 23.5794 205.684 22.8851 205.156 22.4091C204.629 21.9132 203.887 21.6752 202.91 21.6752C201.875 21.6752 201.074 21.9132 200.469 22.3694C199.863 22.8256 199.473 23.3612 199.258 23.9761L195.332 23.4008C195.645 22.2901 196.152 21.3777 196.875 20.6438C197.578 19.9099 198.457 19.3347 199.492 18.9777C200.527 18.6008 201.66 18.4223 202.91 18.4223C203.77 18.4223 204.629 18.5215 205.469 18.7199C206.328 18.9182 207.09 19.2554 207.813 19.7314C208.516 20.2075 209.082 20.8422 209.512 21.6356C209.941 22.4289 210.156 23.4405 210.156 24.6504V36.7893H206.055V34.2901H205.918C205.664 34.786 205.313 35.262 204.844 35.6984C204.375 36.1347 203.809 36.4918 203.105 36.7496C202.422 37.0075 201.602 37.1265 200.684 37.1265ZM201.758 33.9926C202.598 33.9926 203.34 33.8141 203.945 33.4769C204.57 33.1397 205.039 32.6835 205.371 32.1083C205.703 31.5331 205.879 30.9182 205.879 30.2637V28.1215C205.742 28.2405 205.527 28.3397 205.215 28.419C204.902 28.5182 204.551 28.5975 204.16 28.657C203.77 28.7364 203.398 28.7959 203.008 28.8554C202.617 28.9149 202.305 28.9546 202.012 28.9942C201.387 29.0736 200.82 29.2323 200.332 29.4108C199.844 29.6091 199.453 29.8868 199.16 30.224C198.867 30.581 198.73 31.0174 198.73 31.5727C198.73 32.3661 199.004 32.9612 199.57 33.3579C200.137 33.7546 200.898 33.9926 201.758 33.9926ZM218.535 26.138V36.7496H214.336V18.6405H218.359V21.7149H218.574C218.984 20.7033 219.648 19.8901 220.547 19.2951C221.445 18.7 222.559 18.4025 223.906 18.4025C225.137 18.4025 226.211 18.6603 227.129 19.1959C228.047 19.7314 228.75 20.505 229.258 21.5165C229.766 22.5281 230.02 23.7579 230 25.2058V36.7496H225.801V25.8802C225.801 24.6703 225.488 23.7182 224.883 23.0438C224.258 22.3496 223.418 22.0124 222.324 22.0124C221.582 22.0124 220.938 22.1711 220.371 22.5083C219.805 22.8256 219.355 23.3017 219.043 23.9165C218.711 24.5314 218.535 25.2653 218.535 26.138Z" fill="white"/>
<path fill-rule="evenodd" clip-rule="evenodd" d="M20.5078 0.670258L0 12.7099V36.7496L20.5078 48.7694L41.0156 36.7496V12.7099L20.5078 0.670258ZM21.7969 21.7744V9.6554L13.2031 27.0108H19.6484V39.6058L27.7148 21.7744H21.7969Z" fill="white"/>
</g>
<defs>
<clipPath id="clip0_10504_61392">
<rect width="230" height="48" fill="white" transform="translate(0 0.729767)"/>
</clipPath>
</defs>
</svg>
