<svg width="163" height="45" viewBox="0 0 163 45" fill="none" xmlns="http://www.w3.org/2000/svg">
<path d="M21.9022 16.9595C20.8853 15.9426 19.6337 15.0822 18.0693 14.4564C16.5048 13.8306 14.6275 13.5177 12.5937 13.5177C10.4035 13.5177 8.29154 13.9088 6.25776 14.7693C4.22399 15.5515 2.34666 16.7248 0.782221 18.211L5.16264 22.5915C6.25775 21.5746 7.35282 20.9488 8.44792 20.5577C9.54303 20.1666 10.5599 20.0101 11.655 20.0101C13.767 20.0101 15.4097 20.5577 16.5048 21.5746C17.5999 22.5915 18.2257 23.9995 18.2257 25.7203H14.0017C12.0461 25.7203 10.247 25.955 8.52613 26.3461C6.80524 26.7372 5.39728 27.363 4.06751 28.2234C2.81596 29.0839 1.79903 30.1008 1.09503 31.3523C0.391034 32.6039 0 34.0901 0 35.7328C0 37.0625 0.23459 38.2359 0.703922 39.331C1.17325 40.4261 1.79903 41.3648 2.65947 42.147C3.51992 42.9292 4.53682 43.555 5.71015 44.0243C6.88348 44.4154 8.13504 44.6501 9.62125 44.6501C11.1857 44.6501 12.672 44.4936 14.08 44.1025C15.5662 43.7896 16.8959 43.1639 18.2257 42.2252V43.7896H25.5786V27.4412C25.5786 24.9381 25.3439 22.9044 24.7964 21.2617C24.0924 19.6972 23.232 18.211 21.9022 16.9595ZM18.0693 36.4368C16.9742 37.0625 15.879 37.6101 14.7839 37.923C13.6888 38.2359 12.5937 38.4705 11.4986 38.4705C10.2471 38.4705 9.23016 38.1577 8.36972 37.5319C7.5875 36.9061 7.19639 36.0457 7.19639 35.0288C7.19639 34.3248 7.4311 33.699 7.82221 33.1514C8.21332 32.6039 8.76087 32.2128 9.38665 31.8999C10.0906 31.587 10.8729 31.3523 11.7333 31.1959C12.672 31.0394 13.6106 30.9612 14.6275 30.9612H17.9911V36.4368H18.0693Z" fill="white"/>
<path d="M54.4421 16.3336C53.347 15.3167 52.1736 14.6127 50.7656 14.1434C49.3576 13.6741 47.9496 13.4394 46.4634 13.4394C45.7594 13.4394 45.0554 13.5176 44.3514 13.6741C43.6474 13.8305 42.8653 13.987 42.2395 14.2999C41.5355 14.5345 40.8314 14.8474 40.2056 15.2385C39.5799 15.6296 39.0323 16.0207 38.563 16.4901L38.4848 14.2999H31.1319V43.8678H38.4848V22.3567C39.3452 21.4963 40.3622 20.8705 41.4573 20.4794C42.5524 20.0883 43.6474 19.8536 44.8208 19.8536C45.603 19.8536 46.307 20.0101 47.011 20.2447C47.715 20.4794 48.3408 20.8705 48.8884 21.4181C49.4359 21.9656 49.9052 22.5914 50.2181 23.4518C50.531 24.2341 50.6874 25.1727 50.6874 26.2678V43.946H58.0403V25.955C58.0403 23.843 57.7275 21.9656 57.1017 20.4012C56.3977 18.6021 55.5372 17.3505 54.4421 16.3336Z" fill="white"/>
<path d="M89.5644 17.8981C88.1564 16.4901 86.4355 15.395 84.5581 14.6128C82.6026 13.8305 80.5688 13.4394 78.3786 13.4394C76.2666 13.4394 74.2328 13.8305 72.2772 14.6128C70.3999 15.395 68.6791 16.4901 67.2711 17.9763C65.8631 19.3843 64.6897 21.027 63.8293 22.9043C62.9688 24.7816 62.5778 26.8154 62.5778 29.0056C62.5778 31.1958 62.9688 33.2296 63.8293 35.1069C64.6115 36.9843 65.7848 38.6269 67.1928 40.0349C68.6008 41.4429 70.3217 42.538 72.199 43.3202C74.0763 44.1025 76.1884 44.4936 78.3786 44.4936C80.5688 44.4936 82.6026 44.1025 84.5581 43.3202C86.5137 42.538 88.1564 41.4429 89.5644 40.0349C90.9724 38.6269 92.1456 36.9843 92.9279 35.1069C93.7101 33.2296 94.1794 31.1958 94.1794 28.9274C94.1794 26.7372 93.7883 24.7034 92.9279 22.7478C92.1456 20.9487 91.0506 19.3061 89.5644 17.8981ZM86.2008 32.5256C85.7314 33.6207 85.1839 34.5594 84.4016 35.4198C83.6194 36.202 82.759 36.906 81.7422 37.3754C80.7253 37.8447 79.6301 38.0794 78.4568 38.0794C77.2834 38.0794 76.1884 37.8447 75.1715 37.3754C74.1546 36.906 73.2941 36.2803 72.5119 35.4198C71.7297 34.6376 71.1039 33.6207 70.7128 32.5256C70.2434 31.4305 70.0871 30.2572 70.0871 29.0056C70.0871 27.7541 70.3217 26.5807 70.7128 25.4856C71.1821 24.3905 71.7297 23.4518 72.5119 22.5914C73.2941 21.8092 74.1546 21.1052 75.1715 20.6358C76.1884 20.1665 77.2834 19.9319 78.4568 19.9319C79.6301 19.9319 80.7253 20.1665 81.7422 20.6358C82.759 21.1052 83.6194 21.731 84.4016 22.5914C85.1839 23.3736 85.8097 24.3905 86.2008 25.4856C86.6701 26.5807 86.8266 27.7541 86.8266 29.0056C86.8266 30.2572 86.5919 31.4305 86.2008 32.5256Z" fill="white"/>
<path d="M119.681 14.9638C118.821 14.338 117.804 13.8687 116.631 13.5558C115.457 13.2429 114.206 13.0083 112.954 13.0083C111.155 13.0083 109.356 13.3994 107.713 14.1816C105.993 14.9638 104.506 16.0589 103.177 17.4669C101.847 18.8749 100.752 20.5176 99.9694 22.3949C99.1872 24.2722 98.7961 26.306 98.7961 28.5745C98.7961 30.6865 99.1089 32.642 99.8129 34.5193C100.517 36.3967 101.456 38.0393 102.785 39.4473C104.037 40.8553 105.523 41.9504 107.322 42.8109C109.043 43.6713 110.999 44.0624 113.032 44.0624C114.284 44.0624 115.457 43.906 116.631 43.5149C117.726 43.1238 118.821 42.5762 119.76 41.794V43.3584H127.269V0.88385H119.76V14.9638H119.681ZM119.76 35.5362C118.117 37.0224 116.24 37.7264 114.284 37.7264C113.111 37.7264 112.016 37.4918 110.999 37.0224C109.982 36.5531 109.121 35.9273 108.417 35.1451C107.713 34.3629 107.166 33.4242 106.697 32.2509C106.305 31.1558 106.071 29.9042 106.071 28.5745C106.071 27.2447 106.305 25.9931 106.697 24.8198C107.088 23.7247 107.713 22.7078 108.417 21.9256C109.2 21.1434 110.06 20.5176 111.077 20.0483C112.094 19.6571 113.189 19.4225 114.441 19.4225C114.832 19.4225 115.223 19.5007 115.692 19.5789C116.161 19.6572 116.631 19.8136 117.1 19.97C117.569 20.1265 118.039 20.2829 118.508 20.5176C118.977 20.7523 119.368 20.9869 119.681 21.2216V35.5362H119.76Z" fill="white"/>
<path d="M161.685 22.6696C160.824 20.7923 159.651 19.1496 158.243 17.8198C156.757 16.4901 155.114 15.395 153.159 14.6128C151.281 13.8305 149.248 13.4394 147.136 13.4394C144.945 13.4394 142.912 13.8305 140.956 14.691C139.079 15.4732 137.358 16.6465 135.95 18.0545C134.542 19.4625 133.369 21.1052 132.586 22.9825C131.804 24.8598 131.335 26.8936 131.335 29.0838C131.335 31.1958 131.726 33.2296 132.586 35.1852C133.369 37.0625 134.542 38.7051 135.95 40.1131C137.358 41.5211 139.001 42.6162 140.956 43.4767C142.912 44.2589 144.945 44.7282 147.136 44.7282C149.326 44.7282 151.36 44.4154 153.315 43.7896C155.271 43.1638 157.304 42.0687 159.338 40.5042L154.645 35.8109C153.784 36.5931 152.611 37.2189 151.281 37.6883C149.952 38.1576 148.622 38.3923 147.292 38.3923C146.197 38.3923 145.18 38.2358 144.32 37.9229C143.381 37.61 142.599 37.1407 141.895 36.5931C141.191 36.0456 140.565 35.3416 140.096 34.5594C139.626 33.7772 139.235 32.9949 138.922 32.1345H162.545C162.624 31.5869 162.702 31.0394 162.702 30.57C162.78 30.0225 162.78 29.5532 162.78 29.0838C162.936 26.6589 162.467 24.547 161.685 22.6696ZM139.001 26.1114C139.548 24.2341 140.565 22.7478 142.051 21.5745C143.537 20.4012 145.18 19.8536 146.979 19.8536C148.856 19.8536 150.499 20.4012 151.985 21.5745C153.472 22.7478 154.488 24.2341 155.114 26.1114H139.001Z" fill="white"/>
</svg>
