<svg width="209" height="46" viewBox="0 0 209 46" fill="none" xmlns="http://www.w3.org/2000/svg">
<path d="M20.8355 23.4438H22.8252L24.2067 21.4925H22.2169L20.8355 23.4438Z" fill="white"/>
<path d="M43.2495 9.15972C42.0883 4.17455 40.5036 3.02874 36.6103 1.9045C32.7787 0.797191 28.1246 0.398315 22.2693 0.398315C16.414 0.398315 11.7599 0.797191 7.92823 1.9045C4.03496 3.02874 2.45024 4.17455 1.28903 9.15972C0.488199 12.5987 0 20.3513 0 22.9772C0 25.603 0.625265 33.197 1.28903 36.0939C2.33627 40.6632 3.57756 43.2074 8.17002 44.1453C11.4303 44.8121 20.3997 45.248 22.2693 45.248C24.1389 45.248 33.1082 44.8121 36.3685 44.1453C40.961 43.2074 42.2023 40.6632 43.2495 36.0939C43.9133 33.197 44.5386 25.603 44.5386 22.9772C44.5386 20.3513 44.0504 12.5987 43.2495 9.15972ZM34.7453 19.3364L33.3423 21.4925H27.0389L25.6559 23.4438H32.2181L30.8151 25.5999H24.1281L18.222 33.9347L28.4696 33.8284C33.946 33.8284 35.2489 28.7755 35.2489 28.7755V36.7746H13.3785L21.2975 25.5999H19.3077L11.3888 36.7746H8.55658L16.4756 25.5999H9.58534L10.9883 23.4438H18.0049L19.3878 21.4925H12.1126L13.5156 19.3364H20.9156L26.3181 11.7131L16.0705 11.8194C10.5941 11.8194 9.29119 16.8723 9.29119 16.8723V8.87173H31.1601L23.7447 19.3349H25.7344L33.1498 8.87173H35.982L28.5666 19.3349H34.7453V19.3364Z" fill="white"/>
<path d="M57.9686 13.9347H73.6852C74.0244 13.9347 74.194 14.1043 74.194 14.4435V16.7934C74.194 16.9085 74.1758 17.0175 74.1395 17.1204C74.1031 17.2234 74.0668 17.2961 74.0244 17.3324L63.0379 31.0989H73.6307C73.9699 31.0989 74.1395 31.2685 74.1395 31.6076V34.4663C74.1395 34.7873 73.9699 34.9448 73.6307 34.9448H57.8232C57.484 34.9448 57.3145 34.7873 57.3145 34.4663V32.0316C57.3145 31.8438 57.369 31.6743 57.4841 31.5228L68.5009 17.8169H57.9686C57.6112 17.8169 57.4295 17.6474 57.4295 17.3082V14.4495C57.4295 14.1103 57.6112 13.9408 57.9686 13.9408V13.9347Z" fill="white"/>
<path d="M77.3676 34.3876V14.504C77.3676 14.1285 77.5493 13.9347 77.9066 13.9347H91.7579C92.1334 13.9347 92.3272 14.1225 92.3272 14.504V17.2537C92.3272 17.6292 92.1394 17.823 91.7579 17.823H81.5042V22.0989H89.3232C89.7411 22.0989 89.947 22.2867 89.947 22.6682V25.3573C89.947 25.7328 89.7411 25.9266 89.3232 25.9266H81.5042V31.111H92.0122C92.4059 31.111 92.6058 31.2988 92.6058 31.6743V34.3936C92.6058 34.7691 92.4059 34.9629 92.0122 34.9629H77.9066C77.5493 34.9629 77.3676 34.7752 77.3676 34.3936V34.3876Z" fill="white"/>
<path d="M94.4168 17.1628V14.4737C94.4168 14.1164 94.5985 13.9347 94.9558 13.9347H109.825C110.2 13.9347 110.394 14.1164 110.394 14.4737V17.1628C110.394 17.5383 110.206 17.7322 109.825 17.7322H104.386V34.3876C104.386 34.7631 104.204 34.9569 103.847 34.9569H100.788C100.431 34.9569 100.249 34.7691 100.249 34.3876V17.7322H94.9558C94.5985 17.7322 94.4168 17.5444 94.4168 17.1628Z" fill="white"/>
<path d="M107.16 34.3573L115.148 14.4737C115.318 14.1164 115.554 13.9347 115.857 13.9347H118.237C118.576 13.9347 118.812 14.1164 118.946 14.4737L126.934 34.3573C127.031 34.545 127.031 34.6904 126.946 34.7994C126.861 34.9084 126.722 34.9569 126.534 34.9569H123.446C123.106 34.9569 122.87 34.7873 122.737 34.4482L121.38 31.0504H112.683L111.351 34.4482C111.217 34.7873 110.981 34.9569 110.642 34.9569H107.529C107.111 34.9569 106.99 34.757 107.16 34.3634V34.3573ZM117.044 19.3735L114.016 27.3862H120.018L117.044 19.3735Z" fill="white"/>
<path d="M143.444 34.3876V25.8903H134.014V34.3876C134.014 34.7631 133.808 34.9569 133.39 34.9569H130.417C130.059 34.9569 129.878 34.7691 129.878 34.3876V14.5343C129.878 14.3647 129.92 14.2254 130.005 14.1104C130.09 13.9953 130.229 13.9408 130.417 13.9408H133.475C133.59 13.9408 133.705 13.9771 133.826 14.0558C133.948 14.1285 134.008 14.2799 134.008 14.5101V21.9051H143.438V14.5404C143.438 14.3708 143.481 14.2315 143.565 14.1164C143.65 14.0013 143.789 13.9468 143.977 13.9468H147.036C147.151 13.9468 147.26 13.9832 147.375 14.0619C147.49 14.1346 147.544 14.286 147.544 14.5161V34.3997C147.544 34.7752 147.345 34.969 146.951 34.969H143.977C143.62 34.969 143.438 34.7813 143.438 34.3997L143.444 34.3876Z" fill="white"/>
<path d="M150.464 34.3573L158.452 14.4737C158.622 14.1164 158.858 13.9347 159.161 13.9347H161.541C161.88 13.9347 162.116 14.1164 162.25 14.4737L170.238 34.3573C170.335 34.545 170.335 34.6904 170.25 34.7994C170.166 34.9084 170.026 34.9569 169.839 34.9569H166.75C166.411 34.9569 166.174 34.7873 166.041 34.4482L164.684 31.0504H155.987L154.655 34.4482C154.522 34.7873 154.285 34.9569 153.946 34.9569H150.833C150.415 34.9569 150.294 34.757 150.464 34.3634V34.3573ZM160.348 19.3735L157.32 27.3862H163.322L160.348 19.3735Z" fill="white"/>
<path d="M172.158 31.753C172.007 31.5834 171.892 31.4138 171.819 31.2442C171.746 31.0747 171.807 30.8869 172.019 30.6749L173.915 28.8035C174.084 28.6521 174.248 28.6036 174.411 28.646C174.575 28.6884 174.738 28.7913 174.908 28.9428C175.193 29.2274 175.507 29.5121 175.859 29.8089C176.21 30.0996 176.586 30.3661 176.991 30.6023C177.397 30.8385 177.833 31.0262 178.306 31.1655C178.778 31.3048 179.275 31.3775 179.808 31.3775C180.377 31.3775 180.874 31.3048 181.31 31.1534C181.746 31.002 182.115 30.8021 182.43 30.5478C182.745 30.2934 182.975 30.0027 183.139 29.6695C183.296 29.3425 183.381 28.9973 183.381 28.6339C183.381 28.1797 183.242 27.7981 182.969 27.4892C182.697 27.1803 182.357 26.9138 181.964 26.6958C181.564 26.4778 181.14 26.2961 180.674 26.1568C180.213 26.0175 179.789 25.8963 179.414 25.8055C177.131 25.1272 175.386 24.2914 174.187 23.2981C172.988 22.3048 172.388 21.0087 172.388 19.4037C172.388 18.5377 172.57 17.7443 172.94 17.0235C173.309 16.3089 173.83 15.685 174.496 15.1702C175.168 14.6494 175.974 14.2497 176.919 13.965C177.863 13.6803 178.899 13.541 180.032 13.541C181.279 13.541 182.472 13.8318 183.617 14.4192C184.762 15.0067 185.755 15.7214 186.603 16.5693C186.942 16.9266 186.93 17.2961 186.573 17.6716L185.016 19.3432C184.828 19.5128 184.647 19.5673 184.477 19.5006C184.308 19.434 184.126 19.325 183.938 19.1736C183.714 18.9859 183.454 18.7799 183.157 18.5498C182.866 18.3257 182.545 18.1077 182.194 17.9138C181.843 17.714 181.473 17.5504 181.092 17.4172C180.704 17.284 180.304 17.2173 179.886 17.2173C179.529 17.2173 179.153 17.2476 178.766 17.3021C178.378 17.3566 178.027 17.4657 177.718 17.6292C177.409 17.7927 177.149 18.0168 176.937 18.3075C176.731 18.5982 176.628 18.9919 176.628 19.4825C176.628 19.8398 176.725 20.1548 176.925 20.4152C177.125 20.6756 177.403 20.9118 177.773 21.1117C178.142 21.3116 178.572 21.4932 179.075 21.6628C179.577 21.8324 180.129 22.002 180.734 22.1716C181.697 22.4562 182.606 22.7712 183.454 23.1225C184.302 23.4737 185.046 23.9037 185.676 24.4125C186.306 24.9212 186.815 25.5269 187.191 26.2234C187.566 26.9199 187.76 27.7617 187.76 28.7429C187.76 29.7241 187.542 30.6144 187.106 31.4199C186.67 32.2254 186.088 32.9098 185.361 33.473C184.635 34.0424 183.793 34.4724 182.842 34.7752C181.891 35.078 180.904 35.2294 179.88 35.2294C178.409 35.2294 176.991 34.9084 175.635 34.2664C174.278 33.6245 173.115 32.7826 172.152 31.7469L172.158 31.753Z" fill="white"/>
<path d="M204.9 34.3876V25.8903H195.47V34.3876C195.47 34.7631 195.264 34.9569 194.846 34.9569H191.872C191.515 34.9569 191.333 34.7691 191.333 34.3876V14.5343C191.333 14.3647 191.376 14.2254 191.46 14.1104C191.545 13.9953 191.684 13.9408 191.872 13.9408H194.931C195.046 13.9408 195.161 13.9771 195.282 14.0558C195.403 14.1285 195.464 14.2799 195.464 14.5101V21.9051H204.894V14.5404C204.894 14.3708 204.936 14.2315 205.021 14.1164C205.106 14.0013 205.245 13.9468 205.433 13.9468H208.491C208.606 13.9468 208.715 13.9832 208.83 14.0619C208.946 14.1346 209 14.286 209 14.5161V34.3997C209 34.7752 208.8 34.969 208.407 34.969H205.433C205.075 34.969 204.894 34.7813 204.894 34.3997L204.9 34.3876Z" fill="white"/>
</svg>
