<svg width="204" height="42" viewBox="0 0 204 42" fill="none" xmlns="http://www.w3.org/2000/svg">
<path d="M102.9 23.3778C101.651 23.3778 100.909 22.6429 100.909 21.4227V15.9956H105.076V11.4735H100.761V6.49169H99.5442L94.8303 11.4735H88.2482L84.157 18.1498V5.31864H78.2447V17.4148C77.2345 13.501 73.9109 10.916 69.559 10.916C68.176 10.9051 66.8183 11.2491 65.609 11.9116V10.992L59.5265 11.0065V34.6739H65.3773V27.9614C66.6409 28.7145 68.0927 29.1055 69.5663 29.0946C73.9181 29.0946 77.2418 26.4915 78.2519 22.5777V28.5153H84.1642V21.3069L88.4654 28.5153H95.4385L89.5443 19.5908L91.9158 15.9883H95.0004V22.4184C95.0004 26.2091 97.3103 28.5117 101.108 28.5117H105.174V23.3706H102.908L102.9 23.3778ZM69.1282 23.8992C66.9124 23.8992 65.2832 22.2374 65.2832 19.9999C65.2832 17.7624 66.9124 16.1006 69.1282 16.1006C71.3439 16.1006 72.9732 17.7624 72.9732 19.9999C72.9732 22.2374 71.3295 23.8992 69.1282 23.8992Z" fill="white"/>
<path d="M109.667 25.6841C109.667 23.8738 111.01 22.6863 112.698 22.6863C114.385 22.6863 115.728 23.8738 115.728 25.6841C115.728 27.4944 114.385 28.7434 112.698 28.7434C111.01 28.7434 109.667 27.4618 109.667 25.6841Z" fill="white"/>
<path d="M144.392 11.6944L138.302 28.4936H133.617L129.837 18.0665L125.934 28.4936H121.249L115.192 11.6944H119.783L123.747 23.0592L127.868 11.6944H131.988L135.985 23.0592L140.076 11.6944H144.384H144.392Z" fill="white"/>
<path d="M144.326 20.094C144.326 15.0361 148.229 11.4446 153.57 11.4446C158.91 11.4446 162.78 15.0361 162.78 20.094C162.78 25.1519 158.91 28.7434 153.57 28.7434C148.229 28.7434 144.326 25.1519 144.326 20.094ZM157.846 20.094C157.846 17.1903 156.003 15.4416 153.57 15.4416C151.137 15.4416 149.261 17.1903 149.261 20.094C149.261 22.9977 151.133 24.7464 153.57 24.7464C156.006 24.7464 157.846 22.9977 157.846 20.094Z" fill="white"/>
<path d="M175.832 11.4446V15.9413C175.427 15.9087 175.115 15.8797 174.739 15.8797C172.052 15.8797 170.275 17.346 170.275 20.5647V28.4972H165.405V11.6944H170.058V13.9101C171.245 12.2881 173.244 11.4446 175.836 11.4446H175.832Z" fill="white"/>
<path d="M178.113 5.32587H182.983V28.4936H178.113V5.32587Z" fill="white"/>
<path d="M204 5.32587V28.4936H199.348V26.5566C198.131 28.0229 196.35 28.7434 194.101 28.7434C189.355 28.7434 185.702 25.3727 185.702 20.094C185.702 14.8153 189.355 11.4446 194.101 11.4446C196.162 11.4446 197.91 12.0999 199.127 13.4757V5.32587H203.996H204ZM199.221 20.094C199.221 17.1903 197.349 15.4416 194.941 15.4416C192.534 15.4416 190.633 17.1903 190.633 20.094C190.633 22.9977 192.505 24.7464 194.941 24.7464C197.378 24.7464 199.221 22.9977 199.221 20.094Z" fill="white"/>
<path d="M24.8455 21.0933H18.7884V27.107H24.8455V21.0933Z" fill="white"/>
<path d="M22.4596 14.7103H19.2735V17.871H22.4596V14.7103Z" fill="white"/>
<path d="M30.7506 14.9384H25.6493V19.9999H30.7506V14.9384Z" fill="white"/>
<path d="M30.9316 23.4683H28.3792V25.9991H30.9316V23.4683Z" fill="white"/>
<path d="M46.3442 14.7573C45.8844 14.3591 45.392 13.9789 44.8634 13.6205C44.3674 13.2729 43.8388 12.9471 43.2812 12.6357C43.1364 12.5561 42.9807 12.48 42.8359 12.4004C43.8388 5.44536 40.9352 0.608337 34.8237 0.608337C31.7499 0.608337 28.285 1.83207 24.8564 3.9356C21.4314 1.83207 17.9665 0.608337 14.8927 0.608337C8.85006 0.608337 5.94639 5.34036 6.85153 12.1759C6.70308 12.2519 6.55464 12.3316 6.40982 12.4112C5.83778 12.7226 5.30194 13.0485 4.80593 13.3924C-0.852951 17.241 -1.75084 22.603 3.37944 27.0599C3.83925 27.4582 4.33164 27.8347 4.85662 28.1931C5.35263 28.5407 5.88123 28.8702 6.43879 29.1779C6.58361 29.2576 6.73567 29.3336 6.88411 29.4132C5.88485 36.3719 8.78489 41.2089 14.8963 41.2089C17.9702 41.2089 21.435 39.9852 24.8636 37.8816C28.2887 39.9852 31.7535 41.2089 34.8309 41.2089C40.8772 41.2089 43.7809 36.4769 42.8721 29.6413C43.0206 29.5653 43.169 29.4856 43.3138 29.406C43.8859 29.0946 44.4217 28.7688 44.9177 28.4248C50.5766 24.5762 51.4745 19.2142 46.3478 14.7573H46.3442ZM33.8896 2.50911C38.962 2.50911 41.5977 6.18757 41.3044 11.6546C38.6253 10.4525 35.5044 9.5619 32.1626 9.02606C31.844 8.97537 31.5182 8.9283 31.1959 8.88486C29.5776 7.33165 27.8832 5.94861 26.1598 4.77918C28.8354 3.33459 31.4928 2.51273 33.8932 2.51273L33.8896 2.50911ZM24.86 36.2922C23.4335 35.4161 22.007 34.3661 20.6276 33.1786C23.3756 33.4393 26.2105 33.4682 29.0091 33.251C27.6551 34.4096 26.2612 35.4305 24.86 36.2922ZM19.1106 31.8028C19.0672 31.763 19.0237 31.7231 18.9803 31.6797C15.8522 28.6493 13.0535 24.9274 11.0803 20.9086C13.0788 16.8392 15.9173 13.0738 19.0998 10.0217C19.136 9.9855 19.1722 9.95291 19.2084 9.92033C22.9991 9.45328 26.9237 9.50035 30.6094 10.0145C30.6529 10.0543 30.6963 10.0941 30.7398 10.1376C33.8679 13.1679 36.6665 16.8898 38.6361 20.905C36.6376 24.9745 33.7991 28.7398 30.6167 31.7919C30.5804 31.8281 30.5406 31.8607 30.5044 31.8969C26.7173 32.364 22.7927 32.3133 19.1106 31.7992V31.8028ZM10.4105 19.4532C9.59588 17.5741 9.0347 15.7711 8.7161 14.0948C8.64369 13.7219 8.58576 13.3562 8.54231 12.9942C9.97242 12.2483 11.627 11.5894 13.5097 11.0536C14.317 10.8218 15.1425 10.6191 15.9789 10.4453C16.3807 10.3584 16.7899 10.2824 17.199 10.21C17.123 10.2896 17.0469 10.3657 16.9709 10.4453C14.4546 13.11 12.1918 16.1766 10.4105 19.4532ZM10.4105 22.3641C12.152 25.5755 14.3641 28.5841 16.8188 31.209C16.9021 31.2995 16.989 31.3864 17.0723 31.4733C16.645 31.39 16.2251 31.3031 15.8087 31.209C13.1223 30.6044 10.6531 29.7318 8.57128 28.6203C8.62196 28.2547 8.68351 27.8854 8.75954 27.5125C9.08539 25.8941 9.63209 24.1671 10.4141 22.3641H10.4105ZM24.8564 5.52501C26.2865 6.40118 27.7094 7.45113 29.0888 8.63866C26.3372 8.37798 23.4987 8.34902 20.7 8.56987C22.0541 7.4113 23.448 6.3867 24.8528 5.52501H24.8564ZM32.7455 31.3719C35.2618 28.7072 37.5246 25.6443 39.3095 22.3677C40.1205 24.2467 40.6817 26.0461 41.0003 27.7224C41.0727 28.0954 41.127 28.461 41.1741 28.8231C39.744 29.5689 38.0894 30.2279 36.2104 30.7637C35.403 30.9954 34.5775 31.1982 33.7412 31.3719C33.3357 31.4588 32.9302 31.5349 32.521 31.6073C32.5971 31.5276 32.6731 31.4516 32.7491 31.3719H32.7455ZM39.3095 19.4459C37.5608 16.2345 35.3523 13.2295 32.8976 10.6082C32.8143 10.5177 32.7274 10.4308 32.6441 10.3403C33.0714 10.4236 33.495 10.5105 33.9113 10.6082C36.5941 11.2129 39.0633 12.0854 41.1451 13.1933C41.0945 13.5553 41.0329 13.9246 40.9569 14.3012C40.631 15.9195 40.0879 17.6465 39.3059 19.4459H39.3095ZM15.8304 2.50911C18.2272 2.50911 20.8883 3.33097 23.5639 4.77556C21.8803 5.91603 20.2221 7.26648 18.6363 8.77262C18.325 8.81245 18.0136 8.84865 17.7059 8.89572C15.8666 9.16002 14.0672 9.54017 12.3366 10.0326C10.9101 10.4381 9.5995 10.9087 8.40835 11.4301C8.19836 6.08981 10.8305 2.50911 15.8341 2.50911H15.8304ZM5.39245 26.4806C5.37435 26.4661 5.35263 26.448 5.33815 26.4299C1.21075 22.8094 1.46419 18.5408 5.27298 15.1882C5.7002 14.8117 6.17087 14.446 6.6886 14.0948C6.83342 13.997 6.98549 13.8993 7.13755 13.8052C7.23168 14.2577 7.33668 14.7175 7.4634 15.1882C7.95579 17.0021 8.68351 18.921 9.65743 20.9086C8.71972 22.8239 8.00647 24.674 7.52132 26.4299C7.38736 26.897 7.27875 27.3495 7.18099 27.7985C7.03255 27.7043 6.87687 27.6102 6.73567 27.5125C6.25776 27.1866 5.81244 26.839 5.39608 26.4806H5.39245ZM8.41559 30.1627C11.0948 31.3683 14.2193 32.259 17.561 32.7948C17.8796 32.8455 18.2019 32.8926 18.5277 32.936C20.1461 34.4892 21.8441 35.8722 23.5639 37.0417C20.8883 38.4863 18.2308 39.3081 15.8304 39.3081C10.7581 39.3081 8.12595 35.6261 8.41559 30.1627ZM33.8896 39.3081C31.4928 39.3081 28.8317 38.4863 26.1562 37.0417C27.8397 35.9012 29.4979 34.5508 31.0837 33.0446C31.3951 33.0048 31.7064 32.9686 32.0178 32.9215C33.857 32.6572 35.6564 32.2771 37.387 31.7847C38.8135 31.3792 40.1242 30.9085 41.3153 30.3872C41.5253 35.7274 38.8932 39.3081 33.8896 39.3081ZM44.4471 26.6291C44.0198 27.0056 43.5492 27.3713 43.0314 27.7224C42.8866 27.8202 42.7346 27.918 42.5825 28.0121C42.4884 27.5595 42.3834 27.0997 42.2566 26.6291C41.7679 24.8152 41.0401 22.8927 40.0662 20.9086L42.1987 15.3873C42.3327 14.9239 42.4413 14.4677 42.539 14.0188C42.6875 14.1165 42.8432 14.207 42.988 14.3048C43.4659 14.6306 43.9112 14.9782 44.3276 15.3366C44.3457 15.3511 44.3674 15.3692 44.3819 15.3873C48.5129 19.0078 48.2558 23.2801 44.4471 26.6291Z" fill="white"/>
</svg>
