<svg width="144" height="37" viewBox="0 0 144 37" fill="none" xmlns="http://www.w3.org/2000/svg">
<path d="M96.3135 23.0645C96.3135 23.8016 96.2503 24.5388 96.145 25.297H77.9269C78.4745 28.1192 80.2647 29.5724 82.9395 29.5724C84.9193 29.5724 86.5621 28.7089 87.3835 27.2767H95.787C94.0599 32.8791 89.0894 36.3752 82.9395 36.3752C75.2732 36.3752 69.6077 30.7729 69.6077 23.2751C69.6077 15.7562 75.2311 10.2171 82.9395 10.2171C90.8375 10.2171 96.3135 15.8615 96.3135 23.0645ZM78.0744 20.6214H87.9943C87.2571 18.1783 85.488 16.8514 82.9395 16.8514C80.4543 16.8303 78.7483 18.1783 78.0744 20.6214Z" fill="white"/>
<path d="M124.536 23.0644C124.536 23.8016 124.472 24.5387 124.367 25.2969H106.149C106.697 28.1191 108.487 29.5724 111.162 29.5724C113.141 29.5724 114.784 28.7089 115.606 27.2767H124.009C122.282 32.879 117.312 36.3752 111.162 36.3752C103.495 36.3752 97.8299 30.7729 97.8299 23.275C97.8299 15.7561 103.453 10.217 111.162 10.217C119.06 10.217 124.536 15.8614 124.536 23.0644ZM106.297 20.6213H116.216C115.479 18.1782 113.71 16.8513 111.162 16.8513C108.676 16.8303 106.971 18.1782 106.297 20.6213Z" fill="white"/>
<path d="M143.449 10.891V18.6205H140.163C137.172 18.6205 135.909 19.9263 135.909 23.0644V35.5538H127.484V11.0173H133.15L134.477 13.7342C136.204 11.7334 138.31 10.891 141.237 10.891H143.449Z" fill="white"/>
<path d="M27.1691 27.2978V36.3963H36.2255V25.3601L42.8177 36.3963H53.4958L44.4605 22.7275L48.083 17.2094H52.8008V27.0661C52.8008 32.879 56.3391 36.3963 62.152 36.3963H68.3862V28.5193H64.9111C62.9945 28.5193 61.8572 27.4031 61.8572 25.5286V17.2094H68.2387V10.2802H61.6255V2.65603H59.7721L52.548 10.2802H42.4597L36.2255 20.516V0.865814H27.1691V19.3787V27.2978Z" fill="white"/>
<path d="M28.0958 13.6079C28.0958 21.0005 22.5146 26.3922 15.0167 26.3922H9.7514V36.1436H0V0.865814H15.0167C22.5356 0.865814 28.0958 6.21539 28.0958 13.6079ZM18.1128 13.629C18.1128 11.1227 16.4278 9.35353 13.8584 9.35353H9.7514V17.9255H13.8584C16.4278 17.9255 18.1128 16.1563 18.1128 13.629Z" fill="white"/>
</svg>
