<svg width="178" height="47" viewBox="0 0 178 47" fill="none" xmlns="http://www.w3.org/2000/svg">
<path d="M47.7661 2.96947C37.2097 2.96947 28.6364 11.4114 28.6364 21.8059V44.4614H40.6216V21.8059C40.6216 17.9295 43.8002 14.771 47.7661 14.771C51.732 14.771 54.9106 17.9008 54.9106 21.8059V44.4614H66.8959V21.8059C66.8959 11.4401 58.2933 2.96947 47.7661 2.96947Z" fill="white"/>
<path d="M21.1419 2.96947C10.5855 2.96947 2.01215 11.4401 2.01215 21.8059V44.4614H13.9974V21.8059C14.0266 17.9295 17.2051 14.7997 21.1419 14.7997C25.0787 14.7997 28.2864 17.9295 28.2864 21.8059V44.4614H40.2717V21.8059C40.2717 11.4401 31.6983 2.96947 21.1419 2.96947ZM175.988 21.8059C175.988 11.4114 167.415 2.96947 156.858 2.96947C146.302 2.96947 137.728 11.4114 137.728 21.8059V44.4614H149.714V21.8059C149.714 17.9295 152.892 14.771 156.858 14.771C160.795 14.771 164.003 17.9008 164.003 21.8059M111.687 2.96947C101.131 2.96947 92.5577 11.4114 92.5577 21.8059V44.4614H104.543V21.8059C104.543 17.9295 107.722 14.771 111.687 14.771C115.653 14.771 118.832 17.9008 118.832 21.8059V44.4614H130.817V21.8059C130.817 11.4401 122.244 2.96947 111.687 2.96947ZM73.7196 8.85586H85.734V21.9208H73.7487V8.85586H73.7196Z" fill="white"/>
<path d="M79.6976 44.4326C82.9992 44.4326 85.6756 41.7972 85.6756 38.5462C85.6756 35.2953 82.9992 32.6599 79.6976 32.6599C76.396 32.6599 73.7195 35.2953 73.7195 38.5462C73.7195 41.7972 76.396 44.4326 79.6976 44.4326Z" fill="white"/>
<path d="M79.6976 14.7423C82.9992 14.7423 85.6756 12.1068 85.6756 8.85586C85.6756 5.60489 82.9992 2.96947 79.6976 2.96947C76.396 2.96947 73.7195 5.60489 73.7195 8.85586C73.7195 12.1068 76.396 14.7423 79.6976 14.7423Z" fill="white"/>
<path d="M169.951 27.8646C173.253 27.8646 175.93 25.2292 175.93 21.9782C175.93 18.7272 173.253 16.0918 169.951 16.0918C166.65 16.0918 163.973 18.7272 163.973 21.9782C163.973 25.2292 166.65 27.8646 169.951 27.8646Z" fill="white"/>
<path d="M79.6976 27.8646C82.9992 27.8646 85.6756 25.2292 85.6756 21.9782C85.6756 18.7272 82.9992 16.0918 79.6976 16.0918C76.396 16.0918 73.7195 18.7272 73.7195 21.9782C73.7195 25.2292 76.396 27.8646 79.6976 27.8646Z" fill="white"/>
</svg>
