<svg width="215" height="58" viewBox="0 0 215 58" fill="none" xmlns="http://www.w3.org/2000/svg">
<path d="M57.1024 17.4219C57.1024 16.081 58.2225 15.0247 59.5521 15.0247C60.8816 15.0247 62.0017 16.081 62.0017 17.4219V35.7084L73.005 22.8683V17.4248C73.005 16.0838 74.0844 15.0276 75.414 15.0276C76.7436 15.0276 77.8637 16.0838 77.8637 17.4248V35.7084L94.8864 15.839C95.3432 15.3094 96.0502 15.0276 96.6728 15.0276C97.918 15.0276 98.9566 16.0041 98.9566 17.2625C98.9566 17.7095 98.8315 18.1963 98.4155 18.686L77.4069 43.2274C76.7843 43.9591 76.0773 44.2011 75.414 44.2011C74.0844 44.2011 73.005 43.105 73.005 41.8039V29.8179L61.5042 43.2274C60.9224 43.9591 60.2183 44.2011 59.5521 44.2011C58.2225 44.2011 57.1024 43.105 57.1024 41.8039V17.4219Z" fill="white"/>
<path d="M107.923 15.9614C108.546 15.2696 109.253 15.0276 109.916 15.0276C111.246 15.0276 112.325 16.0838 112.325 17.4248V41.8039C112.325 43.105 111.246 44.2011 109.916 44.2011C108.587 44.2011 107.467 43.105 107.467 41.8039V37.8636H101.819C100.534 37.8636 99.5356 36.8899 99.5356 35.6287C99.5356 34.3675 100.531 33.3938 101.819 33.3938H107.467V23.4804L90.4438 43.3897C90.0278 43.8367 89.2801 44.2011 88.6575 44.2011C87.4122 44.2011 86.3736 43.1847 86.3736 41.9662C86.3736 41.4793 86.4987 41.0324 86.9147 40.5028L107.923 15.9614Z" fill="white"/>
<path d="M123.326 19.8191H117.804C116.518 19.8191 115.52 18.8455 115.52 17.5842C115.52 16.323 116.515 15.3892 117.804 15.3892H133.747C135.033 15.3892 136.031 16.3628 136.031 17.5842C136.031 18.8056 135.036 19.8191 133.747 19.8191H128.225V41.8011C128.225 43.1022 127.105 44.1983 125.775 44.1983C124.446 44.1983 123.326 43.1022 123.326 41.8011V19.8191Z" fill="white"/>
<path d="M136.237 29.6129C136.237 21.4448 142.798 14.9849 151.101 14.9849C155.628 14.9849 159.53 16.8952 162.064 19.6967C162.521 20.1437 162.727 20.7928 162.727 21.3224C162.727 22.6235 161.648 23.6797 160.278 23.6797C159.655 23.6797 158.992 23.3153 158.325 22.7459C156.583 20.8355 154.089 19.5771 151.101 19.5771C145.62 19.5771 141.262 24.0071 141.262 29.6129C141.262 35.2187 145.623 39.6089 151.101 39.6089C154.092 39.6089 156.583 38.3505 158.325 36.4401C158.989 35.8707 159.655 35.5063 160.278 35.5063C161.648 35.5063 162.727 36.5625 162.727 37.8636C162.727 38.3932 162.521 39.0423 162.064 39.4893C159.53 42.3335 155.628 44.2438 151.101 44.2438C142.798 44.2438 136.237 37.7839 136.237 29.6158V29.6129Z" fill="white"/>
<path d="M167.295 17.4219C167.295 16.081 168.415 15.0247 169.745 15.0247C171.074 15.0247 172.194 16.081 172.194 17.4219V27.3752H183.82V17.4219C183.82 16.081 184.9 15.0247 186.229 15.0247C187.559 15.0247 188.679 16.081 188.679 17.4219V41.8011C188.679 43.1022 187.6 44.1983 186.229 44.1983C184.859 44.1983 183.82 43.1022 183.82 41.8011V31.8051H172.194V41.8011C172.194 43.1022 171.074 44.1983 169.745 44.1983C168.415 44.1983 167.295 43.1022 167.295 41.8011V17.4219Z" fill="white"/>
<path d="M193.991 17.7494C193.991 16.4483 195.111 15.392 196.441 15.392H203.499C208.94 15.392 212.635 19.2127 212.635 23.9246C212.635 27.825 210.144 30.5069 207.238 31.1987L206.697 31.2386L214.418 40.258C214.875 40.7847 215 41.2744 215 41.8438C215 43.1449 213.921 44.2011 212.591 44.2011C211.843 44.2011 211.18 43.9164 210.682 43.3072L200.965 32.013C200.633 31.6059 200.217 30.9568 200.217 30.1453C200.217 28.9268 201.212 27.993 202.417 27.993H203.33C205.821 27.993 207.567 26.1652 207.567 23.9303C207.567 21.6954 205.824 19.8277 203.33 19.8277H198.888V41.8096C198.888 43.1107 197.768 44.2068 196.438 44.2068C195.109 44.2068 193.988 43.1107 193.988 41.8096V17.7494H193.991Z" fill="white"/>
<path d="M25.3116 0.729767L0 14.9649V43.4352L25.3116 57.6704L50.6231 43.4352V14.9649L25.3116 0.729767ZM25.3116 42.0117C18.0672 42.0117 12.2194 36.2892 12.2194 29.2001C12.2194 22.111 18.0963 16.3884 25.3116 16.3884C26.5917 16.3884 27.9009 16.5877 29.1519 16.9578C26.8826 17.9543 25.3116 20.2035 25.3116 22.7943C25.3116 26.3246 28.25 29.2001 31.8577 29.2001C34.5052 29.2001 36.8036 27.6627 37.8219 25.442C38.2001 26.6093 38.4038 27.8905 38.4038 29.2001C38.4038 36.2892 32.5559 42.0117 25.3116 42.0117Z" fill="white"/>
</svg>
