<svg width="204" height="45" viewBox="0 0 204 45" fill="none" xmlns="http://www.w3.org/2000/svg">
<g clip-path="url(#clip0_10504_61347)">
<path d="M52.1719 24.2592H49.3396V31.2548H43.6167V10.5315H52.169C57.2783 10.5315 59.8751 13.4422 59.8751 17.4393C59.8751 21.0557 57.3946 24.2592 52.169 24.2592H52.1719ZM51.6165 19.6735C53.338 19.6735 54.0388 18.7921 54.0388 17.4393C54.0388 16.0864 53.338 15.1757 51.6165 15.1757H49.3396V19.6735H51.6165Z" fill="white"/>
<path d="M67.907 22.1743V31.2577H62.1841V10.5315H67.907V19.4686L74.2987 10.5315H80.8969L73.3361 20.5842L81.2778 31.2548H74.3597L67.907 22.1713V22.1743Z" fill="white"/>
<path d="M82.2403 10.5315H98.8798V15.1172H93.3924V31.2548H87.6695V15.1172H82.2403V10.5315Z" fill="white"/>
<path d="M100.049 10.7687H102.881L107.319 28.1421L112.224 10.7687H115.202L119.872 28.0835L124.339 10.7687H127.2L121.303 31.2577H118.325L113.597 14.7658L108.691 31.2577L105.743 31.287L100.049 10.7687Z" fill="white"/>
<path d="M142.145 26.6984H133.269L131.635 31.2548H128.832L136.189 10.8829H139.254L146.582 31.2548H143.779L142.145 26.6984ZM137.707 14.1772L134.028 24.5257H141.386L137.707 14.1772Z" fill="white"/>
<path d="M148.539 10.7687H162.317V12.9444H156.772V31.2577H154.114V12.9415H148.539V10.7658V10.7687Z" fill="white"/>
<path d="M174.755 10.5022C179.163 10.5022 182.667 12.7365 184.182 16.7043H181.001C179.893 14.2358 177.732 12.8536 174.755 12.8536C170.491 12.8536 167.31 15.9693 167.31 20.9971C167.31 26.0249 170.491 29.1113 174.755 29.1113C177.732 29.1113 179.893 27.7292 181.001 25.2899H184.182C182.664 29.2285 179.16 31.4334 174.755 31.4334C169.061 31.4334 164.594 27.1406 164.594 20.9971C164.594 14.8536 169.061 10.5022 174.755 10.5022Z" fill="white"/>
<path d="M201.144 21.9664H190.78V31.2548H188.122V10.7687H190.78V19.7643H201.144V10.7687H203.799V31.2577H201.144V21.9693V21.9664Z" fill="white"/>
<path d="M0 30.9825V20.7541L17.5961 10.5227L35.1952 20.7541V30.9825L17.5961 41.2138L0 30.9825Z" fill="white"/>
<path d="M0 30.9825V20.7541L17.5961 30.9825V41.2138L0 30.9825Z" fill="#D3D3D3"/>
<path d="M35.1952 30.9825V20.7541L17.5961 30.9825V41.2138L35.1952 30.9825Z" fill="#E5E5E5"/>
<path d="M0 20.7541V10.5227L17.5961 0.291412L35.1952 10.5227V20.7541L26.3957 25.8668L17.5961 20.7541L8.79952 25.8668L0 20.7541Z" fill="white"/>
<path d="M8.79952 25.8668L0 20.7541V10.5227L8.79952 15.6384V25.8668Z" fill="#BBBBBB"/>
<path d="M26.3957 25.8668L17.5961 20.7541V10.5227L26.3957 15.6384V25.8668Z" fill="#BBBBBB"/>
<path d="M8.79953 25.8668V15.6384L17.5961 10.5227V20.7541L8.79953 25.8668Z" fill="#CECECE"/>
<path d="M26.3957 25.8668V15.6384L35.1952 10.5227V20.7541L26.3957 25.8668Z" fill="#CECECE"/>
</g>
<defs>
<clipPath id="clip0_10504_61347">
<rect width="204" height="44" fill="white" transform="translate(0 0.291412)"/>
</clipPath>
</defs>
</svg>
