<svg width="216" height="55" viewBox="0 0 216 55" fill="none" xmlns="http://www.w3.org/2000/svg">
<path d="M9.13522 6.07867H0V15.1538H9.13522V6.07867Z" fill="white"/>
<path d="M15.0251 4.15547H11.1186V8.03193H15.0251V4.15547Z" fill="white"/>
<path d="M9.13506 0.729706H5.9798V3.85491H9.13506V0.729706Z" fill="white"/>
<path d="M48.0801 34.8365L40.3272 48.299L40.0568 48.7497L38.2838 51.7848V38.4125L48.0801 34.8365Z" fill="#D7D7D7"/>
<path d="M38.2837 38.4125V51.7848L38.2236 51.905C35.3388 53.4075 32.1234 54.2188 28.878 54.2188C16.9181 54.2188 7.18188 43.6412 7.18188 30.6596C7.18188 17.6779 16.9181 7.1003 28.878 7.1003C30.8313 7.1003 32.7545 7.37075 34.6176 7.9417L30.651 10.7664C30.08 10.7063 29.479 10.6763 28.878 10.6763C18.9014 10.6763 10.7879 19.6312 10.7879 30.6596C10.7879 41.3273 18.4206 50.0719 27.9465 50.6128C28.0066 50.6128 28.0667 50.6128 28.1268 50.6128H28.247C31.2219 50.6128 33.656 48.2088 33.656 45.2038C33.656 44.3323 33.4457 43.521 33.085 42.7697L32.7845 42.2589L28.5174 34.8666L38.2837 38.4125Z" fill="white"/>
<path d="M38.2838 24.0786V34.8366L26.1736 30.4793H26.2036L38.2838 24.0786Z" fill="#D7D7D7"/>
<path d="M50.424 30.4793L38.3138 34.8366H38.2838V24.0786L50.3639 30.4192L50.424 30.4793Z" fill="#A3A3A3"/>
<path d="M38.2839 9.53441V24.0786L26.2038 30.4793L32.2438 20.0219L33.2655 18.2189L38.2839 9.53441Z" fill="white"/>
<path d="M69.4157 30.6596C69.4157 43.6412 59.6795 54.2188 47.7195 54.2188C45.7663 54.2188 43.8431 53.9484 41.98 53.3774L45.9466 50.5227C46.5175 50.5828 47.1185 50.6128 47.7195 50.6128C57.6962 50.6128 65.8097 41.6579 65.8097 30.6596C65.8097 20.142 58.4174 11.5177 49.0718 10.7364C48.7713 10.7063 48.4407 10.7063 48.1102 10.6763C45.2254 10.7664 42.8815 13.1704 42.8815 16.0853C42.8815 16.8666 43.0618 17.6178 43.3623 18.309C43.3623 18.339 43.3923 18.3691 43.3923 18.3991C43.4224 18.4292 43.4224 18.4893 43.4524 18.5193C43.4524 18.5494 43.4825 18.5494 43.4825 18.5794C43.4825 18.6095 43.5125 18.6095 43.5125 18.6395V18.6696L43.6628 18.94L50.3038 30.4492L38.2237 24.1086V22.0051V9.53435L38.3139 9.3841C41.1987 7.8816 44.414 7.1003 47.6594 7.1003C59.6795 7.1003 69.4157 17.6479 69.4157 30.6596Z" fill="#D7D7D7"/>
<path d="M107.79 30.329C107.79 40.7865 101.449 46.3157 93.6962 46.3157C85.6728 46.3157 80.0535 40.0953 80.0535 30.9C80.0535 21.2539 86.0334 14.9434 94.147 14.9434C102.441 14.9735 107.79 21.314 107.79 30.329ZM84.2304 30.8098C84.2304 37.3007 87.7463 43.1003 93.9066 43.1003C100.127 43.1003 103.643 37.3908 103.643 30.4793C103.643 24.4392 100.488 18.1287 93.9667 18.1287C87.4758 18.1588 84.2304 24.1387 84.2304 30.8098Z" fill="white"/>
<path d="M112.868 15.875C115.242 15.5144 118.097 15.2439 121.192 15.2439C126.811 15.2439 130.838 16.5361 133.482 19.0303C136.187 21.4944 137.749 25.0102 137.749 29.9384C137.749 34.8967 136.217 38.9535 133.392 41.7481C130.567 44.5728 125.88 46.1054 119.96 46.1054C117.165 46.1054 114.821 45.9852 112.838 45.7448V15.875H112.868ZM116.805 42.7097C117.796 42.89 119.239 42.9201 120.771 42.9201C129.155 42.9201 133.693 38.2323 133.693 30.0286C133.723 22.8767 129.696 18.3091 121.402 18.3091C119.389 18.3091 117.856 18.4894 116.805 18.6997V42.7097Z" fill="white"/>
<path d="M147.155 36.279L144 45.8049H139.943L150.251 15.4543H154.968L165.336 45.8049H161.159L157.913 36.249H147.155V36.279ZM157.102 33.2139L154.127 24.4694C153.466 22.486 153.015 20.683 152.564 18.9401H152.474C152.023 20.7431 151.543 22.5762 150.942 24.4393L147.967 33.2139H157.102Z" fill="white"/>
<path d="M169.542 31.1405C169.542 28.3458 169.452 26.0921 169.362 24.0186H172.908L173.088 27.7448H173.178C174.801 25.1004 177.355 23.5078 180.931 23.5078C186.19 23.5078 190.157 27.9552 190.157 34.5962C190.157 42.4393 185.379 46.3158 180.24 46.3158C177.355 46.3158 174.831 45.0537 173.539 42.8901H173.449V54.7298H169.542V31.1405ZM173.479 36.9402C173.479 37.5111 173.569 38.052 173.659 38.5629C174.38 41.2974 176.754 43.1906 179.609 43.1906C183.786 43.1906 186.22 39.7649 186.22 34.7765C186.22 30.4193 183.936 26.663 179.729 26.663C177.025 26.663 174.501 28.5862 173.749 31.5612C173.599 32.072 173.479 32.643 173.479 33.1839V36.9402Z" fill="white"/>
<path d="M195.175 31.1405C195.175 28.3458 195.085 26.0921 194.995 24.0186H198.541L198.721 27.7448H198.811C200.434 25.1004 202.988 23.5078 206.564 23.5078C211.823 23.5078 215.79 27.9552 215.79 34.5962C215.79 42.4393 211.012 46.3158 205.873 46.3158C202.988 46.3158 200.464 45.0537 199.172 42.8901H199.082V54.7298H195.175V31.1405ZM199.082 36.9402C199.082 37.5111 199.172 38.052 199.262 38.5629C199.983 41.2974 202.357 43.1906 205.212 43.1906C209.389 43.1906 211.823 39.7649 211.823 34.7765C211.823 30.4193 209.539 26.663 205.332 26.663C202.628 26.663 200.103 28.5862 199.352 31.5612C199.232 32.072 199.082 32.643 199.082 33.1839V36.9402Z" fill="white"/>
</svg>
