<svg width="193" height="48" viewBox="0 0 193 48" fill="none" xmlns="http://www.w3.org/2000/svg">
<path d="M73.7027 47.9879C73.5064 47.9879 73.3474 47.8291 73.3474 47.6332V22.1351C73.3474 21.9392 73.5064 21.7804 73.7027 21.7804H85.5344C89.474 21.7804 92.1985 22.8096 93.929 24.5739C95.4386 26.0442 96.2118 28.0291 96.2118 30.5653V30.6388C96.2118 34.4079 94.2843 36.9618 91.3043 38.365C91.102 38.4603 91.0268 38.7134 91.1524 38.8982L96.9544 47.4341C97.1145 47.6696 96.9455 47.9879 96.6604 47.9879H89.2747C89.1553 47.9879 89.0439 47.928 88.9781 47.8285L83.7251 39.8771C83.6593 39.7776 83.5479 39.7177 83.4285 39.7177H80.8455C80.6493 39.7177 80.4902 39.8765 80.4902 40.0723V47.6332C80.4902 47.8291 80.3311 47.9879 80.1349 47.9879H73.7027ZM80.4902 33.776C80.4902 33.9719 80.6493 34.1307 80.8455 34.1307H85.203C87.633 34.1307 89.0321 32.9544 89.0321 31.0799V31.0063C89.0321 28.9847 87.5594 27.9555 85.1662 27.9555H80.8455C80.6493 27.9555 80.4902 28.1143 80.4902 28.3102V33.776Z" fill="white"/>
<path d="M109.208 47.9879C102.839 47.9879 98.2362 43.3198 98.2362 37.6593V37.5858C98.2362 31.9253 102.875 27.1837 109.282 27.1837C115.652 27.1837 120.254 31.8517 120.254 37.5123V37.5858C120.254 43.2463 115.615 47.9879 109.208 47.9879ZM109.282 42.0701C111.822 42.0701 113.442 40.0485 113.442 37.6593V37.5858C113.442 35.1598 111.675 33.1015 109.208 33.1015C106.668 33.1015 105.048 35.1231 105.048 37.5123V37.5858C105.048 40.0117 106.815 42.0701 109.282 42.0701Z" fill="white"/>
<path d="M129.836 47.9511C125.602 47.9511 123.061 45.1576 123.061 40.6366V27.9794C123.061 27.7835 123.22 27.6247 123.417 27.6247H129.702C129.898 27.6247 130.057 27.7835 130.057 27.9794V38.3944C130.057 40.5631 131.198 41.7393 132.892 41.7393C134.549 41.7393 135.801 40.5631 135.801 38.3944V27.9794C135.801 27.7835 135.96 27.6247 136.156 27.6247H142.441C142.637 27.6247 142.796 27.7835 142.796 27.9794V47.6332C142.796 47.8291 142.637 47.9879 142.441 47.9879H136.156C135.96 47.9879 135.801 47.8291 135.801 47.6332V45.8239C135.801 45.4862 135.758 45.5778 135.527 45.8239C134.287 47.1402 132.212 47.9511 129.836 47.9511Z" fill="white"/>
<path d="M154.46 47.9144C150.263 47.9144 147.759 46.0766 147.759 41.335V33.6032C147.759 33.4073 147.6 33.2485 147.404 33.2485H145.758C145.562 33.2485 145.402 33.0897 145.402 32.8938V27.9794C145.402 27.7835 145.562 27.6247 145.758 27.6247H147.404C147.6 27.6247 147.759 27.4659 147.759 27.2701V22.9438C147.759 22.7479 147.918 22.5891 148.114 22.5891H154.399C154.595 22.5891 154.754 22.7479 154.754 22.9438V27.2701C154.754 27.4659 154.914 27.6247 155.11 27.6247H159.038C159.235 27.6247 159.394 27.7835 159.394 27.9794V32.8938C159.394 33.0897 159.235 33.2485 159.038 33.2485H155.11C154.914 33.2485 154.754 33.4073 154.754 33.6032V39.975C154.754 41.3717 155.38 41.9598 156.669 41.9598C157.404 41.9598 158.116 41.7958 158.804 41.5238C159.047 41.4277 159.32 41.6 159.32 41.861V46.5668C159.32 46.6953 159.251 46.8143 159.137 46.8738C157.908 47.5147 156.318 47.9144 154.46 47.9144Z" fill="white"/>
<path d="M162.756 25.8237C162.559 25.8237 162.4 25.6649 162.4 25.469V21.0324C162.4 20.8365 162.559 20.6777 162.756 20.6777H169.335C169.531 20.6777 169.69 20.8365 169.69 21.0324V25.469C169.69 25.6649 169.531 25.8237 169.335 25.8237L162.756 25.8237ZM162.903 47.9879C162.707 47.9879 162.548 47.8291 162.548 47.6332V27.9794C162.548 27.7835 162.707 27.6247 162.903 27.6247H169.188C169.384 27.6247 169.543 27.7835 169.543 27.9794V47.6332C169.543 47.8291 169.384 47.9879 169.188 47.9879H162.903Z" fill="white"/>
<path d="M183.306 47.9879C177.047 47.9879 172.629 43.8344 172.629 37.6593V37.5858C172.629 31.7782 176.789 27.1837 182.68 27.1837C189.565 27.1837 192.732 32.2193 192.732 38.0636C192.732 38.4052 192.732 38.7908 192.715 39.1693C192.706 39.3544 192.552 39.4971 192.366 39.4971H179.824C179.592 39.4971 179.422 39.7158 179.497 39.9346C180.142 41.814 181.653 42.7685 183.674 42.7685C185.242 42.7685 186.512 42.2093 187.861 40.9666C187.994 40.8436 188.199 40.8346 188.339 40.9503L191.692 43.7239C191.84 43.8467 191.864 44.0657 191.74 44.2134C189.836 46.4893 187.134 47.9879 183.306 47.9879ZM179.339 35.52C179.289 35.7339 179.457 35.9317 179.677 35.9317H185.779C185.991 35.9317 186.157 35.7463 186.12 35.5375C185.761 33.5612 184.515 32.3296 182.717 32.3296C180.995 32.3296 179.789 33.5835 179.339 35.52Z" fill="white"/>
<path d="M10.4829 24.6351L8.19581 13.006L7.66244 0.804943C7.64487 0.402316 7.94817 0.0620499 8.3529 0.0303271L8.7111 0.00228174C8.73033 0.000775347 8.74977 0 8.76885 0C9.09337 0 9.39622 0.223477 9.48898 0.531401L13.1175 12.5813L14.5124 24.6351H10.4829Z" fill="white"/>
<path d="M42.0586 24.6352L43.4537 12.5809L47.0822 0.531356C47.1749 0.223477 47.4778 0 47.8024 0C47.8216 0 47.8408 0.000753194 47.8596 0.00223743L48.3205 0.0383243L48.4163 0.072506C48.7202 0.180966 48.9227 0.482221 48.9087 0.805076L48.3752 13.006L46.0881 24.6352H42.0586L42.0586 24.6352Z" fill="white"/>
<path d="M11.3101 47.9878C9.21613 47.9878 7.16602 47.2684 5.53735 45.962C3.90868 44.6556 2.76965 42.817 2.33011 40.7849L0.180145 30.735C-0.334119 28.331 0.264662 25.8569 1.82296 23.9472C3.38127 22.0375 5.695 20.9422 8.17086 20.9422H48.4002C50.8767 20.9422 53.1908 22.0379 54.7491 23.9485C56.3074 25.859 56.9056 28.3338 56.3902 30.7382L54.2365 40.7854C53.7971 42.8171 52.658 44.6557 51.0294 45.962C49.4007 47.2684 47.3506 47.9878 45.2567 47.9878H11.3101V47.9878ZM8.17086 26.1741C6.96828 26.1741 6.2437 26.842 5.91884 27.2402C5.59396 27.6384 5.08626 28.4806 5.33606 29.6483L7.48337 39.6859C7.67079 40.5525 8.15616 41.3359 8.85019 41.8926C9.5442 42.4493 10.4178 42.7559 11.3101 42.7559H45.2567C46.1489 42.7559 47.0226 42.4493 47.7166 41.8926C48.4106 41.336 48.8959 40.5525 49.0833 39.6866L51.2348 29.6494C51.4851 28.4816 50.9775 27.639 50.6526 27.2406C50.3277 26.8423 49.6031 26.1741 48.4002 26.1741H37.231L37.2204 26.1749C36.554 26.2234 35.9733 26.6561 35.741 27.2772L35.6057 27.6392C35.2974 28.4636 34.495 29.0175 33.6091 29.0175H22.9614C22.0755 29.0175 21.2732 28.4636 20.9649 27.6392L20.8295 27.2772C20.5972 26.6561 20.0165 26.2234 19.3501 26.1749L19.3395 26.1741H8.17086Z" fill="white"/>
</svg>
