<svg width="66" height="66" viewBox="0 0 66 66" fill="none" xmlns="http://www.w3.org/2000/svg">
<mask id="mask0_862_663" style="mask-type:alpha" maskUnits="userSpaceOnUse" x="0" y="0" width="66" height="66">
<rect width="66" height="66" fill="#C4C4C4"/>
</mask>
<g mask="url(#mask0_862_663)">
<path d="M54.4646 17.1958C47.3858 11.8872 40.6496 12.0002 40.6496 12.0002L39.9646 12.7908C48.0709 15.2757 51.9528 18.777 52.1811 19.0029C47.0433 16.2922 42.0197 14.8239 37.3386 14.3721C33.7992 13.9203 30.374 14.0332 27.4055 14.485C27.063 14.485 26.8346 14.485 26.6063 14.598C24.8937 14.7109 20.6693 15.3886 15.4173 17.6476C13.5906 18.3252 12.563 18.89 12.4488 19.0029C12.6772 18.777 16.7874 15.0498 25.3504 12.5649L24.8937 12.0002C24.8937 12.0002 18.1575 11.8872 11.0787 17.0828C11.0787 17.0828 4 29.8458 4 45.5455C4 45.5455 8.11024 52.6612 19.0709 53C19.0709 53 20.8976 50.854 22.3819 48.9339C16.3307 47.1268 13.9331 43.3995 13.8189 43.1736C13.8189 43.1736 14.3898 43.5124 15.189 43.9642C15.189 43.9642 15.3031 44.0772 15.4173 44.0772C15.5315 44.1901 15.7598 44.1901 15.874 44.3031C17.1299 44.9808 18.3858 45.5455 19.5276 45.9973C21.5827 46.7879 23.9803 47.5785 26.7205 48.1433C30.374 48.821 34.7126 49.0469 39.5079 48.2562C41.7913 47.9174 44.189 47.1268 46.7008 46.1102C48.4134 45.4325 50.3543 44.529 52.4094 43.2865C52.2953 43.5124 49.7835 47.3526 43.5039 49.0469C44.9882 50.854 46.815 53 46.815 53C57.6614 52.6612 61.8858 45.5455 62 45.5455C61.5433 29.8458 54.4646 17.1958 54.4646 17.1958ZM23.5236 41.1406C20.7835 41.1406 18.5 38.6557 18.5 35.7191C18.5 32.7825 20.6693 30.2976 23.5236 30.2976C26.378 30.2976 28.5472 32.7825 28.5472 35.7191C28.5472 38.6557 26.2638 41.1406 23.5236 41.1406ZM41.4488 41.1406C38.7087 41.1406 36.4252 38.6557 36.4252 35.7191C36.4252 32.7825 38.5945 30.2976 41.4488 30.2976C44.3032 30.2976 46.4724 32.7825 46.4724 35.7191C46.4724 38.6557 44.3032 41.1406 41.4488 41.1406Z" fill="#3CADEF"/>
</g>
</svg>
