<svg width="51" height="51" viewBox="0 0 51 51" fill="none" xmlns="http://www.w3.org/2000/svg">
<path d="M50.8605 14.9941C50.741 12.2843 50.3028 10.4213 49.6751 8.80703C49.0275 7.0935 48.0312 5.55937 46.7259 4.28404C45.4506 2.98887 43.9063 1.98246 42.2126 1.34499C40.589 0.71725 38.7357 0.279039 36.0259 0.159562C33.2959 0.0299665 32.4292 0 25.505 0C18.5808 0 17.7141 0.0299665 14.9941 0.149443C12.2843 0.26892 10.4213 0.70752 8.80742 1.33487C7.09349 1.98246 5.55936 2.97875 4.28404 4.28404C2.98886 5.55937 1.98285 7.10361 1.34499 8.7973C0.717249 10.4213 0.279038 12.2742 0.159562 14.984C0.0299664 17.7141 0 18.5808 0 25.505C0 32.4292 0.0299664 33.2959 0.149443 36.0158C0.26892 38.7257 0.70752 40.5886 1.33526 42.2029C1.98285 43.9165 2.98886 45.4506 4.28404 46.7259C5.55936 48.0211 7.10361 49.0275 8.7973 49.665C10.4213 50.2927 12.2742 50.7309 14.9844 50.8504C17.704 50.9703 18.571 50.9998 25.4952 50.9998C32.4194 50.9998 33.2861 50.9703 36.0061 50.8504C38.7159 50.7309 40.5789 50.2927 42.1928 49.665C45.6203 48.3398 48.3301 45.63 49.6552 42.2029C50.2826 40.5789 50.7212 38.7257 50.8406 36.0158C50.9601 33.2959 50.9901 32.4292 50.9901 25.505C50.9901 18.5808 50.98 17.7141 50.8605 14.9941ZM46.2678 35.8166C46.1581 38.3073 45.7397 39.6523 45.391 40.5489C44.5341 42.7707 42.7707 44.5341 40.5489 45.3911C39.6523 45.7398 38.2975 46.1581 35.8165 46.2675C33.1266 46.3873 32.3198 46.4169 25.5151 46.4169C18.7104 46.4169 17.8935 46.3873 15.2132 46.2675C12.7225 46.1581 11.3775 45.7398 10.4809 45.3911C9.37522 44.9824 8.36882 44.3348 7.55194 43.488C6.70509 42.661 6.05751 41.6647 5.64887 40.5591C5.30017 39.6624 4.88181 38.3073 4.77245 35.8267C4.65259 33.1367 4.62301 32.3296 4.62301 25.5248C4.62301 18.7201 4.65259 17.9032 4.77245 15.2234C4.88181 12.7326 5.30017 11.3877 5.64887 10.491C6.05751 9.38496 6.70509 8.37894 7.56206 7.56167C8.38867 6.71483 9.38495 6.06724 10.491 5.659C11.3876 5.31029 12.7428 4.89193 15.2234 4.78218C17.9133 4.66271 18.7205 4.63274 25.5248 4.63274C32.3397 4.63274 33.1464 4.66271 35.8267 4.78218C38.3174 4.89193 39.6624 5.31029 40.559 5.659C41.6647 6.06724 42.6711 6.71483 43.488 7.56167C44.3348 8.38867 44.9824 9.38496 45.391 10.491C45.7397 11.3877 46.1581 12.7424 46.2678 15.2234C46.3873 17.9133 46.4173 18.7201 46.4173 25.5248C46.4173 32.3296 46.3873 33.1266 46.2678 35.8166Z" fill="#3CADEF"/>
<path d="M25.5045 12.4043C18.2717 12.4043 12.4033 18.2723 12.4033 25.5055C12.4033 32.7387 18.2717 38.6067 25.5045 38.6067C32.7377 38.6067 38.6057 32.7387 38.6057 25.5055C38.6057 18.2723 32.7377 12.4043 25.5045 12.4043ZM25.5045 34.0039C20.8122 34.0039 17.0061 30.1982 17.0061 25.5055C17.0061 20.8128 20.8122 17.0071 25.5045 17.0071C30.1972 17.0071 34.0029 20.8128 34.0029 25.5055C34.0029 30.1982 30.1972 34.0039 25.5045 34.0039Z" fill="#3CADEF"/>
<path d="M42.1829 11.8867C42.1829 13.5757 40.8134 14.9452 39.124 14.9452C37.4349 14.9452 36.0654 13.5757 36.0654 11.8867C36.0654 10.1972 37.4349 8.82812 39.124 8.82812C40.8134 8.82812 42.1829 10.1972 42.1829 11.8867Z" fill="#3CADEF"/>
</svg>
