<svg width="70" height="66" viewBox="0 0 70 66" fill="none" xmlns="http://www.w3.org/2000/svg">
<mask id="mask0_972_33" style="mask-type:alpha" maskUnits="userSpaceOnUse" x="0" y="0" width="70" height="66">
<rect width="70" height="66" fill="#C4C4C4"/>
</mask>
<g mask="url(#mask0_972_33)">
<path d="M67.9999 32.8574C66.898 32.8574 66.2405 32.2086 66.2405 31.1289V26.3289H69.9226V22.3274H66.109V17.9266H65.0343L60.8671 22.3319H55.0492L51.4352 28.2343V16.8877H46.2068V27.581C45.3135 24.124 42.3751 21.8329 38.5298 21.8329C37.31 21.8238 36.1083 22.1278 35.0382 22.713V21.9009L29.6602 21.9145V42.843H34.8296V36.9133C35.9496 37.5802 37.2284 37.925 38.5298 37.916C42.3751 37.916 45.3135 35.6158 46.2068 32.1542V37.4078H51.4306V31.0336L55.2306 37.4078H61.3976L56.1874 29.5183L58.2824 26.3334H61.0076V32.0226C61.0076 35.3753 63.0482 37.4078 66.4038 37.4078H69.9997V32.8574H67.9999ZM38.1489 33.3156C36.1899 33.3156 34.7525 31.8457 34.7525 29.8676C34.7525 27.885 36.1945 26.4196 38.1489 26.4196C40.1078 26.4196 41.5453 27.8895 41.5453 29.8676C41.5453 31.8502 40.0942 33.3156 38.1489 33.3156Z" fill="#141638"/>
<path d="M6.59344 21.4971H0.848145V27.2044H6.59344V21.4971Z" fill="#3CADEF"/>
<path d="M3.63672 15H0V18.6113H3.63672V15Z" fill="#3CADEF"/>
<path d="M13.3949 15.3584H9.47705V19.2465H13.3949V15.3584Z" fill="#3CADEF"/>
<path d="M7.57221 16.3296H5.61328V18.2759H7.57221V16.3296Z" fill="#3CADEF"/>
<path d="M24.9847 22.2407V34.6898C24.9847 35.1617 24.8894 35.629 24.708 36.0645C24.5267 36.5 24.2591 36.8947 23.9236 37.2305C23.588 37.5617 23.189 37.8293 22.7491 38.0063C22.3093 38.1877 21.8422 38.2785 21.3661 38.2785H8.83252V22.2407H24.9847Z" fill="#3CADEF"/>
<path d="M30.5142 50.2216C30.5142 53.5838 33.072 55.9325 36.225 55.9325C38.5576 55.9325 40.5685 54.7742 41.4211 52.5864H39.2172C38.622 53.7768 37.5602 54.3399 36.225 54.3399C34.005 54.3399 32.3963 52.7473 32.3963 50.2216C32.3963 47.696 34.005 46.1195 36.225 46.1195C37.5602 46.1195 38.622 46.6825 39.2172 47.8729H41.4211C40.5685 45.6851 38.5576 44.5108 36.225 44.5108C33.072 44.5108 30.5142 46.8755 30.5142 50.2216Z" fill="black"/>
<path d="M43.5677 55.836H45.4016V50.8812C45.4016 49.2564 46.2864 48.4199 47.6377 48.4199C48.9729 48.4199 49.8577 49.2564 49.8577 50.8812V55.836H51.6755V50.6077C51.6755 48.1303 50.1311 46.8273 48.1525 46.8273C47.0103 46.8273 46.0129 47.2616 45.4016 48.0016V43.9316H43.5677V55.836Z" fill="black"/>
<path d="M53.4034 51.3638C53.4034 54.0986 55.2534 55.9807 57.5539 55.9807C59.0339 55.9807 60.0956 55.2729 60.6586 54.5168V55.836H62.5086V46.9721H60.6586V48.259C60.1117 47.5351 59.0821 46.8273 57.586 46.8273C55.2534 46.8273 53.4034 48.629 53.4034 51.3638ZM60.6586 51.396C60.6586 53.3103 59.3556 54.3881 57.9721 54.3881C56.6047 54.3881 55.2856 53.2781 55.2856 51.3638C55.2856 49.4495 56.6047 48.4199 57.9721 48.4199C59.3556 48.4199 60.6586 49.4977 60.6586 51.396Z" fill="black"/>
<path d="M65.207 53.3747C65.207 55.1764 66.1883 55.836 67.7648 55.836H69.2126V54.3077H68.0865C67.3144 54.3077 67.057 54.0342 67.057 53.3747V48.4681H69.2126V46.9721H67.057V44.7682H65.207V46.9721H64.1613V48.4681H65.207V53.3747Z" fill="black"/>
</g>
</svg>
