<svg width="66" height="66" viewBox="0 0 66 66" fill="none" xmlns="http://www.w3.org/2000/svg">
<mask id="mask0_862_661" style="mask-type:alpha" maskUnits="userSpaceOnUse" x="0" y="0" width="66" height="66">
<rect width="66" height="66" fill="#C4C4C4"/>
</mask>
<g mask="url(#mask0_862_661)">
<path d="M59 16.338C57.5809 18.6675 55.7916 20.6291 53.6321 22.2229V23.6329C53.6321 38.7743 42.7113 56 22.6589 56C16.5506 56 10.8126 54.0384 6 50.8507C6.7404 51.0346 7.60419 51.0346 8.52969 51.0346C13.5274 51.2185 18.2165 49.2568 21.9802 46.2531C17.1059 46.2531 13.1572 42.8815 11.7381 38.2226C12.2934 38.4065 12.9721 38.4065 13.7125 38.4065C14.7613 38.4065 15.6868 38.2226 16.5506 38.0387C11.553 36.9966 7.78929 32.2151 7.78929 26.6979V26.514C9.39348 27.4335 10.9977 27.924 12.787 27.924C9.94878 25.7784 7.97439 22.4068 7.97439 18.2996C7.97439 16.338 8.52969 14.1925 9.39348 12.5986C14.7613 19.5257 22.844 24.3685 31.7905 24.8589C31.6054 23.9394 31.4203 23.0812 31.4203 22.1616C31.4203 15.9702 36.2945 10.8209 42.3411 11.0048C45.3644 11.0048 48.2643 12.4147 50.2386 14.7442C52.7683 14.1925 55.0512 13.3342 57.5809 11.9243C56.6554 14.6216 55.0512 16.7058 52.7683 18.177C54.9278 17.7479 57.0256 17.2575 59 16.338Z" fill="#3CADEF"/>
</g>
</svg>
