<svg width="66" height="66" viewBox="0 0 66 66" fill="none" xmlns="http://www.w3.org/2000/svg">
<mask id="mask0_921_6338" style="mask-type:alpha" maskUnits="userSpaceOnUse" x="0" y="0" width="66" height="66">
<rect width="66" height="66" fill="#C4C4C4"/>
</mask>
<g mask="url(#mask0_921_6338)">
<path d="M58.8874 20.0372C58.2649 17.7239 56.441 15.9005 54.1282 15.2775C49.9024 14.1211 32.9995 14.1211 32.9995 14.1211C32.9995 14.1211 16.0969 14.1211 11.8712 15.2335C9.60281 15.856 7.73446 17.7243 7.11195 20.0372C6 24.2625 6 33.0255 6 33.0255C6 33.0255 6 41.8325 7.11195 46.0137C7.73487 48.3266 9.55832 50.1505 11.8716 50.7734C16.1414 51.9298 32.9999 51.9298 32.9999 51.9298C32.9999 51.9298 49.9024 51.9298 54.1282 50.8175C56.4415 50.195 58.2649 48.3711 58.8878 46.0582C59.9998 41.8325 59.9998 33.07 59.9998 33.07C59.9998 33.07 60.0443 24.2625 58.8874 20.0372Z" fill="#3CADEF"/>
<path d="M27.6177 41.1208L41.6734 33.0252L27.6177 24.9297V41.1208Z" fill="white"/>
</g>
</svg>
