<svg width="45" height="45" viewBox="0 0 45 45" fill="none" xmlns="http://www.w3.org/2000/svg">
<path d="M22.4994 16.6421C19.2738 16.6421 16.6414 19.2744 16.6414 22.5C16.6414 25.7255 19.2738 28.3579 22.4994 28.3579C25.7249 28.3579 28.3573 25.7255 28.3573 22.5C28.3573 19.2744 25.7249 16.6421 22.4994 16.6421ZM40.0687 22.5C40.0687 20.0742 40.0907 17.6704 39.9544 15.249C39.8182 12.4365 39.1766 9.94039 37.12 7.88375C35.0589 5.82272 32.5672 5.18551 29.7547 5.04928C27.3289 4.91305 24.9251 4.93502 22.5037 4.93502C20.078 4.93502 17.6742 4.91305 15.2528 5.04928C12.4403 5.18551 9.94418 5.82711 7.88754 7.88375C5.8265 9.94479 5.1893 12.4365 5.05306 15.249C4.91683 17.6748 4.93881 20.0786 4.93881 22.5C4.93881 24.9214 4.91683 27.3296 5.05306 29.7509C5.1893 32.5634 5.8309 35.0595 7.88754 37.1162C9.94857 39.1772 12.4403 39.8144 15.2528 39.9506C17.6786 40.0869 20.0824 40.0649 22.5037 40.0649C24.9295 40.0649 27.3333 40.0869 29.7547 39.9506C32.5672 39.8144 35.0633 39.1728 37.12 37.1162C39.181 35.0551 39.8182 32.5634 39.9544 29.7509C40.0951 27.3296 40.0687 24.9257 40.0687 22.5ZM22.4994 31.5131C17.5116 31.5131 13.4862 27.4878 13.4862 22.5C13.4862 17.5122 17.5116 13.4868 22.4994 13.4868C27.4871 13.4868 31.5125 17.5122 31.5125 22.5C31.5125 27.4878 27.4871 31.5131 22.4994 31.5131ZM31.8817 15.2226C30.7171 15.2226 29.7767 14.2822 29.7767 13.1176C29.7767 11.9531 30.7171 11.0127 31.8817 11.0127C33.0462 11.0127 33.9867 11.9531 33.9867 13.1176C33.987 13.3942 33.9328 13.668 33.8271 13.9236C33.7215 14.1791 33.5664 14.4113 33.3709 14.6069C33.1754 14.8024 32.9432 14.9574 32.6876 15.0631C32.4321 15.1688 32.1582 15.223 31.8817 15.2226Z" fill="#3CADEF"/>
</svg>
