<svg width="45" height="45" viewBox="0 0 45 45" fill="none" xmlns="http://www.w3.org/2000/svg">
<g clip-path="url(#clip0)">
<path d="M1.18687 1.03231V43.9665H4.27641V45.0001H0V0.000126953H4.27641V1.03372L1.18687 1.03231ZM14.393 14.6406V16.8161H14.4506C14.991 16.0209 15.7076 15.3612 16.5445 14.8881C17.3588 14.4339 18.3038 14.2075 19.357 14.2075C20.3681 14.2075 21.2977 14.4058 22.1344 14.7939C22.9767 15.189 23.6067 15.8851 24.0455 16.8737C24.5222 16.1706 25.1747 15.5476 25.9861 15.0133C26.8003 14.4789 27.7678 14.2075 28.8872 14.2075C29.6843 14.1994 30.4784 14.3055 31.2455 14.5225C31.9781 14.7264 32.5941 15.0568 33.113 15.5111C33.6263 15.9737 34.0284 16.5672 34.3223 17.2998C34.6078 18.0311 34.7541 18.9184 34.7541 19.959V30.6958H30.3539V21.6001C30.3552 21.0912 30.3327 20.5825 30.2864 20.0758C30.2596 19.6447 30.1453 19.2236 29.9503 18.8383C29.7667 18.484 29.4805 18.1933 29.1291 18.0043C28.7705 17.7906 28.2727 17.6893 27.6567 17.6893C27.0338 17.6893 26.5359 17.8061 26.1548 18.0395C25.7813 18.2722 25.4719 18.5946 25.2548 18.9775C25.0295 19.3808 24.8825 19.8231 24.8217 20.2811C24.7507 20.7692 24.7117 21.2615 24.705 21.7548V30.6972H20.302V21.6958C20.302 21.219 20.295 20.7508 20.2669 20.2895C20.2541 19.8474 20.1622 19.4111 19.9955 19.0014C19.8487 18.609 19.5756 18.2766 19.2192 18.0564C18.8606 17.8215 18.3248 17.6978 17.6217 17.6978C17.4094 17.6978 17.1323 17.7414 16.7948 17.837C16.4573 17.9312 16.1213 18.107 15.8062 18.3643C15.4499 18.6714 15.1669 19.0544 14.978 19.4851C14.7516 19.9675 14.6419 20.6045 14.6419 21.3962V30.7056H10.2389V14.6448L14.393 14.6406ZM43.8131 43.9651V1.03091H40.7236V-0.00268555H45V44.9973H40.7236V43.9637L43.8131 43.9651Z" fill="#3CADEF"/>
</g>
<defs>
<clipPath id="clip0">
<rect width="45" height="45" fill="white"/>
</clipPath>
</defs>
</svg>
