<svg width="45" height="45" viewBox="0 0 45 45" fill="none" xmlns="http://www.w3.org/2000/svg">
<path d="M40.7817 11.1753C39.437 11.7554 37.9736 12.1729 36.4663 12.3355C38.0313 11.4057 39.2032 9.93693 39.7622 8.20461C38.2937 9.07819 36.6849 9.69077 35.0073 10.0152C34.3062 9.26556 33.4581 8.66841 32.5161 8.26089C31.574 7.85338 30.5581 7.64424 29.5317 7.6465C25.3789 7.6465 22.0391 11.0127 22.0391 15.1436C22.0391 15.7237 22.1094 16.3037 22.2236 16.8618C16.0054 16.5366 10.4595 13.5659 6.77246 9.0176C6.10065 10.1651 5.74859 11.4716 5.75293 12.8013C5.75293 15.4029 7.07568 17.6968 9.09277 19.0459C7.90407 18.9991 6.74321 18.6724 5.70459 18.0923V18.1846C5.70459 21.8277 8.27979 24.8467 11.7119 25.541C11.0675 25.7084 10.4046 25.7941 9.73877 25.7959C9.25098 25.7959 8.78955 25.7476 8.32373 25.6817C9.27295 28.6524 12.0371 30.8101 15.3286 30.8804C12.7534 32.8975 9.52783 34.084 6.02539 34.084C5.39697 34.084 4.81689 34.062 4.21484 33.9917C7.53711 36.1231 11.479 37.3535 15.7241 37.3535C29.5054 37.3535 37.0464 25.9365 37.0464 16.0269C37.0464 15.7017 37.0464 15.3765 37.0244 15.0513C38.4834 13.9834 39.7622 12.6607 40.7817 11.1753Z" fill="#3CADEF"/>
</svg>
